<svg width="21" height="19" viewBox="0 0 21 19" fill="none" xmlns="http://www.w3.org/2000/svg">
<path d="M21 0.179176C18.1418 -0.317486 15.9584 0.218385 14.4499 1.78679C12.9679 3.35519 12.2268 5.68165 12.2268 8.76618V19H21V9.55038H16.4348C16.2231 7.87741 16.4083 6.47892 16.9905 5.3549C17.5992 4.20474 18.7637 3.69501 20.4839 3.82571L21 0.179176ZM8.77316 0.179176C5.91493 -0.317486 3.73157 0.218385 2.22306 1.78679C0.741021 3.35519 0 5.68165 0 8.76618V19H8.77316V9.55038H4.20794C3.99622 7.87741 4.18147 6.47892 4.7637 5.3549C5.3724 4.20474 6.53686 3.69501 8.25709 3.82571L8.77316 0.179176Z" fill="#B1C0CF"/>
</svg>
