<svg width="99" height="78" viewBox="0 0 99 78" fill="none" xmlns="http://www.w3.org/2000/svg">
<path d="M17.983 3.18328C18.0843 2.64035 17.7262 2.11816 17.1833 2.01694L8.3357 0.36744C7.79277 0.266219 7.27059 0.624295 7.16936 1.16722C7.06814 1.71015 7.42622 2.23234 7.96915 2.33356L15.8336 3.79978L14.3674 11.6643C14.2662 12.2072 14.6243 12.7294 15.1672 12.8306C15.7101 12.9318 16.2323 12.5738 16.3335 12.0308L17.983 3.18328ZM16.4344 2.17527C11.8882 5.29275 6.77299 11.2931 3.64329 18.5984C0.506773 25.9195 -0.679053 34.6597 2.82481 43.1924C6.33077 51.7301 14.4546 59.8719 29.5534 66.1499C44.6437 72.4244 66.7759 76.8721 98.4644 77.9994L98.5356 76.0006C66.9738 74.8779 45.1059 70.4506 30.3212 64.3032C15.545 58.1593 7.91886 50.3324 4.6749 42.4326C1.42885 34.5278 2.49313 26.3617 5.48168 19.386C8.47703 12.3944 13.3619 6.70725 17.5655 3.82473L16.4344 2.17527Z" fill="url(#paint0_linear_326_1327)"/>
<defs>
<linearGradient id="paint0_linear_326_1327" x1="6.96038" y1="-58.42" x2="135.09" y2="-29.8451" gradientUnits="userSpaceOnUse">
<stop stop-color="#FF6785"/>
<stop offset="1" stop-color="#744CCC"/>
</linearGradient>
</defs>
</svg>
