<svg width="183" height="88" viewBox="0 0 183 88" fill="none" xmlns="http://www.w3.org/2000/svg">
<path d="M40.3828 7.58253C40.7046 6.81913 40.3465 5.93946 39.5831 5.61773L27.1427 0.374968C26.3793 0.0532455 25.4996 0.4113 25.1779 1.1747C24.8562 1.93811 25.2142 2.81778 25.9776 3.1395L37.0358 7.79974L32.3755 18.8579C32.0538 19.6213 32.4119 20.5009 33.1753 20.8227C33.9387 21.1444 34.8183 20.7863 35.1401 20.0229L40.3828 7.58253ZM38.4351 5.61068C25.9093 10.7091 16.7297 16.1005 10.5532 21.6337C4.37352 27.1698 1.10266 32.9411 0.65312 38.7674C0.202645 44.6058 2.60899 50.1839 7.12538 55.2721C11.6326 60.35 18.3111 65.0284 26.6468 69.1567C59.9433 85.647 121.039 94.0187 182.776 82.4744L182.224 79.5256C120.961 90.9813 60.5566 82.603 27.9783 66.4683C19.8453 62.4404 13.5316 57.9703 9.36902 53.2806C5.21555 48.6013 3.27431 43.7926 3.64423 38.9982C4.01508 34.1917 6.7326 29.0841 12.555 23.8682C18.3805 18.6495 27.2167 13.4159 39.5661 8.38932L38.4351 5.61068Z" fill="url(#paint0_linear_1598_12200)"/>
<defs>
<linearGradient id="paint0_linear_1598_12200" x1="11.9234" y1="-58.8402" x2="229.812" y2="25.6286" gradientUnits="userSpaceOnUse">
<stop stop-color="#FF6785"/>
<stop offset="1" stop-color="#744CCC"/>
</linearGradient>
</defs>
</svg>
