<svg width="21" height="19" viewBox="0 0 21 19" fill="none" xmlns="http://www.w3.org/2000/svg">
<path d="M0 18.8208C2.85822 19.3175 5.04159 18.7816 6.55009 17.2132C8.03214 15.6448 8.77316 13.3183 8.77316 10.2338V0H0V9.44962H4.56522C4.77694 11.1226 4.59168 12.5211 4.00945 13.6451C3.40076 14.7953 2.23629 15.305 0.516066 15.1743L0 18.8208ZM12.2268 18.8208C15.0851 19.3175 17.2684 18.7816 18.7769 17.2132C20.259 15.6448 21 13.3183 21 10.2338V0H12.2268V9.44962H16.7921C17.0038 11.1226 16.8185 12.5211 16.2363 13.6451C15.6276 14.7953 14.4631 15.305 12.7429 15.1743L12.2268 18.8208Z" fill="#B1C0CF"/>
</svg>
