<svg width="151" height="101" viewBox="0 0 151 101" fill="none" xmlns="http://www.w3.org/2000/svg">
<path d="M0.5 50.4283C0.5 51.2485 0.666914 52.0686 1.00074 52.8888C1.37166 53.6717 1.9095 54.3613 2.61424 54.9578L37.1654 86.2728C38.4266 87.4285 39.799 88.0063 41.2826 88.0063C42.8034 87.969 44.1016 87.3539 45.1773 86.161C46.253 84.968 46.7166 83.6259 46.5683 82.1348C46.4199 80.6063 45.7522 79.3015 44.5653 78.2204L14.0757 50.4283L44.5653 22.6363C45.7522 21.5552 46.4199 20.2504 46.5683 18.7219C46.7166 17.1934 46.253 15.8513 45.1773 14.6957C44.1016 13.5027 42.8034 12.8876 41.2826 12.8503C39.799 12.8131 38.4266 13.3722 37.1654 14.5279L2.61424 45.8988C1.9095 46.4953 1.37166 47.2036 1.00074 48.0238C0.666914 48.8067 0.5 49.6082 0.5 50.4283ZM60.9785 100.756C62.5734 101.203 64.02 101.036 65.3183 100.253C66.6536 99.5071 67.5438 98.3328 67.9889 96.7298L94.0831 6.97877C94.4911 5.48758 94.3613 4.10823 93.6936 2.84072C93.026 1.53593 91.8947 0.678492 90.2997 0.268414C88.7418 -0.178943 87.3323 -0.0671036 86.0712 0.603932C84.8101 1.23769 83.9013 2.46792 83.345 4.29463L57.4733 93.6542C56.9911 95.2572 57.0467 96.7298 57.6402 98.0719C58.2337 99.4512 59.3464 100.346 60.9785 100.756ZM150.5 50.4283C150.5 49.6082 150.333 48.8067 149.999 48.0238C149.665 47.2036 149.146 46.4953 148.441 45.8988L113.89 14.5279C112.592 13.3722 111.182 12.8131 109.662 12.8503C108.178 12.8876 106.917 13.5027 105.878 14.6957C104.84 15.8513 104.376 17.1934 104.487 18.7219C104.599 20.2504 105.266 21.5552 106.49 22.6363L136.98 50.4283L106.49 78.2204C105.266 79.3015 104.599 80.6063 104.487 82.1348C104.376 83.6259 104.84 84.968 105.878 86.161C106.917 87.3539 108.178 87.969 109.662 88.0063C111.182 88.0063 112.592 87.4285 113.89 86.2728L148.441 54.9578C149.146 54.3613 149.665 53.6717 149.999 52.8888C150.333 52.0686 150.5 51.2485 150.5 50.4283Z" fill="url(#paint0_linear_326_2868)"/>
<defs>
<linearGradient id="paint0_linear_326_2868" x1="8.6683" y1="-83.83" x2="204.514" y2="-34.2481" gradientUnits="userSpaceOnUse">
<stop stop-color="#FFA3B5"/>
<stop offset="1" stop-color="#9975E7"/>
</linearGradient>
</defs>
</svg>
