<svg width="959" height="488" viewBox="0 0 959 488" fill="none" xmlns="http://www.w3.org/2000/svg">
<path d="M8.5 332.505C7.94772 332.505 7.5 332.953 7.5 333.505C7.5 334.057 7.94772 334.505 8.5 334.505V332.505ZM101.934 334.599C102.486 334.585 102.922 334.126 102.908 333.574C102.894 333.022 102.435 332.586 101.883 332.6L101.934 334.599ZM8.5 334.505C31.8701 334.505 64.5064 335.553 101.934 334.599L101.883 332.6C64.4808 333.553 31.961 332.505 8.5 332.505V334.505Z" fill="#65D743"/>
<path d="M117.175 332.101C116.623 332.123 116.194 332.589 116.216 333.14C116.238 333.692 116.703 334.122 117.255 334.1L117.175 332.101ZM274.484 310.842C275.014 310.687 275.319 310.132 275.164 309.602C275.01 309.072 274.454 308.767 273.924 308.922L274.484 310.842ZM117.255 334.1C165.773 332.16 221.041 326.421 274.484 310.842L273.924 308.922C220.697 324.438 165.609 330.165 117.175 332.101L117.255 334.1Z" fill="#6380DC"/>
<path d="M291.119 303.536C290.596 303.711 290.314 304.278 290.49 304.802C290.665 305.325 291.232 305.607 291.756 305.432L291.119 303.536ZM417.85 230.033L418.549 230.747V230.747L417.85 230.033ZM421.236 228.128C421.633 227.744 421.642 227.111 421.258 226.714C420.873 226.318 420.24 226.308 419.844 226.693L421.236 228.128ZM291.756 305.432C338.006 289.901 382.184 266.354 418.549 230.747L417.15 229.318C381.051 264.663 337.16 288.075 291.119 303.536L291.756 305.432ZM418.549 230.747C419.446 229.869 420.342 228.996 421.236 228.128L419.844 226.693C418.947 227.563 418.049 228.438 417.15 229.318L418.549 230.747Z" fill="#794DCC"/>
<path d="M434.834 212.524C434.427 212.898 434.401 213.53 434.775 213.937C435.149 214.343 435.782 214.369 436.188 213.995L434.834 212.524ZM693.575 77.3311C694.115 77.2155 694.459 76.6839 694.343 76.1439C694.228 75.6038 693.696 75.2598 693.156 75.3754L693.575 77.3311ZM436.188 213.995C528.93 128.638 612.402 94.7128 693.575 77.3311L693.156 75.3754C611.671 92.824 527.865 126.899 434.834 212.524L436.188 213.995Z" fill="#D0319A"/>
<path d="M715.165 71.0318C714.622 71.1305 714.261 71.651 714.36 72.1944C714.459 72.7378 714.979 73.0983 715.522 72.9996L715.165 71.0318ZM832.422 57.166C832.97 57.0991 833.36 56.6005 833.293 56.0523C833.227 55.5041 832.728 55.1138 832.18 55.1807L832.422 57.166ZM715.522 72.9996C754.602 65.9023 793.282 61.9385 832.422 57.166L832.18 55.1807C793.09 59.947 754.32 63.9208 715.165 71.0318L715.522 72.9996Z" fill="#A45AA5"/>
<path d="M854.933 52.294C854.385 52.3668 854 52.8697 854.073 53.4171C854.146 53.9646 854.649 54.3494 855.196 54.2765L854.933 52.294ZM957.755 34.9668C958.289 34.8258 958.608 34.2786 958.467 33.7446C958.326 33.2107 957.779 32.8921 957.245 33.0332L957.755 34.9668ZM855.196 54.2765C888.803 49.8063 922.832 44.1905 957.755 34.9668L957.245 33.0332C922.436 42.2265 888.5 47.829 854.933 52.294L855.196 54.2765Z" fill="#5A9ADC"/>
<path d="M842.4 434.982H851.472V432.678H846.198L849.096 430.14C849.612 429.69 850.047 429.288 850.401 428.934C850.755 428.574 851.022 428.184 851.202 427.764C851.382 427.338 851.472 426.804 851.472 426.162C851.472 425.292 851.28 424.527 850.896 423.867C850.512 423.207 849.984 422.694 849.312 422.328C848.646 421.956 847.89 421.77 847.044 421.77C846.12 421.77 845.31 421.947 844.614 422.301C843.918 422.655 843.375 423.156 842.985 423.804C842.595 424.452 842.4 425.22 842.4 426.108H844.92C844.908 425.748 844.989 425.415 845.163 425.109C845.337 424.797 845.58 424.548 845.892 424.362C846.21 424.17 846.576 424.074 846.99 424.074C847.584 424.074 848.058 424.269 848.412 424.659C848.772 425.043 848.952 425.532 848.952 426.126C848.952 426.402 848.868 426.699 848.7 427.017C848.532 427.335 848.244 427.674 847.836 428.034L842.4 432.858V434.982ZM858.429 435.27C859.389 435.27 860.229 435.069 860.949 434.667C861.669 434.265 862.23 433.704 862.632 432.984C863.034 432.264 863.235 431.424 863.235 430.464V426.576C863.235 425.616 863.034 424.776 862.632 424.056C862.23 423.336 861.669 422.775 860.949 422.373C860.229 421.971 859.389 421.77 858.429 421.77C857.469 421.77 856.629 421.971 855.909 422.373C855.189 422.775 854.628 423.336 854.226 424.056C853.824 424.776 853.623 425.616 853.623 426.576V430.464C853.623 431.424 853.824 432.264 854.226 432.984C854.628 433.704 855.189 434.265 855.909 434.667C856.629 435.069 857.469 435.27 858.429 435.27ZM858.429 432.948C857.997 432.948 857.607 432.846 857.259 432.642C856.911 432.438 856.635 432.162 856.431 431.814C856.227 431.466 856.125 431.076 856.125 430.644V426.378C856.125 425.946 856.227 425.556 856.431 425.208C856.635 424.86 856.911 424.584 857.259 424.38C857.607 424.176 857.997 424.074 858.429 424.074C858.861 424.074 859.251 424.176 859.599 424.38C859.947 424.584 860.223 424.86 860.427 425.208C860.631 425.556 860.733 425.946 860.733 426.378V430.644C860.733 431.076 860.631 431.466 860.427 431.814C860.223 432.162 859.947 432.438 859.599 432.642C859.251 432.846 858.861 432.948 858.429 432.948ZM871.026 435H873.51V432.984H874.662V430.698H873.51V427.458H871.026V430.698H868.2L872.286 422.04H869.478L865.392 430.698V432.984H871.026V435ZM881.632 435.27C882.592 435.27 883.432 435.069 884.152 434.667C884.872 434.265 885.433 433.704 885.835 432.984C886.237 432.264 886.438 431.424 886.438 430.464V426.576C886.438 425.616 886.237 424.776 885.835 424.056C885.433 423.336 884.872 422.775 884.152 422.373C883.432 421.971 882.592 421.77 881.632 421.77C880.672 421.77 879.832 421.971 879.112 422.373C878.392 422.775 877.831 423.336 877.429 424.056C877.027 424.776 876.826 425.616 876.826 426.576V430.464C876.826 431.424 877.027 432.264 877.429 432.984C877.831 433.704 878.392 434.265 879.112 434.667C879.832 435.069 880.672 435.27 881.632 435.27ZM881.632 432.948C881.2 432.948 880.81 432.846 880.462 432.642C880.114 432.438 879.838 432.162 879.634 431.814C879.43 431.466 879.328 431.076 879.328 430.644V426.378C879.328 425.946 879.43 425.556 879.634 425.208C879.838 424.86 880.114 424.584 880.462 424.38C880.81 424.176 881.2 424.074 881.632 424.074C882.064 424.074 882.454 424.176 882.802 424.38C883.15 424.584 883.426 424.86 883.63 425.208C883.834 425.556 883.936 425.946 883.936 426.378V430.644C883.936 431.076 883.834 431.466 883.63 431.814C883.426 432.162 883.15 432.438 882.802 432.642C882.454 432.846 882.064 432.948 881.632 432.948Z" fill="#5A9ADC"/>
<path d="M173.337 353.991H181.95V352.461H175.803L179.979 348.708C180.423 348.312 180.789 347.94 181.077 347.592C181.371 347.238 181.59 346.854 181.734 346.44C181.878 346.026 181.95 345.537 181.95 344.973C181.95 344.175 181.764 343.461 181.392 342.831C181.026 342.195 180.525 341.694 179.889 341.328C179.253 340.956 178.533 340.77 177.729 340.77C176.901 340.77 176.16 340.95 175.506 341.31C174.852 341.664 174.336 342.156 173.958 342.786C173.586 343.41 173.4 344.13 173.4 344.946H175.038C175.032 344.472 175.143 344.037 175.371 343.641C175.605 343.239 175.923 342.915 176.325 342.669C176.727 342.423 177.186 342.3 177.702 342.3C178.2 342.3 178.644 342.417 179.034 342.651C179.43 342.885 179.742 343.203 179.97 343.605C180.198 344.007 180.312 344.457 180.312 344.955C180.312 345.363 180.228 345.762 180.06 346.152C179.898 346.542 179.577 346.95 179.097 347.376L173.346 352.551L173.337 353.991ZM184.283 356.016C184.841 356.118 185.273 356.01 185.579 355.692C185.891 355.374 186.047 354.9 186.047 354.27V351.966H184.283V354H185.21C185.24 354.36 185.201 354.666 185.093 354.918C184.991 355.176 184.754 355.293 184.382 355.269L184.283 356.016ZM193.667 354.27C194.471 354.27 195.209 354.075 195.881 353.685C196.559 353.289 197.102 352.764 197.51 352.11C197.918 351.45 198.122 350.721 198.122 349.923C198.122 349.119 197.936 348.396 197.564 347.754C197.192 347.106 196.688 346.596 196.052 346.224C195.416 345.846 194.696 345.657 193.892 345.657C192.98 345.657 192.173 345.936 191.471 346.494L191.705 342.561H197.222V341.04H190.265L189.869 347.817L191.291 348.357C191.525 348.021 191.843 347.733 192.245 347.493C192.653 347.253 193.142 347.133 193.712 347.133C194.216 347.133 194.681 347.256 195.107 347.502C195.533 347.748 195.872 348.084 196.124 348.51C196.382 348.93 196.511 349.401 196.511 349.923C196.511 350.427 196.385 350.892 196.133 351.318C195.887 351.738 195.554 352.077 195.134 352.335C194.714 352.587 194.24 352.713 193.712 352.713C193.112 352.713 192.551 352.527 192.029 352.155C191.513 351.777 191.174 351.27 191.012 350.634L189.473 351.048C189.647 351.678 189.935 352.236 190.337 352.722C190.745 353.208 191.234 353.589 191.804 353.865C192.38 354.135 193.001 354.27 193.667 354.27ZM207.658 347.25C208.252 347.25 208.792 347.106 209.278 346.818C209.77 346.524 210.163 346.134 210.457 345.648C210.751 345.156 210.898 344.61 210.898 344.01C210.898 343.41 210.751 342.867 210.457 342.381C210.163 341.889 209.77 341.499 209.278 341.211C208.792 340.917 208.252 340.77 207.658 340.77C207.082 340.77 206.548 340.917 206.056 341.211C205.564 341.505 205.168 341.898 204.868 342.39C204.568 342.882 204.418 343.422 204.418 344.01C204.418 344.61 204.565 345.156 204.859 345.648C205.153 346.134 205.543 346.524 206.029 346.818C206.521 347.106 207.064 347.25 207.658 347.25ZM206.038 354L217.936 342.12L216.856 341.04L204.958 352.92L206.038 354ZM207.658 345.837C207.166 345.837 206.737 345.657 206.371 345.297C206.011 344.931 205.831 344.502 205.831 344.01C205.831 343.512 206.011 343.083 206.371 342.723C206.737 342.363 207.166 342.183 207.658 342.183C208.156 342.183 208.585 342.363 208.945 342.723C209.305 343.083 209.485 343.512 209.485 344.01C209.485 344.502 209.305 344.931 208.945 345.297C208.585 345.657 208.156 345.837 207.658 345.837ZM215.236 354.27C215.83 354.27 216.37 354.126 216.856 353.838C217.348 353.544 217.741 353.154 218.035 352.668C218.329 352.176 218.476 351.63 218.476 351.03C218.476 350.43 218.329 349.887 218.035 349.401C217.741 348.909 217.348 348.519 216.856 348.231C216.37 347.937 215.83 347.79 215.236 347.79C214.66 347.79 214.126 347.937 213.634 348.231C213.142 348.525 212.746 348.918 212.446 349.41C212.146 349.902 211.996 350.442 211.996 351.03C211.996 351.63 212.14 352.176 212.428 352.668C212.722 353.154 213.115 353.544 213.607 353.838C214.099 354.126 214.642 354.27 215.236 354.27ZM215.236 352.857C214.744 352.857 214.315 352.677 213.949 352.317C213.589 351.951 213.409 351.522 213.409 351.03C213.409 350.532 213.589 350.103 213.949 349.743C214.315 349.383 214.744 349.203 215.236 349.203C215.734 349.203 216.163 349.383 216.523 349.743C216.883 350.103 217.063 350.532 217.063 351.03C217.063 351.522 216.883 351.951 216.523 352.317C216.163 352.677 215.734 352.857 215.236 352.857Z" fill="#31485F"/>
<path d="M1.76 435H4.244V426.36L9.878 435H12.362V422.04H9.878V430.68L4.244 422.04H1.76V435ZM19.2473 435.27C20.2193 435.27 21.0743 435.054 21.8123 434.622C22.5563 434.184 23.1353 433.581 23.5493 432.813C23.9693 432.039 24.1793 431.148 24.1793 430.14C24.1793 429.138 23.9723 428.253 23.5583 427.485C23.1443 426.711 22.5653 426.105 21.8213 425.667C21.0833 425.229 20.2253 425.01 19.2473 425.01C18.2873 425.01 17.4383 425.226 16.7003 425.658C15.9623 426.09 15.3833 426.693 14.9633 427.467C14.5433 428.235 14.3333 429.126 14.3333 430.14C14.3333 431.142 14.5373 432.03 14.9453 432.804C15.3593 433.572 15.9353 434.175 16.6733 434.613C17.4113 435.051 18.2693 435.27 19.2473 435.27ZM19.2473 432.984C18.4853 432.984 17.9063 432.729 17.5103 432.219C17.1203 431.703 16.9253 431.01 16.9253 430.14C16.9253 429.294 17.1113 428.61 17.4833 428.088C17.8613 427.56 18.4493 427.296 19.2473 427.296C20.0213 427.296 20.6033 427.554 20.9933 428.07C21.3893 428.586 21.5873 429.276 21.5873 430.14C21.5873 430.974 21.3923 431.658 21.0023 432.192C20.6183 432.72 20.0333 432.984 19.2473 432.984ZM27.8769 435H29.7489L31.8729 428.664L33.9969 435H35.8689L38.8389 425.28H36.4449L34.6809 431.076L32.8899 425.28H30.8559L29.0649 431.076L27.3009 425.28L24.9069 425.262L27.8769 435Z" fill="#65D743"/>
<path d="M4.652 462.584H6.076V461.208C7.13733 461.107 7.98533 460.749 8.62 460.136C9.25467 459.523 9.572 458.741 9.572 457.792C9.572 456.997 9.36133 456.363 8.94 455.888C8.51867 455.408 7.83333 455.027 6.884 454.744L4.724 454.104C4.09467 453.917 3.636 453.688 3.348 453.416C3.06 453.144 2.916 452.813 2.916 452.424C2.916 451.891 3.14267 451.451 3.596 451.104C4.04933 450.757 4.61733 450.589 5.3 450.6C6.02533 450.605 6.63867 450.819 7.14 451.24C7.64667 451.656 7.956 452.203 8.068 452.88L9.508 452.616C9.32667 451.699 8.93467 450.952 8.332 450.376C7.73467 449.8 6.98267 449.443 6.076 449.304V447.888H4.652V449.28C3.692 449.392 2.924 449.736 2.348 450.312C1.77733 450.883 1.492 451.608 1.492 452.488C1.492 453.875 2.27867 454.813 3.852 455.304L6.484 456.12C7.08667 456.307 7.51867 456.533 7.78 456.8C8.04133 457.067 8.172 457.419 8.172 457.856C8.172 458.453 7.92667 458.941 7.436 459.32C6.95067 459.699 6.31867 459.888 5.54 459.888C4.76133 459.888 4.09467 459.68 3.54 459.264C2.99067 458.848 2.63067 458.285 2.46 457.576L1.06 457.808C1.22 458.731 1.62 459.491 2.26 460.088C2.9 460.68 3.69733 461.045 4.652 461.184V462.584ZM17.0961 461H18.5441V449.48H17.0961L14.9281 450.776V452.368L17.0961 451.056V461ZM25.7961 461.24C26.5428 461.24 27.2095 461.072 27.7961 460.736C28.3828 460.4 28.8441 459.939 29.1801 459.352C29.5161 458.765 29.6841 458.099 29.6841 457.352V453.128C29.6841 452.381 29.5161 451.715 29.1801 451.128C28.8441 450.541 28.3828 450.08 27.7961 449.744C27.2095 449.408 26.5428 449.24 25.7961 449.24C25.0495 449.24 24.3828 449.408 23.7961 449.744C23.2095 450.08 22.7481 450.541 22.4121 451.128C22.0761 451.715 21.9081 452.381 21.9081 453.128V457.352C21.9081 458.099 22.0761 458.765 22.4121 459.352C22.7481 459.939 23.2095 460.4 23.7961 460.736C24.3828 461.072 25.0495 461.24 25.7961 461.24ZM25.7961 459.872C25.3481 459.872 24.9375 459.763 24.5641 459.544C24.1961 459.325 23.9028 459.032 23.6841 458.664C23.4655 458.291 23.3561 457.88 23.3561 457.432V453.04C23.3561 452.587 23.4655 452.176 23.6841 451.808C23.9028 451.44 24.1961 451.147 24.5641 450.928C24.9375 450.709 25.3481 450.6 25.7961 450.6C26.2495 450.6 26.6601 450.709 27.0281 450.928C27.3961 451.147 27.6895 451.44 27.9081 451.808C28.1268 452.176 28.2361 452.587 28.2361 453.04V457.432C28.2361 457.88 28.1268 458.291 27.9081 458.664C27.6895 459.032 27.3961 459.325 27.0281 459.544C26.6601 459.763 26.2495 459.872 25.7961 459.872ZM35.7589 461H37.1909V455.512C37.1909 454.877 37.3615 454.368 37.7029 453.984C38.0495 453.6 38.5055 453.408 39.0709 453.408C39.6362 453.408 40.0895 453.597 40.4309 453.976C40.7722 454.355 40.9429 454.872 40.9429 455.528L40.9349 461H42.3509L42.3589 455.512C42.3589 455.027 42.4495 454.629 42.6309 454.32C42.8122 454.011 43.0469 453.781 43.3349 453.632C43.6229 453.483 43.9269 453.408 44.2469 453.408C44.7909 453.408 45.2362 453.592 45.5829 453.96C45.9295 454.323 46.1029 454.827 46.1029 455.472L46.0949 461H47.5189L47.5269 455.16C47.5269 454.237 47.2682 453.504 46.7509 452.96C46.2335 452.411 45.5242 452.136 44.6229 452.136C44.0522 452.136 43.5375 452.264 43.0789 452.52C42.6202 452.771 42.2629 453.117 42.0069 453.56C41.7722 453.107 41.4389 452.757 41.0069 452.512C40.5749 452.261 40.0682 452.136 39.4869 452.136C38.9695 452.136 38.4975 452.24 38.0709 452.448C37.6495 452.651 37.3029 452.928 37.0309 453.28V452.36H35.7589V461ZM50.0906 461H51.5146V449.24H50.0906V461ZM54.227 461H55.667V456.448C55.667 455.445 55.883 454.701 56.315 454.216C56.7523 453.731 57.3283 453.488 58.043 453.488C58.651 453.488 59.1257 453.64 59.467 453.944C59.8083 454.248 60.0457 454.643 60.179 455.128C60.3177 455.613 60.387 456.128 60.387 456.672V461H61.827V456.224C61.827 455.813 61.7763 455.373 61.675 454.904C61.579 454.429 61.403 453.984 61.147 453.568C60.8963 453.147 60.547 452.803 60.099 452.536C59.6563 452.269 59.0857 452.136 58.387 452.136C57.1283 452.136 56.1683 452.581 55.507 453.472V452.36H54.227V461ZM5.26 483.24C6.15067 483.24 6.91333 483.027 7.548 482.6C8.18267 482.173 8.652 481.557 8.956 480.752L7.516 480.376C7.116 481.384 6.364 481.888 5.26 481.888C4.40133 481.888 3.75333 481.595 3.316 481.008C2.884 480.421 2.66267 479.645 2.652 478.68C2.66267 477.741 2.87867 476.973 3.3 476.376C3.72133 475.773 4.37467 475.472 5.26 475.472C5.78267 475.472 6.24933 475.611 6.66 475.888C7.07067 476.165 7.36667 476.555 7.548 477.056L8.956 476.632C8.72667 475.853 8.28133 475.24 7.62 474.792C6.964 474.344 6.18267 474.12 5.276 474.12C4.412 474.12 3.67067 474.315 3.052 474.704C2.43867 475.088 1.96933 475.621 1.644 476.304C1.31867 476.987 1.15067 477.779 1.14 478.68C1.15067 479.56 1.316 480.344 1.636 481.032C1.956 481.72 2.42 482.261 3.028 482.656C3.64133 483.045 4.38533 483.24 5.26 483.24ZM13.2866 483.24C14.7266 483.24 15.7933 482.712 16.4866 481.656V483H17.7506V477.656C17.7506 477.315 17.7346 476.989 17.7026 476.68C17.6706 476.365 17.5933 476.075 17.4706 475.808C17.2253 475.243 16.82 474.821 16.2546 474.544C15.6893 474.261 15.0173 474.12 14.2386 474.12C13.2626 474.12 12.4733 474.336 11.8706 474.768C11.2733 475.2 10.8733 475.795 10.6706 476.552L12.0226 476.96C12.1773 476.432 12.452 476.048 12.8466 475.808C13.2413 475.568 13.7 475.448 14.2226 475.448C14.9693 475.448 15.5053 475.616 15.8306 475.952C16.1613 476.283 16.3346 476.792 16.3506 477.48C15.7106 477.571 15.0386 477.667 14.3346 477.768C13.636 477.864 13.0146 477.984 12.4706 478.128C11.8146 478.32 11.2973 478.621 10.9186 479.032C10.54 479.437 10.3506 479.981 10.3506 480.664C10.3506 481.128 10.46 481.555 10.6786 481.944C10.9026 482.333 11.2306 482.648 11.6626 482.888C12.1 483.123 12.6413 483.24 13.2866 483.24ZM13.5026 482.048C12.8893 482.048 12.4466 481.907 12.1746 481.624C11.9026 481.336 11.7666 481.013 11.7666 480.656C11.7666 480.251 11.9 479.941 12.1666 479.728C12.4386 479.509 12.7533 479.344 13.1106 479.232C13.532 479.115 14.0226 479.016 14.5826 478.936C15.1426 478.856 15.7266 478.776 16.3346 478.696C16.3346 478.893 16.324 479.117 16.3026 479.368C16.2866 479.619 16.2493 479.848 16.1906 480.056C16.0893 480.589 15.8066 481.056 15.3426 481.456C14.884 481.851 14.2706 482.048 13.5026 482.048ZM20.1426 486.84H21.5746V482.2C21.884 482.525 22.2493 482.781 22.6706 482.968C23.0973 483.149 23.58 483.24 24.1186 483.24C24.924 483.24 25.6146 483.04 26.1906 482.64C26.772 482.235 27.2173 481.688 27.5266 481C27.836 480.312 27.9906 479.536 27.9906 478.672C27.9906 477.808 27.836 477.032 27.5266 476.344C27.2173 475.656 26.772 475.115 26.1906 474.72C25.6146 474.32 24.9266 474.12 24.1266 474.12C23.54 474.12 23.02 474.227 22.5666 474.44C22.1133 474.653 21.7293 474.949 21.4146 475.328V474.36H20.1426V486.84ZM23.9426 481.936C23.0733 481.936 22.4333 481.629 22.0226 481.016C21.6173 480.403 21.4146 479.621 21.4146 478.672C21.4146 477.717 21.6173 476.939 22.0226 476.336C22.4333 475.728 23.06 475.424 23.9026 475.424C24.4893 475.424 24.972 475.568 25.3506 475.856C25.7346 476.144 26.0173 476.533 26.1986 477.024C26.3853 477.515 26.4786 478.064 26.4786 478.672C26.4786 479.285 26.3853 479.84 26.1986 480.336C26.012 480.827 25.732 481.216 25.3586 481.504C24.9853 481.792 24.5133 481.936 23.9426 481.936Z" fill="#31485F"/>
<path d="M108.26 435H110.708V430.608H113.435L115.568 435H118.34L116 430.194C116.738 429.858 117.281 429.351 117.629 428.673C117.983 427.989 118.16 427.206 118.16 426.324C118.16 425.232 117.893 424.302 117.359 423.534C116.825 422.766 115.976 422.292 114.812 422.112C114.644 422.082 114.452 422.064 114.236 422.058C114.026 422.046 113.858 422.04 113.732 422.04H108.26V435ZM110.708 428.322V424.326H113.624C113.75 424.326 113.888 424.332 114.038 424.344C114.188 424.356 114.326 424.38 114.452 424.416C114.782 424.506 115.037 424.659 115.217 424.875C115.397 425.085 115.52 425.322 115.586 425.586C115.658 425.844 115.694 426.09 115.694 426.324C115.694 426.558 115.658 426.807 115.586 427.071C115.52 427.329 115.397 427.566 115.217 427.782C115.037 427.992 114.782 428.142 114.452 428.232C114.326 428.268 114.188 428.292 114.038 428.304C113.888 428.316 113.75 428.322 113.624 428.322H110.708ZM124.837 435.27C125.773 435.27 126.634 435.024 127.42 434.532C128.212 434.04 128.791 433.35 129.157 432.462L126.709 431.76C126.337 432.576 125.665 432.984 124.693 432.984C124.027 432.984 123.502 432.798 123.118 432.426C122.74 432.054 122.506 431.52 122.416 430.824H129.238C129.34 429.648 129.22 428.625 128.878 427.755C128.536 426.885 128.008 426.21 127.294 425.73C126.58 425.25 125.713 425.01 124.693 425.01C123.733 425.01 122.884 425.229 122.146 425.667C121.408 426.099 120.829 426.708 120.409 427.494C119.989 428.28 119.779 429.204 119.779 430.266C119.779 431.238 119.992 432.102 120.418 432.858C120.85 433.608 121.444 434.199 122.2 434.631C122.962 435.057 123.841 435.27 124.837 435.27ZM124.801 427.134C125.389 427.134 125.839 427.281 126.151 427.575C126.469 427.869 126.673 428.346 126.763 429.006H122.479C122.737 427.758 123.511 427.134 124.801 427.134ZM131.45 435H133.898V421.77H131.45V435ZM141.114 435.27C142.05 435.27 142.911 435.024 143.697 434.532C144.489 434.04 145.068 433.35 145.434 432.462L142.986 431.76C142.614 432.576 141.942 432.984 140.97 432.984C140.304 432.984 139.779 432.798 139.395 432.426C139.017 432.054 138.783 431.52 138.693 430.824H145.515C145.617 429.648 145.497 428.625 145.155 427.755C144.813 426.885 144.285 426.21 143.571 425.73C142.857 425.25 141.99 425.01 140.97 425.01C140.01 425.01 139.161 425.229 138.423 425.667C137.685 426.099 137.106 426.708 136.686 427.494C136.266 428.28 136.056 429.204 136.056 430.266C136.056 431.238 136.269 432.102 136.695 432.858C137.127 433.608 137.721 434.199 138.477 434.631C139.239 435.057 140.118 435.27 141.114 435.27ZM141.078 427.134C141.666 427.134 142.116 427.281 142.428 427.575C142.746 427.869 142.95 428.346 143.04 429.006H138.756C139.014 427.758 139.788 427.134 141.078 427.134ZM150.071 435.27C150.821 435.27 151.451 435.156 151.961 434.928C152.477 434.694 152.951 434.322 153.383 433.812V435H155.525V429.06C155.525 428.616 155.507 428.214 155.471 427.854C155.435 427.494 155.321 427.134 155.129 426.774C154.787 426.126 154.283 425.67 153.617 425.406C152.951 425.142 152.189 425.01 151.331 425.01C150.161 425.01 149.237 425.262 148.559 425.766C147.881 426.27 147.419 426.924 147.173 427.728L149.387 428.43C149.543 427.986 149.816 427.677 150.206 427.503C150.596 427.329 150.971 427.242 151.331 427.242C151.907 427.242 152.336 427.35 152.618 427.566C152.9 427.776 153.065 428.109 153.113 428.565C152.201 428.697 151.397 428.826 150.701 428.952C150.005 429.072 149.423 429.216 148.955 429.384C148.175 429.672 147.626 430.065 147.308 430.563C146.99 431.055 146.831 431.64 146.831 432.318C146.831 432.858 146.954 433.353 147.2 433.803C147.452 434.247 147.818 434.604 148.298 434.874C148.784 435.138 149.375 435.27 150.071 435.27ZM150.593 433.344C150.173 433.344 149.84 433.251 149.594 433.065C149.348 432.873 149.225 432.612 149.225 432.282C149.225 432.036 149.303 431.826 149.459 431.652C149.615 431.472 149.873 431.31 150.233 431.166C150.509 431.064 150.848 430.971 151.25 430.887C151.658 430.797 152.273 430.683 153.095 430.545C153.089 430.779 153.071 431.037 153.041 431.319C153.011 431.595 152.945 431.838 152.843 432.048C152.777 432.186 152.651 432.357 152.465 432.561C152.285 432.765 152.039 432.948 151.727 433.11C151.421 433.266 151.043 433.344 150.593 433.344ZM161.663 435.27C162.935 435.27 163.931 434.985 164.651 434.415C165.371 433.845 165.731 433.062 165.731 432.066C165.731 431.31 165.497 430.713 165.029 430.275C164.567 429.837 163.781 429.474 162.671 429.186C161.915 428.994 161.351 428.838 160.979 428.718C160.613 428.598 160.37 428.481 160.25 428.367C160.136 428.253 160.079 428.112 160.079 427.944C160.079 427.662 160.214 427.446 160.484 427.296C160.76 427.146 161.123 427.086 161.573 427.116C162.527 427.188 163.049 427.596 163.139 428.34L165.641 427.89C165.515 427.008 165.083 426.309 164.345 425.793C163.607 425.271 162.665 425.01 161.519 425.01C160.343 425.01 159.404 425.286 158.702 425.838C158 426.39 157.649 427.134 157.649 428.07C157.649 428.814 157.892 429.402 158.378 429.834C158.864 430.26 159.701 430.626 160.889 430.932C161.591 431.118 162.107 431.268 162.437 431.382C162.773 431.496 162.989 431.613 163.085 431.733C163.181 431.847 163.229 432 163.229 432.192C163.229 432.498 163.109 432.738 162.869 432.912C162.629 433.08 162.287 433.164 161.843 433.164C161.303 433.164 160.856 433.035 160.502 432.777C160.154 432.519 159.929 432.162 159.827 431.706L157.325 432.084C157.487 433.098 157.943 433.884 158.693 434.442C159.449 434.994 160.439 435.27 161.663 435.27ZM172.227 435.27C173.163 435.27 174.024 435.024 174.81 434.532C175.602 434.04 176.181 433.35 176.547 432.462L174.099 431.76C173.727 432.576 173.055 432.984 172.083 432.984C171.417 432.984 170.892 432.798 170.508 432.426C170.13 432.054 169.896 431.52 169.806 430.824H176.628C176.73 429.648 176.61 428.625 176.268 427.755C175.926 426.885 175.398 426.21 174.684 425.73C173.97 425.25 173.103 425.01 172.083 425.01C171.123 425.01 170.274 425.229 169.536 425.667C168.798 426.099 168.219 426.708 167.799 427.494C167.379 428.28 167.169 429.204 167.169 430.266C167.169 431.238 167.382 432.102 167.808 432.858C168.24 433.608 168.834 434.199 169.59 434.631C170.352 435.057 171.231 435.27 172.227 435.27ZM172.191 427.134C172.779 427.134 173.229 427.281 173.541 427.575C173.859 427.869 174.063 428.346 174.153 429.006H169.869C170.127 427.758 170.901 427.134 172.191 427.134ZM181.904 434.982H190.976V432.678H185.702L188.6 430.14C189.116 429.69 189.551 429.288 189.905 428.934C190.259 428.574 190.526 428.184 190.706 427.764C190.886 427.338 190.976 426.804 190.976 426.162C190.976 425.292 190.784 424.527 190.4 423.867C190.016 423.207 189.488 422.694 188.816 422.328C188.15 421.956 187.394 421.77 186.548 421.77C185.624 421.77 184.814 421.947 184.118 422.301C183.422 422.655 182.879 423.156 182.489 423.804C182.099 424.452 181.904 425.22 181.904 426.108H184.424C184.412 425.748 184.493 425.415 184.667 425.109C184.841 424.797 185.084 424.548 185.396 424.362C185.714 424.17 186.08 424.074 186.494 424.074C187.088 424.074 187.562 424.269 187.916 424.659C188.276 425.043 188.456 425.532 188.456 426.126C188.456 426.402 188.372 426.699 188.204 427.017C188.036 427.335 187.748 427.674 187.34 428.034L181.904 432.858V434.982ZM197.933 435.27C198.893 435.27 199.733 435.069 200.453 434.667C201.173 434.265 201.734 433.704 202.136 432.984C202.538 432.264 202.739 431.424 202.739 430.464V426.576C202.739 425.616 202.538 424.776 202.136 424.056C201.734 423.336 201.173 422.775 200.453 422.373C199.733 421.971 198.893 421.77 197.933 421.77C196.973 421.77 196.133 421.971 195.413 422.373C194.693 422.775 194.132 423.336 193.73 424.056C193.328 424.776 193.127 425.616 193.127 426.576V430.464C193.127 431.424 193.328 432.264 193.73 432.984C194.132 433.704 194.693 434.265 195.413 434.667C196.133 435.069 196.973 435.27 197.933 435.27ZM197.933 432.948C197.501 432.948 197.111 432.846 196.763 432.642C196.415 432.438 196.139 432.162 195.935 431.814C195.731 431.466 195.629 431.076 195.629 430.644V426.378C195.629 425.946 195.731 425.556 195.935 425.208C196.139 424.86 196.415 424.584 196.763 424.38C197.111 424.176 197.501 424.074 197.933 424.074C198.365 424.074 198.755 424.176 199.103 424.38C199.451 424.584 199.727 424.86 199.931 425.208C200.135 425.556 200.237 425.946 200.237 426.378V430.644C200.237 431.076 200.135 431.466 199.931 431.814C199.727 432.162 199.451 432.438 199.103 432.642C198.755 432.846 198.365 432.948 197.933 432.948ZM204.896 434.982H213.968V432.678H208.694L211.592 430.14C212.108 429.69 212.543 429.288 212.897 428.934C213.251 428.574 213.518 428.184 213.698 427.764C213.878 427.338 213.968 426.804 213.968 426.162C213.968 425.292 213.776 424.527 213.392 423.867C213.008 423.207 212.48 422.694 211.808 422.328C211.142 421.956 210.386 421.77 209.54 421.77C208.616 421.77 207.806 421.947 207.11 422.301C206.414 422.655 205.871 423.156 205.481 423.804C205.091 424.452 204.896 425.22 204.896 426.108H207.416C207.404 425.748 207.485 425.415 207.659 425.109C207.833 424.797 208.076 424.548 208.388 424.362C208.706 424.17 209.072 424.074 209.486 424.074C210.08 424.074 210.554 424.269 210.908 424.659C211.268 425.043 211.448 425.532 211.448 426.126C211.448 426.402 211.364 426.699 211.196 427.017C211.028 427.335 210.74 427.674 210.332 428.034L204.896 432.858V434.982ZM215.759 434.982H224.831V432.678H219.557L222.455 430.14C222.971 429.69 223.406 429.288 223.76 428.934C224.114 428.574 224.381 428.184 224.561 427.764C224.741 427.338 224.831 426.804 224.831 426.162C224.831 425.292 224.639 424.527 224.255 423.867C223.871 423.207 223.343 422.694 222.671 422.328C222.005 421.956 221.249 421.77 220.403 421.77C219.479 421.77 218.669 421.947 217.973 422.301C217.277 422.655 216.734 423.156 216.344 423.804C215.954 424.452 215.759 425.22 215.759 426.108H218.279C218.267 425.748 218.348 425.415 218.522 425.109C218.696 424.797 218.939 424.548 219.251 424.362C219.569 424.17 219.935 424.074 220.349 424.074C220.943 424.074 221.417 424.269 221.771 424.659C222.131 425.043 222.311 425.532 222.311 426.126C222.311 426.402 222.227 426.699 222.059 427.017C221.891 427.335 221.603 427.674 221.195 428.034L215.759 432.858V434.982Z" fill="#6380DC"/>
<path d="M111.152 462.584H112.576V461.208C113.637 461.107 114.485 460.749 115.12 460.136C115.755 459.523 116.072 458.741 116.072 457.792C116.072 456.997 115.861 456.363 115.44 455.888C115.019 455.408 114.333 455.027 113.384 454.744L111.224 454.104C110.595 453.917 110.136 453.688 109.848 453.416C109.56 453.144 109.416 452.813 109.416 452.424C109.416 451.891 109.643 451.451 110.096 451.104C110.549 450.757 111.117 450.589 111.8 450.6C112.525 450.605 113.139 450.819 113.64 451.24C114.147 451.656 114.456 452.203 114.568 452.88L116.008 452.616C115.827 451.699 115.435 450.952 114.832 450.376C114.235 449.8 113.483 449.443 112.576 449.304V447.888H111.152V449.28C110.192 449.392 109.424 449.736 108.848 450.312C108.277 450.883 107.992 451.608 107.992 452.488C107.992 453.875 108.779 454.813 110.352 455.304L112.984 456.12C113.587 456.307 114.019 456.533 114.28 456.8C114.541 457.067 114.672 457.419 114.672 457.856C114.672 458.453 114.427 458.941 113.936 459.32C113.451 459.699 112.819 459.888 112.04 459.888C111.261 459.888 110.595 459.68 110.04 459.264C109.491 458.848 109.131 458.285 108.96 457.576L107.56 457.808C107.72 458.731 108.12 459.491 108.76 460.088C109.4 460.68 110.197 461.045 111.152 461.184V462.584ZM123.596 461H125.044V449.48H123.596L121.428 450.776V452.368L123.596 451.056V461ZM132.296 461.24C133.043 461.24 133.709 461.072 134.296 460.736C134.883 460.4 135.344 459.939 135.68 459.352C136.016 458.765 136.184 458.099 136.184 457.352V453.128C136.184 452.381 136.016 451.715 135.68 451.128C135.344 450.541 134.883 450.08 134.296 449.744C133.709 449.408 133.043 449.24 132.296 449.24C131.549 449.24 130.883 449.408 130.296 449.744C129.709 450.08 129.248 450.541 128.912 451.128C128.576 451.715 128.408 452.381 128.408 453.128V457.352C128.408 458.099 128.576 458.765 128.912 459.352C129.248 459.939 129.709 460.4 130.296 460.736C130.883 461.072 131.549 461.24 132.296 461.24ZM132.296 459.872C131.848 459.872 131.437 459.763 131.064 459.544C130.696 459.325 130.403 459.032 130.184 458.664C129.965 458.291 129.856 457.88 129.856 457.432V453.04C129.856 452.587 129.965 452.176 130.184 451.808C130.403 451.44 130.696 451.147 131.064 450.928C131.437 450.709 131.848 450.6 132.296 450.6C132.749 450.6 133.16 450.709 133.528 450.928C133.896 451.147 134.189 451.44 134.408 451.808C134.627 452.176 134.736 452.587 134.736 453.04V457.432C134.736 457.88 134.627 458.291 134.408 458.664C134.189 459.032 133.896 459.325 133.528 459.544C133.16 459.763 132.749 459.872 132.296 459.872ZM142.632 461.24C143.378 461.24 144.045 461.072 144.632 460.736C145.218 460.4 145.68 459.939 146.016 459.352C146.352 458.765 146.52 458.099 146.52 457.352V453.128C146.52 452.381 146.352 451.715 146.016 451.128C145.68 450.541 145.218 450.08 144.632 449.744C144.045 449.408 143.378 449.24 142.632 449.24C141.885 449.24 141.218 449.408 140.632 449.744C140.045 450.08 139.584 450.541 139.248 451.128C138.912 451.715 138.744 452.381 138.744 453.128V457.352C138.744 458.099 138.912 458.765 139.248 459.352C139.584 459.939 140.045 460.4 140.632 460.736C141.218 461.072 141.885 461.24 142.632 461.24ZM142.632 459.872C142.184 459.872 141.773 459.763 141.4 459.544C141.032 459.325 140.738 459.032 140.52 458.664C140.301 458.291 140.192 457.88 140.192 457.432V453.04C140.192 452.587 140.301 452.176 140.52 451.808C140.738 451.44 141.032 451.147 141.4 450.928C141.773 450.709 142.184 450.6 142.632 450.6C143.085 450.6 143.496 450.709 143.864 450.928C144.232 451.147 144.525 451.44 144.744 451.808C144.962 452.176 145.072 452.587 145.072 453.04V457.432C145.072 457.88 144.962 458.291 144.744 458.664C144.525 459.032 144.232 459.325 143.864 459.544C143.496 459.763 143.085 459.872 142.632 459.872ZM152.594 461H154.026V455.512C154.026 454.877 154.197 454.368 154.538 453.984C154.885 453.6 155.341 453.408 155.906 453.408C156.472 453.408 156.925 453.597 157.266 453.976C157.608 454.355 157.778 454.872 157.778 455.528L157.77 461H159.186L159.194 455.512C159.194 455.027 159.285 454.629 159.466 454.32C159.648 454.011 159.882 453.781 160.17 453.632C160.458 453.483 160.762 453.408 161.082 453.408C161.626 453.408 162.072 453.592 162.418 453.96C162.765 454.323 162.938 454.827 162.938 455.472L162.93 461H164.354L164.362 455.16C164.362 454.237 164.104 453.504 163.586 452.96C163.069 452.411 162.36 452.136 161.458 452.136C160.888 452.136 160.373 452.264 159.914 452.52C159.456 452.771 159.098 453.117 158.842 453.56C158.608 453.107 158.274 452.757 157.842 452.512C157.41 452.261 156.904 452.136 156.322 452.136C155.805 452.136 155.333 452.24 154.906 452.448C154.485 452.651 154.138 452.928 153.866 453.28V452.36H152.594V461ZM166.926 461H168.35V449.24H166.926V461ZM171.063 461H172.503V456.448C172.503 455.445 172.719 454.701 173.151 454.216C173.588 453.731 174.164 453.488 174.879 453.488C175.487 453.488 175.961 453.64 176.303 453.944C176.644 454.248 176.881 454.643 177.015 455.128C177.153 455.613 177.223 456.128 177.223 456.672V461H178.663V456.224C178.663 455.813 178.612 455.373 178.511 454.904C178.415 454.429 178.239 453.984 177.983 453.568C177.732 453.147 177.383 452.803 176.935 452.536C176.492 452.269 175.921 452.136 175.223 452.136C173.964 452.136 173.004 452.581 172.343 453.472V452.36H171.063V461ZM188.226 461.24C189.116 461.24 189.879 461.027 190.514 460.6C191.148 460.173 191.618 459.557 191.922 458.752L190.482 458.376C190.082 459.384 189.33 459.888 188.226 459.888C187.367 459.888 186.719 459.595 186.282 459.008C185.85 458.421 185.628 457.645 185.618 456.68C185.628 455.741 185.844 454.973 186.266 454.376C186.687 453.773 187.34 453.472 188.226 453.472C188.748 453.472 189.215 453.611 189.626 453.888C190.036 454.165 190.332 454.555 190.514 455.056L191.922 454.632C191.692 453.853 191.247 453.24 190.586 452.792C189.93 452.344 189.148 452.12 188.242 452.12C187.378 452.12 186.636 452.315 186.018 452.704C185.404 453.088 184.935 453.621 184.61 454.304C184.284 454.987 184.116 455.779 184.106 456.68C184.116 457.56 184.282 458.344 184.602 459.032C184.922 459.72 185.386 460.261 185.994 460.656C186.607 461.045 187.351 461.24 188.226 461.24ZM196.252 461.24C197.692 461.24 198.759 460.712 199.452 459.656V461H200.716V455.656C200.716 455.315 200.7 454.989 200.668 454.68C200.636 454.365 200.559 454.075 200.436 453.808C200.191 453.243 199.786 452.821 199.22 452.544C198.655 452.261 197.983 452.12 197.204 452.12C196.228 452.12 195.439 452.336 194.836 452.768C194.239 453.2 193.839 453.795 193.636 454.552L194.988 454.96C195.143 454.432 195.418 454.048 195.812 453.808C196.207 453.568 196.666 453.448 197.188 453.448C197.935 453.448 198.471 453.616 198.796 453.952C199.127 454.283 199.3 454.792 199.316 455.48C198.676 455.571 198.004 455.667 197.3 455.768C196.602 455.864 195.98 455.984 195.436 456.128C194.78 456.32 194.263 456.621 193.884 457.032C193.506 457.437 193.316 457.981 193.316 458.664C193.316 459.128 193.426 459.555 193.644 459.944C193.868 460.333 194.196 460.648 194.628 460.888C195.066 461.123 195.607 461.24 196.252 461.24ZM196.468 460.048C195.855 460.048 195.412 459.907 195.14 459.624C194.868 459.336 194.732 459.013 194.732 458.656C194.732 458.251 194.866 457.941 195.132 457.728C195.404 457.509 195.719 457.344 196.076 457.232C196.498 457.115 196.988 457.016 197.548 456.936C198.108 456.856 198.692 456.776 199.3 456.696C199.3 456.893 199.29 457.117 199.268 457.368C199.252 457.619 199.215 457.848 199.156 458.056C199.055 458.589 198.772 459.056 198.308 459.456C197.85 459.851 197.236 460.048 196.468 460.048ZM203.108 464.84H204.54V460.2C204.85 460.525 205.215 460.781 205.636 460.968C206.063 461.149 206.546 461.24 207.084 461.24C207.89 461.24 208.58 461.04 209.156 460.64C209.738 460.235 210.183 459.688 210.492 459C210.802 458.312 210.956 457.536 210.956 456.672C210.956 455.808 210.802 455.032 210.492 454.344C210.183 453.656 209.738 453.115 209.156 452.72C208.58 452.32 207.892 452.12 207.092 452.12C206.506 452.12 205.986 452.227 205.532 452.44C205.079 452.653 204.695 452.949 204.38 453.328V452.36H203.108V464.84ZM206.908 459.936C206.039 459.936 205.399 459.629 204.988 459.016C204.583 458.403 204.38 457.621 204.38 456.672C204.38 455.717 204.583 454.939 204.988 454.336C205.399 453.728 206.026 453.424 206.868 453.424C207.455 453.424 207.938 453.568 208.316 453.856C208.7 454.144 208.983 454.533 209.164 455.024C209.351 455.515 209.444 456.064 209.444 456.672C209.444 457.285 209.351 457.84 209.164 458.336C208.978 458.827 208.698 459.216 208.324 459.504C207.951 459.792 207.479 459.936 206.908 459.936Z" fill="#31485F"/>
<path d="M282.4 434.982H291.472V432.678H286.198L289.096 430.14C289.612 429.69 290.047 429.288 290.401 428.934C290.755 428.574 291.022 428.184 291.202 427.764C291.382 427.338 291.472 426.804 291.472 426.162C291.472 425.292 291.28 424.527 290.896 423.867C290.512 423.207 289.984 422.694 289.312 422.328C288.646 421.956 287.89 421.77 287.044 421.77C286.12 421.77 285.31 421.947 284.614 422.301C283.918 422.655 283.375 423.156 282.985 423.804C282.595 424.452 282.4 425.22 282.4 426.108H284.92C284.908 425.748 284.989 425.415 285.163 425.109C285.337 424.797 285.58 424.548 285.892 424.362C286.21 424.17 286.576 424.074 286.99 424.074C287.584 424.074 288.058 424.269 288.412 424.659C288.772 425.043 288.952 425.532 288.952 426.126C288.952 426.402 288.868 426.699 288.7 427.017C288.532 427.335 288.244 427.674 287.836 428.034L282.4 432.858V434.982ZM298.429 435.27C299.389 435.27 300.229 435.069 300.949 434.667C301.669 434.265 302.23 433.704 302.632 432.984C303.034 432.264 303.235 431.424 303.235 430.464V426.576C303.235 425.616 303.034 424.776 302.632 424.056C302.23 423.336 301.669 422.775 300.949 422.373C300.229 421.971 299.389 421.77 298.429 421.77C297.469 421.77 296.629 421.971 295.909 422.373C295.189 422.775 294.628 423.336 294.226 424.056C293.824 424.776 293.623 425.616 293.623 426.576V430.464C293.623 431.424 293.824 432.264 294.226 432.984C294.628 433.704 295.189 434.265 295.909 434.667C296.629 435.069 297.469 435.27 298.429 435.27ZM298.429 432.948C297.997 432.948 297.607 432.846 297.259 432.642C296.911 432.438 296.635 432.162 296.431 431.814C296.227 431.466 296.125 431.076 296.125 430.644V426.378C296.125 425.946 296.227 425.556 296.431 425.208C296.635 424.86 296.911 424.584 297.259 424.38C297.607 424.176 297.997 424.074 298.429 424.074C298.861 424.074 299.251 424.176 299.599 424.38C299.947 424.584 300.223 424.86 300.427 425.208C300.631 425.556 300.733 425.946 300.733 426.378V430.644C300.733 431.076 300.631 431.466 300.427 431.814C300.223 432.162 299.947 432.438 299.599 432.642C299.251 432.846 298.861 432.948 298.429 432.948ZM305.392 434.982H314.464V432.678H309.19L312.088 430.14C312.604 429.69 313.039 429.288 313.393 428.934C313.747 428.574 314.014 428.184 314.194 427.764C314.374 427.338 314.464 426.804 314.464 426.162C314.464 425.292 314.272 424.527 313.888 423.867C313.504 423.207 312.976 422.694 312.304 422.328C311.638 421.956 310.882 421.77 310.036 421.77C309.112 421.77 308.302 421.947 307.606 422.301C306.91 422.655 306.367 423.156 305.977 423.804C305.587 424.452 305.392 425.22 305.392 426.108H307.912C307.9 425.748 307.981 425.415 308.155 425.109C308.329 424.797 308.572 424.548 308.884 424.362C309.202 424.17 309.568 424.074 309.982 424.074C310.576 424.074 311.05 424.269 311.404 424.659C311.764 425.043 311.944 425.532 311.944 426.126C311.944 426.402 311.86 426.699 311.692 427.017C311.524 427.335 311.236 427.674 310.828 428.034L305.392 432.858V434.982ZM321.133 435.27C321.949 435.27 322.699 435.078 323.383 434.694C324.067 434.304 324.616 433.782 325.03 433.128C325.444 432.468 325.651 431.73 325.651 430.914C325.651 430.098 325.474 429.372 325.12 428.736C324.772 428.1 324.286 427.599 323.662 427.233C323.044 426.867 322.327 426.684 321.511 426.684C320.617 426.684 319.819 426.951 319.117 427.485V426.378C319.117 425.982 319.21 425.61 319.396 425.262C319.588 424.908 319.855 424.623 320.197 424.407C320.545 424.185 320.953 424.074 321.421 424.074C322.045 424.074 322.585 424.302 323.041 424.758L324.787 423.012C324.313 422.568 323.791 422.253 323.221 422.067C322.651 421.881 322.051 421.788 321.421 421.788C320.449 421.788 319.603 421.989 318.883 422.391C318.163 422.787 317.605 423.357 317.209 424.101C316.813 424.839 316.615 425.718 316.615 426.738V430.5C316.615 431.442 316.813 432.273 317.209 432.993C317.605 433.707 318.142 434.265 318.82 434.667C319.504 435.069 320.275 435.27 321.133 435.27ZM321.133 432.93C320.761 432.93 320.422 432.837 320.116 432.651C319.81 432.465 319.567 432.219 319.387 431.913C319.207 431.607 319.117 431.274 319.117 430.914C319.117 430.542 319.207 430.203 319.387 429.897C319.573 429.585 319.819 429.339 320.125 429.159C320.437 428.973 320.779 428.88 321.151 428.88C321.523 428.88 321.862 428.973 322.168 429.159C322.474 429.339 322.717 429.585 322.897 429.897C323.077 430.203 323.167 430.542 323.167 430.914C323.167 431.286 323.074 431.625 322.888 431.931C322.708 432.237 322.462 432.48 322.15 432.66C321.844 432.84 321.505 432.93 321.133 432.93Z" fill="#794DCC"/>
<path d="M285.652 462.584H287.076V461.208C288.137 461.107 288.985 460.749 289.62 460.136C290.255 459.523 290.572 458.741 290.572 457.792C290.572 456.997 290.361 456.363 289.94 455.888C289.519 455.408 288.833 455.027 287.884 454.744L285.724 454.104C285.095 453.917 284.636 453.688 284.348 453.416C284.06 453.144 283.916 452.813 283.916 452.424C283.916 451.891 284.143 451.451 284.596 451.104C285.049 450.757 285.617 450.589 286.3 450.6C287.025 450.605 287.639 450.819 288.14 451.24C288.647 451.656 288.956 452.203 289.068 452.88L290.508 452.616C290.327 451.699 289.935 450.952 289.332 450.376C288.735 449.8 287.983 449.443 287.076 449.304V447.888H285.652V449.28C284.692 449.392 283.924 449.736 283.348 450.312C282.777 450.883 282.492 451.608 282.492 452.488C282.492 453.875 283.279 454.813 284.852 455.304L287.484 456.12C288.087 456.307 288.519 456.533 288.78 456.8C289.041 457.067 289.172 457.419 289.172 457.856C289.172 458.453 288.927 458.941 288.436 459.32C287.951 459.699 287.319 459.888 286.54 459.888C285.761 459.888 285.095 459.68 284.54 459.264C283.991 458.848 283.631 458.285 283.46 457.576L282.06 457.808C282.22 458.731 282.62 459.491 283.26 460.088C283.9 460.68 284.697 461.045 285.652 461.184V462.584ZM298.096 461H299.544V449.48H298.096L295.928 450.776V452.368L298.096 451.056V461ZM306.423 461H307.695V460.024C308.01 460.403 308.391 460.701 308.839 460.92C309.293 461.133 309.813 461.24 310.399 461.24C311.205 461.24 311.895 461.04 312.471 460.64C313.053 460.235 313.498 459.688 313.807 459C314.117 458.312 314.271 457.536 314.271 456.672C314.271 455.808 314.117 455.032 313.807 454.344C313.498 453.656 313.053 453.115 312.471 452.72C311.895 452.32 311.207 452.12 310.407 452.12C309.869 452.12 309.386 452.211 308.959 452.392C308.533 452.573 308.165 452.824 307.855 453.144V449.48H306.423V461ZM310.223 459.936C309.354 459.936 308.714 459.629 308.303 459.016C307.898 458.403 307.695 457.621 307.695 456.672C307.695 455.717 307.898 454.939 308.303 454.336C308.714 453.728 309.341 453.424 310.183 453.424C310.77 453.424 311.253 453.568 311.631 453.856C312.015 454.144 312.298 454.533 312.479 455.024C312.666 455.515 312.759 456.064 312.759 456.672C312.759 457.285 312.666 457.84 312.479 458.336C312.293 458.827 312.013 459.216 311.639 459.504C311.266 459.792 310.794 459.936 310.223 459.936ZM316.505 461H317.929V449.24H316.505V461ZM320.641 461H322.081V456.448C322.081 455.445 322.297 454.701 322.729 454.216C323.167 453.731 323.743 453.488 324.457 453.488C325.065 453.488 325.54 453.64 325.881 453.944C326.223 454.248 326.46 454.643 326.593 455.128C326.732 455.613 326.801 456.128 326.801 456.672V461H328.241V456.224C328.241 455.813 328.191 455.373 328.089 454.904C327.993 454.429 327.817 453.984 327.561 453.568C327.311 453.147 326.961 452.803 326.513 452.536C326.071 452.269 325.5 452.136 324.801 452.136C323.543 452.136 322.583 452.581 321.921 453.472V452.36H320.641V461Z" fill="#31485F"/>
<path d="M426.4 434.982H435.472V432.678H430.198L433.096 430.14C433.612 429.69 434.047 429.288 434.401 428.934C434.755 428.574 435.022 428.184 435.202 427.764C435.382 427.338 435.472 426.804 435.472 426.162C435.472 425.292 435.28 424.527 434.896 423.867C434.512 423.207 433.984 422.694 433.312 422.328C432.646 421.956 431.89 421.77 431.044 421.77C430.12 421.77 429.31 421.947 428.614 422.301C427.918 422.655 427.375 423.156 426.985 423.804C426.595 424.452 426.4 425.22 426.4 426.108H428.92C428.908 425.748 428.989 425.415 429.163 425.109C429.337 424.797 429.58 424.548 429.892 424.362C430.21 424.17 430.576 424.074 430.99 424.074C431.584 424.074 432.058 424.269 432.412 424.659C432.772 425.043 432.952 425.532 432.952 426.126C432.952 426.402 432.868 426.699 432.7 427.017C432.532 427.335 432.244 427.674 431.836 428.034L426.4 432.858V434.982ZM442.429 435.27C443.389 435.27 444.229 435.069 444.949 434.667C445.669 434.265 446.23 433.704 446.632 432.984C447.034 432.264 447.235 431.424 447.235 430.464V426.576C447.235 425.616 447.034 424.776 446.632 424.056C446.23 423.336 445.669 422.775 444.949 422.373C444.229 421.971 443.389 421.77 442.429 421.77C441.469 421.77 440.629 421.971 439.909 422.373C439.189 422.775 438.628 423.336 438.226 424.056C437.824 424.776 437.623 425.616 437.623 426.576V430.464C437.623 431.424 437.824 432.264 438.226 432.984C438.628 433.704 439.189 434.265 439.909 434.667C440.629 435.069 441.469 435.27 442.429 435.27ZM442.429 432.948C441.997 432.948 441.607 432.846 441.259 432.642C440.911 432.438 440.635 432.162 440.431 431.814C440.227 431.466 440.125 431.076 440.125 430.644V426.378C440.125 425.946 440.227 425.556 440.431 425.208C440.635 424.86 440.911 424.584 441.259 424.38C441.607 424.176 441.997 424.074 442.429 424.074C442.861 424.074 443.251 424.176 443.599 424.38C443.947 424.584 444.223 424.86 444.427 425.208C444.631 425.556 444.733 425.946 444.733 426.378V430.644C444.733 431.076 444.631 431.466 444.427 431.814C444.223 432.162 443.947 432.438 443.599 432.642C443.251 432.846 442.861 432.948 442.429 432.948ZM449.392 434.982H458.464V432.678H453.19L456.088 430.14C456.604 429.69 457.039 429.288 457.393 428.934C457.747 428.574 458.014 428.184 458.194 427.764C458.374 427.338 458.464 426.804 458.464 426.162C458.464 425.292 458.272 424.527 457.888 423.867C457.504 423.207 456.976 422.694 456.304 422.328C455.638 421.956 454.882 421.77 454.036 421.77C453.112 421.77 452.302 421.947 451.606 422.301C450.91 422.655 450.367 423.156 449.977 423.804C449.587 424.452 449.392 425.22 449.392 426.108H451.912C451.9 425.748 451.981 425.415 452.155 425.109C452.329 424.797 452.572 424.548 452.884 424.362C453.202 424.17 453.568 424.074 453.982 424.074C454.576 424.074 455.05 424.269 455.404 424.659C455.764 425.043 455.944 425.532 455.944 426.126C455.944 426.402 455.86 426.699 455.692 427.017C455.524 427.335 455.236 427.674 454.828 428.034L449.392 432.858V434.982ZM464.953 435.27C465.829 435.27 466.609 435.093 467.293 434.739C467.977 434.379 468.514 433.887 468.904 433.263C469.294 432.633 469.489 431.916 469.489 431.112C469.489 430.518 469.372 429.951 469.138 429.411C468.904 428.865 468.571 428.406 468.139 428.034C468.469 427.656 468.715 427.263 468.877 426.855C469.045 426.447 469.129 425.994 469.129 425.496C469.129 424.746 468.949 424.092 468.589 423.534C468.235 422.976 467.743 422.544 467.113 422.238C466.489 421.926 465.769 421.77 464.953 421.77C464.137 421.77 463.414 421.926 462.784 422.238C462.16 422.544 461.668 422.976 461.308 423.534C460.954 424.092 460.777 424.746 460.777 425.496C460.777 425.994 460.864 426.45 461.038 426.864C461.218 427.278 461.467 427.668 461.785 428.034C461.347 428.424 461.011 428.889 460.777 429.429C460.549 429.963 460.435 430.524 460.435 431.112C460.435 431.916 460.627 432.633 461.011 433.263C461.401 433.887 461.935 434.379 462.613 434.739C463.297 435.093 464.077 435.27 464.953 435.27ZM464.953 426.918C464.485 426.918 464.104 426.804 463.81 426.576C463.516 426.342 463.369 425.982 463.369 425.496C463.369 425.01 463.516 424.65 463.81 424.416C464.104 424.176 464.485 424.056 464.953 424.056C465.421 424.056 465.802 424.176 466.096 424.416C466.39 424.65 466.537 425.01 466.537 425.496C466.537 425.982 466.39 426.342 466.096 426.576C465.802 426.804 465.421 426.918 464.953 426.918ZM464.953 432.966C464.377 432.966 463.912 432.81 463.558 432.498C463.204 432.186 463.027 431.724 463.027 431.112C463.027 430.506 463.204 430.044 463.558 429.726C463.912 429.402 464.377 429.24 464.953 429.24C465.529 429.24 465.997 429.402 466.357 429.726C466.717 430.044 466.897 430.506 466.897 431.112C466.897 431.724 466.717 432.186 466.357 432.498C465.997 432.81 465.529 432.966 464.953 432.966Z" fill="#D0319A"/>
<path d="M429.652 462.584H431.076V461.208C432.137 461.107 432.985 460.749 433.62 460.136C434.255 459.523 434.572 458.741 434.572 457.792C434.572 456.997 434.361 456.363 433.94 455.888C433.519 455.408 432.833 455.027 431.884 454.744L429.724 454.104C429.095 453.917 428.636 453.688 428.348 453.416C428.06 453.144 427.916 452.813 427.916 452.424C427.916 451.891 428.143 451.451 428.596 451.104C429.049 450.757 429.617 450.589 430.3 450.6C431.025 450.605 431.639 450.819 432.14 451.24C432.647 451.656 432.956 452.203 433.068 452.88L434.508 452.616C434.327 451.699 433.935 450.952 433.332 450.376C432.735 449.8 431.983 449.443 431.076 449.304V447.888H429.652V449.28C428.692 449.392 427.924 449.736 427.348 450.312C426.777 450.883 426.492 451.608 426.492 452.488C426.492 453.875 427.279 454.813 428.852 455.304L431.484 456.12C432.087 456.307 432.519 456.533 432.78 456.8C433.041 457.067 433.172 457.419 433.172 457.856C433.172 458.453 432.927 458.941 432.436 459.32C431.951 459.699 431.319 459.888 430.54 459.888C429.761 459.888 429.095 459.68 428.54 459.264C427.991 458.848 427.631 458.285 427.46 457.576L426.06 457.808C426.22 458.731 426.62 459.491 427.26 460.088C427.9 460.68 428.697 461.045 429.652 461.184V462.584ZM442.096 461H443.544V449.48H442.096L439.928 450.776V452.368L442.096 451.056V461ZM455.255 461V459.776C454.663 459.867 454.157 459.883 453.735 459.824C453.319 459.765 453.015 459.565 452.823 459.224C452.722 459.043 452.666 458.829 452.655 458.584C452.65 458.333 452.647 458.029 452.647 457.672V453.536H455.255V452.36H452.647V449.96H451.223V452.36H449.471V453.536H451.223V457.736C451.223 458.184 451.229 458.584 451.239 458.936C451.255 459.283 451.349 459.624 451.519 459.96C451.722 460.349 452.018 460.637 452.407 460.824C452.797 461.005 453.239 461.104 453.735 461.12C454.237 461.141 454.743 461.101 455.255 461ZM457.489 461H458.913V449.24H457.489V461ZM461.626 461H463.066V456.448C463.066 455.445 463.282 454.701 463.714 454.216C464.151 453.731 464.727 453.488 465.442 453.488C466.05 453.488 466.524 453.64 466.866 453.944C467.207 454.248 467.444 454.643 467.578 455.128C467.716 455.613 467.786 456.128 467.786 456.672V461H469.226V456.224C469.226 455.813 469.175 455.373 469.074 454.904C468.978 454.429 468.802 453.984 468.546 453.568C468.295 453.147 467.946 452.803 467.498 452.536C467.055 452.269 466.484 452.136 465.786 452.136C464.527 452.136 463.567 452.581 462.906 453.472V452.36H461.626V461Z" fill="#31485F"/>
<path d="M700.4 434.982H709.472V432.678H704.198L707.096 430.14C707.612 429.69 708.047 429.288 708.401 428.934C708.755 428.574 709.022 428.184 709.202 427.764C709.382 427.338 709.472 426.804 709.472 426.162C709.472 425.292 709.28 424.527 708.896 423.867C708.512 423.207 707.984 422.694 707.312 422.328C706.646 421.956 705.89 421.77 705.044 421.77C704.12 421.77 703.31 421.947 702.614 422.301C701.918 422.655 701.375 423.156 700.985 423.804C700.595 424.452 700.4 425.22 700.4 426.108H702.92C702.908 425.748 702.989 425.415 703.163 425.109C703.337 424.797 703.58 424.548 703.892 424.362C704.21 424.17 704.576 424.074 704.99 424.074C705.584 424.074 706.058 424.269 706.412 424.659C706.772 425.043 706.952 425.532 706.952 426.126C706.952 426.402 706.868 426.699 706.7 427.017C706.532 427.335 706.244 427.674 705.836 428.034L700.4 432.858V434.982ZM716.429 435.27C717.389 435.27 718.229 435.069 718.949 434.667C719.669 434.265 720.23 433.704 720.632 432.984C721.034 432.264 721.235 431.424 721.235 430.464V426.576C721.235 425.616 721.034 424.776 720.632 424.056C720.23 423.336 719.669 422.775 718.949 422.373C718.229 421.971 717.389 421.77 716.429 421.77C715.469 421.77 714.629 421.971 713.909 422.373C713.189 422.775 712.628 423.336 712.226 424.056C711.824 424.776 711.623 425.616 711.623 426.576V430.464C711.623 431.424 711.824 432.264 712.226 432.984C712.628 433.704 713.189 434.265 713.909 434.667C714.629 435.069 715.469 435.27 716.429 435.27ZM716.429 432.948C715.997 432.948 715.607 432.846 715.259 432.642C714.911 432.438 714.635 432.162 714.431 431.814C714.227 431.466 714.125 431.076 714.125 430.644V426.378C714.125 425.946 714.227 425.556 714.431 425.208C714.635 424.86 714.911 424.584 715.259 424.38C715.607 424.176 715.997 424.074 716.429 424.074C716.861 424.074 717.251 424.176 717.599 424.38C717.947 424.584 718.223 424.86 718.427 425.208C718.631 425.556 718.733 425.946 718.733 426.378V430.644C718.733 431.076 718.631 431.466 718.427 431.814C718.223 432.162 717.947 432.438 717.599 432.642C717.251 432.846 716.861 432.948 716.429 432.948ZM727.532 435.234C728.348 435.234 729.098 435.045 729.782 434.667C730.466 434.283 731.015 433.767 731.429 433.119C731.843 432.465 732.05 431.73 732.05 430.914C732.05 430.308 731.939 429.735 731.717 429.195C731.501 428.649 731.18 428.175 730.754 427.773C730.328 427.365 729.806 427.071 729.188 426.891L731.816 424.344V422.04H723.716V424.344H728.918L725.426 427.242L726.524 429.168C726.848 428.976 727.184 428.88 727.532 428.88C728.126 428.88 728.612 429.081 728.99 429.483C729.374 429.879 729.566 430.356 729.566 430.914C729.566 431.286 729.473 431.625 729.287 431.931C729.107 432.237 728.861 432.48 728.549 432.66C728.243 432.84 727.904 432.93 727.532 432.93C727.1 432.93 726.698 432.801 726.326 432.543C725.96 432.279 725.714 431.91 725.588 431.436L723.212 432.066C723.398 432.708 723.707 433.266 724.139 433.74C724.577 434.214 725.09 434.583 725.678 434.847C726.266 435.105 726.884 435.234 727.532 435.234ZM736.637 435H739.139V422.04H736.637L734.207 423.498V426.198L736.637 424.704V435Z" fill="#A45AA5"/>
<path d="M703.652 462.584H705.076V461.208C706.137 461.107 706.985 460.749 707.62 460.136C708.255 459.523 708.572 458.741 708.572 457.792C708.572 456.997 708.361 456.363 707.94 455.888C707.519 455.408 706.833 455.027 705.884 454.744L703.724 454.104C703.095 453.917 702.636 453.688 702.348 453.416C702.06 453.144 701.916 452.813 701.916 452.424C701.916 451.891 702.143 451.451 702.596 451.104C703.049 450.757 703.617 450.589 704.3 450.6C705.025 450.605 705.639 450.819 706.14 451.24C706.647 451.656 706.956 452.203 707.068 452.88L708.508 452.616C708.327 451.699 707.935 450.952 707.332 450.376C706.735 449.8 705.983 449.443 705.076 449.304V447.888H703.652V449.28C702.692 449.392 701.924 449.736 701.348 450.312C700.777 450.883 700.492 451.608 700.492 452.488C700.492 453.875 701.279 454.813 702.852 455.304L705.484 456.12C706.087 456.307 706.519 456.533 706.78 456.8C707.041 457.067 707.172 457.419 707.172 457.856C707.172 458.453 706.927 458.941 706.436 459.32C705.951 459.699 705.319 459.888 704.54 459.888C703.761 459.888 703.095 459.68 702.54 459.264C701.991 458.848 701.631 458.285 701.46 457.576L700.06 457.808C700.22 458.731 700.62 459.491 701.26 460.088C701.9 460.68 702.697 461.045 703.652 461.184V462.584ZM717.248 461.224C717.963 461.224 718.603 461.064 719.168 460.744C719.733 460.424 720.181 459.981 720.512 459.416C720.843 458.845 721.008 458.192 721.008 457.456C721.008 456.784 720.872 456.181 720.6 455.648C720.333 455.115 719.955 454.688 719.464 454.368C718.979 454.048 718.405 453.869 717.744 453.832L720.856 450.848V449.48H714.064V450.84H719.088L715.344 454.224L716.032 455.352C716.213 455.261 716.408 455.189 716.616 455.136C716.824 455.077 717.027 455.048 717.224 455.048C717.917 455.048 718.477 455.272 718.904 455.72C719.331 456.163 719.544 456.741 719.544 457.456C719.544 458.16 719.333 458.736 718.912 459.184C718.496 459.627 717.939 459.853 717.24 459.864C716.728 459.869 716.264 459.733 715.848 459.456C715.437 459.179 715.147 458.773 714.976 458.24L713.608 458.632C713.853 459.432 714.307 460.064 714.968 460.528C715.635 460.992 716.395 461.224 717.248 461.224ZM731.755 461V459.776C731.163 459.867 730.657 459.883 730.235 459.824C729.819 459.765 729.515 459.565 729.323 459.224C729.222 459.043 729.166 458.829 729.155 458.584C729.15 458.333 729.147 458.029 729.147 457.672V453.536H731.755V452.36H729.147V449.96H727.723V452.36H725.971V453.536H727.723V457.736C727.723 458.184 727.729 458.584 727.739 458.936C727.755 459.283 727.849 459.624 728.019 459.96C728.222 460.349 728.518 460.637 728.907 460.824C729.297 461.005 729.739 461.104 730.235 461.12C730.737 461.141 731.243 461.101 731.755 461ZM733.989 461H735.413V449.24H733.989V461ZM738.126 461H739.566V456.448C739.566 455.445 739.782 454.701 740.214 454.216C740.651 453.731 741.227 453.488 741.942 453.488C742.55 453.488 743.024 453.64 743.366 453.944C743.707 454.248 743.944 454.643 744.078 455.128C744.216 455.613 744.286 456.128 744.286 456.672V461H745.726V456.224C745.726 455.813 745.675 455.373 745.574 454.904C745.478 454.429 745.302 453.984 745.046 453.568C744.795 453.147 744.446 452.803 743.998 452.536C743.555 452.269 742.984 452.136 742.286 452.136C741.027 452.136 740.067 452.581 739.406 453.472V452.36H738.126V461Z" fill="#31485F"/>
<path d="M346.261 317H347.89V304.04H346.261L343.822 305.498V307.289L346.261 305.813V317ZM355.229 317.252C356.033 317.252 356.753 317.072 357.389 316.712C358.025 316.352 358.529 315.854 358.901 315.218C359.273 314.576 359.459 313.841 359.459 313.013C359.459 312.257 359.306 311.579 359 310.979C358.7 310.379 358.274 309.899 357.722 309.539C357.176 309.179 356.531 308.978 355.787 308.936L359.288 305.579V304.04H351.647V305.57H357.299L353.087 309.377L353.861 310.646C354.065 310.544 354.284 310.463 354.518 310.403C354.752 310.337 354.98 310.304 355.202 310.304C355.982 310.304 356.612 310.556 357.092 311.06C357.572 311.558 357.812 312.209 357.812 313.013C357.812 313.805 357.575 314.453 357.101 314.957C356.633 315.455 356.006 315.71 355.22 315.722C354.644 315.728 354.122 315.575 353.654 315.263C353.192 314.951 352.865 314.495 352.673 313.895L351.134 314.336C351.41 315.236 351.92 315.947 352.664 316.469C353.414 316.991 354.269 317.252 355.229 317.252ZM361.979 319.016C362.537 319.118 362.969 319.01 363.275 318.692C363.587 318.374 363.743 317.9 363.743 317.27V314.966H361.979V317H362.906C362.936 317.36 362.897 317.666 362.789 317.918C362.687 318.176 362.45 318.293 362.078 318.269L361.979 319.016ZM371.363 317.27C372.167 317.27 372.905 317.075 373.577 316.685C374.255 316.289 374.798 315.764 375.206 315.11C375.614 314.45 375.818 313.721 375.818 312.923C375.818 312.119 375.632 311.396 375.26 310.754C374.888 310.106 374.384 309.596 373.748 309.224C373.112 308.846 372.392 308.657 371.588 308.657C370.676 308.657 369.869 308.936 369.167 309.494L369.401 305.561H374.918V304.04H367.961L367.565 310.817L368.987 311.357C369.221 311.021 369.539 310.733 369.941 310.493C370.349 310.253 370.838 310.133 371.408 310.133C371.912 310.133 372.377 310.256 372.803 310.502C373.229 310.748 373.568 311.084 373.82 311.51C374.078 311.93 374.207 312.401 374.207 312.923C374.207 313.427 374.081 313.892 373.829 314.318C373.583 314.738 373.25 315.077 372.83 315.335C372.41 315.587 371.936 315.713 371.408 315.713C370.808 315.713 370.247 315.527 369.725 315.155C369.209 314.777 368.87 314.27 368.708 313.634L367.169 314.048C367.343 314.678 367.631 315.236 368.033 315.722C368.441 316.208 368.93 316.589 369.5 316.865C370.076 317.135 370.697 317.27 371.363 317.27ZM385.354 310.25C385.948 310.25 386.488 310.106 386.974 309.818C387.466 309.524 387.859 309.134 388.153 308.648C388.447 308.156 388.594 307.61 388.594 307.01C388.594 306.41 388.447 305.867 388.153 305.381C387.859 304.889 387.466 304.499 386.974 304.211C386.488 303.917 385.948 303.77 385.354 303.77C384.778 303.77 384.244 303.917 383.752 304.211C383.26 304.505 382.864 304.898 382.564 305.39C382.264 305.882 382.114 306.422 382.114 307.01C382.114 307.61 382.261 308.156 382.555 308.648C382.849 309.134 383.239 309.524 383.725 309.818C384.217 310.106 384.76 310.25 385.354 310.25ZM383.734 317L395.632 305.12L394.552 304.04L382.654 315.92L383.734 317ZM385.354 308.837C384.862 308.837 384.433 308.657 384.067 308.297C383.707 307.931 383.527 307.502 383.527 307.01C383.527 306.512 383.707 306.083 384.067 305.723C384.433 305.363 384.862 305.183 385.354 305.183C385.852 305.183 386.281 305.363 386.641 305.723C387.001 306.083 387.181 306.512 387.181 307.01C387.181 307.502 387.001 307.931 386.641 308.297C386.281 308.657 385.852 308.837 385.354 308.837ZM392.932 317.27C393.526 317.27 394.066 317.126 394.552 316.838C395.044 316.544 395.437 316.154 395.731 315.668C396.025 315.176 396.172 314.63 396.172 314.03C396.172 313.43 396.025 312.887 395.731 312.401C395.437 311.909 395.044 311.519 394.552 311.231C394.066 310.937 393.526 310.79 392.932 310.79C392.356 310.79 391.822 310.937 391.33 311.231C390.838 311.525 390.442 311.918 390.142 312.41C389.842 312.902 389.692 313.442 389.692 314.03C389.692 314.63 389.836 315.176 390.124 315.668C390.418 316.154 390.811 316.544 391.303 316.838C391.795 317.126 392.338 317.27 392.932 317.27ZM392.932 315.857C392.44 315.857 392.011 315.677 391.645 315.317C391.285 314.951 391.105 314.522 391.105 314.03C391.105 313.532 391.285 313.103 391.645 312.743C392.011 312.383 392.44 312.203 392.932 312.203C393.43 312.203 393.859 312.383 394.219 312.743C394.579 313.103 394.759 313.532 394.759 314.03C394.759 314.522 394.579 314.951 394.219 315.317C393.859 315.677 393.43 315.857 392.932 315.857Z" fill="#31485F"/>
<path d="M561.437 169.252C562.241 169.252 562.961 169.072 563.597 168.712C564.233 168.352 564.737 167.854 565.109 167.218C565.481 166.576 565.667 165.841 565.667 165.013C565.667 164.257 565.514 163.579 565.208 162.979C564.908 162.379 564.482 161.899 563.93 161.539C563.384 161.179 562.739 160.978 561.995 160.936L565.496 157.579V156.04H557.855V157.57H563.507L559.295 161.377L560.069 162.646C560.273 162.544 560.492 162.463 560.726 162.403C560.96 162.337 561.188 162.304 561.41 162.304C562.19 162.304 562.82 162.556 563.3 163.06C563.78 163.558 564.02 164.209 564.02 165.013C564.02 165.805 563.783 166.453 563.309 166.957C562.841 167.455 562.214 167.71 561.428 167.722C560.852 167.728 560.33 167.575 559.862 167.263C559.4 166.951 559.073 166.495 558.881 165.895L557.342 166.336C557.618 167.236 558.128 167.947 558.872 168.469C559.622 168.991 560.477 169.252 561.437 169.252ZM573.965 169H575.585V166.615H576.935V165.094H575.585V161.449H573.965V165.094H569.825L574.1 156.04H572.282L568.007 165.094V166.615H573.965V169ZM586.473 162.25C587.067 162.25 587.607 162.106 588.093 161.818C588.585 161.524 588.978 161.134 589.272 160.648C589.566 160.156 589.713 159.61 589.713 159.01C589.713 158.41 589.566 157.867 589.272 157.381C588.978 156.889 588.585 156.499 588.093 156.211C587.607 155.917 587.067 155.77 586.473 155.77C585.897 155.77 585.363 155.917 584.871 156.211C584.379 156.505 583.983 156.898 583.683 157.39C583.383 157.882 583.233 158.422 583.233 159.01C583.233 159.61 583.38 160.156 583.674 160.648C583.968 161.134 584.358 161.524 584.844 161.818C585.336 162.106 585.879 162.25 586.473 162.25ZM584.853 169L596.751 157.12L595.671 156.04L583.773 167.92L584.853 169ZM586.473 160.837C585.981 160.837 585.552 160.657 585.186 160.297C584.826 159.931 584.646 159.502 584.646 159.01C584.646 158.512 584.826 158.083 585.186 157.723C585.552 157.363 585.981 157.183 586.473 157.183C586.971 157.183 587.4 157.363 587.76 157.723C588.12 158.083 588.3 158.512 588.3 159.01C588.3 159.502 588.12 159.931 587.76 160.297C587.4 160.657 586.971 160.837 586.473 160.837ZM594.051 169.27C594.645 169.27 595.185 169.126 595.671 168.838C596.163 168.544 596.556 168.154 596.85 167.668C597.144 167.176 597.291 166.63 597.291 166.03C597.291 165.43 597.144 164.887 596.85 164.401C596.556 163.909 596.163 163.519 595.671 163.231C595.185 162.937 594.645 162.79 594.051 162.79C593.475 162.79 592.941 162.937 592.449 163.231C591.957 163.525 591.561 163.918 591.261 164.41C590.961 164.902 590.811 165.442 590.811 166.03C590.811 166.63 590.955 167.176 591.243 167.668C591.537 168.154 591.93 168.544 592.422 168.838C592.914 169.126 593.457 169.27 594.051 169.27ZM594.051 167.857C593.559 167.857 593.13 167.677 592.764 167.317C592.404 166.951 592.224 166.522 592.224 166.03C592.224 165.532 592.404 165.103 592.764 164.743C593.13 164.383 593.559 164.203 594.051 164.203C594.549 164.203 594.978 164.383 595.338 164.743C595.698 165.103 595.878 165.532 595.878 166.03C595.878 166.522 595.698 166.951 595.338 167.317C594.978 167.677 594.549 167.857 594.051 167.857Z" fill="#31485F"/>
<path d="M759.319 108H760.948V95.04H759.319L756.88 96.498V98.289L759.319 96.813V108ZM769.151 108.27C769.955 108.27 770.69 108.078 771.356 107.694C772.028 107.304 772.565 106.782 772.967 106.128C773.369 105.468 773.57 104.736 773.57 103.932C773.57 103.128 773.384 102.405 773.012 101.763C772.646 101.115 772.142 100.602 771.5 100.224C770.864 99.846 770.144 99.657 769.34 99.657C768.758 99.657 768.209 99.777 767.693 100.017C767.183 100.257 766.739 100.584 766.361 100.998V99.234C766.361 98.718 766.484 98.238 766.73 97.794C766.982 97.344 767.33 96.984 767.774 96.714C768.218 96.438 768.725 96.3 769.295 96.3C769.775 96.3 770.222 96.414 770.636 96.642C771.05 96.864 771.386 97.161 771.644 97.533L772.841 96.471C772.421 95.925 771.902 95.508 771.284 95.22C770.672 94.926 770.009 94.779 769.295 94.779C768.407 94.779 767.621 94.977 766.937 95.373C766.253 95.769 765.713 96.315 765.317 97.011C764.927 97.707 764.732 98.508 764.732 99.414V103.725C764.732 104.589 764.927 105.366 765.317 106.056C765.713 106.74 766.244 107.28 766.91 107.676C767.582 108.072 768.329 108.27 769.151 108.27ZM769.151 106.722C768.635 106.722 768.164 106.596 767.738 106.344C767.318 106.092 766.982 105.756 766.73 105.336C766.484 104.91 766.361 104.442 766.361 103.932C766.361 103.416 766.487 102.948 766.739 102.528C766.991 102.102 767.327 101.763 767.747 101.511C768.173 101.259 768.644 101.133 769.16 101.133C769.676 101.133 770.144 101.259 770.564 101.511C770.99 101.763 771.326 102.102 771.572 102.528C771.824 102.948 771.95 103.416 771.95 103.932C771.95 104.448 771.824 104.919 771.572 105.345C771.32 105.765 770.981 106.101 770.555 106.353C770.135 106.599 769.667 106.722 769.151 106.722ZM783.296 101.25C783.89 101.25 784.43 101.106 784.916 100.818C785.408 100.524 785.801 100.134 786.095 99.648C786.389 99.156 786.536 98.61 786.536 98.01C786.536 97.41 786.389 96.867 786.095 96.381C785.801 95.889 785.408 95.499 784.916 95.211C784.43 94.917 783.89 94.77 783.296 94.77C782.72 94.77 782.186 94.917 781.694 95.211C781.202 95.505 780.806 95.898 780.506 96.39C780.206 96.882 780.056 97.422 780.056 98.01C780.056 98.61 780.203 99.156 780.497 99.648C780.791 100.134 781.181 100.524 781.667 100.818C782.159 101.106 782.702 101.25 783.296 101.25ZM781.676 108L793.574 96.12L792.494 95.04L780.596 106.92L781.676 108ZM783.296 99.837C782.804 99.837 782.375 99.657 782.009 99.297C781.649 98.931 781.469 98.502 781.469 98.01C781.469 97.512 781.649 97.083 782.009 96.723C782.375 96.363 782.804 96.183 783.296 96.183C783.794 96.183 784.223 96.363 784.583 96.723C784.943 97.083 785.123 97.512 785.123 98.01C785.123 98.502 784.943 98.931 784.583 99.297C784.223 99.657 783.794 99.837 783.296 99.837ZM790.874 108.27C791.468 108.27 792.008 108.126 792.494 107.838C792.986 107.544 793.379 107.154 793.673 106.668C793.967 106.176 794.114 105.63 794.114 105.03C794.114 104.43 793.967 103.887 793.673 103.401C793.379 102.909 792.986 102.519 792.494 102.231C792.008 101.937 791.468 101.79 790.874 101.79C790.298 101.79 789.764 101.937 789.272 102.231C788.78 102.525 788.384 102.918 788.084 103.41C787.784 103.902 787.634 104.442 787.634 105.03C787.634 105.63 787.778 106.176 788.066 106.668C788.36 107.154 788.753 107.544 789.245 107.838C789.737 108.126 790.28 108.27 790.874 108.27ZM790.874 106.857C790.382 106.857 789.953 106.677 789.587 106.317C789.227 105.951 789.047 105.522 789.047 105.03C789.047 104.532 789.227 104.103 789.587 103.743C789.953 103.383 790.382 103.203 790.874 103.203C791.372 103.203 791.801 103.383 792.161 103.743C792.521 104.103 792.701 104.532 792.701 105.03C792.701 105.522 792.521 105.951 792.161 106.317C791.801 106.677 791.372 106.857 790.874 106.857Z" fill="#31485F"/>
<path d="M109.5 0L109.5 394" stroke="#B1C0CF" stroke-dasharray="6 6"/>
<line x1="1" y1="282" x2="0.999991" y2="390" stroke="#B1C0CF" stroke-dasharray="6 6"/>
<path d="M283.5 8L283.5 402" stroke="#B1C0CF" stroke-dasharray="6 6"/>
<path d="M428.5 8L428.5 402" stroke="#B1C0CF" stroke-dasharray="6 6"/>
<path d="M704.5 8L704.5 402" stroke="#B1C0CF" stroke-dasharray="6 6"/>
<path d="M845.5 8L845.5 402" stroke="#B1C0CF" stroke-dasharray="6 6"/>
<path d="M31.3496 292.427V311.665C31.3496 311.665 31.3496 309.527 37.7625 311.665C44.1754 313.803 46.313 313.803 48.4506 313.803C52.7259 313.803 57.0004 311.665 57.0004 311.665V292.427C57.0004 292.427 50.5883 294.564 48.4506 294.564C48.4506 294.564 44.1754 294.564 39.9001 292.427C35.6249 290.289 31.3496 292.427 31.3496 292.427Z" fill="#65D743"/>
<path d="M29.7803 289.199C29.7803 288.785 29.4445 288.449 29.0303 288.449C28.6161 288.449 28.2803 288.785 28.2803 289.199H29.7803ZM29.7803 326.852V289.199H28.2803V326.852H29.7803Z" fill="#65D743"/>
<path d="M30.8936 288C30.8936 289.105 29.9981 290 28.8936 290C27.789 290 26.8936 289.105 26.8936 288C26.8936 286.895 27.789 286 28.8936 286C29.9981 286 30.8936 286.895 30.8936 288Z" fill="#65D743"/>
<path d="M36.561 333.531C36.561 331.533 35.7676 329.618 34.3554 328.206C32.9432 326.793 31.0277 326 29.0305 326C27.0333 326 25.1179 326.793 23.7056 328.206C22.2934 329.618 21.5 331.533 21.5 333.531L29.0305 333.531H36.561Z" fill="#65D743"/>
</svg>
