<svg width="1233" height="571" viewBox="0 0 1233 571" fill="none" xmlns="http://www.w3.org/2000/svg">
<path d="M1080.55 526.981H1091.13V524.293H1084.98L1088.36 521.332C1088.96 520.807 1089.47 520.338 1089.88 519.925C1090.3 519.505 1090.61 519.05 1090.82 518.56C1091.03 518.063 1091.13 517.44 1091.13 516.691C1091.13 515.676 1090.91 514.783 1090.46 514.013C1090.01 513.243 1089.4 512.645 1088.61 512.218C1087.84 511.784 1086.96 511.567 1085.97 511.567C1084.89 511.567 1083.95 511.773 1083.13 512.186C1082.32 512.599 1081.69 513.184 1081.23 513.94C1080.78 514.696 1080.55 515.592 1080.55 516.628H1083.49C1083.48 516.208 1083.57 515.819 1083.77 515.462C1083.98 515.098 1084.26 514.808 1084.62 514.591C1085 514.367 1085.42 514.255 1085.91 514.255C1086.6 514.255 1087.15 514.482 1087.56 514.937C1087.98 515.385 1088.19 515.956 1088.19 516.649C1088.19 516.971 1088.1 517.317 1087.9 517.688C1087.7 518.059 1087.37 518.455 1086.89 518.875L1080.55 524.503V526.981ZM1099.25 527.317C1100.37 527.317 1101.35 527.082 1102.19 526.613C1103.03 526.144 1103.69 525.49 1104.15 524.65C1104.62 523.81 1104.86 522.83 1104.86 521.71V517.174C1104.86 516.054 1104.62 515.074 1104.15 514.234C1103.69 513.394 1103.03 512.739 1102.19 512.27C1101.35 511.801 1100.37 511.567 1099.25 511.567C1098.13 511.567 1097.15 511.801 1096.31 512.27C1095.47 512.739 1094.82 513.394 1094.35 514.234C1093.88 515.074 1093.64 516.054 1093.64 517.174V521.71C1093.64 522.83 1093.88 523.81 1094.35 524.65C1094.82 525.49 1095.47 526.144 1096.31 526.613C1097.15 527.082 1098.13 527.317 1099.25 527.317ZM1099.25 524.608C1098.75 524.608 1098.29 524.489 1097.89 524.251C1097.48 524.013 1097.16 523.691 1096.92 523.285C1096.68 522.879 1096.56 522.424 1096.56 521.92V516.943C1096.56 516.439 1096.68 515.984 1096.92 515.578C1097.16 515.172 1097.48 514.85 1097.89 514.612C1098.29 514.374 1098.75 514.255 1099.25 514.255C1099.75 514.255 1100.21 514.374 1100.62 514.612C1101.02 514.85 1101.34 515.172 1101.58 515.578C1101.82 515.984 1101.94 516.439 1101.94 516.943V521.92C1101.94 522.424 1101.82 522.879 1101.58 523.285C1101.34 523.691 1101.02 524.013 1100.62 524.251C1100.21 524.489 1099.75 524.608 1099.25 524.608ZM1113.95 527.002H1116.85V524.65H1118.19V521.983H1116.85V518.203H1113.95V521.983H1110.65L1115.42 511.882H1112.14L1107.37 521.983V524.65H1113.95V527.002ZM1126.32 527.317C1127.44 527.317 1128.42 527.082 1129.26 526.613C1130.1 526.144 1130.76 525.49 1131.22 524.65C1131.69 523.81 1131.93 522.83 1131.93 521.71V517.174C1131.93 516.054 1131.69 515.074 1131.22 514.234C1130.76 513.394 1130.1 512.739 1129.26 512.27C1128.42 511.801 1127.44 511.567 1126.32 511.567C1125.2 511.567 1124.22 511.801 1123.38 512.27C1122.54 512.739 1121.89 513.394 1121.42 514.234C1120.95 515.074 1120.71 516.054 1120.71 517.174V521.71C1120.71 522.83 1120.95 523.81 1121.42 524.65C1121.89 525.49 1122.54 526.144 1123.38 526.613C1124.22 527.082 1125.2 527.317 1126.32 527.317ZM1126.32 524.608C1125.82 524.608 1125.36 524.489 1124.96 524.251C1124.55 524.013 1124.23 523.691 1123.99 523.285C1123.75 522.879 1123.63 522.424 1123.63 521.92V516.943C1123.63 516.439 1123.75 515.984 1123.99 515.578C1124.23 515.172 1124.55 514.85 1124.96 514.612C1125.36 514.374 1125.82 514.255 1126.32 514.255C1126.83 514.255 1127.28 514.374 1127.69 514.612C1128.09 514.85 1128.41 515.172 1128.65 515.578C1128.89 515.984 1129.01 516.439 1129.01 516.943V521.92C1129.01 522.424 1128.89 522.879 1128.65 523.285C1128.41 523.691 1128.09 524.013 1127.69 524.251C1127.28 524.489 1126.83 524.608 1126.32 524.608Z" fill="#5A9ADC"/>
<path d="M239.337 406.991H247.95V405.461H241.803L245.979 401.708C246.423 401.312 246.789 400.94 247.077 400.592C247.371 400.238 247.59 399.854 247.734 399.44C247.878 399.026 247.95 398.537 247.95 397.973C247.95 397.175 247.764 396.461 247.392 395.831C247.026 395.195 246.525 394.694 245.889 394.328C245.253 393.956 244.533 393.77 243.729 393.77C242.901 393.77 242.16 393.95 241.506 394.31C240.852 394.664 240.336 395.156 239.958 395.786C239.586 396.41 239.4 397.13 239.4 397.946H241.038C241.032 397.472 241.143 397.037 241.371 396.641C241.605 396.239 241.923 395.915 242.325 395.669C242.727 395.423 243.186 395.3 243.702 395.3C244.2 395.3 244.644 395.417 245.034 395.651C245.43 395.885 245.742 396.203 245.97 396.605C246.198 397.007 246.312 397.457 246.312 397.955C246.312 398.363 246.228 398.762 246.06 399.152C245.898 399.542 245.577 399.95 245.097 400.376L239.346 405.551L239.337 406.991ZM250.283 409.016C250.841 409.118 251.273 409.01 251.579 408.692C251.891 408.374 252.047 407.9 252.047 407.27V404.966H250.283V407H251.21C251.24 407.36 251.201 407.666 251.093 407.918C250.991 408.176 250.754 408.293 250.382 408.269L250.283 409.016ZM259.667 407.27C260.471 407.27 261.209 407.075 261.881 406.685C262.559 406.289 263.102 405.764 263.51 405.11C263.918 404.45 264.122 403.721 264.122 402.923C264.122 402.119 263.936 401.396 263.564 400.754C263.192 400.106 262.688 399.596 262.052 399.224C261.416 398.846 260.696 398.657 259.892 398.657C258.98 398.657 258.173 398.936 257.471 399.494L257.705 395.561H263.222V394.04H256.265L255.869 400.817L257.291 401.357C257.525 401.021 257.843 400.733 258.245 400.493C258.653 400.253 259.142 400.133 259.712 400.133C260.216 400.133 260.681 400.256 261.107 400.502C261.533 400.748 261.872 401.084 262.124 401.51C262.382 401.93 262.511 402.401 262.511 402.923C262.511 403.427 262.385 403.892 262.133 404.318C261.887 404.738 261.554 405.077 261.134 405.335C260.714 405.587 260.24 405.713 259.712 405.713C259.112 405.713 258.551 405.527 258.029 405.155C257.513 404.777 257.174 404.27 257.012 403.634L255.473 404.048C255.647 404.678 255.935 405.236 256.337 405.722C256.745 406.208 257.234 406.589 257.804 406.865C258.38 407.135 259.001 407.27 259.667 407.27ZM273.658 400.25C274.252 400.25 274.792 400.106 275.278 399.818C275.77 399.524 276.163 399.134 276.457 398.648C276.751 398.156 276.898 397.61 276.898 397.01C276.898 396.41 276.751 395.867 276.457 395.381C276.163 394.889 275.77 394.499 275.278 394.211C274.792 393.917 274.252 393.77 273.658 393.77C273.082 393.77 272.548 393.917 272.056 394.211C271.564 394.505 271.168 394.898 270.868 395.39C270.568 395.882 270.418 396.422 270.418 397.01C270.418 397.61 270.565 398.156 270.859 398.648C271.153 399.134 271.543 399.524 272.029 399.818C272.521 400.106 273.064 400.25 273.658 400.25ZM272.038 407L283.936 395.12L282.856 394.04L270.958 405.92L272.038 407ZM273.658 398.837C273.166 398.837 272.737 398.657 272.371 398.297C272.011 397.931 271.831 397.502 271.831 397.01C271.831 396.512 272.011 396.083 272.371 395.723C272.737 395.363 273.166 395.183 273.658 395.183C274.156 395.183 274.585 395.363 274.945 395.723C275.305 396.083 275.485 396.512 275.485 397.01C275.485 397.502 275.305 397.931 274.945 398.297C274.585 398.657 274.156 398.837 273.658 398.837ZM281.236 407.27C281.83 407.27 282.37 407.126 282.856 406.838C283.348 406.544 283.741 406.154 284.035 405.668C284.329 405.176 284.476 404.63 284.476 404.03C284.476 403.43 284.329 402.887 284.035 402.401C283.741 401.909 283.348 401.519 282.856 401.231C282.37 400.937 281.83 400.79 281.236 400.79C280.66 400.79 280.126 400.937 279.634 401.231C279.142 401.525 278.746 401.918 278.446 402.41C278.146 402.902 277.996 403.442 277.996 404.03C277.996 404.63 278.14 405.176 278.428 405.668C278.722 406.154 279.115 406.544 279.607 406.838C280.099 407.126 280.642 407.27 281.236 407.27ZM281.236 405.857C280.744 405.857 280.315 405.677 279.949 405.317C279.589 404.951 279.409 404.522 279.409 404.03C279.409 403.532 279.589 403.103 279.949 402.743C280.315 402.383 280.744 402.203 281.236 402.203C281.734 402.203 282.163 402.383 282.523 402.743C282.883 403.103 283.063 403.532 283.063 404.03C283.063 404.522 282.883 404.951 282.523 405.317C282.163 405.677 281.734 405.857 281.236 405.857Z" fill="#31485F"/>
<path d="M1.97 527.002H4.868V516.922L11.441 527.002H14.339V511.882H11.441V521.962L4.868 511.882H1.97V527.002ZM22.3718 527.317C23.5058 527.317 24.5033 527.065 25.3643 526.561C26.2323 526.05 26.9078 525.346 27.3908 524.45C27.8808 523.547 28.1258 522.508 28.1258 521.332C28.1258 520.163 27.8843 519.13 27.4013 518.234C26.9183 517.331 26.2428 516.624 25.3748 516.113C24.5138 515.602 23.5128 515.347 22.3718 515.347C21.2518 515.347 20.2613 515.599 19.4003 516.103C18.5393 516.607 17.8638 517.31 17.3738 518.213C16.8838 519.109 16.6388 520.149 16.6388 521.332C16.6388 522.501 16.8768 523.537 17.3528 524.44C17.8358 525.336 18.5078 526.039 19.3688 526.55C20.2298 527.061 21.2308 527.317 22.3718 527.317ZM22.3718 524.65C21.4828 524.65 20.8073 524.352 20.3453 523.757C19.8903 523.155 19.6628 522.347 19.6628 521.332C19.6628 520.345 19.8798 519.547 20.3138 518.938C20.7548 518.322 21.4408 518.014 22.3718 518.014C23.2748 518.014 23.9538 518.315 24.4088 518.917C24.8708 519.519 25.1018 520.324 25.1018 521.332C25.1018 522.305 24.8743 523.103 24.4193 523.726C23.9713 524.342 23.2888 524.65 22.3718 524.65ZM32.4397 527.002H34.6237L37.1017 519.61L39.5797 527.002H41.7637L45.2287 515.662H42.4357L40.3777 522.424L38.2882 515.662H35.9152L33.8257 522.424L31.7677 515.662L28.9747 515.641L32.4397 527.002Z" fill="#65D743"/>
<path d="M5.171 561.784H6.773V560.236C7.967 560.122 8.921 559.72 9.635 559.03C10.349 558.34 10.706 557.461 10.706 556.393C10.706 555.499 10.469 554.785 9.995 554.251C9.521 553.711 8.75 553.282 7.682 552.964L5.252 552.244C4.544 552.034 4.028 551.776 3.704 551.47C3.38 551.164 3.218 550.792 3.218 550.354C3.218 549.754 3.473 549.259 3.983 548.869C4.493 548.479 5.132 548.29 5.9 548.302C6.716 548.308 7.406 548.548 7.97 549.022C8.54 549.49 8.888 550.105 9.014 550.867L10.634 550.57C10.43 549.538 9.989 548.698 9.311 548.05C8.639 547.402 7.793 547 6.773 546.844V545.251H5.171V546.817C4.091 546.943 3.227 547.33 2.579 547.978C1.937 548.62 1.616 549.436 1.616 550.426C1.616 551.986 2.501 553.042 4.271 553.594L7.232 554.512C7.91 554.722 8.396 554.977 8.69 555.277C8.984 555.577 9.131 555.973 9.131 556.465C9.131 557.137 8.855 557.686 8.303 558.112C7.757 558.538 7.046 558.751 6.17 558.751C5.294 558.751 4.544 558.517 3.92 558.049C3.302 557.581 2.897 556.948 2.705 556.15L1.13 556.411C1.31 557.449 1.76 558.304 2.48 558.976C3.2 559.642 4.097 560.053 5.171 560.209V561.784ZM19.1706 560.002H20.7996V547.042H19.1706L16.7316 548.5V550.291L19.1706 548.815V560.002ZM28.9581 560.272C29.7981 560.272 30.5481 560.083 31.2081 559.705C31.8681 559.327 32.3871 558.808 32.7651 558.148C33.1431 557.488 33.3321 556.738 33.3321 555.898V551.146C33.3321 550.306 33.1431 549.556 32.7651 548.896C32.3871 548.236 31.8681 547.717 31.2081 547.339C30.5481 546.961 29.7981 546.772 28.9581 546.772C28.1181 546.772 27.3681 546.961 26.7081 547.339C26.0481 547.717 25.5291 548.236 25.1511 548.896C24.7731 549.556 24.5841 550.306 24.5841 551.146V555.898C24.5841 556.738 24.7731 557.488 25.1511 558.148C25.5291 558.808 26.0481 559.327 26.7081 559.705C27.3681 560.083 28.1181 560.272 28.9581 560.272ZM28.9581 558.733C28.4541 558.733 27.9921 558.61 27.5721 558.364C27.1581 558.118 26.8281 557.788 26.5821 557.374C26.3361 556.954 26.2131 556.492 26.2131 555.988V551.047C26.2131 550.537 26.3361 550.075 26.5821 549.661C26.8281 549.247 27.1581 548.917 27.5721 548.671C27.9921 548.425 28.4541 548.302 28.9581 548.302C29.4681 548.302 29.9301 548.425 30.3441 548.671C30.7581 548.917 31.0881 549.247 31.3341 549.661C31.5801 550.075 31.7031 550.537 31.7031 551.047V555.988C31.7031 556.492 31.5801 556.954 31.3341 557.374C31.0881 557.788 30.7581 558.118 30.3441 558.364C29.9301 558.61 29.4681 558.733 28.9581 558.733ZM40.1662 560.002H41.7772V553.828C41.7772 553.114 41.9692 552.541 42.3532 552.109C42.7432 551.677 43.2562 551.461 43.8922 551.461C44.5282 551.461 45.0382 551.674 45.4222 552.1C45.8062 552.526 45.9982 553.108 45.9982 553.846L45.9892 560.002H47.5822L47.5912 553.828C47.5912 553.282 47.6932 552.835 47.8972 552.487C48.1012 552.139 48.3652 551.881 48.6892 551.713C49.0132 551.545 49.3552 551.461 49.7152 551.461C50.3272 551.461 50.8282 551.668 51.2182 552.082C51.6082 552.49 51.8032 553.057 51.8032 553.783L51.7942 560.002H53.3962L53.4052 553.432C53.4052 552.394 53.1142 551.569 52.5322 550.957C51.9502 550.339 51.1522 550.03 50.1382 550.03C49.4962 550.03 48.9172 550.174 48.4012 550.462C47.8852 550.744 47.4832 551.134 47.1952 551.632C46.9312 551.122 46.5562 550.729 46.0702 550.453C45.5842 550.171 45.0142 550.03 44.3602 550.03C43.7782 550.03 43.2472 550.147 42.7672 550.381C42.2932 550.609 41.9032 550.921 41.5972 551.317V550.282H40.1662V560.002ZM56.2895 560.002H57.8915V546.772H56.2895V560.002ZM60.9429 560.002H62.5629V554.881C62.5629 553.753 62.8059 552.916 63.2919 552.37C63.7839 551.824 64.4319 551.551 65.2359 551.551C65.9199 551.551 66.4539 551.722 66.8379 552.064C67.2219 552.406 67.4889 552.85 67.6389 553.396C67.7949 553.942 67.8729 554.521 67.8729 555.133V560.002H69.4929V554.629C69.4929 554.167 69.4359 553.672 69.3219 553.144C69.2139 552.61 69.0159 552.109 68.7279 551.641C68.4459 551.167 68.0529 550.78 67.5489 550.48C67.0509 550.18 66.4089 550.03 65.6229 550.03C64.2069 550.03 63.1269 550.531 62.3829 551.533V550.282H60.9429V560.002ZM80.2512 560.272C81.2532 560.272 82.1112 560.032 82.8252 559.552C83.5392 559.072 84.0672 558.379 84.4092 557.473L82.7892 557.05C82.3392 558.184 81.4932 558.751 80.2512 558.751C79.2852 558.751 78.5562 558.421 78.0642 557.761C77.5782 557.101 77.3292 556.228 77.3172 555.142C77.3292 554.086 77.5722 553.222 78.0462 552.55C78.5202 551.872 79.2552 551.533 80.2512 551.533C80.8392 551.533 81.3642 551.689 81.8262 552.001C82.2882 552.313 82.6212 552.751 82.8252 553.315L84.4092 552.838C84.1512 551.962 83.6502 551.272 82.9062 550.768C82.1682 550.264 81.2892 550.012 80.2692 550.012C79.2972 550.012 78.4632 550.231 77.7672 550.669C77.0772 551.101 76.5492 551.701 76.1832 552.469C75.8172 553.237 75.6282 554.128 75.6162 555.142C75.6282 556.132 75.8142 557.014 76.1742 557.788C76.5342 558.562 77.0562 559.171 77.7402 559.615C78.4302 560.053 79.2672 560.272 80.2512 560.272ZM89.2812 560.272C90.9012 560.272 92.1012 559.678 92.8812 558.49V560.002H94.3032V553.99C94.3032 553.606 94.2852 553.24 94.2492 552.892C94.2132 552.538 94.1262 552.211 93.9882 551.911C93.7122 551.275 93.2562 550.801 92.6202 550.489C91.9842 550.171 91.2282 550.012 90.3522 550.012C89.2542 550.012 88.3662 550.255 87.6882 550.741C87.0162 551.227 86.5662 551.896 86.3382 552.748L87.8592 553.207C88.0332 552.613 88.3422 552.181 88.7862 551.911C89.2302 551.641 89.7462 551.506 90.3342 551.506C91.1742 551.506 91.7772 551.695 92.1432 552.073C92.5152 552.445 92.7102 553.018 92.7282 553.792C92.0082 553.894 91.2522 554.002 90.4602 554.116C89.6742 554.224 88.9752 554.359 88.3632 554.521C87.6252 554.737 87.0432 555.076 86.6172 555.538C86.1912 555.994 85.9782 556.606 85.9782 557.374C85.9782 557.896 86.1012 558.376 86.3472 558.814C86.5992 559.252 86.9682 559.606 87.4542 559.876C87.9462 560.14 88.5552 560.272 89.2812 560.272ZM89.5242 558.931C88.8342 558.931 88.3362 558.772 88.0302 558.454C87.7242 558.13 87.5712 557.767 87.5712 557.365C87.5712 556.909 87.7212 556.561 88.0212 556.321C88.3272 556.075 88.6812 555.889 89.0832 555.763C89.5572 555.631 90.1092 555.52 90.7392 555.43C91.3692 555.34 92.0262 555.25 92.7102 555.16C92.7102 555.382 92.6982 555.634 92.6742 555.916C92.6562 556.198 92.6142 556.456 92.5482 556.69C92.4342 557.29 92.1162 557.815 91.5942 558.265C91.0782 558.709 90.3882 558.931 89.5242 558.931ZM96.9942 564.322H98.6052V559.102C98.9532 559.468 99.3642 559.756 99.8382 559.966C100.318 560.17 100.861 560.272 101.467 560.272C102.373 560.272 103.15 560.047 103.798 559.597C104.452 559.141 104.953 558.526 105.301 557.752C105.649 556.978 105.823 556.105 105.823 555.133C105.823 554.161 105.649 553.288 105.301 552.514C104.953 551.74 104.452 551.131 103.798 550.687C103.15 550.237 102.376 550.012 101.476 550.012C100.816 550.012 100.231 550.132 99.7212 550.372C99.2112 550.612 98.7792 550.945 98.4252 551.371V550.282H96.9942V564.322ZM101.269 558.805C100.291 558.805 99.5712 558.46 99.1092 557.77C98.6532 557.08 98.4252 556.201 98.4252 555.133C98.4252 554.059 98.6532 553.183 99.1092 552.505C99.5712 551.821 100.276 551.479 101.224 551.479C101.884 551.479 102.427 551.641 102.853 551.965C103.285 552.289 103.603 552.727 103.807 553.279C104.017 553.831 104.122 554.449 104.122 555.133C104.122 555.823 104.017 556.447 103.807 557.005C103.597 557.557 103.282 557.995 102.862 558.319C102.442 558.643 101.911 558.805 101.269 558.805Z" fill="#31485F"/>
<path d="M144.97 527.002H147.826V521.878H151.008L153.496 527.002H156.73L154 521.395C154.861 521.003 155.495 520.411 155.901 519.62C156.314 518.822 156.52 517.909 156.52 516.88C156.52 515.606 156.209 514.521 155.586 513.625C154.963 512.729 153.972 512.176 152.614 511.966C152.418 511.931 152.194 511.91 151.942 511.903C151.697 511.889 151.501 511.882 151.354 511.882H144.97V527.002ZM147.826 519.211V514.549H151.228C151.375 514.549 151.536 514.556 151.711 514.57C151.886 514.584 152.047 514.612 152.194 514.654C152.579 514.759 152.877 514.937 153.087 515.189C153.297 515.434 153.44 515.711 153.517 516.019C153.601 516.32 153.643 516.607 153.643 516.88C153.643 517.153 153.601 517.443 153.517 517.751C153.44 518.052 153.297 518.329 153.087 518.581C152.877 518.826 152.579 519.001 152.194 519.106C152.047 519.148 151.886 519.176 151.711 519.19C151.536 519.204 151.375 519.211 151.228 519.211H147.826ZM164.309 527.317C165.401 527.317 166.406 527.03 167.323 526.456C168.247 525.882 168.922 525.077 169.349 524.041L166.493 523.222C166.059 524.174 165.275 524.65 164.141 524.65C163.364 524.65 162.752 524.433 162.304 523.999C161.863 523.565 161.59 522.942 161.485 522.13H169.444C169.563 520.758 169.423 519.564 169.024 518.549C168.625 517.534 168.009 516.747 167.176 516.187C166.343 515.627 165.331 515.347 164.141 515.347C163.021 515.347 162.031 515.602 161.17 516.113C160.309 516.617 159.633 517.328 159.143 518.245C158.653 519.162 158.408 520.24 158.408 521.479C158.408 522.613 158.657 523.621 159.154 524.503C159.658 525.378 160.351 526.067 161.233 526.571C162.122 527.068 163.147 527.317 164.309 527.317ZM164.267 517.825C164.953 517.825 165.478 517.996 165.842 518.339C166.213 518.682 166.451 519.239 166.556 520.009H161.558C161.859 518.553 162.762 517.825 164.267 517.825ZM172.025 527.002H174.881V511.567H172.025V527.002ZM183.3 527.317C184.392 527.317 185.396 527.03 186.313 526.456C187.237 525.882 187.913 525.077 188.34 524.041L185.484 523.222C185.05 524.174 184.266 524.65 183.132 524.65C182.355 524.65 181.742 524.433 181.294 523.999C180.853 523.565 180.58 522.942 180.475 522.13H188.434C188.553 520.758 188.413 519.564 188.014 518.549C187.615 517.534 186.999 516.747 186.166 516.187C185.333 515.627 184.322 515.347 183.132 515.347C182.012 515.347 181.021 515.602 180.16 516.113C179.299 516.617 178.624 517.328 178.134 518.245C177.644 519.162 177.399 520.24 177.399 521.479C177.399 522.613 177.647 523.621 178.144 524.503C178.648 525.378 179.341 526.067 180.223 526.571C181.112 527.068 182.138 527.317 183.3 527.317ZM183.258 517.825C183.944 517.825 184.469 517.996 184.833 518.339C185.204 518.682 185.442 519.239 185.547 520.009H180.549C180.85 518.553 181.753 517.825 183.258 517.825ZM193.75 527.317C194.625 527.317 195.36 527.184 195.955 526.918C196.557 526.645 197.11 526.211 197.614 525.616V527.002H200.113V520.072C200.113 519.554 200.092 519.085 200.05 518.665C200.008 518.245 199.875 517.825 199.651 517.405C199.252 516.649 198.664 516.117 197.887 515.809C197.11 515.501 196.221 515.347 195.22 515.347C193.855 515.347 192.777 515.641 191.986 516.229C191.195 516.817 190.656 517.58 190.369 518.518L192.952 519.337C193.134 518.819 193.452 518.458 193.907 518.255C194.362 518.052 194.8 517.951 195.22 517.951C195.892 517.951 196.392 518.077 196.721 518.329C197.05 518.574 197.243 518.962 197.299 519.494C196.235 519.648 195.297 519.799 194.485 519.946C193.673 520.086 192.994 520.254 192.448 520.45C191.538 520.786 190.897 521.244 190.526 521.825C190.155 522.399 189.97 523.082 189.97 523.873C189.97 524.503 190.113 525.08 190.4 525.605C190.694 526.123 191.121 526.54 191.681 526.855C192.248 527.163 192.938 527.317 193.75 527.317ZM194.359 525.07C193.869 525.07 193.48 524.961 193.193 524.744C192.906 524.52 192.763 524.216 192.763 523.831C192.763 523.544 192.854 523.299 193.036 523.096C193.218 522.886 193.519 522.697 193.939 522.529C194.261 522.41 194.656 522.301 195.125 522.203C195.601 522.098 196.319 521.965 197.278 521.804C197.271 522.077 197.25 522.378 197.215 522.707C197.18 523.029 197.103 523.313 196.984 523.558C196.907 523.719 196.76 523.918 196.543 524.156C196.333 524.394 196.046 524.608 195.682 524.797C195.325 524.979 194.884 525.07 194.359 525.07ZM207.274 527.317C208.758 527.317 209.92 526.984 210.76 526.319C211.6 525.654 212.02 524.741 212.02 523.579C212.02 522.697 211.747 522 211.201 521.489C210.662 520.978 209.745 520.555 208.45 520.219C207.568 519.995 206.91 519.813 206.476 519.673C206.049 519.533 205.766 519.396 205.626 519.263C205.493 519.13 205.426 518.966 205.426 518.77C205.426 518.441 205.584 518.189 205.899 518.014C206.221 517.839 206.644 517.769 207.169 517.804C208.282 517.888 208.891 518.364 208.996 519.232L211.915 518.707C211.768 517.678 211.264 516.862 210.403 516.26C209.542 515.651 208.443 515.347 207.106 515.347C205.734 515.347 204.639 515.669 203.82 516.313C203.001 516.957 202.591 517.825 202.591 518.917C202.591 519.785 202.875 520.471 203.442 520.975C204.009 521.472 204.985 521.899 206.371 522.256C207.19 522.473 207.792 522.648 208.177 522.781C208.569 522.914 208.821 523.05 208.933 523.19C209.045 523.323 209.101 523.502 209.101 523.726C209.101 524.083 208.961 524.363 208.681 524.566C208.401 524.762 208.002 524.86 207.484 524.86C206.854 524.86 206.333 524.709 205.92 524.408C205.514 524.107 205.251 523.691 205.132 523.159L202.213 523.6C202.402 524.783 202.934 525.7 203.809 526.351C204.691 526.995 205.846 527.317 207.274 527.317ZM219.598 527.317C220.69 527.317 221.695 527.03 222.612 526.456C223.536 525.882 224.211 525.077 224.638 524.041L221.782 523.222C221.348 524.174 220.564 524.65 219.43 524.65C218.653 524.65 218.041 524.433 217.593 523.999C217.152 523.565 216.879 522.942 216.774 522.13H224.733C224.852 520.758 224.712 519.564 224.313 518.549C223.914 517.534 223.298 516.747 222.465 516.187C221.632 515.627 220.62 515.347 219.43 515.347C218.31 515.347 217.32 515.602 216.459 516.113C215.598 516.617 214.922 517.328 214.432 518.245C213.942 519.162 213.697 520.24 213.697 521.479C213.697 522.613 213.946 523.621 214.443 524.503C214.947 525.378 215.64 526.067 216.522 526.571C217.411 527.068 218.436 527.317 219.598 527.317ZM219.556 517.825C220.242 517.825 220.767 517.996 221.131 518.339C221.502 518.682 221.74 519.239 221.845 520.009H216.847C217.148 518.553 218.051 517.825 219.556 517.825ZM230.888 526.981H241.472V524.293H235.319L238.7 521.332C239.302 520.807 239.809 520.338 240.222 519.925C240.635 519.505 240.947 519.05 241.157 518.56C241.367 518.063 241.472 517.44 241.472 516.691C241.472 515.676 241.248 514.783 240.8 514.013C240.352 513.243 239.736 512.645 238.952 512.218C238.175 511.784 237.293 511.567 236.306 511.567C235.228 511.567 234.283 511.773 233.471 512.186C232.659 512.599 232.025 513.184 231.57 513.94C231.115 514.696 230.888 515.592 230.888 516.628H233.828C233.814 516.208 233.908 515.819 234.111 515.462C234.314 515.098 234.598 514.808 234.962 514.591C235.333 514.367 235.76 514.255 236.243 514.255C236.936 514.255 237.489 514.482 237.902 514.937C238.322 515.385 238.532 515.956 238.532 516.649C238.532 516.971 238.434 517.317 238.238 517.688C238.042 518.059 237.706 518.455 237.23 518.875L230.888 524.503V526.981ZM249.589 527.317C250.709 527.317 251.689 527.082 252.529 526.613C253.369 526.144 254.023 525.49 254.492 524.65C254.961 523.81 255.196 522.83 255.196 521.71V517.174C255.196 516.054 254.961 515.074 254.492 514.234C254.023 513.394 253.369 512.739 252.529 512.27C251.689 511.801 250.709 511.567 249.589 511.567C248.469 511.567 247.489 511.801 246.649 512.27C245.809 512.739 245.154 513.394 244.685 514.234C244.216 515.074 243.982 516.054 243.982 517.174V521.71C243.982 522.83 244.216 523.81 244.685 524.65C245.154 525.49 245.809 526.144 246.649 526.613C247.489 527.082 248.469 527.317 249.589 527.317ZM249.589 524.608C249.085 524.608 248.63 524.489 248.224 524.251C247.818 524.013 247.496 523.691 247.258 523.285C247.02 522.879 246.901 522.424 246.901 521.92V516.943C246.901 516.439 247.02 515.984 247.258 515.578C247.496 515.172 247.818 514.85 248.224 514.612C248.63 514.374 249.085 514.255 249.589 514.255C250.093 514.255 250.548 514.374 250.954 514.612C251.36 514.85 251.682 515.172 251.92 515.578C252.158 515.984 252.277 516.439 252.277 516.943V521.92C252.277 522.424 252.158 522.879 251.92 523.285C251.682 523.691 251.36 524.013 250.954 524.251C250.548 524.489 250.093 524.608 249.589 524.608ZM257.712 526.981H268.296V524.293H262.143L265.524 521.332C266.126 520.807 266.634 520.338 267.047 519.925C267.46 519.505 267.771 519.05 267.981 518.56C268.191 518.063 268.296 517.44 268.296 516.691C268.296 515.676 268.072 514.783 267.624 514.013C267.176 513.243 266.56 512.645 265.776 512.218C264.999 511.784 264.117 511.567 263.13 511.567C262.052 511.567 261.107 511.773 260.295 512.186C259.483 512.599 258.85 513.184 258.395 513.94C257.94 514.696 257.712 515.592 257.712 516.628H260.652C260.638 516.208 260.733 515.819 260.936 515.462C261.139 515.098 261.422 514.808 261.786 514.591C262.157 514.367 262.584 514.255 263.067 514.255C263.76 514.255 264.313 514.482 264.726 514.937C265.146 515.385 265.356 515.956 265.356 516.649C265.356 516.971 265.258 517.317 265.062 517.688C264.866 518.059 264.53 518.455 264.054 518.875L257.712 524.503V526.981ZM270.386 526.981H280.97V524.293H274.817L278.198 521.332C278.8 520.807 279.307 520.338 279.72 519.925C280.133 519.505 280.445 519.05 280.655 518.56C280.865 518.063 280.97 517.44 280.97 516.691C280.97 515.676 280.746 514.783 280.298 514.013C279.85 513.243 279.234 512.645 278.45 512.218C277.673 511.784 276.791 511.567 275.804 511.567C274.726 511.567 273.781 511.773 272.969 512.186C272.157 512.599 271.523 513.184 271.068 513.94C270.613 514.696 270.386 515.592 270.386 516.628H273.326C273.312 516.208 273.406 515.819 273.609 515.462C273.812 515.098 274.096 514.808 274.46 514.591C274.831 514.367 275.258 514.255 275.741 514.255C276.434 514.255 276.987 514.482 277.4 514.937C277.82 515.385 278.03 515.956 278.03 516.649C278.03 516.971 277.932 517.317 277.736 517.688C277.54 518.059 277.204 518.455 276.728 518.875L270.386 524.503V526.981Z" fill="#6380DC"/>
<path d="M148.171 561.784H149.773V560.236C150.967 560.122 151.921 559.72 152.635 559.03C153.349 558.34 153.706 557.461 153.706 556.393C153.706 555.499 153.469 554.785 152.995 554.251C152.521 553.711 151.75 553.282 150.682 552.964L148.252 552.244C147.544 552.034 147.028 551.776 146.704 551.47C146.38 551.164 146.218 550.792 146.218 550.354C146.218 549.754 146.473 549.259 146.983 548.869C147.493 548.479 148.132 548.29 148.9 548.302C149.716 548.308 150.406 548.548 150.97 549.022C151.54 549.49 151.888 550.105 152.014 550.867L153.634 550.57C153.43 549.538 152.989 548.698 152.311 548.05C151.639 547.402 150.793 547 149.773 546.844V545.251H148.171V546.817C147.091 546.943 146.227 547.33 145.579 547.978C144.937 548.62 144.616 549.436 144.616 550.426C144.616 551.986 145.501 553.042 147.271 553.594L150.232 554.512C150.91 554.722 151.396 554.977 151.69 555.277C151.984 555.577 152.131 555.973 152.131 556.465C152.131 557.137 151.855 557.686 151.303 558.112C150.757 558.538 150.046 558.751 149.17 558.751C148.294 558.751 147.544 558.517 146.92 558.049C146.302 557.581 145.897 556.948 145.705 556.15L144.13 556.411C144.31 557.449 144.76 558.304 145.48 558.976C146.2 559.642 147.097 560.053 148.171 560.209V561.784ZM162.171 560.002H163.8V547.042H162.171L159.732 548.5V550.291L162.171 548.815V560.002ZM171.958 560.272C172.798 560.272 173.548 560.083 174.208 559.705C174.868 559.327 175.387 558.808 175.765 558.148C176.143 557.488 176.332 556.738 176.332 555.898V551.146C176.332 550.306 176.143 549.556 175.765 548.896C175.387 548.236 174.868 547.717 174.208 547.339C173.548 546.961 172.798 546.772 171.958 546.772C171.118 546.772 170.368 546.961 169.708 547.339C169.048 547.717 168.529 548.236 168.151 548.896C167.773 549.556 167.584 550.306 167.584 551.146V555.898C167.584 556.738 167.773 557.488 168.151 558.148C168.529 558.808 169.048 559.327 169.708 559.705C170.368 560.083 171.118 560.272 171.958 560.272ZM171.958 558.733C171.454 558.733 170.992 558.61 170.572 558.364C170.158 558.118 169.828 557.788 169.582 557.374C169.336 556.954 169.213 556.492 169.213 555.988V551.047C169.213 550.537 169.336 550.075 169.582 549.661C169.828 549.247 170.158 548.917 170.572 548.671C170.992 548.425 171.454 548.302 171.958 548.302C172.468 548.302 172.93 548.425 173.344 548.671C173.758 548.917 174.088 549.247 174.334 549.661C174.58 550.075 174.703 550.537 174.703 551.047V555.988C174.703 556.492 174.58 556.954 174.334 557.374C174.088 557.788 173.758 558.118 173.344 558.364C172.93 558.61 172.468 558.733 171.958 558.733ZM183.586 560.272C184.426 560.272 185.176 560.083 185.836 559.705C186.496 559.327 187.015 558.808 187.393 558.148C187.771 557.488 187.96 556.738 187.96 555.898V551.146C187.96 550.306 187.771 549.556 187.393 548.896C187.015 548.236 186.496 547.717 185.836 547.339C185.176 546.961 184.426 546.772 183.586 546.772C182.746 546.772 181.996 546.961 181.336 547.339C180.676 547.717 180.157 548.236 179.779 548.896C179.401 549.556 179.212 550.306 179.212 551.146V555.898C179.212 556.738 179.401 557.488 179.779 558.148C180.157 558.808 180.676 559.327 181.336 559.705C181.996 560.083 182.746 560.272 183.586 560.272ZM183.586 558.733C183.082 558.733 182.62 558.61 182.2 558.364C181.786 558.118 181.456 557.788 181.21 557.374C180.964 556.954 180.841 556.492 180.841 555.988V551.047C180.841 550.537 180.964 550.075 181.21 549.661C181.456 549.247 181.786 548.917 182.2 548.671C182.62 548.425 183.082 548.302 183.586 548.302C184.096 548.302 184.558 548.425 184.972 548.671C185.386 548.917 185.716 549.247 185.962 549.661C186.208 550.075 186.331 550.537 186.331 551.047V555.988C186.331 556.492 186.208 556.954 185.962 557.374C185.716 557.788 185.386 558.118 184.972 558.364C184.558 558.61 184.096 558.733 183.586 558.733ZM194.794 560.002H196.405V553.828C196.405 553.114 196.597 552.541 196.981 552.109C197.371 551.677 197.884 551.461 198.52 551.461C199.156 551.461 199.666 551.674 200.05 552.1C200.434 552.526 200.626 553.108 200.626 553.846L200.617 560.002H202.21L202.219 553.828C202.219 553.282 202.321 552.835 202.525 552.487C202.729 552.139 202.993 551.881 203.317 551.713C203.641 551.545 203.983 551.461 204.343 551.461C204.955 551.461 205.456 551.668 205.846 552.082C206.236 552.49 206.431 553.057 206.431 553.783L206.422 560.002H208.024L208.033 553.432C208.033 552.394 207.742 551.569 207.16 550.957C206.578 550.339 205.78 550.03 204.766 550.03C204.124 550.03 203.545 550.174 203.029 550.462C202.513 550.744 202.111 551.134 201.823 551.632C201.559 551.122 201.184 550.729 200.698 550.453C200.212 550.171 199.642 550.03 198.988 550.03C198.406 550.03 197.875 550.147 197.395 550.381C196.921 550.609 196.531 550.921 196.225 551.317V550.282H194.794V560.002ZM210.917 560.002H212.519V546.772H210.917V560.002ZM215.57 560.002H217.19V554.881C217.19 553.753 217.433 552.916 217.919 552.37C218.411 551.824 219.059 551.551 219.863 551.551C220.547 551.551 221.081 551.722 221.465 552.064C221.849 552.406 222.116 552.85 222.266 553.396C222.422 553.942 222.5 554.521 222.5 555.133V560.002H224.12V554.629C224.12 554.167 224.063 553.672 223.949 553.144C223.841 552.61 223.643 552.109 223.355 551.641C223.073 551.167 222.68 550.78 222.176 550.48C221.678 550.18 221.036 550.03 220.25 550.03C218.834 550.03 217.754 550.531 217.01 551.533V550.282H215.57V560.002ZM234.879 560.272C235.881 560.272 236.739 560.032 237.453 559.552C238.167 559.072 238.695 558.379 239.037 557.473L237.417 557.05C236.967 558.184 236.121 558.751 234.879 558.751C233.913 558.751 233.184 558.421 232.692 557.761C232.206 557.101 231.957 556.228 231.945 555.142C231.957 554.086 232.2 553.222 232.674 552.55C233.148 551.872 233.883 551.533 234.879 551.533C235.467 551.533 235.992 551.689 236.454 552.001C236.916 552.313 237.249 552.751 237.453 553.315L239.037 552.838C238.779 551.962 238.278 551.272 237.534 550.768C236.796 550.264 235.917 550.012 234.897 550.012C233.925 550.012 233.091 550.231 232.395 550.669C231.705 551.101 231.177 551.701 230.811 552.469C230.445 553.237 230.256 554.128 230.244 555.142C230.256 556.132 230.442 557.014 230.802 557.788C231.162 558.562 231.684 559.171 232.368 559.615C233.058 560.053 233.895 560.272 234.879 560.272ZM243.909 560.272C245.529 560.272 246.729 559.678 247.509 558.49V560.002H248.931V553.99C248.931 553.606 248.913 553.24 248.877 552.892C248.841 552.538 248.754 552.211 248.616 551.911C248.34 551.275 247.884 550.801 247.248 550.489C246.612 550.171 245.856 550.012 244.98 550.012C243.882 550.012 242.994 550.255 242.316 550.741C241.644 551.227 241.194 551.896 240.966 552.748L242.487 553.207C242.661 552.613 242.97 552.181 243.414 551.911C243.858 551.641 244.374 551.506 244.962 551.506C245.802 551.506 246.405 551.695 246.771 552.073C247.143 552.445 247.338 553.018 247.356 553.792C246.636 553.894 245.88 554.002 245.088 554.116C244.302 554.224 243.603 554.359 242.991 554.521C242.253 554.737 241.671 555.076 241.245 555.538C240.819 555.994 240.606 556.606 240.606 557.374C240.606 557.896 240.729 558.376 240.975 558.814C241.227 559.252 241.596 559.606 242.082 559.876C242.574 560.14 243.183 560.272 243.909 560.272ZM244.152 558.931C243.462 558.931 242.964 558.772 242.658 558.454C242.352 558.13 242.199 557.767 242.199 557.365C242.199 556.909 242.349 556.561 242.649 556.321C242.955 556.075 243.309 555.889 243.711 555.763C244.185 555.631 244.737 555.52 245.367 555.43C245.997 555.34 246.654 555.25 247.338 555.16C247.338 555.382 247.326 555.634 247.302 555.916C247.284 556.198 247.242 556.456 247.176 556.69C247.062 557.29 246.744 557.815 246.222 558.265C245.706 558.709 245.016 558.931 244.152 558.931ZM251.622 564.322H253.233V559.102C253.581 559.468 253.992 559.756 254.466 559.966C254.946 560.17 255.489 560.272 256.095 560.272C257.001 560.272 257.778 560.047 258.426 559.597C259.08 559.141 259.581 558.526 259.929 557.752C260.277 556.978 260.451 556.105 260.451 555.133C260.451 554.161 260.277 553.288 259.929 552.514C259.581 551.74 259.08 551.131 258.426 550.687C257.778 550.237 257.004 550.012 256.104 550.012C255.444 550.012 254.859 550.132 254.349 550.372C253.839 550.612 253.407 550.945 253.053 551.371V550.282H251.622V564.322ZM255.897 558.805C254.919 558.805 254.199 558.46 253.737 557.77C253.281 557.08 253.053 556.201 253.053 555.133C253.053 554.059 253.281 553.183 253.737 552.505C254.199 551.821 254.904 551.479 255.852 551.479C256.512 551.479 257.055 551.641 257.481 551.965C257.913 552.289 258.231 552.727 258.435 553.279C258.645 553.831 258.75 554.449 258.75 555.133C258.75 555.823 258.645 556.447 258.435 557.005C258.225 557.557 257.91 557.995 257.49 558.319C257.07 558.643 256.539 558.805 255.897 558.805Z" fill="#31485F"/>
<path d="M355.55 526.981H366.134V524.293H359.981L363.362 521.332C363.964 520.807 364.472 520.338 364.885 519.925C365.298 519.505 365.609 519.05 365.819 518.56C366.029 518.063 366.134 517.44 366.134 516.691C366.134 515.676 365.91 514.783 365.462 514.013C365.014 513.243 364.398 512.645 363.614 512.218C362.837 511.784 361.955 511.567 360.968 511.567C359.89 511.567 358.945 511.773 358.133 512.186C357.321 512.599 356.688 513.184 356.233 513.94C355.778 514.696 355.55 515.592 355.55 516.628H358.49C358.476 516.208 358.571 515.819 358.774 515.462C358.977 515.098 359.26 514.808 359.624 514.591C359.995 514.367 360.422 514.255 360.905 514.255C361.598 514.255 362.151 514.482 362.564 514.937C362.984 515.385 363.194 515.956 363.194 516.649C363.194 516.971 363.096 517.317 362.9 517.688C362.704 518.059 362.368 518.455 361.892 518.875L355.55 524.503V526.981ZM374.251 527.317C375.371 527.317 376.351 527.082 377.191 526.613C378.031 526.144 378.685 525.49 379.154 524.65C379.623 523.81 379.858 522.83 379.858 521.71V517.174C379.858 516.054 379.623 515.074 379.154 514.234C378.685 513.394 378.031 512.739 377.191 512.27C376.351 511.801 375.371 511.567 374.251 511.567C373.131 511.567 372.151 511.801 371.311 512.27C370.471 512.739 369.816 513.394 369.347 514.234C368.878 515.074 368.644 516.054 368.644 517.174V521.71C368.644 522.83 368.878 523.81 369.347 524.65C369.816 525.49 370.471 526.144 371.311 526.613C372.151 527.082 373.131 527.317 374.251 527.317ZM374.251 524.608C373.747 524.608 373.292 524.489 372.886 524.251C372.48 524.013 372.158 523.691 371.92 523.285C371.682 522.879 371.563 522.424 371.563 521.92V516.943C371.563 516.439 371.682 515.984 371.92 515.578C372.158 515.172 372.48 514.85 372.886 514.612C373.292 514.374 373.747 514.255 374.251 514.255C374.755 514.255 375.21 514.374 375.616 514.612C376.022 514.85 376.344 515.172 376.582 515.578C376.82 515.984 376.939 516.439 376.939 516.943V521.92C376.939 522.424 376.82 522.879 376.582 523.285C376.344 523.691 376.022 524.013 375.616 524.251C375.21 524.489 374.755 524.608 374.251 524.608ZM382.374 526.981H392.958V524.293H386.805L390.186 521.332C390.788 520.807 391.296 520.338 391.709 519.925C392.122 519.505 392.433 519.05 392.643 518.56C392.853 518.063 392.958 517.44 392.958 516.691C392.958 515.676 392.734 514.783 392.286 514.013C391.838 513.243 391.222 512.645 390.438 512.218C389.661 511.784 388.779 511.567 387.792 511.567C386.714 511.567 385.769 511.773 384.957 512.186C384.145 512.599 383.512 513.184 383.057 513.94C382.602 514.696 382.374 515.592 382.374 516.628H385.314C385.3 516.208 385.395 515.819 385.598 515.462C385.801 515.098 386.084 514.808 386.448 514.591C386.819 514.367 387.246 514.255 387.729 514.255C388.422 514.255 388.975 514.482 389.388 514.937C389.808 515.385 390.018 515.956 390.018 516.649C390.018 516.971 389.92 517.317 389.724 517.688C389.528 518.059 389.192 518.455 388.716 518.875L382.374 524.503V526.981ZM400.739 527.317C401.691 527.317 402.566 527.093 403.364 526.645C404.162 526.19 404.803 525.581 405.286 524.818C405.769 524.048 406.01 523.187 406.01 522.235C406.01 521.283 405.804 520.436 405.391 519.694C404.985 518.952 404.418 518.367 403.69 517.94C402.969 517.513 402.132 517.3 401.18 517.3C400.137 517.3 399.206 517.611 398.387 518.234V516.943C398.387 516.481 398.496 516.047 398.713 515.641C398.937 515.228 399.248 514.895 399.647 514.643C400.053 514.384 400.529 514.255 401.075 514.255C401.803 514.255 402.433 514.521 402.965 515.053L405.002 513.016C404.449 512.498 403.84 512.13 403.175 511.913C402.51 511.696 401.81 511.588 401.075 511.588C399.941 511.588 398.954 511.822 398.114 512.291C397.274 512.753 396.623 513.418 396.161 514.286C395.699 515.147 395.468 516.173 395.468 517.363V521.752C395.468 522.851 395.699 523.82 396.161 524.66C396.623 525.493 397.25 526.144 398.041 526.613C398.839 527.082 399.738 527.317 400.739 527.317ZM400.739 524.587C400.305 524.587 399.91 524.478 399.553 524.261C399.196 524.044 398.912 523.757 398.702 523.4C398.492 523.043 398.387 522.655 398.387 522.235C398.387 521.801 398.492 521.405 398.702 521.048C398.919 520.684 399.206 520.397 399.563 520.187C399.927 519.97 400.326 519.862 400.76 519.862C401.194 519.862 401.59 519.97 401.947 520.187C402.304 520.397 402.587 520.684 402.797 521.048C403.007 521.405 403.112 521.801 403.112 522.235C403.112 522.669 403.004 523.064 402.787 523.421C402.577 523.778 402.29 524.062 401.926 524.272C401.569 524.482 401.173 524.587 400.739 524.587Z" fill="#794DCC"/>
<path d="M359.171 561.784H360.773V560.236C361.967 560.122 362.921 559.72 363.635 559.03C364.349 558.34 364.706 557.461 364.706 556.393C364.706 555.499 364.469 554.785 363.995 554.251C363.521 553.711 362.75 553.282 361.682 552.964L359.252 552.244C358.544 552.034 358.028 551.776 357.704 551.47C357.38 551.164 357.218 550.792 357.218 550.354C357.218 549.754 357.473 549.259 357.983 548.869C358.493 548.479 359.132 548.29 359.9 548.302C360.716 548.308 361.406 548.548 361.97 549.022C362.54 549.49 362.888 550.105 363.014 550.867L364.634 550.57C364.43 549.538 363.989 548.698 363.311 548.05C362.639 547.402 361.793 547 360.773 546.844V545.251H359.171V546.817C358.091 546.943 357.227 547.33 356.579 547.978C355.937 548.62 355.616 549.436 355.616 550.426C355.616 551.986 356.501 553.042 358.271 553.594L361.232 554.512C361.91 554.722 362.396 554.977 362.69 555.277C362.984 555.577 363.131 555.973 363.131 556.465C363.131 557.137 362.855 557.686 362.303 558.112C361.757 558.538 361.046 558.751 360.17 558.751C359.294 558.751 358.544 558.517 357.92 558.049C357.302 557.581 356.897 556.948 356.705 556.15L355.13 556.411C355.31 557.449 355.76 558.304 356.48 558.976C357.2 559.642 358.097 560.053 359.171 560.209V561.784ZM373.171 560.002H374.8V547.042H373.171L370.732 548.5V550.291L373.171 548.815V560.002ZM382.539 560.002H383.97V558.904C384.324 559.33 384.753 559.666 385.257 559.912C385.767 560.152 386.352 560.272 387.012 560.272C387.918 560.272 388.695 560.047 389.343 559.597C389.997 559.141 390.498 558.526 390.846 557.752C391.194 556.978 391.368 556.105 391.368 555.133C391.368 554.161 391.194 553.288 390.846 552.514C390.498 551.74 389.997 551.131 389.343 550.687C388.695 550.237 387.921 550.012 387.021 550.012C386.415 550.012 385.872 550.114 385.392 550.318C384.912 550.522 384.498 550.804 384.15 551.164V547.042H382.539V560.002ZM386.814 558.805C385.836 558.805 385.116 558.46 384.654 557.77C384.198 557.08 383.97 556.201 383.97 555.133C383.97 554.059 384.198 553.183 384.654 552.505C385.116 551.821 385.821 551.479 386.769 551.479C387.429 551.479 387.972 551.641 388.398 551.965C388.83 552.289 389.148 552.727 389.352 553.279C389.562 553.831 389.667 554.449 389.667 555.133C389.667 555.823 389.562 556.447 389.352 557.005C389.142 557.557 388.827 557.995 388.407 558.319C387.987 558.643 387.456 558.805 386.814 558.805ZM393.881 560.002H395.483V546.772H393.881V560.002ZM398.534 560.002H400.154V554.881C400.154 553.753 400.397 552.916 400.883 552.37C401.375 551.824 402.023 551.551 402.827 551.551C403.511 551.551 404.045 551.722 404.429 552.064C404.813 552.406 405.08 552.85 405.23 553.396C405.386 553.942 405.464 554.521 405.464 555.133V560.002H407.084V554.629C407.084 554.167 407.027 553.672 406.913 553.144C406.805 552.61 406.607 552.109 406.319 551.641C406.037 551.167 405.644 550.78 405.14 550.48C404.642 550.18 404 550.03 403.214 550.03C401.798 550.03 400.718 550.531 399.974 551.533V550.282H398.534V560.002Z" fill="#31485F"/>
<path d="M547.55 526.981H558.134V524.293H551.981L555.362 521.332C555.964 520.807 556.472 520.338 556.885 519.925C557.298 519.505 557.609 519.05 557.819 518.56C558.029 518.063 558.134 517.44 558.134 516.691C558.134 515.676 557.91 514.783 557.462 514.013C557.014 513.243 556.398 512.645 555.614 512.218C554.837 511.784 553.955 511.567 552.968 511.567C551.89 511.567 550.945 511.773 550.133 512.186C549.321 512.599 548.688 513.184 548.233 513.94C547.778 514.696 547.55 515.592 547.55 516.628H550.49C550.476 516.208 550.571 515.819 550.774 515.462C550.977 515.098 551.26 514.808 551.624 514.591C551.995 514.367 552.422 514.255 552.905 514.255C553.598 514.255 554.151 514.482 554.564 514.937C554.984 515.385 555.194 515.956 555.194 516.649C555.194 516.971 555.096 517.317 554.9 517.688C554.704 518.059 554.368 518.455 553.892 518.875L547.55 524.503V526.981ZM566.251 527.317C567.371 527.317 568.351 527.082 569.191 526.613C570.031 526.144 570.685 525.49 571.154 524.65C571.623 523.81 571.858 522.83 571.858 521.71V517.174C571.858 516.054 571.623 515.074 571.154 514.234C570.685 513.394 570.031 512.739 569.191 512.27C568.351 511.801 567.371 511.567 566.251 511.567C565.131 511.567 564.151 511.801 563.311 512.27C562.471 512.739 561.816 513.394 561.347 514.234C560.878 515.074 560.644 516.054 560.644 517.174V521.71C560.644 522.83 560.878 523.81 561.347 524.65C561.816 525.49 562.471 526.144 563.311 526.613C564.151 527.082 565.131 527.317 566.251 527.317ZM566.251 524.608C565.747 524.608 565.292 524.489 564.886 524.251C564.48 524.013 564.158 523.691 563.92 523.285C563.682 522.879 563.563 522.424 563.563 521.92V516.943C563.563 516.439 563.682 515.984 563.92 515.578C564.158 515.172 564.48 514.85 564.886 514.612C565.292 514.374 565.747 514.255 566.251 514.255C566.755 514.255 567.21 514.374 567.616 514.612C568.022 514.85 568.344 515.172 568.582 515.578C568.82 515.984 568.939 516.439 568.939 516.943V521.92C568.939 522.424 568.82 522.879 568.582 523.285C568.344 523.691 568.022 524.013 567.616 524.251C567.21 524.489 566.755 524.608 566.251 524.608ZM574.374 526.981H584.958V524.293H578.805L582.186 521.332C582.788 520.807 583.296 520.338 583.709 519.925C584.122 519.505 584.433 519.05 584.643 518.56C584.853 518.063 584.958 517.44 584.958 516.691C584.958 515.676 584.734 514.783 584.286 514.013C583.838 513.243 583.222 512.645 582.438 512.218C581.661 511.784 580.779 511.567 579.792 511.567C578.714 511.567 577.769 511.773 576.957 512.186C576.145 512.599 575.512 513.184 575.057 513.94C574.602 514.696 574.374 515.592 574.374 516.628H577.314C577.3 516.208 577.395 515.819 577.598 515.462C577.801 515.098 578.084 514.808 578.448 514.591C578.819 514.367 579.246 514.255 579.729 514.255C580.422 514.255 580.975 514.482 581.388 514.937C581.808 515.385 582.018 515.956 582.018 516.649C582.018 516.971 581.92 517.317 581.724 517.688C581.528 518.059 581.192 518.455 580.716 518.875L574.374 524.503V526.981ZM592.529 527.317C593.551 527.317 594.461 527.11 595.259 526.697C596.057 526.277 596.684 525.703 597.139 524.975C597.594 524.24 597.821 523.404 597.821 522.466C597.821 521.773 597.685 521.111 597.412 520.481C597.139 519.844 596.75 519.309 596.246 518.875C596.631 518.434 596.918 517.975 597.107 517.499C597.303 517.023 597.401 516.495 597.401 515.914C597.401 515.039 597.191 514.276 596.771 513.625C596.358 512.974 595.784 512.47 595.049 512.113C594.321 511.749 593.481 511.567 592.529 511.567C591.577 511.567 590.734 511.749 589.999 512.113C589.271 512.47 588.697 512.974 588.277 513.625C587.864 514.276 587.657 515.039 587.657 515.914C587.657 516.495 587.759 517.027 587.962 517.51C588.172 517.993 588.462 518.448 588.833 518.875C588.322 519.33 587.93 519.872 587.657 520.502C587.391 521.125 587.258 521.78 587.258 522.466C587.258 523.404 587.482 524.24 587.93 524.975C588.385 525.703 589.008 526.277 589.799 526.697C590.597 527.11 591.507 527.317 592.529 527.317ZM592.529 517.573C591.983 517.573 591.539 517.44 591.196 517.174C590.853 516.901 590.681 516.481 590.681 515.914C590.681 515.347 590.853 514.927 591.196 514.654C591.539 514.374 591.983 514.234 592.529 514.234C593.075 514.234 593.52 514.374 593.863 514.654C594.206 514.927 594.377 515.347 594.377 515.914C594.377 516.481 594.206 516.901 593.863 517.174C593.52 517.44 593.075 517.573 592.529 517.573ZM592.529 524.629C591.857 524.629 591.315 524.447 590.902 524.083C590.489 523.719 590.282 523.18 590.282 522.466C590.282 521.759 590.489 521.22 590.902 520.849C591.315 520.471 591.857 520.282 592.529 520.282C593.201 520.282 593.747 520.471 594.167 520.849C594.587 521.22 594.797 521.759 594.797 522.466C594.797 523.18 594.587 523.719 594.167 524.083C593.747 524.447 593.201 524.629 592.529 524.629Z" fill="#D0319A"/>
<path d="M551.171 561.784H552.773V560.236C553.967 560.122 554.921 559.72 555.635 559.03C556.349 558.34 556.706 557.461 556.706 556.393C556.706 555.499 556.469 554.785 555.995 554.251C555.521 553.711 554.75 553.282 553.682 552.964L551.252 552.244C550.544 552.034 550.028 551.776 549.704 551.47C549.38 551.164 549.218 550.792 549.218 550.354C549.218 549.754 549.473 549.259 549.983 548.869C550.493 548.479 551.132 548.29 551.9 548.302C552.716 548.308 553.406 548.548 553.97 549.022C554.54 549.49 554.888 550.105 555.014 550.867L556.634 550.57C556.43 549.538 555.989 548.698 555.311 548.05C554.639 547.402 553.793 547 552.773 546.844V545.251H551.171V546.817C550.091 546.943 549.227 547.33 548.579 547.978C547.937 548.62 547.616 549.436 547.616 550.426C547.616 551.986 548.501 553.042 550.271 553.594L553.232 554.512C553.91 554.722 554.396 554.977 554.69 555.277C554.984 555.577 555.131 555.973 555.131 556.465C555.131 557.137 554.855 557.686 554.303 558.112C553.757 558.538 553.046 558.751 552.17 558.751C551.294 558.751 550.544 558.517 549.92 558.049C549.302 557.581 548.897 556.948 548.705 556.15L547.13 556.411C547.31 557.449 547.76 558.304 548.48 558.976C549.2 559.642 550.097 560.053 551.171 560.209V561.784ZM565.171 560.002H566.8V547.042H565.171L562.732 548.5V550.291L565.171 548.815V560.002ZM579.975 560.002V558.625C579.309 558.727 578.739 558.745 578.265 558.679C577.797 558.613 577.455 558.388 577.239 558.004C577.125 557.8 577.062 557.56 577.05 557.284C577.044 557.002 577.041 556.66 577.041 556.258V551.605H579.975V550.282H577.041V547.582H575.439V550.282H573.468V551.605H575.439V556.33C575.439 556.834 575.445 557.284 575.457 557.68C575.475 558.07 575.58 558.454 575.772 558.832C576 559.27 576.333 559.594 576.771 559.804C577.209 560.008 577.707 560.119 578.265 560.137C578.829 560.161 579.399 560.116 579.975 560.002ZM582.488 560.002H584.09V546.772H582.488V560.002ZM587.141 560.002H588.761V554.881C588.761 553.753 589.004 552.916 589.49 552.37C589.982 551.824 590.63 551.551 591.434 551.551C592.118 551.551 592.652 551.722 593.036 552.064C593.42 552.406 593.687 552.85 593.837 553.396C593.993 553.942 594.071 554.521 594.071 555.133V560.002H595.691V554.629C595.691 554.167 595.634 553.672 595.52 553.144C595.412 552.61 595.214 552.109 594.926 551.641C594.644 551.167 594.251 550.78 593.747 550.48C593.249 550.18 592.607 550.03 591.821 550.03C590.405 550.03 589.325 550.531 588.581 551.533V550.282H587.141V560.002Z" fill="#31485F"/>
<path d="M900.55 526.981H911.134V524.293H904.981L908.362 521.332C908.964 520.807 909.472 520.338 909.885 519.925C910.298 519.505 910.609 519.05 910.819 518.56C911.029 518.063 911.134 517.44 911.134 516.691C911.134 515.676 910.91 514.783 910.462 514.013C910.014 513.243 909.398 512.645 908.614 512.218C907.837 511.784 906.955 511.567 905.968 511.567C904.89 511.567 903.945 511.773 903.133 512.186C902.321 512.599 901.688 513.184 901.233 513.94C900.778 514.696 900.55 515.592 900.55 516.628H903.49C903.476 516.208 903.571 515.819 903.774 515.462C903.977 515.098 904.26 514.808 904.624 514.591C904.995 514.367 905.422 514.255 905.905 514.255C906.598 514.255 907.151 514.482 907.564 514.937C907.984 515.385 908.194 515.956 908.194 516.649C908.194 516.971 908.096 517.317 907.9 517.688C907.704 518.059 907.368 518.455 906.892 518.875L900.55 524.503V526.981ZM919.251 527.317C920.371 527.317 921.351 527.082 922.191 526.613C923.031 526.144 923.685 525.49 924.154 524.65C924.623 523.81 924.858 522.83 924.858 521.71V517.174C924.858 516.054 924.623 515.074 924.154 514.234C923.685 513.394 923.031 512.739 922.191 512.27C921.351 511.801 920.371 511.567 919.251 511.567C918.131 511.567 917.151 511.801 916.311 512.27C915.471 512.739 914.816 513.394 914.347 514.234C913.878 515.074 913.644 516.054 913.644 517.174V521.71C913.644 522.83 913.878 523.81 914.347 524.65C914.816 525.49 915.471 526.144 916.311 526.613C917.151 527.082 918.131 527.317 919.251 527.317ZM919.251 524.608C918.747 524.608 918.292 524.489 917.886 524.251C917.48 524.013 917.158 523.691 916.92 523.285C916.682 522.879 916.563 522.424 916.563 521.92V516.943C916.563 516.439 916.682 515.984 916.92 515.578C917.158 515.172 917.48 514.85 917.886 514.612C918.292 514.374 918.747 514.255 919.251 514.255C919.755 514.255 920.21 514.374 920.616 514.612C921.022 514.85 921.344 515.172 921.582 515.578C921.82 515.984 921.939 516.439 921.939 516.943V521.92C921.939 522.424 921.82 522.879 921.582 523.285C921.344 523.691 921.022 524.013 920.616 524.251C920.21 524.489 919.755 524.608 919.251 524.608ZM932.204 527.275C933.156 527.275 934.031 527.054 934.829 526.613C935.627 526.165 936.268 525.563 936.751 524.807C937.234 524.044 937.475 523.187 937.475 522.235C937.475 521.528 937.346 520.859 937.087 520.229C936.835 519.592 936.46 519.039 935.963 518.57C935.466 518.094 934.857 517.751 934.136 517.541L937.202 514.57V511.882H927.752V514.57H933.821L929.747 517.951L931.028 520.198C931.406 519.974 931.798 519.862 932.204 519.862C932.897 519.862 933.464 520.096 933.905 520.565C934.353 521.027 934.577 521.584 934.577 522.235C934.577 522.669 934.469 523.064 934.252 523.421C934.042 523.778 933.755 524.062 933.391 524.272C933.034 524.482 932.638 524.587 932.204 524.587C931.7 524.587 931.231 524.436 930.797 524.135C930.37 523.827 930.083 523.397 929.936 522.844L927.164 523.579C927.381 524.328 927.742 524.979 928.246 525.532C928.757 526.085 929.355 526.515 930.041 526.823C930.727 527.124 931.448 527.275 932.204 527.275ZM942.826 527.002H945.745V511.882H942.826L939.991 513.583V516.733L942.826 514.99V527.002Z" fill="#A45AA5"/>
<path d="M904.171 561.784H905.773V560.236C906.967 560.122 907.921 559.72 908.635 559.03C909.349 558.34 909.706 557.461 909.706 556.393C909.706 555.499 909.469 554.785 908.995 554.251C908.521 553.711 907.75 553.282 906.682 552.964L904.252 552.244C903.544 552.034 903.028 551.776 902.704 551.47C902.38 551.164 902.218 550.792 902.218 550.354C902.218 549.754 902.473 549.259 902.983 548.869C903.493 548.479 904.132 548.29 904.9 548.302C905.716 548.308 906.406 548.548 906.97 549.022C907.54 549.49 907.888 550.105 908.014 550.867L909.634 550.57C909.43 549.538 908.989 548.698 908.311 548.05C907.639 547.402 906.793 547 905.773 546.844V545.251H904.171V546.817C903.091 546.943 902.227 547.33 901.579 547.978C900.937 548.62 900.616 549.436 900.616 550.426C900.616 551.986 901.501 553.042 903.271 553.594L906.232 554.512C906.91 554.722 907.396 554.977 907.69 555.277C907.984 555.577 908.131 555.973 908.131 556.465C908.131 557.137 907.855 557.686 907.303 558.112C906.757 558.538 906.046 558.751 905.17 558.751C904.294 558.751 903.544 558.517 902.92 558.049C902.302 557.581 901.897 556.948 901.705 556.15L900.13 556.411C900.31 557.449 900.76 558.304 901.48 558.976C902.2 559.642 903.097 560.053 904.171 560.209V561.784ZM919.467 560.254C920.271 560.254 920.991 560.074 921.627 559.714C922.263 559.354 922.767 558.856 923.139 558.22C923.511 557.578 923.697 556.843 923.697 556.015C923.697 555.259 923.544 554.581 923.238 553.981C922.938 553.381 922.512 552.901 921.96 552.541C921.414 552.181 920.769 551.98 920.025 551.938L923.526 548.581V547.042H915.885V548.572H921.537L917.325 552.379L918.099 553.648C918.303 553.546 918.522 553.465 918.756 553.405C918.99 553.339 919.218 553.306 919.44 553.306C920.22 553.306 920.85 553.558 921.33 554.062C921.81 554.56 922.05 555.211 922.05 556.015C922.05 556.807 921.813 557.455 921.339 557.959C920.871 558.457 920.244 558.712 919.458 558.724C918.882 558.73 918.36 558.577 917.892 558.265C917.43 557.953 917.103 557.497 916.911 556.897L915.372 557.338C915.648 558.238 916.158 558.949 916.902 559.471C917.652 559.993 918.507 560.254 919.467 560.254ZM935.787 560.002V558.625C935.121 558.727 934.551 558.745 934.077 558.679C933.609 558.613 933.267 558.388 933.051 558.004C932.937 557.8 932.874 557.56 932.862 557.284C932.856 557.002 932.853 556.66 932.853 556.258V551.605H935.787V550.282H932.853V547.582H931.251V550.282H929.28V551.605H931.251V556.33C931.251 556.834 931.257 557.284 931.269 557.68C931.287 558.07 931.392 558.454 931.584 558.832C931.812 559.27 932.145 559.594 932.583 559.804C933.021 560.008 933.519 560.119 934.077 560.137C934.641 560.161 935.211 560.116 935.787 560.002ZM938.301 560.002H939.903V546.772H938.301V560.002ZM942.954 560.002H944.574V554.881C944.574 553.753 944.817 552.916 945.303 552.37C945.795 551.824 946.443 551.551 947.247 551.551C947.931 551.551 948.465 551.722 948.849 552.064C949.233 552.406 949.5 552.85 949.65 553.396C949.806 553.942 949.884 554.521 949.884 555.133V560.002H951.504V554.629C951.504 554.167 951.447 553.672 951.333 553.144C951.225 552.61 951.027 552.109 950.739 551.641C950.457 551.167 950.064 550.78 949.56 550.48C949.062 550.18 948.42 550.03 947.634 550.03C946.218 550.03 945.138 550.531 944.394 551.533V550.282H942.954V560.002Z" fill="#31485F"/>
<path d="M449.761 357H451.39V344.04H449.761L447.322 345.498V347.289L449.761 345.813V357ZM458.729 357.252C459.533 357.252 460.253 357.072 460.889 356.712C461.525 356.352 462.029 355.854 462.401 355.218C462.773 354.576 462.959 353.841 462.959 353.013C462.959 352.257 462.806 351.579 462.5 350.979C462.2 350.379 461.774 349.899 461.222 349.539C460.676 349.179 460.031 348.978 459.287 348.936L462.788 345.579V344.04H455.147V345.57H460.799L456.587 349.377L457.361 350.646C457.565 350.544 457.784 350.463 458.018 350.403C458.252 350.337 458.48 350.304 458.702 350.304C459.482 350.304 460.112 350.556 460.592 351.06C461.072 351.558 461.312 352.209 461.312 353.013C461.312 353.805 461.075 354.453 460.601 354.957C460.133 355.455 459.506 355.71 458.72 355.722C458.144 355.728 457.622 355.575 457.154 355.263C456.692 354.951 456.365 354.495 456.173 353.895L454.634 354.336C454.91 355.236 455.42 355.947 456.164 356.469C456.914 356.991 457.769 357.252 458.729 357.252ZM465.479 359.016C466.037 359.118 466.469 359.01 466.775 358.692C467.087 358.374 467.243 357.9 467.243 357.27V354.966H465.479V357H466.406C466.436 357.36 466.397 357.666 466.289 357.918C466.187 358.176 465.95 358.293 465.578 358.269L465.479 359.016ZM474.863 357.27C475.667 357.27 476.405 357.075 477.077 356.685C477.755 356.289 478.298 355.764 478.706 355.11C479.114 354.45 479.318 353.721 479.318 352.923C479.318 352.119 479.132 351.396 478.76 350.754C478.388 350.106 477.884 349.596 477.248 349.224C476.612 348.846 475.892 348.657 475.088 348.657C474.176 348.657 473.369 348.936 472.667 349.494L472.901 345.561H478.418V344.04H471.461L471.065 350.817L472.487 351.357C472.721 351.021 473.039 350.733 473.441 350.493C473.849 350.253 474.338 350.133 474.908 350.133C475.412 350.133 475.877 350.256 476.303 350.502C476.729 350.748 477.068 351.084 477.32 351.51C477.578 351.93 477.707 352.401 477.707 352.923C477.707 353.427 477.581 353.892 477.329 354.318C477.083 354.738 476.75 355.077 476.33 355.335C475.91 355.587 475.436 355.713 474.908 355.713C474.308 355.713 473.747 355.527 473.225 355.155C472.709 354.777 472.37 354.27 472.208 353.634L470.669 354.048C470.843 354.678 471.131 355.236 471.533 355.722C471.941 356.208 472.43 356.589 473 356.865C473.576 357.135 474.197 357.27 474.863 357.27ZM488.854 350.25C489.448 350.25 489.988 350.106 490.474 349.818C490.966 349.524 491.359 349.134 491.653 348.648C491.947 348.156 492.094 347.61 492.094 347.01C492.094 346.41 491.947 345.867 491.653 345.381C491.359 344.889 490.966 344.499 490.474 344.211C489.988 343.917 489.448 343.77 488.854 343.77C488.278 343.77 487.744 343.917 487.252 344.211C486.76 344.505 486.364 344.898 486.064 345.39C485.764 345.882 485.614 346.422 485.614 347.01C485.614 347.61 485.761 348.156 486.055 348.648C486.349 349.134 486.739 349.524 487.225 349.818C487.717 350.106 488.26 350.25 488.854 350.25ZM487.234 357L499.132 345.12L498.052 344.04L486.154 355.92L487.234 357ZM488.854 348.837C488.362 348.837 487.933 348.657 487.567 348.297C487.207 347.931 487.027 347.502 487.027 347.01C487.027 346.512 487.207 346.083 487.567 345.723C487.933 345.363 488.362 345.183 488.854 345.183C489.352 345.183 489.781 345.363 490.141 345.723C490.501 346.083 490.681 346.512 490.681 347.01C490.681 347.502 490.501 347.931 490.141 348.297C489.781 348.657 489.352 348.837 488.854 348.837ZM496.432 357.27C497.026 357.27 497.566 357.126 498.052 356.838C498.544 356.544 498.937 356.154 499.231 355.668C499.525 355.176 499.672 354.63 499.672 354.03C499.672 353.43 499.525 352.887 499.231 352.401C498.937 351.909 498.544 351.519 498.052 351.231C497.566 350.937 497.026 350.79 496.432 350.79C495.856 350.79 495.322 350.937 494.83 351.231C494.338 351.525 493.942 351.918 493.642 352.41C493.342 352.902 493.192 353.442 493.192 354.03C493.192 354.63 493.336 355.176 493.624 355.668C493.918 356.154 494.311 356.544 494.803 356.838C495.295 357.126 495.838 357.27 496.432 357.27ZM496.432 355.857C495.94 355.857 495.511 355.677 495.145 355.317C494.785 354.951 494.605 354.522 494.605 354.03C494.605 353.532 494.785 353.103 495.145 352.743C495.511 352.383 495.94 352.203 496.432 352.203C496.93 352.203 497.359 352.383 497.719 352.743C498.079 353.103 498.259 353.532 498.259 354.03C498.259 354.522 498.079 354.951 497.719 355.317C497.359 355.677 496.93 355.857 496.432 355.857Z" fill="#31485F"/>
<path d="M711.937 200.252C712.741 200.252 713.461 200.072 714.097 199.712C714.733 199.352 715.237 198.854 715.609 198.218C715.981 197.576 716.167 196.841 716.167 196.013C716.167 195.257 716.014 194.579 715.708 193.979C715.408 193.379 714.982 192.899 714.43 192.539C713.884 192.179 713.239 191.978 712.495 191.936L715.996 188.579V187.04H708.355V188.57H714.007L709.795 192.377L710.569 193.646C710.773 193.544 710.992 193.463 711.226 193.403C711.46 193.337 711.688 193.304 711.91 193.304C712.69 193.304 713.32 193.556 713.8 194.06C714.28 194.558 714.52 195.209 714.52 196.013C714.52 196.805 714.283 197.453 713.809 197.957C713.341 198.455 712.714 198.71 711.928 198.722C711.352 198.728 710.83 198.575 710.362 198.263C709.9 197.951 709.573 197.495 709.381 196.895L707.842 197.336C708.118 198.236 708.628 198.947 709.372 199.469C710.122 199.991 710.977 200.252 711.937 200.252ZM724.465 200H726.085V197.615H727.435V196.094H726.085V192.449H724.465V196.094H720.325L724.6 187.04H722.782L718.507 196.094V197.615H724.465V200ZM736.973 193.25C737.567 193.25 738.107 193.106 738.593 192.818C739.085 192.524 739.478 192.134 739.772 191.648C740.066 191.156 740.213 190.61 740.213 190.01C740.213 189.41 740.066 188.867 739.772 188.381C739.478 187.889 739.085 187.499 738.593 187.211C738.107 186.917 737.567 186.77 736.973 186.77C736.397 186.77 735.863 186.917 735.371 187.211C734.879 187.505 734.483 187.898 734.183 188.39C733.883 188.882 733.733 189.422 733.733 190.01C733.733 190.61 733.88 191.156 734.174 191.648C734.468 192.134 734.858 192.524 735.344 192.818C735.836 193.106 736.379 193.25 736.973 193.25ZM735.353 200L747.251 188.12L746.171 187.04L734.273 198.92L735.353 200ZM736.973 191.837C736.481 191.837 736.052 191.657 735.686 191.297C735.326 190.931 735.146 190.502 735.146 190.01C735.146 189.512 735.326 189.083 735.686 188.723C736.052 188.363 736.481 188.183 736.973 188.183C737.471 188.183 737.9 188.363 738.26 188.723C738.62 189.083 738.8 189.512 738.8 190.01C738.8 190.502 738.62 190.931 738.26 191.297C737.9 191.657 737.471 191.837 736.973 191.837ZM744.551 200.27C745.145 200.27 745.685 200.126 746.171 199.838C746.663 199.544 747.056 199.154 747.35 198.668C747.644 198.176 747.791 197.63 747.791 197.03C747.791 196.43 747.644 195.887 747.35 195.401C747.056 194.909 746.663 194.519 746.171 194.231C745.685 193.937 745.145 193.79 744.551 193.79C743.975 193.79 743.441 193.937 742.949 194.231C742.457 194.525 742.061 194.918 741.761 195.41C741.461 195.902 741.311 196.442 741.311 197.03C741.311 197.63 741.455 198.176 741.743 198.668C742.037 199.154 742.43 199.544 742.922 199.838C743.414 200.126 743.957 200.27 744.551 200.27ZM744.551 198.857C744.059 198.857 743.63 198.677 743.264 198.317C742.904 197.951 742.724 197.522 742.724 197.03C742.724 196.532 742.904 196.103 743.264 195.743C743.63 195.383 744.059 195.203 744.551 195.203C745.049 195.203 745.478 195.383 745.838 195.743C746.198 196.103 746.378 196.532 746.378 197.03C746.378 197.522 746.198 197.951 745.838 198.317C745.478 198.677 745.049 198.857 744.551 198.857Z" fill="#31485F"/>
<path d="M981.819 135H983.448V122.04H981.819L979.38 123.498V125.289L981.819 123.813V135ZM991.651 135.27C992.455 135.27 993.19 135.078 993.856 134.694C994.528 134.304 995.065 133.782 995.467 133.128C995.869 132.468 996.07 131.736 996.07 130.932C996.07 130.128 995.884 129.405 995.512 128.763C995.146 128.115 994.642 127.602 994 127.224C993.364 126.846 992.644 126.657 991.84 126.657C991.258 126.657 990.709 126.777 990.193 127.017C989.683 127.257 989.239 127.584 988.861 127.998V126.234C988.861 125.718 988.984 125.238 989.23 124.794C989.482 124.344 989.83 123.984 990.274 123.714C990.718 123.438 991.225 123.3 991.795 123.3C992.275 123.3 992.722 123.414 993.136 123.642C993.55 123.864 993.886 124.161 994.144 124.533L995.341 123.471C994.921 122.925 994.402 122.508 993.784 122.22C993.172 121.926 992.509 121.779 991.795 121.779C990.907 121.779 990.121 121.977 989.437 122.373C988.753 122.769 988.213 123.315 987.817 124.011C987.427 124.707 987.232 125.508 987.232 126.414V130.725C987.232 131.589 987.427 132.366 987.817 133.056C988.213 133.74 988.744 134.28 989.41 134.676C990.082 135.072 990.829 135.27 991.651 135.27ZM991.651 133.722C991.135 133.722 990.664 133.596 990.238 133.344C989.818 133.092 989.482 132.756 989.23 132.336C988.984 131.91 988.861 131.442 988.861 130.932C988.861 130.416 988.987 129.948 989.239 129.528C989.491 129.102 989.827 128.763 990.247 128.511C990.673 128.259 991.144 128.133 991.66 128.133C992.176 128.133 992.644 128.259 993.064 128.511C993.49 128.763 993.826 129.102 994.072 129.528C994.324 129.948 994.45 130.416 994.45 130.932C994.45 131.448 994.324 131.919 994.072 132.345C993.82 132.765 993.481 133.101 993.055 133.353C992.635 133.599 992.167 133.722 991.651 133.722ZM1005.8 128.25C1006.39 128.25 1006.93 128.106 1007.42 127.818C1007.91 127.524 1008.3 127.134 1008.59 126.648C1008.89 126.156 1009.04 125.61 1009.04 125.01C1009.04 124.41 1008.89 123.867 1008.59 123.381C1008.3 122.889 1007.91 122.499 1007.42 122.211C1006.93 121.917 1006.39 121.77 1005.8 121.77C1005.22 121.77 1004.69 121.917 1004.19 122.211C1003.7 122.505 1003.31 122.898 1003.01 123.39C1002.71 123.882 1002.56 124.422 1002.56 125.01C1002.56 125.61 1002.7 126.156 1003 126.648C1003.29 127.134 1003.68 127.524 1004.17 127.818C1004.66 128.106 1005.2 128.25 1005.8 128.25ZM1004.18 135L1016.07 123.12L1014.99 122.04L1003.1 133.92L1004.18 135ZM1005.8 126.837C1005.3 126.837 1004.87 126.657 1004.51 126.297C1004.15 125.931 1003.97 125.502 1003.97 125.01C1003.97 124.512 1004.15 124.083 1004.51 123.723C1004.87 123.363 1005.3 123.183 1005.8 123.183C1006.29 123.183 1006.72 123.363 1007.08 123.723C1007.44 124.083 1007.62 124.512 1007.62 125.01C1007.62 125.502 1007.44 125.931 1007.08 126.297C1006.72 126.657 1006.29 126.837 1005.8 126.837ZM1013.37 135.27C1013.97 135.27 1014.51 135.126 1014.99 134.838C1015.49 134.544 1015.88 134.154 1016.17 133.668C1016.47 133.176 1016.61 132.63 1016.61 132.03C1016.61 131.43 1016.47 130.887 1016.17 130.401C1015.88 129.909 1015.49 129.519 1014.99 129.231C1014.51 128.937 1013.97 128.79 1013.37 128.79C1012.8 128.79 1012.26 128.937 1011.77 129.231C1011.28 129.525 1010.88 129.918 1010.58 130.41C1010.28 130.902 1010.13 131.442 1010.13 132.03C1010.13 132.63 1010.28 133.176 1010.57 133.668C1010.86 134.154 1011.25 134.544 1011.74 134.838C1012.24 135.126 1012.78 135.27 1013.37 135.27ZM1013.37 133.857C1012.88 133.857 1012.45 133.677 1012.09 133.317C1011.73 132.951 1011.55 132.522 1011.55 132.03C1011.55 131.532 1011.73 131.103 1012.09 130.743C1012.45 130.383 1012.88 130.203 1013.37 130.203C1013.87 130.203 1014.3 130.383 1014.66 130.743C1015.02 131.103 1015.2 131.532 1015.2 132.03C1015.2 132.522 1015.02 132.951 1014.66 133.317C1014.3 133.677 1013.87 133.857 1013.37 133.857Z" fill="#31485F"/>
<line x1="152" y1="1.20244e-08" x2="152" y2="490" stroke="#B1C0CF" stroke-dasharray="6 6"/>
<line x1="10" y1="369.002" x2="9.99999" y2="477.002" stroke="#B1C0CF" stroke-dasharray="6 6"/>
<line x1="371" y1="2.36931e-08" x2="371" y2="490" stroke="#B1C0CF" stroke-dasharray="6 6"/>
<line x1="556" y1="2.36931e-08" x2="556" y2="490" stroke="#B1C0CF" stroke-dasharray="6 6"/>
<line x1="909" y1="2.36931e-08" x2="909" y2="490" stroke="#B1C0CF" stroke-dasharray="6 6"/>
<line x1="1087" y1="2.36931e-08" x2="1087" y2="490" stroke="#B1C0CF" stroke-dasharray="6 6"/>
<path d="M60.5996 328.427V347.665C60.5996 347.665 60.5996 345.527 67.0125 347.665C73.4254 349.803 75.563 349.803 77.7006 349.803C81.9759 349.803 86.2504 347.665 86.2504 347.665V328.427C86.2504 328.427 79.8383 330.564 77.7006 330.564C77.7006 330.564 73.4254 330.564 69.1501 328.427C64.8749 326.289 60.5996 328.427 60.5996 328.427Z" fill="#65D743"/>
<path d="M59.0303 325.199C59.0303 324.785 58.6945 324.449 58.2803 324.449C57.8661 324.449 57.5303 324.785 57.5303 325.199H59.0303ZM59.0303 362.852V325.199H57.5303V362.852H59.0303Z" fill="#65D743"/>
<path d="M60.1436 324C60.1436 325.105 59.2481 326 58.1436 326C57.039 326 56.1436 325.105 56.1436 324C56.1436 322.895 57.039 322 58.1436 322C59.2481 322 60.1436 322.895 60.1436 324Z" fill="#65D743"/>
<path d="M65.811 369.531C65.811 367.533 65.0176 365.618 63.6054 364.206C62.1932 362.793 60.2777 362 58.2805 362C56.2833 362 54.3679 362.793 52.9556 364.206C51.5434 365.618 50.75 367.533 50.75 369.531L58.2805 369.531H65.811Z" fill="#65D743"/>
<path d="M22.5 368.261C21.9477 368.261 21.5 368.709 21.5 369.261C21.5 369.814 21.9477 370.261 22.5 370.261V368.261ZM141.523 370.369C142.075 370.357 142.512 369.899 142.5 369.347C142.487 368.794 142.029 368.357 141.477 368.37L141.523 370.369ZM22.5 370.261C52.2899 370.261 93.8458 371.462 141.523 370.369L141.477 368.37C93.8228 369.462 52.3717 368.261 22.5 368.261V370.261Z" fill="#65D743"/>
<path d="M160.964 367.798C160.412 367.818 159.981 368.282 160.001 368.834C160.021 369.385 160.484 369.817 161.036 369.797L160.964 367.798ZM361.254 343.154C361.788 343.014 362.107 342.467 361.967 341.933C361.827 341.399 361.281 341.079 360.746 341.219L361.254 343.154ZM161.036 369.797C222.831 367.574 293.207 361 361.254 343.154L360.746 341.219C292.898 359.013 222.684 365.578 160.964 367.798L161.036 369.797Z" fill="#6380DC"/>
<path d="M544 250.672L543.339 249.922V249.922L544 250.672ZM382.665 335.043C382.136 335.202 381.837 335.76 381.997 336.289C382.157 336.818 382.715 337.117 383.243 336.957L382.665 335.043ZM548.085 248.42C548.501 248.057 548.544 247.426 548.181 247.009C547.818 246.593 547.186 246.55 546.77 246.914L548.085 248.42ZM383.243 336.957C442.126 319.169 498.365 292.202 544.661 251.423L543.339 249.922C497.317 290.46 441.358 317.312 382.665 335.043L383.243 336.957ZM544.661 251.423C545.803 250.416 546.945 249.416 548.085 248.42L546.77 246.914C545.627 247.911 544.484 248.913 543.339 249.922L544.661 251.423Z" fill="#794DCC"/>
<path d="M565.862 230.678C565.437 231.03 565.378 231.661 565.73 232.086C566.082 232.511 566.712 232.571 567.138 232.219L565.862 230.678ZM895.189 75.5227C895.731 75.4182 896.086 74.8939 895.982 74.3516C895.877 73.8093 895.353 73.4544 894.811 73.5588L895.189 75.5227ZM567.138 232.219C685.326 134.36 791.718 95.4552 895.189 75.5227L894.811 73.5588C791.059 93.5452 684.345 132.575 565.862 230.678L567.138 232.219Z" fill="#D0319A"/>
<path d="M922.839 68.5827C922.294 68.6718 921.924 69.1858 922.013 69.7309C922.102 70.276 922.616 70.6456 923.161 70.5566L922.839 68.5827ZM1072.11 52.4069C1072.66 52.3467 1073.05 51.8528 1072.99 51.3038C1072.93 50.7548 1072.44 50.3586 1071.89 50.4188L1072.11 52.4069ZM923.161 70.5566C972.962 62.4201 1022.26 57.8756 1072.11 52.4069L1071.89 50.4188C1022.08 55.8825 972.708 60.4352 922.839 68.5827L923.161 70.5566Z" fill="#A45AA5"/>
<path d="M1231.73 26.9729C1232.27 26.8452 1232.6 26.3062 1232.47 25.7688C1232.35 25.2315 1231.81 24.8994 1231.27 25.0271L1231.73 26.9729ZM1100.88 47.1098C1100.33 47.1755 1099.94 47.6732 1100.01 48.2216C1100.07 48.7699 1100.57 49.1613 1101.12 49.0957L1100.88 47.1098ZM1101.12 49.0957C1143.93 43.9732 1187.26 37.5392 1231.73 26.9729L1231.27 25.0271C1186.9 35.5685 1143.65 41.9917 1100.88 47.1098L1101.12 49.0957Z" fill="#5A9ADC"/>
</svg>
