<svg width="395" height="428" viewBox="0 0 395 428" fill="none" xmlns="http://www.w3.org/2000/svg">
<path d="M360.908 45.4288C360.364 45.5231 359.999 46.0408 360.094 46.5849C360.188 47.1291 360.706 47.4937 361.25 47.3993L360.908 45.4288ZM393.826 39.4455C394.348 39.2657 394.625 38.6966 394.445 38.1744C394.266 37.6522 393.697 37.3747 393.174 37.5545L393.826 39.4455ZM361.25 47.3993C375.175 44.9841 379.31 44.4445 393.826 39.4455L393.174 37.5545C378.812 42.5007 374.802 43.019 360.908 45.4288L361.25 47.3993Z" fill="#5A9ADC"/>
<path d="M308.988 55.5554C308.451 55.6827 308.118 56.2215 308.246 56.7589C308.373 57.2964 308.912 57.6288 309.449 57.5016L308.988 55.5554ZM350.157 49.4876C350.702 49.4009 351.074 48.8884 350.988 48.343C350.901 47.7975 350.388 47.4257 349.843 47.5124L350.157 49.4876ZM309.449 57.5016C325.622 53.6715 333.982 52.0595 350.157 49.4876L349.843 47.5124C333.622 50.0915 325.214 51.713 308.988 55.5554L309.449 57.5016Z" fill="#A45AA5"/>
<path d="M200.566 127.16C200.212 127.584 200.27 128.215 200.694 128.568C201.118 128.922 201.749 128.864 202.102 128.44L200.566 127.16ZM297.269 61.4632C297.801 61.3146 298.112 60.763 297.963 60.2311C297.815 59.6991 297.263 59.3883 296.731 59.5368L297.269 61.4632ZM202.102 128.44C221.301 105.399 236.727 91.0036 251.514 81.1981C266.291 71.3997 280.481 66.1508 297.269 61.4632L296.731 59.5368C279.839 64.2534 265.429 69.5719 250.409 79.5312C235.401 89.4833 219.833 104.036 200.566 127.16L202.102 128.44Z" fill="#D0319A"/>
<path d="M141.269 176.145C140.763 176.366 140.532 176.956 140.754 177.462C140.975 177.968 141.565 178.198 142.071 177.977L141.269 176.145ZM194.02 136.857L194.807 137.474V137.474L194.02 136.857ZM195.918 136.062C196.261 135.628 196.187 134.999 195.754 134.657C195.321 134.314 194.692 134.388 194.349 134.821L195.918 136.062ZM142.071 177.977C161.311 169.552 179.687 156.778 194.807 137.474L193.233 136.241C178.344 155.25 160.249 167.834 141.269 176.145L142.071 177.977ZM194.807 137.474C195.178 137.001 195.548 136.53 195.918 136.062L194.349 134.821C193.977 135.292 193.605 135.765 193.233 136.241L194.807 137.474Z" fill="#794DCC"/>
<path d="M69.4694 191.516C68.9179 191.544 68.4941 192.015 68.5228 192.566C68.5516 193.118 69.022 193.542 69.5736 193.513L69.4694 191.516ZM134.889 180.911C135.405 180.715 135.665 180.137 135.469 179.621C135.272 179.105 134.695 178.845 134.179 179.041L134.889 180.911ZM69.5736 193.513C89.7055 192.463 112.669 189.357 134.889 180.911L134.179 179.041C112.224 187.387 89.4874 190.472 69.4694 191.516L69.5736 193.513Z" fill="#6380DC"/>
<path d="M7 191.784C6.44772 191.784 6 192.231 6 192.784C6 193.336 6.44772 193.784 7 193.784V191.784ZM61.2156 193.783C61.7676 193.765 62.2002 193.302 62.1818 192.75C62.1635 192.199 61.7012 191.766 61.1492 191.784L61.2156 193.783ZM7 193.784C16.6567 193.784 45.7007 194.299 61.2156 193.783L61.1492 191.784C45.6755 192.298 16.737 191.784 7 191.784V193.784Z" fill="#65D743"/>
<path d="M346.3 360.484H354.364V358.436H349.676L352.252 356.18C352.711 355.78 353.097 355.423 353.412 355.108C353.727 354.788 353.964 354.441 354.124 354.068C354.284 353.689 354.364 353.215 354.364 352.644C354.364 351.871 354.193 351.191 353.852 350.604C353.511 350.017 353.041 349.561 352.444 349.236C351.852 348.905 351.18 348.74 350.428 348.74C349.607 348.74 348.887 348.897 348.268 349.212C347.649 349.527 347.167 349.972 346.82 350.548C346.473 351.124 346.3 351.807 346.3 352.596H348.54C348.529 352.276 348.601 351.98 348.756 351.708C348.911 351.431 349.127 351.209 349.404 351.044C349.687 350.873 350.012 350.788 350.38 350.788C350.908 350.788 351.329 350.961 351.644 351.308C351.964 351.649 352.124 352.084 352.124 352.612C352.124 352.857 352.049 353.121 351.9 353.404C351.751 353.687 351.495 353.988 351.132 354.308L346.3 358.596V360.484ZM360.548 360.74C361.402 360.74 362.148 360.561 362.788 360.204C363.428 359.847 363.927 359.348 364.284 358.708C364.642 358.068 364.82 357.321 364.82 356.468V353.012C364.82 352.159 364.642 351.412 364.284 350.772C363.927 350.132 363.428 349.633 362.788 349.276C362.148 348.919 361.402 348.74 360.548 348.74C359.695 348.74 358.948 348.919 358.308 349.276C357.668 349.633 357.17 350.132 356.812 350.772C356.455 351.412 356.276 352.159 356.276 353.012V356.468C356.276 357.321 356.455 358.068 356.812 358.708C357.17 359.348 357.668 359.847 358.308 360.204C358.948 360.561 359.695 360.74 360.548 360.74ZM360.548 358.676C360.164 358.676 359.818 358.585 359.508 358.404C359.199 358.223 358.954 357.977 358.772 357.668C358.591 357.359 358.5 357.012 358.5 356.628V352.836C358.5 352.452 358.591 352.105 358.772 351.796C358.954 351.487 359.199 351.241 359.508 351.06C359.818 350.879 360.164 350.788 360.548 350.788C360.932 350.788 361.279 350.879 361.588 351.06C361.898 351.241 362.143 351.487 362.324 351.796C362.506 352.105 362.596 352.452 362.596 352.836V356.628C362.596 357.012 362.506 357.359 362.324 357.668C362.143 357.977 361.898 358.223 361.588 358.404C361.279 358.585 360.932 358.676 360.548 358.676ZM371.746 360.5H373.954V358.708H374.977V356.676H373.954V353.796H371.746V356.676H369.234L372.866 348.98H370.37L366.738 356.676V358.708H371.746V360.5ZM381.173 360.74C382.027 360.74 382.773 360.561 383.413 360.204C384.053 359.847 384.552 359.348 384.909 358.708C385.267 358.068 385.445 357.321 385.445 356.468V353.012C385.445 352.159 385.267 351.412 384.909 350.772C384.552 350.132 384.053 349.633 383.413 349.276C382.773 348.919 382.027 348.74 381.173 348.74C380.32 348.74 379.573 348.919 378.933 349.276C378.293 349.633 377.795 350.132 377.437 350.772C377.08 351.412 376.901 352.159 376.901 353.012V356.468C376.901 357.321 377.08 358.068 377.437 358.708C377.795 359.348 378.293 359.847 378.933 360.204C379.573 360.561 380.32 360.74 381.173 360.74ZM381.173 358.676C380.789 358.676 380.443 358.585 380.133 358.404C379.824 358.223 379.579 357.977 379.397 357.668C379.216 357.359 379.125 357.012 379.125 356.628V352.836C379.125 352.452 379.216 352.105 379.397 351.796C379.579 351.487 379.824 351.241 380.133 351.06C380.443 350.879 380.789 350.788 381.173 350.788C381.557 350.788 381.904 350.879 382.213 351.06C382.523 351.241 382.768 351.487 382.949 351.796C383.131 352.105 383.221 352.452 383.221 352.836V356.628C383.221 357.012 383.131 357.359 382.949 357.668C382.768 357.977 382.523 358.223 382.213 358.404C381.904 358.585 381.557 358.676 381.173 358.676Z" fill="#5A9ADC"/>
<path d="M65.4999 0.5L65.5 333.5" stroke="#B1C0CF" stroke-dasharray="6 6"/>
<path d="M82.3553 213.992H90.0113V212.632H84.5473L88.2593 209.296C88.654 208.944 88.9793 208.613 89.2353 208.304C89.4966 207.989 89.6913 207.648 89.8193 207.28C89.9473 206.912 90.0113 206.477 90.0113 205.976C90.0113 205.267 89.846 204.632 89.5153 204.072C89.19 203.507 88.7446 203.061 88.1793 202.736C87.614 202.405 86.974 202.24 86.2593 202.24C85.5233 202.24 84.8646 202.4 84.2833 202.72C83.702 203.035 83.2433 203.472 82.9073 204.032C82.5766 204.587 82.4113 205.227 82.4113 205.952H83.8673C83.862 205.531 83.9606 205.144 84.1633 204.792C84.3713 204.435 84.654 204.147 85.0113 203.928C85.3686 203.709 85.7766 203.6 86.2353 203.6C86.678 203.6 87.0726 203.704 87.4193 203.912C87.7713 204.12 88.0486 204.403 88.2513 204.76C88.454 205.117 88.5553 205.517 88.5553 205.96C88.5553 206.323 88.4806 206.677 88.3313 207.024C88.1873 207.371 87.902 207.733 87.4753 208.112L82.3633 212.712L82.3553 213.992ZM92.0853 215.792C92.5813 215.883 92.9653 215.787 93.2373 215.504C93.5146 215.221 93.6533 214.8 93.6533 214.24V212.192H92.0853V214H92.9093C92.936 214.32 92.9013 214.592 92.8053 214.816C92.7146 215.045 92.504 215.149 92.1733 215.128L92.0853 215.792ZM100.426 214.24C101.141 214.24 101.797 214.067 102.394 213.72C102.997 213.368 103.48 212.901 103.842 212.32C104.205 211.733 104.386 211.085 104.386 210.376C104.386 209.661 104.221 209.019 103.89 208.448C103.56 207.872 103.112 207.419 102.546 207.088C101.981 206.752 101.341 206.584 100.626 206.584C99.8158 206.584 99.0984 206.832 98.4744 207.328L98.6824 203.832H103.586V202.48H97.4024L97.0504 208.504L98.3144 208.984C98.5224 208.685 98.8051 208.429 99.1624 208.216C99.5251 208.003 99.9598 207.896 100.466 207.896C100.914 207.896 101.328 208.005 101.706 208.224C102.085 208.443 102.386 208.741 102.61 209.12C102.84 209.493 102.954 209.912 102.954 210.376C102.954 210.824 102.842 211.237 102.618 211.616C102.4 211.989 102.104 212.291 101.73 212.52C101.357 212.744 100.936 212.856 100.466 212.856C99.9331 212.856 99.4344 212.691 98.9704 212.36C98.5118 212.024 98.2104 211.573 98.0664 211.008L96.6984 211.376C96.8531 211.936 97.1091 212.432 97.4664 212.864C97.8291 213.296 98.2638 213.635 98.7704 213.88C99.2824 214.12 99.8344 214.24 100.426 214.24ZM112.863 208C113.391 208 113.871 207.872 114.303 207.616C114.74 207.355 115.089 207.008 115.351 206.576C115.612 206.139 115.743 205.653 115.743 205.12C115.743 204.587 115.612 204.104 115.351 203.672C115.089 203.235 114.74 202.888 114.303 202.632C113.871 202.371 113.391 202.24 112.863 202.24C112.351 202.24 111.876 202.371 111.439 202.632C111.001 202.893 110.649 203.243 110.383 203.68C110.116 204.117 109.983 204.597 109.983 205.12C109.983 205.653 110.113 206.139 110.375 206.576C110.636 207.008 110.983 207.355 111.415 207.616C111.852 207.872 112.335 208 112.863 208ZM111.423 214L121.999 203.44L121.039 202.48L110.463 213.04L111.423 214ZM112.863 206.744C112.425 206.744 112.044 206.584 111.719 206.264C111.399 205.939 111.239 205.557 111.239 205.12C111.239 204.677 111.399 204.296 111.719 203.976C112.044 203.656 112.425 203.496 112.863 203.496C113.305 203.496 113.687 203.656 114.007 203.976C114.327 204.296 114.487 204.677 114.487 205.12C114.487 205.557 114.327 205.939 114.007 206.264C113.687 206.584 113.305 206.744 112.863 206.744ZM119.599 214.24C120.127 214.24 120.607 214.112 121.039 213.856C121.476 213.595 121.825 213.248 122.087 212.816C122.348 212.379 122.479 211.893 122.479 211.36C122.479 210.827 122.348 210.344 122.087 209.912C121.825 209.475 121.476 209.128 121.039 208.872C120.607 208.611 120.127 208.48 119.599 208.48C119.087 208.48 118.612 208.611 118.175 208.872C117.737 209.133 117.385 209.483 117.119 209.92C116.852 210.357 116.719 210.837 116.719 211.36C116.719 211.893 116.847 212.379 117.103 212.816C117.364 213.248 117.713 213.595 118.151 213.856C118.588 214.112 119.071 214.24 119.599 214.24ZM119.599 212.984C119.161 212.984 118.78 212.824 118.455 212.504C118.135 212.179 117.975 211.797 117.975 211.36C117.975 210.917 118.135 210.536 118.455 210.216C118.78 209.896 119.161 209.736 119.599 209.736C120.041 209.736 120.423 209.896 120.743 210.216C121.063 210.536 121.223 210.917 121.223 211.36C121.223 211.797 121.063 212.179 120.743 212.504C120.423 212.824 120.041 212.984 119.599 212.984Z" fill="#31485F"/>
<path d="M1.62 280H3.828V272.32L8.836 280H11.044V268.48H8.836V276.16L3.828 268.48H1.62V280ZM17.1643 280.24C18.0283 280.24 18.7883 280.048 19.4443 279.664C20.1056 279.275 20.6203 278.739 20.9883 278.056C21.3616 277.368 21.5483 276.576 21.5483 275.68C21.5483 274.789 21.3643 274.003 20.9963 273.32C20.6283 272.632 20.1136 272.093 19.4523 271.704C18.7963 271.315 18.0336 271.12 17.1643 271.12C16.3109 271.12 15.5563 271.312 14.9003 271.696C14.2443 272.08 13.7296 272.616 13.3563 273.304C12.9829 273.987 12.7963 274.779 12.7963 275.68C12.7963 276.571 12.9776 277.36 13.3403 278.048C13.7083 278.731 14.2203 279.267 14.8763 279.656C15.5323 280.045 16.2949 280.24 17.1643 280.24ZM17.1643 278.208C16.4869 278.208 15.9723 277.981 15.6203 277.528C15.2736 277.069 15.1003 276.453 15.1003 275.68C15.1003 274.928 15.2656 274.32 15.5963 273.856C15.9323 273.387 16.4549 273.152 17.1643 273.152C17.8523 273.152 18.3696 273.381 18.7163 273.84C19.0683 274.299 19.2443 274.912 19.2443 275.68C19.2443 276.421 19.0709 277.029 18.7243 277.504C18.3829 277.973 17.8629 278.208 17.1643 278.208ZM24.835 280H26.499L28.387 274.368L30.275 280H31.939L34.579 271.36H32.451L30.883 276.512L29.291 271.36H27.483L25.891 276.512L24.323 271.36L22.195 271.344L24.835 280Z" fill="#65D743"/>
<path d="M4.3925 305.485H5.7275V304.195C6.7225 304.1 7.5175 303.765 8.1125 303.19C8.7075 302.615 9.005 301.882 9.005 300.992C9.005 300.247 8.8075 299.652 8.4125 299.207C8.0175 298.757 7.375 298.4 6.485 298.135L4.46 297.535C3.87 297.36 3.44 297.145 3.17 296.89C2.9 296.635 2.765 296.325 2.765 295.96C2.765 295.46 2.9775 295.047 3.4025 294.722C3.8275 294.397 4.36 294.24 5 294.25C5.68 294.255 6.255 294.455 6.725 294.85C7.2 295.24 7.49 295.752 7.595 296.387L8.945 296.14C8.775 295.28 8.4075 294.58 7.8425 294.04C7.2825 293.5 6.5775 293.165 5.7275 293.035V291.707H4.3925V293.012C3.4925 293.117 2.7725 293.44 2.2325 293.98C1.6975 294.515 1.43 295.195 1.43 296.02C1.43 297.32 2.1675 298.2 3.6425 298.66L6.11 299.425C6.675 299.6 7.08 299.812 7.325 300.062C7.57 300.312 7.6925 300.642 7.6925 301.052C7.6925 301.612 7.4625 302.07 7.0025 302.425C6.5475 302.78 5.955 302.957 5.225 302.957C4.495 302.957 3.87 302.762 3.35 302.372C2.835 301.982 2.4975 301.455 2.3375 300.79L1.025 301.007C1.175 301.872 1.55 302.585 2.15 303.145C2.75 303.7 3.4975 304.043 4.3925 304.173V305.485ZM16.0589 304H17.4164V293.2H16.0589L14.0264 294.415V295.908L16.0589 294.677V304ZM24.2151 304.225C24.9151 304.225 25.5401 304.068 26.0901 303.753C26.6401 303.437 27.0726 303.005 27.3876 302.455C27.7026 301.905 27.8601 301.28 27.8601 300.58V296.62C27.8601 295.92 27.7026 295.295 27.3876 294.745C27.0726 294.195 26.6401 293.762 26.0901 293.447C25.5401 293.132 24.9151 292.975 24.2151 292.975C23.5151 292.975 22.8901 293.132 22.3401 293.447C21.7901 293.762 21.3576 294.195 21.0426 294.745C20.7276 295.295 20.5701 295.92 20.5701 296.62V300.58C20.5701 301.28 20.7276 301.905 21.0426 302.455C21.3576 303.005 21.7901 303.437 22.3401 303.753C22.8901 304.068 23.5151 304.225 24.2151 304.225ZM24.2151 302.942C23.7951 302.942 23.4101 302.84 23.0601 302.635C22.7151 302.43 22.4401 302.155 22.2351 301.81C22.0301 301.46 21.9276 301.075 21.9276 300.655V296.537C21.9276 296.112 22.0301 295.727 22.2351 295.382C22.4401 295.037 22.7151 294.762 23.0601 294.557C23.4101 294.352 23.7951 294.25 24.2151 294.25C24.6401 294.25 25.0251 294.352 25.3701 294.557C25.7151 294.762 25.9901 295.037 26.1951 295.382C26.4001 295.727 26.5026 296.112 26.5026 296.537V300.655C26.5026 301.075 26.4001 301.46 26.1951 301.81C25.9901 302.155 25.7151 302.43 25.3701 302.635C25.0251 302.84 24.6401 302.942 24.2151 302.942ZM33.5552 304H34.8977V298.855C34.8977 298.26 35.0577 297.782 35.3777 297.422C35.7027 297.062 36.1302 296.882 36.6602 296.882C37.1902 296.882 37.6152 297.06 37.9352 297.415C38.2552 297.77 38.4152 298.255 38.4152 298.87L38.4077 304H39.7352L39.7427 298.855C39.7427 298.4 39.8277 298.027 39.9977 297.737C40.1677 297.447 40.3877 297.232 40.6577 297.092C40.9277 296.952 41.2127 296.882 41.5127 296.882C42.0227 296.882 42.4402 297.055 42.7652 297.4C43.0902 297.74 43.2527 298.212 43.2527 298.817L43.2452 304H44.5802L44.5877 298.525C44.5877 297.66 44.3452 296.972 43.8602 296.463C43.3752 295.947 42.7102 295.69 41.8652 295.69C41.3302 295.69 40.8477 295.81 40.4177 296.05C39.9877 296.285 39.6527 296.61 39.4127 297.025C39.1927 296.6 38.8802 296.272 38.4752 296.042C38.0702 295.807 37.5952 295.69 37.0502 295.69C36.5652 295.69 36.1227 295.787 35.7227 295.982C35.3277 296.172 35.0027 296.432 34.7477 296.762V295.9H33.5552V304ZM46.9912 304H48.3262V292.975H46.9912V304ZM50.8691 304H52.2191V299.732C52.2191 298.792 52.4216 298.095 52.8266 297.64C53.2366 297.185 53.7766 296.957 54.4466 296.957C55.0166 296.957 55.4616 297.1 55.7816 297.385C56.1016 297.67 56.3241 298.04 56.4491 298.495C56.5791 298.95 56.6441 299.432 56.6441 299.942V304H57.9941V299.522C57.9941 299.137 57.9466 298.725 57.8516 298.285C57.7616 297.84 57.5966 297.422 57.3566 297.032C57.1216 296.637 56.7941 296.315 56.3741 296.065C55.9591 295.815 55.4241 295.69 54.7691 295.69C53.5891 295.69 52.6891 296.107 52.0691 296.942V295.9H50.8691V304ZM4.9625 324.225C5.7975 324.225 6.5125 324.025 7.1075 323.625C7.7025 323.225 8.1425 322.647 8.4275 321.892L7.0775 321.54C6.7025 322.485 5.9975 322.957 4.9625 322.957C4.1575 322.957 3.55 322.682 3.14 322.132C2.735 321.582 2.5275 320.855 2.5175 319.95C2.5275 319.07 2.73 318.35 3.125 317.79C3.52 317.225 4.1325 316.942 4.9625 316.942C5.4525 316.942 5.89 317.072 6.275 317.332C6.66 317.592 6.9375 317.957 7.1075 318.427L8.4275 318.03C8.2125 317.3 7.795 316.725 7.175 316.305C6.56 315.885 5.8275 315.675 4.9775 315.675C4.1675 315.675 3.4725 315.857 2.8925 316.222C2.3175 316.582 1.8775 317.082 1.5725 317.722C1.2675 318.362 1.11 319.105 1.1 319.95C1.11 320.775 1.265 321.51 1.565 322.155C1.865 322.8 2.3 323.307 2.87 323.677C3.445 324.043 4.1425 324.225 4.9625 324.225ZM12.4875 324.225C13.8375 324.225 14.8375 323.73 15.4875 322.74V324H16.6725V318.99C16.6725 318.67 16.6575 318.365 16.6275 318.075C16.5975 317.78 16.525 317.507 16.41 317.257C16.18 316.727 15.8 316.332 15.27 316.072C14.74 315.807 14.11 315.675 13.38 315.675C12.465 315.675 11.725 315.877 11.16 316.282C10.6 316.687 10.225 317.245 10.035 317.955L11.3025 318.337C11.4475 317.842 11.705 317.482 12.075 317.257C12.445 317.032 12.875 316.92 13.365 316.92C14.065 316.92 14.5675 317.077 14.8725 317.392C15.1825 317.702 15.345 318.18 15.36 318.825C14.76 318.91 14.13 319 13.47 319.095C12.815 319.185 12.2325 319.297 11.7225 319.432C11.1075 319.612 10.6225 319.895 10.2675 320.28C9.91246 320.66 9.73496 321.17 9.73496 321.81C9.73496 322.245 9.83746 322.645 10.0425 323.01C10.2525 323.375 10.56 323.67 10.965 323.895C11.375 324.115 11.8825 324.225 12.4875 324.225ZM12.69 323.107C12.115 323.107 11.7 322.975 11.445 322.71C11.19 322.44 11.0625 322.137 11.0625 321.802C11.0625 321.422 11.1875 321.132 11.4375 320.932C11.6925 320.727 11.9875 320.572 12.3225 320.467C12.7175 320.357 13.1775 320.265 13.7025 320.19C14.2275 320.115 14.775 320.04 15.345 319.965C15.345 320.15 15.335 320.36 15.315 320.595C15.3 320.83 15.265 321.045 15.21 321.24C15.115 321.74 14.85 322.177 14.415 322.552C13.985 322.922 13.41 323.107 12.69 323.107ZM18.915 327.6H20.2575V323.25C20.5475 323.555 20.89 323.795 21.285 323.97C21.685 324.14 22.1375 324.225 22.6425 324.225C23.3975 324.225 24.045 324.038 24.585 323.662C25.13 323.282 25.5475 322.77 25.8375 322.125C26.1275 321.48 26.2725 320.752 26.2725 319.942C26.2725 319.132 26.1275 318.405 25.8375 317.76C25.5475 317.115 25.13 316.607 24.585 316.237C24.045 315.862 23.4 315.675 22.65 315.675C22.1 315.675 21.6125 315.775 21.1875 315.975C20.7625 316.175 20.4025 316.452 20.1075 316.807V315.9H18.915V327.6ZM22.4775 323.002C21.6625 323.002 21.0625 322.715 20.6775 322.14C20.2975 321.565 20.1075 320.832 20.1075 319.942C20.1075 319.047 20.2975 318.317 20.6775 317.752C21.0625 317.182 21.65 316.897 22.44 316.897C22.99 316.897 23.4425 317.032 23.7975 317.302C24.1575 317.572 24.4225 317.937 24.5925 318.397C24.7675 318.857 24.855 319.372 24.855 319.942C24.855 320.517 24.7675 321.037 24.5925 321.502C24.4175 321.962 24.155 322.327 23.805 322.597C23.455 322.867 23.0125 323.002 22.4775 323.002Z" fill="#31485F"/>
<path d="M62.62 359.5H64.796V355.596H67.22L69.116 359.5H71.58L69.5 355.228C70.156 354.929 70.6387 354.479 70.948 353.876C71.2627 353.268 71.42 352.572 71.42 351.788C71.42 350.817 71.1827 349.991 70.708 349.308C70.2333 348.625 69.4787 348.204 68.444 348.044C68.2947 348.017 68.124 348.001 67.932 347.996C67.7453 347.985 67.596 347.98 67.484 347.98H62.62V359.5ZM64.796 353.564V350.012H67.388C67.5 350.012 67.6227 350.017 67.756 350.028C67.8893 350.039 68.012 350.06 68.124 350.092C68.4173 350.172 68.644 350.308 68.804 350.5C68.964 350.687 69.0733 350.897 69.132 351.132C69.196 351.361 69.228 351.58 69.228 351.788C69.228 351.996 69.196 352.217 69.132 352.452C69.0733 352.681 68.964 352.892 68.804 353.084C68.644 353.271 68.4173 353.404 68.124 353.484C68.012 353.516 67.8893 353.537 67.756 353.548C67.6227 353.559 67.5 353.564 67.388 353.564H64.796ZM77.3548 359.74C78.1868 359.74 78.9521 359.521 79.6508 359.084C80.3548 358.647 80.8694 358.033 81.1948 357.244L79.0188 356.62C78.6881 357.345 78.0908 357.708 77.2268 357.708C76.6348 357.708 76.1681 357.543 75.8268 357.212C75.4908 356.881 75.2828 356.407 75.2028 355.788H81.2668C81.3574 354.743 81.2508 353.833 80.9468 353.06C80.6428 352.287 80.1734 351.687 79.5388 351.26C78.9041 350.833 78.1334 350.62 77.2268 350.62C76.3734 350.62 75.6188 350.815 74.9628 351.204C74.3068 351.588 73.7921 352.129 73.4188 352.828C73.0454 353.527 72.8588 354.348 72.8588 355.292C72.8588 356.156 73.0481 356.924 73.4268 357.596C73.8108 358.263 74.3388 358.788 75.0108 359.172C75.6881 359.551 76.4694 359.74 77.3548 359.74ZM77.3228 352.508C77.8454 352.508 78.2454 352.639 78.5228 352.9C78.8054 353.161 78.9868 353.585 79.0668 354.172H75.2588C75.4881 353.063 76.1761 352.508 77.3228 352.508ZM83.2331 359.5H85.4091V347.74H83.2331V359.5ZM91.8235 359.74C92.6555 359.74 93.4208 359.521 94.1195 359.084C94.8235 358.647 95.3382 358.033 95.6635 357.244L93.4875 356.62C93.1568 357.345 92.5595 357.708 91.6955 357.708C91.1035 357.708 90.6368 357.543 90.2955 357.212C89.9595 356.881 89.7515 356.407 89.6715 355.788H95.7355C95.8262 354.743 95.7195 353.833 95.4155 353.06C95.1115 352.287 94.6422 351.687 94.0075 351.26C93.3728 350.833 92.6022 350.62 91.6955 350.62C90.8422 350.62 90.0875 350.815 89.4315 351.204C88.7755 351.588 88.2608 352.129 87.8875 352.828C87.5142 353.527 87.3275 354.348 87.3275 355.292C87.3275 356.156 87.5168 356.924 87.8955 357.596C88.2795 358.263 88.8075 358.788 89.4795 359.172C90.1568 359.551 90.9382 359.74 91.8235 359.74ZM91.7915 352.508C92.3142 352.508 92.7142 352.639 92.9915 352.9C93.2742 353.161 93.4555 353.585 93.5355 354.172H89.7275C89.9568 353.063 90.6448 352.508 91.7915 352.508ZM99.7856 359.74C100.452 359.74 101.012 359.639 101.466 359.436C101.924 359.228 102.346 358.897 102.73 358.444V359.5H104.634V354.22C104.634 353.825 104.618 353.468 104.586 353.148C104.554 352.828 104.452 352.508 104.282 352.188C103.978 351.612 103.53 351.207 102.938 350.972C102.346 350.737 101.668 350.62 100.906 350.62C99.8656 350.62 99.0443 350.844 98.4416 351.292C97.839 351.74 97.4283 352.321 97.2096 353.036L99.1776 353.66C99.3163 353.265 99.559 352.991 99.9056 352.836C100.252 352.681 100.586 352.604 100.906 352.604C101.418 352.604 101.799 352.7 102.05 352.892C102.3 353.079 102.447 353.375 102.49 353.78C101.679 353.897 100.964 354.012 100.346 354.124C99.727 354.231 99.2096 354.359 98.7936 354.508C98.1003 354.764 97.6123 355.113 97.3296 355.556C97.047 355.993 96.9056 356.513 96.9056 357.116C96.9056 357.596 97.015 358.036 97.2336 358.436C97.4576 358.831 97.783 359.148 98.2096 359.388C98.6416 359.623 99.167 359.74 99.7856 359.74ZM100.25 358.028C99.8763 358.028 99.5803 357.945 99.3616 357.78C99.143 357.609 99.0336 357.377 99.0336 357.084C99.0336 356.865 99.103 356.679 99.2416 356.524C99.3803 356.364 99.6096 356.22 99.9296 356.092C100.175 356.001 100.476 355.919 100.834 355.844C101.196 355.764 101.743 355.663 102.474 355.54C102.468 355.748 102.452 355.977 102.426 356.228C102.399 356.473 102.34 356.689 102.25 356.876C102.191 356.999 102.079 357.151 101.914 357.332C101.754 357.513 101.535 357.676 101.258 357.82C100.986 357.959 100.65 358.028 100.25 358.028ZM110.09 359.74C111.22 359.74 112.106 359.487 112.746 358.98C113.386 358.473 113.706 357.777 113.706 356.892C113.706 356.22 113.498 355.689 113.082 355.3C112.671 354.911 111.972 354.588 110.986 354.332C110.314 354.161 109.812 354.023 109.482 353.916C109.156 353.809 108.94 353.705 108.834 353.604C108.732 353.503 108.682 353.377 108.682 353.228C108.682 352.977 108.802 352.785 109.042 352.652C109.287 352.519 109.61 352.465 110.01 352.492C110.858 352.556 111.322 352.919 111.402 353.58L113.626 353.18C113.514 352.396 113.13 351.775 112.474 351.316C111.818 350.852 110.98 350.62 109.962 350.62C108.916 350.62 108.082 350.865 107.458 351.356C106.834 351.847 106.522 352.508 106.522 353.34C106.522 354.001 106.738 354.524 107.17 354.908C107.602 355.287 108.346 355.612 109.402 355.884C110.026 356.049 110.484 356.183 110.778 356.284C111.076 356.385 111.268 356.489 111.354 356.596C111.439 356.697 111.482 356.833 111.482 357.004C111.482 357.276 111.375 357.489 111.162 357.644C110.948 357.793 110.644 357.868 110.25 357.868C109.77 357.868 109.372 357.753 109.058 357.524C108.748 357.295 108.548 356.977 108.458 356.572L106.234 356.908C106.378 357.809 106.783 358.508 107.45 359.004C108.122 359.495 109.002 359.74 110.09 359.74ZM119.48 359.74C120.312 359.74 121.077 359.521 121.776 359.084C122.48 358.647 122.994 358.033 123.32 357.244L121.144 356.62C120.813 357.345 120.216 357.708 119.352 357.708C118.76 357.708 118.293 357.543 117.952 357.212C117.616 356.881 117.408 356.407 117.328 355.788H123.392C123.482 354.743 123.376 353.833 123.072 353.06C122.768 352.287 122.298 351.687 121.664 351.26C121.029 350.833 120.258 350.62 119.352 350.62C118.498 350.62 117.744 350.815 117.088 351.204C116.432 351.588 115.917 352.129 115.544 352.828C115.17 353.527 114.984 354.348 114.984 355.292C114.984 356.156 115.173 356.924 115.552 357.596C115.936 358.263 116.464 358.788 117.136 359.172C117.813 359.551 118.594 359.74 119.48 359.74ZM119.448 352.508C119.97 352.508 120.37 352.639 120.648 352.9C120.93 353.161 121.112 353.585 121.192 354.172H117.384C117.613 353.063 118.301 352.508 119.448 352.508ZM62.3 381.484H70.364V379.436H65.676L68.252 377.18C68.7107 376.78 69.0973 376.423 69.412 376.108C69.7267 375.788 69.964 375.441 70.124 375.068C70.284 374.689 70.364 374.215 70.364 373.644C70.364 372.871 70.1933 372.191 69.852 371.604C69.5107 371.017 69.0413 370.561 68.444 370.236C67.852 369.905 67.18 369.74 66.428 369.74C65.6067 369.74 64.8867 369.897 64.268 370.212C63.6493 370.527 63.1667 370.972 62.82 371.548C62.4733 372.124 62.3 372.807 62.3 373.596H64.54C64.5293 373.276 64.6013 372.98 64.756 372.708C64.9107 372.431 65.1267 372.209 65.404 372.044C65.6867 371.873 66.012 371.788 66.38 371.788C66.908 371.788 67.3293 371.961 67.644 372.308C67.964 372.649 68.124 373.084 68.124 373.612C68.124 373.857 68.0493 374.121 67.9 374.404C67.7507 374.687 67.4947 374.988 67.132 375.308L62.3 379.596V381.484ZM76.5483 381.74C77.4016 381.74 78.1483 381.561 78.7883 381.204C79.4283 380.847 79.9269 380.348 80.2843 379.708C80.6416 379.068 80.8203 378.321 80.8203 377.468V374.012C80.8203 373.159 80.6416 372.412 80.2843 371.772C79.9269 371.132 79.4283 370.633 78.7883 370.276C78.1483 369.919 77.4016 369.74 76.5483 369.74C75.6949 369.74 74.9483 369.919 74.3083 370.276C73.6683 370.633 73.1696 371.132 72.8123 371.772C72.4549 372.412 72.2763 373.159 72.2763 374.012V377.468C72.2763 378.321 72.4549 379.068 72.8123 379.708C73.1696 380.348 73.6683 380.847 74.3083 381.204C74.9483 381.561 75.6949 381.74 76.5483 381.74ZM76.5483 379.676C76.1643 379.676 75.8176 379.585 75.5083 379.404C75.1989 379.223 74.9536 378.977 74.7723 378.668C74.5909 378.359 74.5003 378.012 74.5003 377.628V373.836C74.5003 373.452 74.5909 373.105 74.7723 372.796C74.9536 372.487 75.1989 372.241 75.5083 372.06C75.8176 371.879 76.1643 371.788 76.5483 371.788C76.9323 371.788 77.2789 371.879 77.5883 372.06C77.8976 372.241 78.1429 372.487 78.3243 372.796C78.5056 373.105 78.5963 373.452 78.5963 373.836V377.628C78.5963 378.012 78.5056 378.359 78.3243 378.668C78.1429 378.977 77.8976 379.223 77.5883 379.404C77.2789 379.585 76.9323 379.676 76.5483 379.676ZM82.7375 381.484H90.8015V379.436H86.1135L88.6895 377.18C89.1482 376.78 89.5348 376.423 89.8495 376.108C90.1642 375.788 90.4015 375.441 90.5615 375.068C90.7215 374.689 90.8015 374.215 90.8015 373.644C90.8015 372.871 90.6308 372.191 90.2895 371.604C89.9482 371.017 89.4788 370.561 88.8815 370.236C88.2895 369.905 87.6175 369.74 86.8655 369.74C86.0442 369.74 85.3242 369.897 84.7055 370.212C84.0868 370.527 83.6042 370.972 83.2575 371.548C82.9108 372.124 82.7375 372.807 82.7375 373.596H84.9775C84.9668 373.276 85.0388 372.98 85.1935 372.708C85.3482 372.431 85.5642 372.209 85.8415 372.044C86.1242 371.873 86.4495 371.788 86.8175 371.788C87.3455 371.788 87.7668 371.961 88.0815 372.308C88.4015 372.649 88.5615 373.084 88.5615 373.612C88.5615 373.857 88.4868 374.121 88.3375 374.404C88.1882 374.687 87.9322 374.988 87.5695 375.308L82.7375 379.596V381.484ZM92.3938 381.484H100.458V379.436H95.7698L98.3458 377.18C98.8044 376.78 99.1911 376.423 99.5058 376.108C99.8204 375.788 100.058 375.441 100.218 375.068C100.378 374.689 100.458 374.215 100.458 373.644C100.458 372.871 100.287 372.191 99.9458 371.604C99.6044 371.017 99.1351 370.561 98.5378 370.236C97.9458 369.905 97.2738 369.74 96.5218 369.74C95.7004 369.74 94.9804 369.897 94.3618 370.212C93.7431 370.527 93.2604 370.972 92.9138 371.548C92.5671 372.124 92.3938 372.807 92.3938 373.596H94.6338C94.6231 373.276 94.6951 372.98 94.8498 372.708C95.0044 372.431 95.2204 372.209 95.4978 372.044C95.7804 371.873 96.1058 371.788 96.4738 371.788C97.0018 371.788 97.4231 371.961 97.7378 372.308C98.0578 372.649 98.2178 373.084 98.2178 373.612C98.2178 373.857 98.1431 374.121 97.9938 374.404C97.8444 374.687 97.5884 374.988 97.2258 375.308L92.3938 379.596V381.484Z" fill="#6380DC"/>
<path d="M65.133 405.886H66.379V404.682C67.3077 404.593 68.0497 404.281 68.605 403.744C69.1603 403.207 69.438 402.524 69.438 401.693C69.438 400.998 69.2537 400.442 68.885 400.027C68.5163 399.607 67.9167 399.273 67.086 399.026L65.196 398.466C64.6453 398.303 64.244 398.102 63.992 397.864C63.74 397.626 63.614 397.337 63.614 396.996C63.614 396.529 63.8123 396.144 64.209 395.841C64.6057 395.538 65.1027 395.391 65.7 395.4C66.3347 395.405 66.8713 395.591 67.31 395.96C67.7533 396.324 68.024 396.802 68.122 397.395L69.382 397.164C69.2233 396.361 68.8803 395.708 68.353 395.204C67.8303 394.7 67.1723 394.387 66.379 394.266V393.027H65.133V394.245C64.293 394.343 63.621 394.644 63.117 395.148C62.6177 395.647 62.368 396.282 62.368 397.052C62.368 398.265 63.0563 399.087 64.433 399.516L66.736 400.23C67.2633 400.393 67.6413 400.592 67.87 400.825C68.0987 401.058 68.213 401.366 68.213 401.749C68.213 402.272 67.9983 402.699 67.569 403.03C67.1443 403.361 66.5913 403.527 65.91 403.527C65.2287 403.527 64.6453 403.345 64.16 402.981C63.6793 402.617 63.3643 402.125 63.215 401.504L61.99 401.707C62.13 402.514 62.48 403.179 63.04 403.702C63.6 404.22 64.2977 404.54 65.133 404.661V405.886ZM76.0216 404.5H77.2886V394.42H76.0216L74.1246 395.554V396.947L76.0216 395.799V404.5ZM83.6341 404.71C84.2874 404.71 84.8708 404.563 85.3841 404.269C85.8974 403.975 86.3011 403.571 86.5951 403.058C86.8891 402.545 87.0361 401.961 87.0361 401.308V397.612C87.0361 396.959 86.8891 396.375 86.5951 395.862C86.3011 395.349 85.8974 394.945 85.3841 394.651C84.8708 394.357 84.2874 394.21 83.6341 394.21C82.9808 394.21 82.3974 394.357 81.8841 394.651C81.3708 394.945 80.9671 395.349 80.6731 395.862C80.3791 396.375 80.2321 396.959 80.2321 397.612V401.308C80.2321 401.961 80.3791 402.545 80.6731 403.058C80.9671 403.571 81.3708 403.975 81.8841 404.269C82.3974 404.563 82.9808 404.71 83.6341 404.71ZM83.6341 403.513C83.2421 403.513 82.8828 403.417 82.5561 403.226C82.2341 403.035 81.9774 402.778 81.7861 402.456C81.5948 402.129 81.4991 401.77 81.4991 401.378V397.535C81.4991 397.138 81.5948 396.779 81.7861 396.457C81.9774 396.135 82.2341 395.878 82.5561 395.687C82.8828 395.496 83.2421 395.4 83.6341 395.4C84.0308 395.4 84.3901 395.496 84.7121 395.687C85.0341 395.878 85.2908 396.135 85.4821 396.457C85.6734 396.779 85.7691 397.138 85.7691 397.535V401.378C85.7691 401.77 85.6734 402.129 85.4821 402.456C85.2908 402.778 85.0341 403.035 84.7121 403.226C84.3901 403.417 84.0308 403.513 83.6341 403.513ZM92.6778 404.71C93.3311 404.71 93.9144 404.563 94.4278 404.269C94.9411 403.975 95.3448 403.571 95.6388 403.058C95.9328 402.545 96.0798 401.961 96.0798 401.308V397.612C96.0798 396.959 95.9328 396.375 95.6388 395.862C95.3448 395.349 94.9411 394.945 94.4278 394.651C93.9144 394.357 93.3311 394.21 92.6778 394.21C92.0244 394.21 91.4411 394.357 90.9278 394.651C90.4144 394.945 90.0108 395.349 89.7168 395.862C89.4228 396.375 89.2758 396.959 89.2758 397.612V401.308C89.2758 401.961 89.4228 402.545 89.7168 403.058C90.0108 403.571 90.4144 403.975 90.9278 404.269C91.4411 404.563 92.0244 404.71 92.6778 404.71ZM92.6778 403.513C92.2858 403.513 91.9264 403.417 91.5998 403.226C91.2778 403.035 91.0211 402.778 90.8298 402.456C90.6384 402.129 90.5428 401.77 90.5428 401.378V397.535C90.5428 397.138 90.6384 396.779 90.8298 396.457C91.0211 396.135 91.2778 395.878 91.5998 395.687C91.9264 395.496 92.2858 395.4 92.6778 395.4C93.0744 395.4 93.4338 395.496 93.7558 395.687C94.0778 395.878 94.3344 396.135 94.5258 396.457C94.7171 396.779 94.8128 397.138 94.8128 397.535V401.378C94.8128 401.77 94.7171 402.129 94.5258 402.456C94.3344 402.778 94.0778 403.035 93.7558 403.226C93.4338 403.417 93.0744 403.513 92.6778 403.513ZM101.395 404.5H102.648V399.698C102.648 399.143 102.798 398.697 103.096 398.361C103.4 398.025 103.799 397.857 104.293 397.857C104.788 397.857 105.185 398.023 105.483 398.354C105.782 398.685 105.931 399.138 105.931 399.712L105.924 404.5H107.163L107.17 399.698C107.17 399.273 107.25 398.926 107.408 398.655C107.567 398.384 107.772 398.184 108.024 398.053C108.276 397.922 108.542 397.857 108.822 397.857C109.298 397.857 109.688 398.018 109.991 398.34C110.295 398.657 110.446 399.098 110.446 399.663L110.439 404.5H111.685L111.692 399.39C111.692 398.583 111.466 397.941 111.013 397.465C110.561 396.984 109.94 396.744 109.151 396.744C108.652 396.744 108.202 396.856 107.8 397.08C107.399 397.299 107.086 397.603 106.862 397.99C106.657 397.593 106.365 397.288 105.987 397.073C105.609 396.854 105.166 396.744 104.657 396.744C104.205 396.744 103.792 396.835 103.418 397.017C103.05 397.194 102.746 397.437 102.508 397.745V396.94H101.395V404.5ZM113.935 404.5H115.181V394.21H113.935V404.5ZM117.555 404.5H118.815V400.517C118.815 399.64 119.004 398.989 119.382 398.564C119.764 398.139 120.268 397.927 120.894 397.927C121.426 397.927 121.841 398.06 122.14 398.326C122.438 398.592 122.646 398.937 122.763 399.362C122.884 399.787 122.945 400.237 122.945 400.713V404.5H124.205V400.321C124.205 399.962 124.16 399.577 124.072 399.166C123.988 398.751 123.834 398.361 123.61 397.997C123.39 397.628 123.085 397.327 122.693 397.094C122.305 396.861 121.806 396.744 121.195 396.744C120.093 396.744 119.253 397.134 118.675 397.913V396.94H117.555V404.5ZM65.665 423.71C66.4443 423.71 67.1117 423.523 67.667 423.15C68.2223 422.777 68.633 422.238 68.899 421.533L67.639 421.204C67.289 422.086 66.631 422.527 65.665 422.527C64.9137 422.527 64.3467 422.27 63.964 421.757C63.586 421.244 63.3923 420.565 63.383 419.72C63.3923 418.899 63.5813 418.227 63.95 417.704C64.3187 417.177 64.8903 416.913 65.665 416.913C66.1223 416.913 66.5307 417.034 66.89 417.277C67.2493 417.52 67.5083 417.86 67.667 418.299L68.899 417.928C68.6983 417.247 68.3087 416.71 67.73 416.318C67.156 415.926 66.4723 415.73 65.679 415.73C64.923 415.73 64.2743 415.9 63.733 416.241C63.1963 416.577 62.7857 417.044 62.501 417.641C62.2163 418.238 62.0693 418.931 62.06 419.72C62.0693 420.49 62.214 421.176 62.494 421.778C62.774 422.38 63.18 422.854 63.712 423.199C64.2487 423.54 64.8997 423.71 65.665 423.71ZM72.6883 423.71C73.9483 423.71 74.8816 423.248 75.4883 422.324V423.5H76.5943V418.824C76.5943 418.525 76.5803 418.241 76.5523 417.97C76.5243 417.695 76.4566 417.44 76.3493 417.207C76.1346 416.712 75.78 416.344 75.2853 416.101C74.7906 415.854 74.2026 415.73 73.5213 415.73C72.6673 415.73 71.9766 415.919 71.4493 416.297C70.9266 416.675 70.5766 417.195 70.3993 417.858L71.5823 418.215C71.7176 417.753 71.958 417.417 72.3033 417.207C72.6486 416.997 73.05 416.892 73.5073 416.892C74.1606 416.892 74.6296 417.039 74.9143 417.333C75.2036 417.622 75.3553 418.068 75.3693 418.67C74.8093 418.749 74.2213 418.833 73.6053 418.922C72.994 419.006 72.4503 419.111 71.9743 419.237C71.4003 419.405 70.9476 419.669 70.6163 420.028C70.285 420.383 70.1193 420.859 70.1193 421.456C70.1193 421.862 70.215 422.235 70.4063 422.576C70.6023 422.917 70.8893 423.192 71.2673 423.402C71.65 423.607 72.1236 423.71 72.6883 423.71ZM72.8773 422.667C72.3406 422.667 71.9533 422.543 71.7153 422.296C71.4773 422.044 71.3583 421.762 71.3583 421.449C71.3583 421.094 71.475 420.824 71.7083 420.637C71.9463 420.446 72.2216 420.301 72.5343 420.203C72.903 420.1 73.3323 420.014 73.8223 419.944C74.3123 419.874 74.8233 419.804 75.3553 419.734C75.3553 419.907 75.346 420.103 75.3273 420.322C75.3133 420.541 75.2806 420.742 75.2293 420.924C75.1406 421.391 74.8933 421.799 74.4873 422.149C74.086 422.494 73.5493 422.667 72.8773 422.667ZM78.6873 426.86H79.9403V422.8C80.211 423.085 80.5306 423.309 80.8993 423.472C81.2726 423.631 81.695 423.71 82.1663 423.71C82.871 423.71 83.4753 423.535 83.9793 423.185C84.488 422.83 84.8776 422.352 85.1483 421.75C85.419 421.148 85.5543 420.469 85.5543 419.713C85.5543 418.957 85.419 418.278 85.1483 417.676C84.8776 417.074 84.488 416.6 83.9793 416.255C83.4753 415.905 82.8733 415.73 82.1733 415.73C81.66 415.73 81.205 415.823 80.8083 416.01C80.4116 416.197 80.0756 416.456 79.8003 416.787V415.94H78.6873V426.86ZM82.0123 422.569C81.2516 422.569 80.6916 422.301 80.3323 421.764C79.9776 421.227 79.8003 420.544 79.8003 419.713C79.8003 418.878 79.9776 418.196 80.3323 417.669C80.6916 417.137 81.24 416.871 81.9773 416.871C82.4906 416.871 82.913 416.997 83.2443 417.249C83.5803 417.501 83.8276 417.842 83.9863 418.271C84.1496 418.7 84.2313 419.181 84.2313 419.713C84.2313 420.25 84.1496 420.735 83.9863 421.169C83.823 421.598 83.578 421.939 83.2513 422.191C82.9246 422.443 82.5116 422.569 82.0123 422.569Z" fill="#31485F"/>
<path d="M127.3 279.984H135.364V277.936H130.676L133.252 275.68C133.711 275.28 134.097 274.923 134.412 274.608C134.727 274.288 134.964 273.941 135.124 273.568C135.284 273.189 135.364 272.715 135.364 272.144C135.364 271.371 135.193 270.691 134.852 270.104C134.511 269.517 134.041 269.061 133.444 268.736C132.852 268.405 132.18 268.24 131.428 268.24C130.607 268.24 129.887 268.397 129.268 268.712C128.649 269.027 128.167 269.472 127.82 270.048C127.473 270.624 127.3 271.307 127.3 272.096H129.54C129.529 271.776 129.601 271.48 129.756 271.208C129.911 270.931 130.127 270.709 130.404 270.544C130.687 270.373 131.012 270.288 131.38 270.288C131.908 270.288 132.329 270.461 132.644 270.808C132.964 271.149 133.124 271.584 133.124 272.112C133.124 272.357 133.049 272.621 132.9 272.904C132.751 273.187 132.495 273.488 132.132 273.808L127.3 278.096V279.984ZM141.548 280.24C142.402 280.24 143.148 280.061 143.788 279.704C144.428 279.347 144.927 278.848 145.284 278.208C145.642 277.568 145.82 276.821 145.82 275.968V272.512C145.82 271.659 145.642 270.912 145.284 270.272C144.927 269.632 144.428 269.133 143.788 268.776C143.148 268.419 142.402 268.24 141.548 268.24C140.695 268.24 139.948 268.419 139.308 268.776C138.668 269.133 138.17 269.632 137.812 270.272C137.455 270.912 137.276 271.659 137.276 272.512V275.968C137.276 276.821 137.455 277.568 137.812 278.208C138.17 278.848 138.668 279.347 139.308 279.704C139.948 280.061 140.695 280.24 141.548 280.24ZM141.548 278.176C141.164 278.176 140.818 278.085 140.508 277.904C140.199 277.723 139.954 277.477 139.772 277.168C139.591 276.859 139.5 276.512 139.5 276.128V272.336C139.5 271.952 139.591 271.605 139.772 271.296C139.954 270.987 140.199 270.741 140.508 270.56C140.818 270.379 141.164 270.288 141.548 270.288C141.932 270.288 142.279 270.379 142.588 270.56C142.898 270.741 143.143 270.987 143.324 271.296C143.506 271.605 143.596 271.952 143.596 272.336V276.128C143.596 276.512 143.506 276.859 143.324 277.168C143.143 277.477 142.898 277.723 142.588 277.904C142.279 278.085 141.932 278.176 141.548 278.176ZM147.738 279.984H155.802V277.936H151.114L153.69 275.68C154.148 275.28 154.535 274.923 154.85 274.608C155.164 274.288 155.402 273.941 155.562 273.568C155.722 273.189 155.802 272.715 155.802 272.144C155.802 271.371 155.631 270.691 155.29 270.104C154.948 269.517 154.479 269.061 153.882 268.736C153.29 268.405 152.618 268.24 151.866 268.24C151.044 268.24 150.324 268.397 149.706 268.712C149.087 269.027 148.604 269.472 148.258 270.048C147.911 270.624 147.738 271.307 147.738 272.096H149.978C149.967 271.776 150.039 271.48 150.194 271.208C150.348 270.931 150.564 270.709 150.842 270.544C151.124 270.373 151.45 270.288 151.818 270.288C152.346 270.288 152.767 270.461 153.082 270.808C153.402 271.149 153.562 271.584 153.562 272.112C153.562 272.357 153.487 272.621 153.338 272.904C153.188 273.187 152.932 273.488 152.57 273.808L147.738 278.096V279.984ZM161.73 280.24C162.455 280.24 163.122 280.069 163.73 279.728C164.338 279.381 164.826 278.917 165.194 278.336C165.562 277.749 165.746 277.093 165.746 276.368C165.746 275.643 165.588 274.997 165.274 274.432C164.964 273.867 164.532 273.421 163.978 273.096C163.428 272.771 162.791 272.608 162.066 272.608C161.271 272.608 160.562 272.845 159.938 273.32V272.336C159.938 271.984 160.02 271.653 160.186 271.344C160.356 271.029 160.594 270.776 160.898 270.584C161.207 270.387 161.57 270.288 161.986 270.288C162.54 270.288 163.02 270.491 163.426 270.896L164.978 269.344C164.556 268.949 164.092 268.669 163.586 268.504C163.079 268.339 162.546 268.256 161.986 268.256C161.122 268.256 160.37 268.435 159.73 268.792C159.09 269.144 158.594 269.651 158.242 270.312C157.89 270.968 157.714 271.749 157.714 272.656V276C157.714 276.837 157.89 277.576 158.242 278.216C158.594 278.851 159.071 279.347 159.674 279.704C160.282 280.061 160.967 280.24 161.73 280.24ZM161.73 278.16C161.399 278.16 161.098 278.077 160.826 277.912C160.554 277.747 160.338 277.528 160.178 277.256C160.018 276.984 159.938 276.688 159.938 276.368C159.938 276.037 160.018 275.736 160.178 275.464C160.343 275.187 160.562 274.968 160.834 274.808C161.111 274.643 161.415 274.56 161.746 274.56C162.076 274.56 162.378 274.643 162.65 274.808C162.922 274.968 163.138 275.187 163.298 275.464C163.458 275.736 163.538 276.037 163.538 276.368C163.538 276.699 163.455 277 163.29 277.272C163.13 277.544 162.911 277.76 162.634 277.92C162.362 278.08 162.06 278.16 161.73 278.16Z" fill="#794DCC"/>
<path d="M130.133 304.386H131.379V303.182C132.308 303.093 133.05 302.781 133.605 302.244C134.16 301.707 134.438 301.024 134.438 300.193C134.438 299.498 134.254 298.942 133.885 298.527C133.516 298.107 132.917 297.773 132.086 297.526L130.196 296.966C129.645 296.803 129.244 296.602 128.992 296.364C128.74 296.126 128.614 295.837 128.614 295.496C128.614 295.029 128.812 294.644 129.209 294.341C129.606 294.038 130.103 293.891 130.7 293.9C131.335 293.905 131.871 294.091 132.31 294.46C132.753 294.824 133.024 295.302 133.122 295.895L134.382 295.664C134.223 294.861 133.88 294.208 133.353 293.704C132.83 293.2 132.172 292.887 131.379 292.766V291.527H130.133V292.745C129.293 292.843 128.621 293.144 128.117 293.648C127.618 294.147 127.368 294.782 127.368 295.552C127.368 296.765 128.056 297.587 129.433 298.016L131.736 298.73C132.263 298.893 132.641 299.092 132.87 299.325C133.099 299.558 133.213 299.866 133.213 300.249C133.213 300.772 132.998 301.199 132.569 301.53C132.144 301.861 131.591 302.027 130.91 302.027C130.229 302.027 129.645 301.845 129.16 301.481C128.679 301.117 128.364 300.625 128.215 300.004L126.99 300.207C127.13 301.014 127.48 301.679 128.04 302.202C128.6 302.72 129.298 303.04 130.133 303.161V304.386ZM141.022 303H142.289V292.92H141.022L139.125 294.054V295.447L141.022 294.299V303ZM148.308 303H149.421V302.146C149.696 302.477 150.03 302.739 150.422 302.93C150.819 303.117 151.274 303.21 151.787 303.21C152.492 303.21 153.096 303.035 153.6 302.685C154.109 302.33 154.498 301.852 154.769 301.25C155.04 300.648 155.175 299.969 155.175 299.213C155.175 298.457 155.04 297.778 154.769 297.176C154.498 296.574 154.109 296.1 153.6 295.755C153.096 295.405 152.494 295.23 151.794 295.23C151.323 295.23 150.9 295.309 150.527 295.468C150.154 295.627 149.832 295.846 149.561 296.126V292.92H148.308V303ZM151.633 302.069C150.872 302.069 150.312 301.801 149.953 301.264C149.598 300.727 149.421 300.044 149.421 299.213C149.421 298.378 149.598 297.696 149.953 297.169C150.312 296.637 150.861 296.371 151.598 296.371C152.111 296.371 152.534 296.497 152.865 296.749C153.201 297.001 153.448 297.342 153.607 297.771C153.77 298.2 153.852 298.681 153.852 299.213C153.852 299.75 153.77 300.235 153.607 300.669C153.444 301.098 153.199 301.439 152.872 301.691C152.545 301.943 152.132 302.069 151.633 302.069ZM157.129 303H158.375V292.71H157.129V303ZM160.749 303H162.009V299.017C162.009 298.14 162.198 297.489 162.576 297.064C162.958 296.639 163.462 296.427 164.088 296.427C164.62 296.427 165.035 296.56 165.334 296.826C165.632 297.092 165.84 297.437 165.957 297.862C166.078 298.287 166.139 298.737 166.139 299.213V303H167.399V298.821C167.399 298.462 167.354 298.077 167.266 297.666C167.182 297.251 167.028 296.861 166.804 296.497C166.584 296.128 166.279 295.827 165.887 295.594C165.499 295.361 165 295.244 164.389 295.244C163.287 295.244 162.447 295.634 161.869 296.413V295.44H160.749V303Z" fill="#31485F"/>
<path d="M182.3 359.484H190.364V357.436H185.676L188.252 355.18C188.711 354.78 189.097 354.423 189.412 354.108C189.727 353.788 189.964 353.441 190.124 353.068C190.284 352.689 190.364 352.215 190.364 351.644C190.364 350.871 190.193 350.191 189.852 349.604C189.511 349.017 189.041 348.561 188.444 348.236C187.852 347.905 187.18 347.74 186.428 347.74C185.607 347.74 184.887 347.897 184.268 348.212C183.649 348.527 183.167 348.972 182.82 349.548C182.473 350.124 182.3 350.807 182.3 351.596H184.54C184.529 351.276 184.601 350.98 184.756 350.708C184.911 350.431 185.127 350.209 185.404 350.044C185.687 349.873 186.012 349.788 186.38 349.788C186.908 349.788 187.329 349.961 187.644 350.308C187.964 350.649 188.124 351.084 188.124 351.612C188.124 351.857 188.049 352.121 187.9 352.404C187.751 352.687 187.495 352.988 187.132 353.308L182.3 357.596V359.484ZM196.548 359.74C197.402 359.74 198.148 359.561 198.788 359.204C199.428 358.847 199.927 358.348 200.284 357.708C200.642 357.068 200.82 356.321 200.82 355.468V352.012C200.82 351.159 200.642 350.412 200.284 349.772C199.927 349.132 199.428 348.633 198.788 348.276C198.148 347.919 197.402 347.74 196.548 347.74C195.695 347.74 194.948 347.919 194.308 348.276C193.668 348.633 193.17 349.132 192.812 349.772C192.455 350.412 192.276 351.159 192.276 352.012V355.468C192.276 356.321 192.455 357.068 192.812 357.708C193.17 358.348 193.668 358.847 194.308 359.204C194.948 359.561 195.695 359.74 196.548 359.74ZM196.548 357.676C196.164 357.676 195.818 357.585 195.508 357.404C195.199 357.223 194.954 356.977 194.772 356.668C194.591 356.359 194.5 356.012 194.5 355.628V351.836C194.5 351.452 194.591 351.105 194.772 350.796C194.954 350.487 195.199 350.241 195.508 350.06C195.818 349.879 196.164 349.788 196.548 349.788C196.932 349.788 197.279 349.879 197.588 350.06C197.898 350.241 198.143 350.487 198.324 350.796C198.506 351.105 198.596 351.452 198.596 351.836V355.628C198.596 356.012 198.506 356.359 198.324 356.668C198.143 356.977 197.898 357.223 197.588 357.404C197.279 357.585 196.932 357.676 196.548 357.676ZM202.738 359.484H210.802V357.436H206.114L208.69 355.18C209.148 354.78 209.535 354.423 209.85 354.108C210.164 353.788 210.402 353.441 210.562 353.068C210.722 352.689 210.802 352.215 210.802 351.644C210.802 350.871 210.631 350.191 210.29 349.604C209.948 349.017 209.479 348.561 208.882 348.236C208.29 347.905 207.618 347.74 206.866 347.74C206.044 347.74 205.324 347.897 204.706 348.212C204.087 348.527 203.604 348.972 203.258 349.548C202.911 350.124 202.738 350.807 202.738 351.596H204.978C204.967 351.276 205.039 350.98 205.194 350.708C205.348 350.431 205.564 350.209 205.842 350.044C206.124 349.873 206.45 349.788 206.818 349.788C207.346 349.788 207.767 349.961 208.082 350.308C208.402 350.649 208.562 351.084 208.562 351.612C208.562 351.857 208.487 352.121 208.338 352.404C208.188 352.687 207.932 352.988 207.57 353.308L202.738 357.596V359.484ZM216.57 359.74C217.348 359.74 218.042 359.583 218.65 359.268C219.258 358.948 219.735 358.511 220.082 357.956C220.428 357.396 220.602 356.759 220.602 356.044C220.602 355.516 220.498 355.012 220.29 354.532C220.082 354.047 219.786 353.639 219.402 353.308C219.695 352.972 219.914 352.623 220.058 352.26C220.207 351.897 220.282 351.495 220.282 351.052C220.282 350.385 220.122 349.804 219.802 349.308C219.487 348.812 219.05 348.428 218.49 348.156C217.935 347.879 217.295 347.74 216.57 347.74C215.844 347.74 215.202 347.879 214.642 348.156C214.087 348.428 213.65 348.812 213.33 349.308C213.015 349.804 212.858 350.385 212.858 351.052C212.858 351.495 212.935 351.9 213.09 352.268C213.25 352.636 213.471 352.983 213.754 353.308C213.364 353.655 213.066 354.068 212.858 354.548C212.655 355.023 212.554 355.521 212.554 356.044C212.554 356.759 212.724 357.396 213.066 357.956C213.412 358.511 213.887 358.948 214.49 359.268C215.098 359.583 215.791 359.74 216.57 359.74ZM216.57 352.316C216.154 352.316 215.815 352.215 215.554 352.012C215.292 351.804 215.162 351.484 215.162 351.052C215.162 350.62 215.292 350.3 215.554 350.092C215.815 349.879 216.154 349.772 216.57 349.772C216.986 349.772 217.324 349.879 217.586 350.092C217.847 350.3 217.978 350.62 217.978 351.052C217.978 351.484 217.847 351.804 217.586 352.012C217.324 352.215 216.986 352.316 216.57 352.316ZM216.57 357.692C216.058 357.692 215.644 357.553 215.33 357.276C215.015 356.999 214.858 356.588 214.858 356.044C214.858 355.505 215.015 355.095 215.33 354.812C215.644 354.524 216.058 354.38 216.57 354.38C217.082 354.38 217.498 354.524 217.818 354.812C218.138 355.095 218.298 355.505 218.298 356.044C218.298 356.588 218.138 356.999 217.818 357.276C217.498 357.553 217.082 357.692 216.57 357.692Z" fill="#D0319A"/>
<path d="M185.133 383.886H186.379V382.682C187.308 382.593 188.05 382.281 188.605 381.744C189.16 381.207 189.438 380.524 189.438 379.693C189.438 378.998 189.254 378.442 188.885 378.027C188.516 377.607 187.917 377.273 187.086 377.026L185.196 376.466C184.645 376.303 184.244 376.102 183.992 375.864C183.74 375.626 183.614 375.337 183.614 374.996C183.614 374.529 183.812 374.144 184.209 373.841C184.606 373.538 185.103 373.391 185.7 373.4C186.335 373.405 186.871 373.591 187.31 373.96C187.753 374.324 188.024 374.802 188.122 375.395L189.382 375.164C189.223 374.361 188.88 373.708 188.353 373.204C187.83 372.7 187.172 372.387 186.379 372.266V371.027H185.133V372.245C184.293 372.343 183.621 372.644 183.117 373.148C182.618 373.647 182.368 374.282 182.368 375.052C182.368 376.265 183.056 377.087 184.433 377.516L186.736 378.23C187.263 378.393 187.641 378.592 187.87 378.825C188.099 379.058 188.213 379.366 188.213 379.749C188.213 380.272 187.998 380.699 187.569 381.03C187.144 381.361 186.591 381.527 185.91 381.527C185.229 381.527 184.645 381.345 184.16 380.981C183.679 380.617 183.364 380.125 183.215 379.504L181.99 379.707C182.13 380.514 182.48 381.179 183.04 381.702C183.6 382.22 184.298 382.54 185.133 382.661V383.886ZM196.022 382.5H197.289V372.42H196.022L194.125 373.554V374.947L196.022 373.799V382.5ZM207.536 382.5V381.429C207.018 381.508 206.575 381.522 206.206 381.471C205.842 381.42 205.576 381.245 205.408 380.946C205.319 380.787 205.27 380.601 205.261 380.386C205.256 380.167 205.254 379.901 205.254 379.588V375.969H207.536V374.94H205.254V372.84H204.008V374.94H202.475V375.969H204.008V379.644C204.008 380.036 204.013 380.386 204.022 380.694C204.036 380.997 204.118 381.296 204.267 381.59C204.444 381.931 204.703 382.183 205.044 382.346C205.385 382.505 205.772 382.591 206.206 382.605C206.645 382.624 207.088 382.589 207.536 382.5ZM209.491 382.5H210.737V372.21H209.491V382.5ZM213.11 382.5H214.37V378.517C214.37 377.64 214.559 376.989 214.937 376.564C215.32 376.139 215.824 375.927 216.449 375.927C216.981 375.927 217.396 376.06 217.695 376.326C217.994 376.592 218.201 376.937 218.318 377.362C218.439 377.787 218.5 378.237 218.5 378.713V382.5H219.76V378.321C219.76 377.962 219.716 377.577 219.627 377.166C219.543 376.751 219.389 376.361 219.165 375.997C218.946 375.628 218.64 375.327 218.248 375.094C217.861 374.861 217.361 374.744 216.75 374.744C215.649 374.744 214.809 375.134 214.23 375.913V374.94H213.11V382.5Z" fill="#31485F"/>
<path d="M291.3 279.984H299.364V277.936H294.676L297.252 275.68C297.711 275.28 298.097 274.923 298.412 274.608C298.727 274.288 298.964 273.941 299.124 273.568C299.284 273.189 299.364 272.715 299.364 272.144C299.364 271.371 299.193 270.691 298.852 270.104C298.511 269.517 298.041 269.061 297.444 268.736C296.852 268.405 296.18 268.24 295.428 268.24C294.607 268.24 293.887 268.397 293.268 268.712C292.649 269.027 292.167 269.472 291.82 270.048C291.473 270.624 291.3 271.307 291.3 272.096H293.54C293.529 271.776 293.601 271.48 293.756 271.208C293.911 270.931 294.127 270.709 294.404 270.544C294.687 270.373 295.012 270.288 295.38 270.288C295.908 270.288 296.329 270.461 296.644 270.808C296.964 271.149 297.124 271.584 297.124 272.112C297.124 272.357 297.049 272.621 296.9 272.904C296.751 273.187 296.495 273.488 296.132 273.808L291.3 278.096V279.984ZM305.548 280.24C306.402 280.24 307.148 280.061 307.788 279.704C308.428 279.347 308.927 278.848 309.284 278.208C309.642 277.568 309.82 276.821 309.82 275.968V272.512C309.82 271.659 309.642 270.912 309.284 270.272C308.927 269.632 308.428 269.133 307.788 268.776C307.148 268.419 306.402 268.24 305.548 268.24C304.695 268.24 303.948 268.419 303.308 268.776C302.668 269.133 302.17 269.632 301.812 270.272C301.455 270.912 301.276 271.659 301.276 272.512V275.968C301.276 276.821 301.455 277.568 301.812 278.208C302.17 278.848 302.668 279.347 303.308 279.704C303.948 280.061 304.695 280.24 305.548 280.24ZM305.548 278.176C305.164 278.176 304.818 278.085 304.508 277.904C304.199 277.723 303.954 277.477 303.772 277.168C303.591 276.859 303.5 276.512 303.5 276.128V272.336C303.5 271.952 303.591 271.605 303.772 271.296C303.954 270.987 304.199 270.741 304.508 270.56C304.818 270.379 305.164 270.288 305.548 270.288C305.932 270.288 306.279 270.379 306.588 270.56C306.898 270.741 307.143 270.987 307.324 271.296C307.506 271.605 307.596 271.952 307.596 272.336V276.128C307.596 276.512 307.506 276.859 307.324 277.168C307.143 277.477 306.898 277.723 306.588 277.904C306.279 278.085 305.932 278.176 305.548 278.176ZM315.418 280.208C316.143 280.208 316.81 280.04 317.418 279.704C318.026 279.363 318.514 278.904 318.882 278.328C319.25 277.747 319.434 277.093 319.434 276.368C319.434 275.829 319.335 275.32 319.138 274.84C318.946 274.355 318.66 273.933 318.282 273.576C317.903 273.213 317.439 272.952 316.89 272.792L319.226 270.528V268.48H312.026V270.528H316.65L313.546 273.104L314.522 274.816C314.81 274.645 315.108 274.56 315.418 274.56C315.946 274.56 316.378 274.739 316.714 275.096C317.055 275.448 317.226 275.872 317.226 276.368C317.226 276.699 317.143 277 316.978 277.272C316.818 277.544 316.599 277.76 316.322 277.92C316.05 278.08 315.748 278.16 315.418 278.16C315.034 278.16 314.676 278.045 314.346 277.816C314.02 277.581 313.802 277.253 313.69 276.832L311.578 277.392C311.743 277.963 312.018 278.459 312.402 278.88C312.791 279.301 313.247 279.629 313.77 279.864C314.292 280.093 314.842 280.208 315.418 280.208ZM323.511 280H325.735V268.48H323.511L321.351 269.776V272.176L323.511 270.848V280Z" fill="#A45AA5"/>
<path d="M294.133 304.386H295.379V303.182C296.308 303.093 297.05 302.781 297.605 302.244C298.16 301.707 298.438 301.024 298.438 300.193C298.438 299.498 298.254 298.942 297.885 298.527C297.516 298.107 296.917 297.773 296.086 297.526L294.196 296.966C293.645 296.803 293.244 296.602 292.992 296.364C292.74 296.126 292.614 295.837 292.614 295.496C292.614 295.029 292.812 294.644 293.209 294.341C293.606 294.038 294.103 293.891 294.7 293.9C295.335 293.905 295.871 294.091 296.31 294.46C296.753 294.824 297.024 295.302 297.122 295.895L298.382 295.664C298.223 294.861 297.88 294.208 297.353 293.704C296.83 293.2 296.172 292.887 295.379 292.766V291.527H294.133V292.745C293.293 292.843 292.621 293.144 292.117 293.648C291.618 294.147 291.368 294.782 291.368 295.552C291.368 296.765 292.056 297.587 293.433 298.016L295.736 298.73C296.263 298.893 296.641 299.092 296.87 299.325C297.099 299.558 297.213 299.866 297.213 300.249C297.213 300.772 296.998 301.199 296.569 301.53C296.144 301.861 295.591 302.027 294.91 302.027C294.229 302.027 293.645 301.845 293.16 301.481C292.679 301.117 292.364 300.625 292.215 300.004L290.99 300.207C291.13 301.014 291.48 301.679 292.04 302.202C292.6 302.72 293.298 303.04 294.133 303.161V304.386ZM306.03 303.196C306.655 303.196 307.215 303.056 307.71 302.776C308.204 302.496 308.596 302.109 308.886 301.614C309.175 301.115 309.32 300.543 309.32 299.899C309.32 299.311 309.201 298.784 308.963 298.317C308.729 297.85 308.398 297.477 307.969 297.197C307.544 296.917 307.042 296.761 306.464 296.728L309.187 294.117V292.92H303.244V294.11H307.64L304.364 297.071L304.966 298.058C305.124 297.979 305.295 297.916 305.477 297.869C305.659 297.818 305.836 297.792 306.009 297.792C306.615 297.792 307.105 297.988 307.479 298.38C307.852 298.767 308.039 299.274 308.039 299.899C308.039 300.515 307.854 301.019 307.486 301.411C307.122 301.798 306.634 301.997 306.023 302.006C305.575 302.011 305.169 301.892 304.805 301.649C304.445 301.406 304.191 301.052 304.042 300.585L302.845 300.928C303.059 301.628 303.456 302.181 304.035 302.587C304.618 302.993 305.283 303.196 306.03 303.196ZM318.723 303V301.929C318.205 302.008 317.762 302.022 317.393 301.971C317.029 301.92 316.763 301.745 316.595 301.446C316.507 301.287 316.458 301.101 316.448 300.886C316.444 300.667 316.441 300.401 316.441 300.088V296.469H318.723V295.44H316.441V293.34H315.195V295.44H313.662V296.469H315.195V300.144C315.195 300.536 315.2 300.886 315.209 301.194C315.223 301.497 315.305 301.796 315.454 302.09C315.632 302.431 315.891 302.683 316.231 302.846C316.572 303.005 316.959 303.091 317.393 303.105C317.832 303.124 318.275 303.089 318.723 303ZM320.678 303H321.924V292.71H320.678V303ZM324.298 303H325.558V299.017C325.558 298.14 325.747 297.489 326.125 297.064C326.507 296.639 327.011 296.427 327.637 296.427C328.169 296.427 328.584 296.56 328.883 296.826C329.181 297.092 329.389 297.437 329.506 297.862C329.627 298.287 329.688 298.737 329.688 299.213V303H330.948V298.821C330.948 298.462 330.903 298.077 330.815 297.666C330.731 297.251 330.577 296.861 330.353 296.497C330.133 296.128 329.828 295.827 329.436 295.594C329.048 295.361 328.549 295.244 327.938 295.244C326.836 295.244 325.996 295.634 325.418 296.413V295.44H324.298V303Z" fill="#31485F"/>
<path d="M156.086 197H157.534V185.48H156.086L153.918 186.776V188.368L156.086 187.056V197ZM164.058 197.224C164.772 197.224 165.412 197.064 165.978 196.744C166.543 196.424 166.991 195.981 167.322 195.416C167.652 194.845 167.818 194.192 167.818 193.456C167.818 192.784 167.682 192.181 167.41 191.648C167.143 191.115 166.764 190.688 166.274 190.368C165.788 190.048 165.215 189.869 164.554 189.832L167.666 186.848V185.48H160.874V186.84H165.898L162.154 190.224L162.842 191.352C163.023 191.261 163.218 191.189 163.426 191.136C163.634 191.077 163.836 191.048 164.034 191.048C164.727 191.048 165.287 191.272 165.714 191.72C166.14 192.163 166.354 192.741 166.354 193.456C166.354 194.16 166.143 194.736 165.722 195.184C165.306 195.627 164.748 195.853 164.05 195.864C163.538 195.869 163.074 195.733 162.658 195.456C162.247 195.179 161.956 194.773 161.786 194.24L160.418 194.632C160.663 195.432 161.116 196.064 161.778 196.528C162.444 196.992 163.204 197.224 164.058 197.224ZM176.461 191C176.989 191 177.469 190.872 177.901 190.616C178.338 190.355 178.687 190.008 178.949 189.576C179.21 189.139 179.341 188.653 179.341 188.12C179.341 187.587 179.21 187.104 178.949 186.672C178.687 186.235 178.338 185.888 177.901 185.632C177.469 185.371 176.989 185.24 176.461 185.24C175.949 185.24 175.474 185.371 175.037 185.632C174.599 185.893 174.247 186.243 173.981 186.68C173.714 187.117 173.581 187.597 173.581 188.12C173.581 188.653 173.711 189.139 173.973 189.576C174.234 190.008 174.581 190.355 175.013 190.616C175.45 190.872 175.933 191 176.461 191ZM175.021 197L185.597 186.44L184.637 185.48L174.061 196.04L175.021 197ZM176.461 189.744C176.023 189.744 175.642 189.584 175.317 189.264C174.997 188.939 174.837 188.557 174.837 188.12C174.837 187.677 174.997 187.296 175.317 186.976C175.642 186.656 176.023 186.496 176.461 186.496C176.903 186.496 177.285 186.656 177.605 186.976C177.925 187.296 178.085 187.677 178.085 188.12C178.085 188.557 177.925 188.939 177.605 189.264C177.285 189.584 176.903 189.744 176.461 189.744ZM183.197 197.24C183.725 197.24 184.205 197.112 184.637 196.856C185.074 196.595 185.423 196.248 185.685 195.816C185.946 195.379 186.077 194.893 186.077 194.36C186.077 193.827 185.946 193.344 185.685 192.912C185.423 192.475 185.074 192.128 184.637 191.872C184.205 191.611 183.725 191.48 183.197 191.48C182.685 191.48 182.21 191.611 181.773 191.872C181.335 192.133 180.983 192.483 180.717 192.92C180.45 193.357 180.317 193.837 180.317 194.36C180.317 194.893 180.445 195.379 180.701 195.816C180.962 196.248 181.311 196.595 181.749 196.856C182.186 197.112 182.669 197.24 183.197 197.24ZM183.197 195.984C182.759 195.984 182.378 195.824 182.053 195.504C181.733 195.179 181.573 194.797 181.573 194.36C181.573 193.917 181.733 193.536 182.053 193.216C182.378 192.896 182.759 192.736 183.197 192.736C183.639 192.736 184.021 192.896 184.341 193.216C184.661 193.536 184.821 193.917 184.821 194.36C184.821 194.797 184.661 195.179 184.341 195.504C184.021 195.824 183.639 195.984 183.197 195.984Z" fill="#31485F"/>
<path d="M249.222 108.224C249.937 108.224 250.577 108.064 251.142 107.744C251.707 107.424 252.155 106.981 252.486 106.416C252.817 105.845 252.982 105.192 252.982 104.456C252.982 103.784 252.846 103.181 252.574 102.648C252.307 102.115 251.929 101.688 251.438 101.368C250.953 101.048 250.379 100.869 249.718 100.832L252.83 97.848V96.48H246.038V97.84H251.062L247.318 101.224L248.006 102.352C248.187 102.261 248.382 102.189 248.59 102.136C248.798 102.077 249.001 102.048 249.198 102.048C249.891 102.048 250.451 102.272 250.878 102.72C251.305 103.163 251.518 103.741 251.518 104.456C251.518 105.16 251.307 105.736 250.886 106.184C250.47 106.627 249.913 106.853 249.214 106.864C248.702 106.869 248.238 106.733 247.822 106.456C247.411 106.179 247.121 105.773 246.95 105.24L245.582 105.632C245.827 106.432 246.281 107.064 246.942 107.528C247.609 107.992 248.369 108.224 249.222 108.224ZM260.358 108H261.798V105.88H262.998V104.528H261.798V101.288H260.358V104.528H256.678L260.478 96.48H258.862L255.062 104.528V105.88H260.358V108ZM271.476 102C272.004 102 272.484 101.872 272.916 101.616C273.354 101.355 273.703 101.008 273.964 100.576C274.226 100.139 274.356 99.6533 274.356 99.12C274.356 98.5867 274.226 98.104 273.964 97.672C273.703 97.2347 273.354 96.888 272.916 96.632C272.484 96.3707 272.004 96.24 271.476 96.24C270.964 96.24 270.49 96.3707 270.052 96.632C269.615 96.8933 269.263 97.2427 268.996 97.68C268.73 98.1173 268.596 98.5973 268.596 99.12C268.596 99.6533 268.727 100.139 268.988 100.576C269.25 101.008 269.596 101.355 270.028 101.616C270.466 101.872 270.948 102 271.476 102ZM270.036 108L280.612 97.44L279.652 96.48L269.076 107.04L270.036 108ZM271.476 100.744C271.039 100.744 270.658 100.584 270.332 100.264C270.012 99.9387 269.852 99.5573 269.852 99.12C269.852 98.6773 270.012 98.296 270.332 97.976C270.658 97.656 271.039 97.496 271.476 97.496C271.919 97.496 272.3 97.656 272.62 97.976C272.94 98.296 273.1 98.6773 273.1 99.12C273.1 99.5573 272.94 99.9387 272.62 100.264C272.3 100.584 271.919 100.744 271.476 100.744ZM278.212 108.24C278.74 108.24 279.22 108.112 279.652 107.856C280.09 107.595 280.439 107.248 280.7 106.816C280.962 106.379 281.092 105.893 281.092 105.36C281.092 104.827 280.962 104.344 280.7 103.912C280.439 103.475 280.09 103.128 279.652 102.872C279.22 102.611 278.74 102.48 278.212 102.48C277.7 102.48 277.226 102.611 276.788 102.872C276.351 103.133 275.999 103.483 275.732 103.92C275.466 104.357 275.332 104.837 275.332 105.36C275.332 105.893 275.46 106.379 275.716 106.816C275.978 107.248 276.327 107.595 276.764 107.856C277.202 108.112 277.684 108.24 278.212 108.24ZM278.212 106.984C277.775 106.984 277.394 106.824 277.068 106.504C276.748 106.179 276.588 105.797 276.588 105.36C276.588 104.917 276.748 104.536 277.068 104.216C277.394 103.896 277.775 103.736 278.212 103.736C278.655 103.736 279.036 103.896 279.356 104.216C279.676 104.536 279.836 104.917 279.836 105.36C279.836 105.797 279.676 106.179 279.356 106.504C279.036 106.824 278.655 106.984 278.212 106.984Z" fill="#31485F"/>
<path d="M317.117 82H318.565V70.48H317.117L314.949 71.776V73.368L317.117 72.056V82ZM325.857 82.24C326.571 82.24 327.225 82.0693 327.817 81.728C328.414 81.3813 328.891 80.9173 329.249 80.336C329.606 79.7493 329.785 79.0987 329.785 78.384C329.785 77.6693 329.619 77.0267 329.289 76.456C328.963 75.88 328.515 75.424 327.945 75.088C327.379 74.752 326.739 74.584 326.025 74.584C325.507 74.584 325.019 74.6907 324.561 74.904C324.107 75.1173 323.713 75.408 323.377 75.776V74.208C323.377 73.7493 323.486 73.3227 323.705 72.928C323.929 72.528 324.238 72.208 324.633 71.968C325.027 71.7227 325.478 71.6 325.985 71.6C326.411 71.6 326.809 71.7013 327.177 71.904C327.545 72.1013 327.843 72.3653 328.073 72.696L329.137 71.752C328.763 71.2667 328.302 70.896 327.753 70.64C327.209 70.3787 326.619 70.248 325.985 70.248C325.195 70.248 324.497 70.424 323.889 70.776C323.281 71.128 322.801 71.6133 322.449 72.232C322.102 72.8507 321.929 73.5627 321.929 74.368V78.2C321.929 78.968 322.102 79.6587 322.449 80.272C322.801 80.88 323.273 81.36 323.865 81.712C324.462 82.064 325.126 82.24 325.857 82.24ZM325.857 80.864C325.398 80.864 324.979 80.752 324.601 80.528C324.227 80.304 323.929 80.0053 323.705 79.632C323.486 79.2533 323.377 78.8373 323.377 78.384C323.377 77.9253 323.489 77.5093 323.713 77.136C323.937 76.7573 324.235 76.456 324.609 76.232C324.987 76.008 325.406 75.896 325.865 75.896C326.323 75.896 326.739 76.008 327.113 76.232C327.491 76.456 327.79 76.7573 328.009 77.136C328.233 77.5093 328.345 77.9253 328.345 78.384C328.345 78.8427 328.233 79.2613 328.009 79.64C327.785 80.0133 327.483 80.312 327.105 80.536C326.731 80.7547 326.315 80.864 325.857 80.864ZM338.429 76C338.957 76 339.437 75.872 339.869 75.616C340.307 75.3547 340.656 75.008 340.917 74.576C341.179 74.1387 341.309 73.6533 341.309 73.12C341.309 72.5867 341.179 72.104 340.917 71.672C340.656 71.2347 340.307 70.888 339.869 70.632C339.437 70.3707 338.957 70.24 338.429 70.24C337.917 70.24 337.443 70.3707 337.005 70.632C336.568 70.8933 336.216 71.2427 335.949 71.68C335.683 72.1173 335.549 72.5973 335.549 73.12C335.549 73.6533 335.68 74.1387 335.941 74.576C336.203 75.008 336.549 75.3547 336.981 75.616C337.419 75.872 337.901 76 338.429 76ZM336.989 82L347.565 71.44L346.605 70.48L336.029 81.04L336.989 82ZM338.429 74.744C337.992 74.744 337.611 74.584 337.285 74.264C336.965 73.9387 336.805 73.5573 336.805 73.12C336.805 72.6773 336.965 72.296 337.285 71.976C337.611 71.656 337.992 71.496 338.429 71.496C338.872 71.496 339.253 71.656 339.573 71.976C339.893 72.296 340.053 72.6773 340.053 73.12C340.053 73.5573 339.893 73.9387 339.573 74.264C339.253 74.584 338.872 74.744 338.429 74.744ZM345.165 82.24C345.693 82.24 346.173 82.112 346.605 81.856C347.043 81.5947 347.392 81.248 347.653 80.816C347.915 80.3787 348.045 79.8933 348.045 79.36C348.045 78.8267 347.915 78.344 347.653 77.912C347.392 77.4747 347.043 77.128 346.605 76.872C346.173 76.6107 345.693 76.48 345.165 76.48C344.653 76.48 344.179 76.6107 343.741 76.872C343.304 77.1333 342.952 77.4827 342.685 77.92C342.419 78.3573 342.285 78.8373 342.285 79.36C342.285 79.8933 342.413 80.3787 342.669 80.816C342.931 81.248 343.28 81.5947 343.717 81.856C344.155 82.112 344.637 82.24 345.165 82.24ZM345.165 80.984C344.728 80.984 344.347 80.824 344.021 80.504C343.701 80.1787 343.541 79.7973 343.541 79.36C343.541 78.9173 343.701 78.536 344.021 78.216C344.347 77.896 344.728 77.736 345.165 77.736C345.608 77.736 345.989 77.896 346.309 78.216C346.629 78.536 346.789 78.9173 346.789 79.36C346.789 79.7973 346.629 80.1787 346.309 80.504C345.989 80.824 345.608 80.984 345.165 80.984Z" fill="#31485F"/>
<line x1="2" y1="1.10919e-08" x2="1.99999" y2="108" stroke="#B1C0CF" stroke-dasharray="6 6"/>
<path d="M137.875 0L137.875 246.5" stroke="#B1C0CF" stroke-dasharray="6 6"/>
<path d="M198.5 0.5L198.5 333.5" stroke="#B1C0CF" stroke-dasharray="6 6"/>
<path d="M304.5 0L304.5 252" stroke="#B1C0CF" stroke-dasharray="6 6"/>
<path d="M355.5 5.5L355.5 338.5" stroke="#B1C0CF" stroke-dasharray="6 6"/>
<path d="M25.7725 175.625V183.483C25.7725 183.483 25.7725 182.609 28.3917 183.483C31.0109 184.356 31.884 184.356 32.7571 184.356C34.5032 184.356 36.2491 183.483 36.2491 183.483V175.625C36.2491 175.625 33.6302 176.498 32.7571 176.498C32.7571 176.498 31.0109 176.498 29.2648 175.625C27.5186 174.752 25.7725 175.625 25.7725 175.625Z" fill="#65D743"/>
<path d="M25.0752 174.307C25.0752 174.169 24.9633 174.057 24.8252 174.057C24.6871 174.057 24.5752 174.169 24.5752 174.307H25.0752ZM25.0752 189.685V174.307H24.5752V189.685H25.0752Z" fill="#65D743"/>
<path d="M25.7695 173.817C25.7695 174.268 25.4038 174.634 24.9526 174.634C24.5015 174.634 24.1358 174.268 24.1358 173.817C24.1358 173.366 24.5015 173 24.9526 173C25.4038 173 25.7695 173.366 25.7695 173.817Z" fill="#65D743"/>
<path d="M27.9014 192.413C27.9014 191.597 27.5774 190.815 27.0006 190.238C26.4238 189.661 25.6414 189.337 24.8257 189.337C24.01 189.337 23.2277 189.661 22.6509 190.238C22.074 190.815 21.75 191.597 21.75 192.413L24.8257 192.413H27.9014Z" fill="#65D743"/>
</svg>
