<svg width="17" height="17" viewBox="0 0 17 17" fill="none" xmlns="http://www.w3.org/2000/svg">
<path fill-rule="evenodd" clip-rule="evenodd" d="M3.57085e-09 3.23804C3.57085e-09 1.44972 1.44974 0 3.2381 0H13.7619C15.5503 0 17 1.44972 17 3.23804V13.7617C17 15.55 15.5503 16.9997 13.7619 16.9997H3.2381C1.44974 16.9997 3.57085e-09 15.55 3.57085e-09 13.7617V3.23804ZM8.50031 4.13385C6.08985 4.13385 4.13839 6.0874 4.13839 8.49569C4.13839 10.9061 6.09198 12.8575 8.50031 12.8575C10.9108 12.8575 12.8622 10.904 12.8622 8.49569C12.8622 6.08528 10.9086 4.13385 8.50031 4.13385ZM8.50031 11.3269C6.9356 11.3269 5.6691 10.0597 5.6691 8.49569C5.6691 6.93172 6.93631 5.66454 8.50031 5.66454C10.0643 5.66454 11.3315 6.93172 11.3315 8.49569C11.3322 10.0597 10.065 11.3269 8.50031 11.3269ZM14.0609 3.96118C14.0609 4.52411 13.6046 4.98046 13.0416 4.98046C12.4787 4.98046 12.0223 4.52411 12.0223 3.96118C12.0223 3.39826 12.4787 2.94191 13.0416 2.94191C13.6046 2.94191 14.0609 3.39826 14.0609 3.96118Z" fill="white"/>
<path d="M12.005 0.053398C10.441 -0.0195591 6.56712 -0.0160175 5.0017 0.053398C3.62612 0.117855 2.41274 0.450058 1.43454 1.42825C-0.200297 3.06305 0.00866098 5.26593 0.00866098 8.49658C0.00866098 11.803 -0.175506 13.9549 1.43454 15.5649C3.07574 17.2054 5.31054 16.9908 8.50299 16.9908C11.7783 16.9908 12.9088 16.9929 14.067 16.5445C15.6416 15.9332 16.8302 14.5258 16.9463 11.9978C17.02 10.4331 17.0157 6.56003 16.9463 4.99465C16.8061 2.01049 15.2045 0.200729 12.005 0.053398ZM14.4806 14.4833C13.4089 15.555 11.9221 15.4594 8.48245 15.4594C4.94079 15.4594 3.52058 15.5118 2.48429 14.4727C1.29074 13.2848 1.50679 11.3773 1.50679 8.48525C1.50679 4.57178 1.10516 1.75337 5.03287 1.5522C5.93529 1.52033 6.20091 1.50971 8.47254 1.50971L8.50441 1.53096C12.2791 1.53096 15.2407 1.13571 15.4185 5.06264C15.4588 5.95867 15.468 6.22783 15.468 8.49588C15.4673 11.9964 15.5339 13.4251 14.4806 14.4833Z" fill="white"/>
</svg>
