<svg width="230" height="54" viewBox="0 0 230 54" fill="none" xmlns="http://www.w3.org/2000/svg">
<g clip-path="url(#clip0_1977_6421)">
<path d="M43.2238 12.742L24.5989 1.54569C23.369 0.815498 21.8462 0.815498 20.6162 1.54569L1.99134 12.742C0.761396 13.4722 0 14.8109 0 16.2713V38.664C0 40.1243 0.761396 41.5239 1.99134 42.2541L20.6162 53.4504C21.2019 53.8155 21.9048 53.998 22.6076 53.998C23.3104 53.998 23.9547 53.8155 24.5989 53.4504L43.2238 42.2541C44.4538 41.5239 45.2152 40.1243 45.2152 38.664V16.2713C45.2152 14.8109 44.4538 13.4722 43.2238 12.742ZM42.7553 38.664C42.7553 39.2116 42.4624 39.7592 41.9939 40.0026L23.369 51.199C22.9004 51.5032 22.3147 51.5032 21.8462 51.199L3.22129 40.0026C2.75274 39.6984 2.45989 39.2116 2.45989 38.664V16.2713C2.45989 15.7237 2.75274 15.176 3.22129 14.9326L21.8462 3.79713C22.0805 3.67543 22.3147 3.61458 22.6076 3.61458C22.8419 3.61458 23.1347 3.67543 23.369 3.79713L41.9939 14.9935C42.4624 15.2977 42.7553 15.7845 42.7553 16.3321V38.664Z" fill="#152F4D" fill-opacity="0.8"/>
<path d="M10.9526 16.0887L17.4538 20.1656C18.2152 20.6524 19.2109 20.0439 19.2109 19.1311V11.1599C19.2109 10.2471 18.2737 9.69946 17.5124 10.1254L11.0112 14.0198C10.2498 14.5066 10.2498 15.6019 10.9526 16.0887Z" fill="#152F4D" fill-opacity="0.8"/>
<path d="M17.4531 34.7085L10.9519 38.7855C10.1905 39.2722 10.1905 40.3675 10.9519 40.8543L17.4531 44.7487C18.2145 45.2355 19.1516 44.627 19.1516 43.7143V35.743C19.2101 34.7694 18.2145 34.2217 17.4531 34.7085Z" fill="#152F4D" fill-opacity="0.8"/>
<path d="M13.9984 26.3725L7.38014 22.4173C6.61874 21.9305 5.68164 22.539 5.68164 23.4518V31.2405C5.68164 32.1532 6.61874 32.7009 7.38014 32.2749L13.9984 28.4414C14.7598 28.0155 14.7598 26.8593 13.9984 26.3725Z" fill="#152F4D" fill-opacity="0.8"/>
<path d="M27.7615 20.1655L34.2627 16.0886C35.0241 15.6018 35.0241 14.5065 34.2627 14.0197L27.7615 10.1253C27.0001 9.63853 26.063 10.247 26.063 11.1598V19.1311C26.0044 20.0438 27.0001 20.5915 27.7615 20.1655Z" fill="#152F4D" fill-opacity="0.8"/>
<path d="M34.2631 38.7857L27.7619 34.7088C27.0006 34.222 26.0049 34.8305 26.0049 35.7433V43.7145C26.0049 44.6273 26.942 45.1749 27.7034 44.749L34.2045 40.8546C34.9659 40.3678 34.9659 39.2117 34.2631 38.7857Z" fill="#152F4D" fill-opacity="0.8"/>
<path d="M37.8944 22.4173L31.2761 26.3725C30.5147 26.8593 30.5147 28.0155 31.2761 28.4414L37.8944 32.2749C38.6558 32.7009 39.5929 32.1532 39.5929 31.2405V23.4518C39.5929 22.539 38.6558 21.9305 37.8944 22.4173Z" fill="#152F4D" fill-opacity="0.8"/>
<path d="M34.9653 33.857L24.13 27.407L34.9653 20.8961C35.3167 20.6527 35.4338 20.1659 35.2581 19.8008C35.0238 19.4357 34.5553 19.314 34.2039 19.4965L23.3686 26.0075V13.229C23.3686 12.8031 23.0172 12.438 22.6072 12.438C22.1973 12.438 21.8458 12.8031 21.8458 13.229V26.0075L11.1863 19.6182C10.8349 19.3748 10.3663 19.5574 10.1321 19.9225C9.89779 20.2876 10.0735 20.7744 10.4249 21.0178L21.0844 27.407L10.4249 33.7962C10.0735 34.0396 9.95636 34.5264 10.1321 34.8915C10.2492 35.1349 10.542 35.3174 10.7763 35.3174C10.8935 35.3174 11.0692 35.2566 11.1863 35.1957L21.8458 28.8065V41.8283C21.8458 42.2543 22.1973 42.6194 22.6072 42.6194C23.0172 42.6194 23.3686 42.2543 23.3686 41.8283V28.8065L34.2039 35.3174C34.321 35.3783 34.4382 35.4391 34.6139 35.4391C34.9067 35.4391 35.141 35.3174 35.2581 35.0132C35.4924 34.5872 35.3753 34.1004 34.9653 33.857Z" fill="#152F4D" fill-opacity="0.8"/>
<path d="M67.5302 18.9487L63.0204 23.6341L58.5106 18.9487H55.7578L61.849 26.3724V36.0475H64.1917V26.3724L70.2829 18.9487H67.5302Z" fill="#152F4D" fill-opacity="0.8"/>
<path d="M77.311 18.9487C72.8012 18.9487 69.1113 22.7823 69.1113 27.4677C69.1113 32.1531 72.8012 35.9866 77.311 35.9866C81.8793 35.9866 85.5692 32.1531 85.5692 27.4677C85.5106 22.7823 81.8208 18.9487 77.311 18.9487ZM77.311 33.6135C74.0311 33.6135 71.4541 30.9361 71.4541 27.5285C71.4541 24.1209 74.0311 21.4436 77.311 21.4436C80.5908 21.4436 83.2264 24.1818 83.2264 27.5285C83.1679 30.8753 80.5323 33.6135 77.311 33.6135Z" fill="#152F4D" fill-opacity="0.8"/>
<path d="M99.6848 29.1106C99.6848 31.6055 97.6934 33.6135 95.3507 33.6135C92.9494 33.6135 91.0166 31.6055 91.0166 29.1106V18.9487H88.6738V29.0498C88.6738 32.8833 91.6608 35.9866 95.3507 35.9866C99.0405 35.9866 102.086 32.8833 102.086 29.0498V18.9487H99.7433V29.1106H99.6848Z" fill="#152F4D" fill-opacity="0.8"/>
<path d="M159.073 29.1106C159.073 31.6055 157.082 33.6135 154.739 33.6135C152.338 33.6135 150.405 31.6055 150.405 29.1106V18.9487H148.062V29.0498C148.062 32.8833 151.05 35.9866 154.739 35.9866C158.429 35.9866 161.475 32.8833 161.475 29.0498V18.9487H159.132V29.1106H159.073Z" fill="#152F4D" fill-opacity="0.8"/>
<path d="M198.432 18.9487H196.089V36.0475H198.432V18.9487Z" fill="#152F4D" fill-opacity="0.8"/>
<path d="M143.435 18.9485L137.11 18.8877V21.3217H141.327V29.4755C141.327 33.3699 137.754 33.5525 137.051 33.5525C135.763 33.5525 134.943 33.2482 133.83 32.3355L133.127 31.7878L131.429 33.5525L132.366 34.2826C133.83 35.3779 134.826 36.0473 137.11 36.0473C139.043 36.0473 140.683 35.4388 141.854 34.3435C143.084 33.1874 143.728 31.5444 143.728 29.5972V18.9485H143.435Z" fill="#152F4D" fill-opacity="0.8"/>
<path d="M117.606 23.8772C117.606 21.1999 115.498 19.0093 112.921 19.0093H108.06H105.717V21.4433V36.0472H108.06V29.9014V27.4674V21.4433H112.921C114.209 21.4433 115.264 22.5386 115.264 23.8772C115.264 25.2159 114.209 26.3112 112.921 26.3112H109.29L110.519 28.7452L114.209 36.0472H117.489L113.331 28.6844C115.732 28.5018 117.606 26.3721 117.606 23.8772Z" fill="#152F4D" fill-opacity="0.8"/>
<path d="M175.473 26.0681C174.419 25.3987 173.306 25.1553 172.135 24.9119C171.842 24.8511 171.607 24.7902 171.315 24.7294C170.085 24.4251 169.323 23.9992 169.03 23.4515C168.796 22.9647 169.03 22.2954 169.558 21.9303C170.143 21.5044 171.022 21.4435 171.783 21.7478C172.545 22.052 173.189 22.6605 173.54 23.4515L176 22.4779C175.414 21.0176 174.243 19.9223 172.779 19.3746C171.197 18.7661 169.265 18.9487 167.976 19.8614C166.512 20.8959 165.868 22.9039 166.629 24.4251C167.215 25.7638 168.562 26.6766 170.67 27.1634C170.963 27.2242 171.256 27.2851 171.607 27.3459C172.545 27.5285 173.365 27.711 174.009 28.137C175.063 28.8063 175.532 30.145 175.063 31.3011C174.594 32.4573 173.306 33.3092 171.9 33.4309C170.495 33.4917 168.855 32.8224 168.21 31.7879C167.742 31.1186 167.332 30.2058 167.742 28.8672L165.223 28.137C164.696 29.8407 164.931 31.4837 165.985 33.0658C167.039 34.7087 169.44 35.9257 171.725 35.9257C171.842 35.9257 171.959 35.9257 172.135 35.9257C174.594 35.804 176.82 34.2219 177.64 32.153C178.401 29.9624 177.523 27.3459 175.473 26.0681Z" fill="#152F4D" fill-opacity="0.8"/>
<path d="M214.186 31.7877C213.073 32.9438 211.551 33.6132 210.028 33.6132C206.806 33.6132 204.171 30.8749 204.171 27.5282C204.171 24.1815 206.806 21.4433 210.028 21.4433C210.672 21.4433 211.375 21.565 211.961 21.8084L213.073 19.6178C212.136 19.2527 211.082 19.0093 210.028 19.0093C205.518 19.0093 201.828 22.8428 201.828 27.5282C201.828 32.2136 205.518 36.0472 210.028 36.0472C212.253 36.0472 214.303 35.1344 215.885 33.5523L216.587 32.8221L214.948 30.9966L214.186 31.7877Z" fill="#152F4D" fill-opacity="0.8"/>
<path d="M230 21.3827V18.9487H221.566L218.989 21.3827V33.5526L221.566 35.9866H230V33.5526H221.332V28.5021H226.252V26.0681H221.332V21.3827H230Z" fill="#152F4D" fill-opacity="0.8"/>
<path d="M179.279 21.3827H184.785V36.0475H187.128V21.3827H192.692V18.9487H179.279V21.3827Z" fill="#152F4D" fill-opacity="0.8"/>
<path d="M123.522 32.0311L127.915 27.4673L123.522 22.8428V32.0311Z" fill="#092A51" fill-opacity="0.6"/>
</g>
<defs>
<clipPath id="clip0_1977_6421">
<rect width="230" height="53" fill="white" transform="translate(0 0.998047)"/>
</clipPath>
</defs>
</svg>
