<svg width="19" height="15" viewBox="0 0 19 15" fill="none" xmlns="http://www.w3.org/2000/svg">
<path fill-rule="evenodd" clip-rule="evenodd" d="M2.25308 3.06015C2.27683 2.8279 2.18738 2.5988 2.01321 2.44292L0.239875 0.317273V0H5.74829L10.0059 9.28594L13.7489 0H19V0.317273L17.4832 1.7635C17.3525 1.8627 17.2876 2.02567 17.3145 2.18706V12.8137C17.2876 12.9743 17.3525 13.1373 17.4832 13.2365L18.9644 14.6827V15H11.5132V14.6827L13.0483 13.2011C13.1987 13.0515 13.1987 13.0074 13.1987 12.7783V4.1891L8.93237 14.9654H8.35604L3.38833 4.1891V11.4116C3.34717 11.7147 3.4485 12.0209 3.66304 12.2398L5.65883 14.6473V14.9654H0V14.6473L1.99579 12.2398C2.20954 12.0202 2.30454 11.7123 2.25308 11.4116V3.06015Z" fill="white"/>
</svg>
