<svg width="194" height="53" viewBox="0 0 194 53" fill="none" xmlns="http://www.w3.org/2000/svg">
<path d="M4.78 20.998H7.79L12.47 6.59805H10.3L6.26 18.888L2.27 6.59805H0.1L4.78 20.998ZM14.5781 20.998H16.6681V6.29805H14.5781V20.998ZM23.1211 21.298C24.8411 21.298 26.1378 20.6747 27.0111 19.428V20.998H28.8611V14.348C28.8611 13.8947 28.8411 13.4714 28.8011 13.078C28.7611 12.6847 28.6544 12.3114 28.4811 11.958C28.1478 11.2447 27.6211 10.7247 26.9011 10.398C26.1878 10.0647 25.3478 9.89805 24.3811 9.89805C23.1344 9.89805 22.1344 10.1714 21.3811 10.718C20.6278 11.2647 20.1211 12.0014 19.8611 12.928L21.8111 13.528C21.9978 12.928 22.3278 12.4947 22.8011 12.228C23.2744 11.9614 23.7944 11.828 24.3611 11.828C25.2011 11.828 25.8078 12.008 26.1811 12.368C26.5611 12.7214 26.7678 13.2714 26.8011 14.018C25.9211 14.138 25.0611 14.2647 24.2211 14.398C23.3811 14.5247 22.6478 14.678 22.0211 14.858C21.1878 15.1247 20.5544 15.5214 20.1211 16.048C19.6878 16.5747 19.4711 17.2447 19.4711 18.058C19.4711 18.6447 19.6078 19.1847 19.8811 19.678C20.1611 20.1647 20.5711 20.558 21.1111 20.858C21.6578 21.1514 22.3278 21.298 23.1211 21.298ZM23.4911 19.588C22.8244 19.588 22.3311 19.4347 22.0111 19.128C21.6978 18.8214 21.5411 18.458 21.5411 18.038C21.5411 17.6114 21.6811 17.2747 21.9611 17.028C22.2478 16.7814 22.6044 16.5847 23.0311 16.438C23.4844 16.3047 24.0178 16.188 24.6311 16.088C25.2511 15.988 25.9678 15.878 26.7811 15.758C26.7744 16.0114 26.7578 16.2947 26.7311 16.608C26.7044 16.9214 26.6478 17.2014 26.5611 17.448C26.4811 17.8014 26.3111 18.1414 26.0511 18.468C25.7978 18.7947 25.4544 19.0647 25.0211 19.278C24.5944 19.4847 24.0844 19.588 23.4911 19.588ZM36.1478 21.298C36.8278 21.298 37.4345 21.1847 37.9678 20.958C38.5078 20.7314 38.9745 20.4147 39.3678 20.008V20.998H41.2278V6.59805H39.1278V10.938C38.7545 10.6047 38.3211 10.348 37.8278 10.168C37.3345 9.98805 36.7878 9.89805 36.1878 9.89805C35.1745 9.89805 34.2978 10.148 33.5578 10.648C32.8245 11.1414 32.2578 11.818 31.8578 12.678C31.4578 13.5314 31.2578 14.5014 31.2578 15.588C31.2578 16.668 31.4545 17.638 31.8478 18.498C32.2478 19.358 32.8145 20.0414 33.5478 20.548C34.2811 21.048 35.1478 21.298 36.1478 21.298ZM36.4378 19.408C35.7711 19.408 35.2178 19.238 34.7778 18.898C34.3378 18.558 34.0111 18.1014 33.7978 17.528C33.5845 16.948 33.4778 16.3014 33.4778 15.588C33.4778 14.8814 33.5845 14.2414 33.7978 13.668C34.0178 13.0947 34.3511 12.638 34.7978 12.298C35.2445 11.958 35.8145 11.788 36.5078 11.788C37.4945 11.788 38.2178 12.1414 38.6778 12.848C39.1378 13.5547 39.3678 14.468 39.3678 15.588C39.3678 16.708 39.1378 17.6247 38.6778 18.338C38.2178 19.0514 37.4711 19.408 36.4378 19.408ZM44.6258 8.42805H46.7158V6.39805H44.6258V8.42805ZM44.6258 20.998H46.7158V10.198H44.6258V20.998ZM50.1088 20.998H52.2088V14.248C52.2088 13.5147 52.4088 12.9214 52.8088 12.468C53.2154 12.0147 53.7488 11.788 54.4088 11.788C55.0754 11.788 55.6054 12.0147 55.9988 12.468C56.3988 12.9147 56.5988 13.528 56.5988 14.308L56.5888 20.998H58.6788L58.6888 14.248C58.6888 13.4347 58.9054 12.8214 59.3388 12.408C59.7788 11.9947 60.2954 11.788 60.8888 11.788C61.5421 11.788 62.0688 12.008 62.4688 12.448C62.8688 12.888 63.0688 13.4947 63.0688 14.268L63.0588 20.998H65.1488L65.1588 13.768C65.1588 12.608 64.8354 11.678 64.1888 10.978C63.5488 10.278 62.6488 9.92805 61.4888 9.92805C60.7821 9.92805 60.1421 10.0847 59.5688 10.398C58.9954 10.7047 58.5421 11.1314 58.2088 11.678C57.9221 11.1314 57.5121 10.7047 56.9788 10.398C56.4521 10.0847 55.8154 9.92805 55.0688 9.92805C54.4221 9.92805 53.8288 10.058 53.2888 10.318C52.7554 10.5714 52.3154 10.918 51.9688 11.358V10.198H50.1088V20.998ZM68.3555 8.42805H70.4455V6.39805H68.3555V8.42805ZM68.3555 20.998H70.4455V10.198H68.3555V20.998ZM73.8484 20.998H75.9584V15.548C75.9584 14.9147 76.0584 14.328 76.2584 13.788C76.4584 13.248 76.8118 12.8147 77.3184 12.488C77.6784 12.2547 78.0751 12.118 78.5084 12.078C78.9418 12.038 79.3318 12.0647 79.6784 12.158V10.198C79.1918 10.1047 78.6751 10.108 78.1284 10.208C77.5884 10.308 77.1151 10.508 76.7084 10.808C76.3084 11.0747 75.9751 11.4447 75.7084 11.918V10.198H73.8484V20.998ZM86.3867 20.998H88.4767V15.828H92.2967L94.8067 20.998H97.1967L94.4767 15.418C95.2967 15.0647 95.9101 14.5147 96.3167 13.768C96.7234 13.0214 96.9267 12.168 96.9267 11.208C96.9267 10.0414 96.6267 9.04138 96.0267 8.20805C95.4267 7.37471 94.5234 6.86471 93.3167 6.67805C93.1301 6.64471 92.9334 6.62471 92.7267 6.61805C92.5201 6.60471 92.3467 6.59805 92.2067 6.59805H86.3867V20.998ZM88.4767 13.848V8.56805H92.1267C92.2601 8.56805 92.4067 8.57471 92.5667 8.58805C92.7334 8.60138 92.8901 8.62805 93.0367 8.66805C93.6767 8.81471 94.1301 9.14138 94.3967 9.64805C94.6634 10.1547 94.7967 10.6747 94.7967 11.208C94.7967 11.7347 94.6634 12.2547 94.3967 12.768C94.1301 13.2747 93.6767 13.6047 93.0367 13.758C92.8901 13.7914 92.7334 13.8147 92.5667 13.828C92.4067 13.8414 92.2601 13.848 92.1267 13.848H88.4767ZM102.845 21.298C104.565 21.298 105.861 20.6747 106.735 19.428V20.998H108.585V14.348C108.585 13.8947 108.565 13.4714 108.525 13.078C108.485 12.6847 108.378 12.3114 108.205 11.958C107.871 11.2447 107.345 10.7247 106.625 10.398C105.911 10.0647 105.071 9.89805 104.105 9.89805C102.858 9.89805 101.858 10.1714 101.105 10.718C100.351 11.2647 99.8445 12.0014 99.5845 12.928L101.535 13.528C101.721 12.928 102.051 12.4947 102.525 12.228C102.998 11.9614 103.518 11.828 104.085 11.828C104.925 11.828 105.531 12.008 105.905 12.368C106.285 12.7214 106.491 13.2714 106.525 14.018C105.645 14.138 104.785 14.2647 103.945 14.398C103.105 14.5247 102.371 14.678 101.745 14.858C100.911 15.1247 100.278 15.5214 99.8445 16.048C99.4112 16.5747 99.1945 17.2447 99.1945 18.058C99.1945 18.6447 99.3312 19.1847 99.6045 19.678C99.8845 20.1647 100.295 20.558 100.835 20.858C101.381 21.1514 102.051 21.298 102.845 21.298ZM103.215 19.588C102.548 19.588 102.055 19.4347 101.735 19.128C101.421 18.8214 101.265 18.458 101.265 18.038C101.265 17.6114 101.405 17.2747 101.685 17.028C101.971 16.7814 102.328 16.5847 102.755 16.438C103.208 16.3047 103.741 16.188 104.355 16.088C104.975 15.988 105.691 15.878 106.505 15.758C106.498 16.0114 106.481 16.2947 106.455 16.608C106.428 16.9214 106.371 17.2014 106.285 17.448C106.205 17.8014 106.035 18.1414 105.775 18.468C105.521 18.7947 105.178 19.0647 104.745 19.278C104.318 19.4847 103.808 19.588 103.215 19.588ZM115.871 21.298C116.551 21.298 117.158 21.1847 117.691 20.958C118.231 20.7314 118.698 20.4147 119.091 20.008V20.998H120.951V6.59805H118.851V10.938C118.478 10.6047 118.045 10.348 117.551 10.168C117.058 9.98805 116.511 9.89805 115.911 9.89805C114.898 9.89805 114.021 10.148 113.281 10.648C112.548 11.1414 111.981 11.818 111.581 12.678C111.181 13.5314 110.981 14.5014 110.981 15.588C110.981 16.668 111.178 17.638 111.571 18.498C111.971 19.358 112.538 20.0414 113.271 20.548C114.005 21.048 114.871 21.298 115.871 21.298ZM116.161 19.408C115.495 19.408 114.941 19.238 114.501 18.898C114.061 18.558 113.735 18.1014 113.521 17.528C113.308 16.948 113.201 16.3014 113.201 15.588C113.201 14.8814 113.308 14.2414 113.521 13.668C113.741 13.0947 114.075 12.638 114.521 12.298C114.968 11.958 115.538 11.788 116.231 11.788C117.218 11.788 117.941 12.1414 118.401 12.848C118.861 13.5547 119.091 14.468 119.091 15.588C119.091 16.708 118.861 17.6247 118.401 18.338C117.941 19.0514 117.195 19.408 116.161 19.408ZM124.139 20.998H126.269V15.798L130.789 20.998H133.629L128.689 15.598L133.169 10.198H130.509L126.269 15.398V6.59805H124.149L124.139 20.998ZM139.632 21.298C140.679 21.298 141.629 21.0347 142.482 20.508C143.336 19.9747 143.972 19.2247 144.392 18.258L142.342 17.608C141.796 18.7547 140.859 19.328 139.532 19.328C138.626 19.328 137.912 19.0547 137.392 18.508C136.872 17.9614 136.569 17.188 136.482 16.188H144.532C144.606 14.8947 144.452 13.778 144.072 12.838C143.692 11.898 143.116 11.1747 142.342 10.668C141.569 10.1547 140.632 9.89805 139.532 9.89805C138.479 9.89805 137.556 10.1347 136.762 10.608C135.969 11.0814 135.349 11.7514 134.902 12.618C134.462 13.4847 134.242 14.508 134.242 15.688C134.242 16.8014 134.466 17.7814 134.912 18.628C135.366 19.468 135.996 20.1247 136.802 20.598C137.616 21.0647 138.559 21.298 139.632 21.298ZM139.612 11.748C141.246 11.748 142.172 12.6847 142.392 14.558H136.532C136.666 13.6447 136.989 12.948 137.502 12.468C138.016 11.988 138.719 11.748 139.612 11.748ZM149.705 20.998H151.825L155.745 10.198H153.635L150.765 18.378L147.895 10.198H145.785L149.705 20.998ZM158.147 8.42805H160.237V6.39805H158.147V8.42805ZM158.147 20.998H160.237V10.198H158.147V20.998ZM168.26 21.298C169.42 21.298 170.407 21.018 171.22 20.458C172.033 19.898 172.617 19.088 172.97 18.028L170.85 17.528C170.63 18.108 170.31 18.5547 169.89 18.868C169.477 19.1747 168.933 19.328 168.26 19.328C167.273 19.328 166.527 18.9847 166.02 18.298C165.52 17.6114 165.267 16.7114 165.26 15.598C165.267 14.518 165.51 13.628 165.99 12.928C166.477 12.2214 167.233 11.868 168.26 11.868C168.867 11.868 169.403 12.038 169.87 12.378C170.343 12.7114 170.683 13.1814 170.89 13.788L172.97 13.188C172.703 12.1747 172.15 11.3747 171.31 10.788C170.477 10.1947 169.47 9.89805 168.29 9.89805C167.203 9.89805 166.267 10.1414 165.48 10.628C164.7 11.1147 164.1 11.788 163.68 12.648C163.26 13.5014 163.047 14.4847 163.04 15.598C163.047 16.6914 163.253 17.668 163.66 18.528C164.073 19.388 164.667 20.0647 165.44 20.558C166.22 21.0514 167.16 21.298 168.26 21.298ZM175.397 20.998H177.517V15.378C177.517 14.5247 177.64 13.8447 177.887 13.338C178.14 12.8247 178.474 12.4547 178.887 12.228C179.3 12.0014 179.757 11.888 180.257 11.888C180.83 11.888 181.297 12.0047 181.657 12.238C182.017 12.4714 182.294 12.778 182.487 13.158C182.68 13.538 182.81 13.9514 182.877 14.398C182.95 14.838 182.987 15.268 182.987 15.688V20.998H185.107V14.998C185.107 14.6647 185.077 14.278 185.017 13.838C184.957 13.398 184.844 12.948 184.677 12.488C184.51 12.028 184.267 11.6047 183.947 11.218C183.634 10.8247 183.224 10.508 182.717 10.268C182.21 10.028 181.584 9.90805 180.837 9.90805C180.057 9.90805 179.364 10.048 178.757 10.328C178.157 10.608 177.66 10.9947 177.267 11.488V6.59805H175.397V20.998Z" fill="#31485F"/>
<path d="M5.856 48.238C7.18933 48.238 8.28533 47.8994 9.144 47.222C10.008 46.5394 10.6027 45.6274 10.928 44.486L9.48 44.102C9.24533 44.9554 8.824 45.6327 8.216 46.134C7.61333 46.63 6.82667 46.878 5.856 46.878C4.99733 46.878 4.28 46.6834 3.704 46.294C3.128 45.9047 2.696 45.3607 2.408 44.662C2.12 43.9634 1.97867 43.1554 1.984 42.238C1.98933 41.3154 2.136 40.5074 2.424 39.814C2.712 39.1154 3.14133 38.5714 3.712 38.182C4.28267 37.7927 4.99733 37.598 5.856 37.598C6.82667 37.598 7.61333 37.846 8.216 38.342C8.824 38.838 9.24533 39.5154 9.48 40.374L10.928 39.99C10.6027 38.8434 10.008 37.9314 9.144 37.254C8.28533 36.5767 7.18933 36.238 5.856 36.238C4.70933 36.238 3.73333 36.4914 2.928 36.998C2.128 37.5047 1.52 38.2087 1.104 39.11C0.688 40.0114 0.48 41.054 0.48 42.238C0.48 43.422 0.688 44.4647 1.104 45.366C1.52 46.2674 2.128 46.9714 2.928 47.478C3.73333 47.9847 4.70933 48.238 5.856 48.238ZM17.0025 48.238C17.8612 48.238 18.5998 48.046 19.2185 47.662C19.8425 47.278 20.3225 46.742 20.6585 46.054C20.9998 45.366 21.1705 44.5714 21.1705 43.67C21.1705 42.7794 21.0025 41.9927 20.6665 41.31C20.3358 40.622 19.8585 40.086 19.2345 39.702C18.6105 39.3127 17.8665 39.118 17.0025 39.118C16.1598 39.118 15.4265 39.31 14.8025 39.694C14.1785 40.0727 13.6958 40.6034 13.3545 41.286C13.0132 41.9687 12.8425 42.7634 12.8425 43.67C12.8425 44.5607 13.0078 45.35 13.3385 46.038C13.6745 46.726 14.1545 47.2647 14.7785 47.654C15.4025 48.0434 16.1438 48.238 17.0025 48.238ZM17.0025 46.886C16.1332 46.886 15.4745 46.5954 15.0265 46.014C14.5785 45.4274 14.3545 44.646 14.3545 43.67C14.3545 42.726 14.5705 41.958 15.0025 41.366C15.4345 40.7687 16.1012 40.47 17.0025 40.47C17.8878 40.47 18.5518 40.7607 18.9945 41.342C19.4372 41.9234 19.6585 42.6994 19.6585 43.67C19.6585 44.6194 19.4372 45.3927 18.9945 45.99C18.5572 46.5874 17.8932 46.886 17.0025 46.886ZM23.4119 43.542H28.2119V42.366H23.4119V43.542ZM31.7546 47.998H33.1786V40.534H35.4506V39.358H33.1786V38.662C33.1786 37.8354 33.5973 37.422 34.4346 37.422H35.4506V36.238H34.3546C34.0293 36.238 33.68 36.27 33.3066 36.334C32.9333 36.3927 32.5973 36.5847 32.2986 36.91C32.0426 37.1874 31.888 37.5047 31.8346 37.862C31.7813 38.214 31.7546 38.5554 31.7546 38.886V39.358H30.2906V40.534H31.7546V47.998ZM40.735 48.238C41.5937 48.238 42.3323 48.046 42.951 47.662C43.575 47.278 44.055 46.742 44.391 46.054C44.7323 45.366 44.903 44.5714 44.903 43.67C44.903 42.7794 44.735 41.9927 44.399 41.31C44.0683 40.622 43.591 40.086 42.967 39.702C42.343 39.3127 41.599 39.118 40.735 39.118C39.8923 39.118 39.159 39.31 38.535 39.694C37.911 40.0727 37.4283 40.6034 37.087 41.286C36.7457 41.9687 36.575 42.7634 36.575 43.67C36.575 44.5607 36.7403 45.35 37.071 46.038C37.407 46.726 37.887 47.2647 38.511 47.654C39.135 48.0434 39.8763 48.238 40.735 48.238ZM40.735 46.886C39.8657 46.886 39.207 46.5954 38.759 46.014C38.311 45.4274 38.087 44.646 38.087 43.67C38.087 42.726 38.303 41.958 38.735 41.366C39.167 40.7687 39.8337 40.47 40.735 40.47C41.6203 40.47 42.2843 40.7607 42.727 41.342C43.1697 41.9234 43.391 42.6994 43.391 43.67C43.391 44.6194 43.1697 45.3927 42.727 45.99C42.2897 46.5874 41.6257 46.886 40.735 46.886ZM50.5844 48.222C51.843 48.222 52.803 47.7767 53.4644 46.886V47.998H54.7364V39.358H53.3044V43.91C53.3044 44.9074 53.0857 45.6514 52.6484 46.142C52.2164 46.6274 51.643 46.87 50.9284 46.87C50.3204 46.87 49.8457 46.718 49.5044 46.414C49.1684 46.11 48.931 45.7154 48.7924 45.23C48.6537 44.7394 48.5844 44.2247 48.5844 43.686V39.358H47.1444V44.134C47.1444 44.5447 47.1924 44.9874 47.2884 45.462C47.3897 45.9314 47.5657 46.3767 47.8164 46.798C48.0724 47.214 48.4244 47.5554 48.8724 47.822C49.3204 48.0887 49.891 48.222 50.5844 48.222ZM57.6083 47.998H59.0483V43.446C59.0483 42.4434 59.2643 41.6994 59.6963 41.214C60.1336 40.7287 60.7096 40.486 61.4243 40.486C62.0323 40.486 62.5069 40.638 62.8483 40.942C63.1896 41.246 63.4269 41.6407 63.5603 42.126C63.6989 42.6114 63.7683 43.126 63.7683 43.67V47.998H65.2083V43.222C65.2083 42.8114 65.1576 42.3714 65.0563 41.902C64.9603 41.4274 64.7843 40.982 64.5283 40.566C64.2776 40.1447 63.9283 39.8007 63.4803 39.534C63.0376 39.2674 62.4669 39.134 61.7683 39.134C60.5096 39.134 59.5496 39.5794 58.8883 40.47V39.358H57.6083V47.998ZM71.242 48.238C71.8287 48.238 72.346 48.1314 72.794 47.918C73.2473 47.6994 73.6313 47.4007 73.946 47.022V47.998H75.218V36.478H73.786V40.142C73.4767 39.822 73.1087 39.5714 72.682 39.39C72.2553 39.2087 71.7727 39.118 71.234 39.118C70.434 39.118 69.7433 39.318 69.162 39.718C68.586 40.1127 68.1433 40.654 67.834 41.342C67.5247 42.03 67.37 42.806 67.37 43.67C67.37 44.534 67.5247 45.31 67.834 45.998C68.1433 46.686 68.586 47.2327 69.162 47.638C69.7433 48.038 70.4367 48.238 71.242 48.238ZM71.418 46.934C70.8527 46.934 70.3807 46.79 70.002 46.502C69.6287 46.214 69.3487 45.8247 69.162 45.334C68.9753 44.838 68.882 44.2834 68.882 43.67C68.882 43.062 68.9727 42.5127 69.154 42.022C69.3407 41.5314 69.6233 41.142 70.002 40.854C70.386 40.566 70.8713 40.422 71.458 40.422C72.3007 40.422 72.9247 40.726 73.33 41.334C73.7407 41.9367 73.946 42.7154 73.946 43.67C73.946 44.6194 73.7433 45.4007 73.338 46.014C72.9327 46.6274 72.2927 46.934 71.418 46.934ZM81.8434 48.238C82.6807 48.238 83.4354 48.03 84.1074 47.614C84.7794 47.1927 85.286 46.6007 85.6274 45.838L84.2594 45.366C83.7634 46.3794 82.9367 46.886 81.7794 46.886C80.9847 46.886 80.3607 46.6434 79.9074 46.158C79.4594 45.6674 79.206 44.974 79.1474 44.078H85.7714C85.814 43.054 85.6807 42.1714 85.3714 41.43C85.0674 40.6887 84.6087 40.118 83.9954 39.718C83.3874 39.318 82.6487 39.118 81.7794 39.118C80.942 39.118 80.2114 39.3074 79.5874 39.686C78.9634 40.0594 78.478 40.5927 78.1314 41.286C77.79 41.974 77.6194 42.79 77.6194 43.734C77.6194 44.6354 77.7927 45.4247 78.1394 46.102C78.4914 46.774 78.9847 47.2994 79.6194 47.678C80.254 48.0514 80.9954 48.238 81.8434 48.238ZM81.8274 40.398C83.294 40.398 84.1154 41.2434 84.2914 42.934H79.1714C79.2727 42.1127 79.5474 41.486 79.9954 41.054C80.4434 40.6167 81.054 40.398 81.8274 40.398ZM88.1925 47.998H89.6245V43.662C89.6245 43.15 89.6938 42.6567 89.8325 42.182C89.9712 41.7074 90.2512 41.3207 90.6725 41.022C90.9712 40.8034 91.2992 40.6754 91.6565 40.638C92.0192 40.6007 92.3498 40.6194 92.6485 40.694V39.358C92.2645 39.2727 91.8432 39.2727 91.3845 39.358C90.9258 39.4434 90.5312 39.6194 90.2005 39.886C89.9125 40.0887 89.6672 40.3687 89.4645 40.726V39.358H88.1925V47.998ZM102.388 48.238C102.682 48.238 102.97 48.2194 103.252 48.182C103.54 48.1447 103.823 48.0754 104.1 47.974C104.388 47.8834 104.674 47.7527 104.956 47.582C105.244 47.406 105.495 47.198 105.708 46.958L106.924 48.11L107.852 47.118L106.388 45.766C106.436 45.5954 106.474 45.3767 106.5 45.11C106.527 44.838 106.54 44.5127 106.54 44.134V42.262H105.236L105.244 43.854C105.244 43.9874 105.242 44.1234 105.236 44.262C105.231 44.3954 105.22 44.5287 105.204 44.662L101.812 41.51C101.663 41.3714 101.516 41.238 101.372 41.11C101.228 40.9767 101.103 40.8514 100.996 40.734C100.81 40.5154 100.663 40.31 100.556 40.118C100.455 39.926 100.404 39.6754 100.404 39.366C100.404 38.646 100.703 38.1394 101.3 37.846C101.636 37.686 102.012 37.606 102.428 37.606C102.679 37.606 102.927 37.638 103.172 37.702C103.418 37.7607 103.636 37.8674 103.828 38.022C104.063 38.2034 104.231 38.4327 104.332 38.71L105.724 38.35C105.644 38.1154 105.532 37.886 105.388 37.662C105.244 37.438 105.071 37.2407 104.868 37.07C104.559 36.7874 104.188 36.582 103.756 36.454C103.33 36.3207 102.887 36.254 102.428 36.254C102.151 36.254 101.871 36.278 101.588 36.326C101.306 36.3687 101.028 36.4487 100.756 36.566C100.191 36.8007 99.7484 37.1714 99.4284 37.678C99.1084 38.1847 98.9484 38.7474 98.9484 39.366C98.9484 39.8567 99.0444 40.2754 99.2364 40.622C99.4284 40.9687 99.711 41.3394 100.084 41.734C99.903 41.8194 99.727 41.9234 99.5564 42.046C99.3857 42.1634 99.231 42.3074 99.0924 42.478C98.8257 42.7927 98.6284 43.1527 98.5004 43.558C98.3777 43.9634 98.319 44.374 98.3244 44.79C98.3404 45.2274 98.4177 45.6407 98.5564 46.03C98.695 46.414 98.911 46.7634 99.2044 47.078C99.5777 47.478 100.039 47.7714 100.588 47.958C101.143 48.1447 101.743 48.238 102.388 48.238ZM102.42 46.87C102.026 46.87 101.628 46.8087 101.228 46.686C100.828 46.5634 100.511 46.3634 100.276 46.086C99.951 45.7234 99.7857 45.2674 99.7804 44.718C99.7697 44.1847 99.9057 43.742 100.188 43.39C100.428 43.102 100.754 42.8914 101.164 42.758L104.676 45.974C104.586 46.07 104.468 46.174 104.324 46.286C104.186 46.398 103.991 46.5154 103.74 46.638C103.543 46.734 103.338 46.798 103.124 46.83C102.911 46.8567 102.676 46.87 102.42 46.87ZM118.379 48.238C119.712 48.238 120.808 47.8994 121.667 47.222C122.531 46.5394 123.126 45.6274 123.451 44.486L122.003 44.102C121.768 44.9554 121.347 45.6327 120.739 46.134C120.136 46.63 119.35 46.878 118.379 46.878C117.52 46.878 116.803 46.6834 116.227 46.294C115.651 45.9047 115.219 45.3607 114.931 44.662C114.643 43.9634 114.502 43.1554 114.507 42.238C114.512 41.3154 114.659 40.5074 114.947 39.814C115.235 39.1154 115.664 38.5714 116.235 38.182C116.806 37.7927 117.52 37.598 118.379 37.598C119.35 37.598 120.136 37.846 120.739 38.342C121.347 38.838 121.768 39.5154 122.003 40.374L123.451 39.99C123.126 38.8434 122.531 37.9314 121.667 37.254C120.808 36.5767 119.712 36.238 118.379 36.238C117.232 36.238 116.256 36.4914 115.451 36.998C114.651 37.5047 114.043 38.2087 113.627 39.11C113.211 40.0114 113.003 41.054 113.003 42.238C113.003 43.422 113.211 44.4647 113.627 45.366C114.043 46.2674 114.651 46.9714 115.451 47.478C116.256 47.9847 117.232 48.238 118.379 48.238ZM128.814 47.998H130.238V37.83H134.166V36.478H124.886V37.83H128.814V47.998ZM140.815 48.238C141.967 48.238 142.943 47.9847 143.743 47.478C144.543 46.9714 145.151 46.2674 145.567 45.366C145.983 44.4647 146.191 43.422 146.191 42.238C146.191 41.054 145.983 40.0114 145.567 39.11C145.151 38.2087 144.543 37.5047 143.743 36.998C142.943 36.4914 141.967 36.238 140.815 36.238C139.669 36.238 138.693 36.4914 137.887 36.998C137.087 37.5047 136.479 38.2087 136.063 39.11C135.647 40.0114 135.439 41.054 135.439 42.238C135.439 43.422 135.647 44.4647 136.063 45.366C136.479 46.2674 137.087 46.9714 137.887 47.478C138.693 47.9847 139.669 48.238 140.815 48.238ZM140.815 46.878C139.957 46.8727 139.239 46.6754 138.663 46.286C138.093 45.8967 137.663 45.3554 137.375 44.662C137.087 43.9634 136.946 43.1554 136.951 42.238C136.957 41.3154 137.101 40.5047 137.383 39.806C137.671 39.1074 138.101 38.5634 138.671 38.174C139.242 37.7847 139.957 37.5927 140.815 37.598C141.674 37.6034 142.389 37.8007 142.959 38.19C143.535 38.5794 143.965 39.1207 144.247 39.814C144.535 40.5074 144.679 41.3154 144.679 42.238C144.679 43.1554 144.535 43.966 144.247 44.67C143.965 45.3687 143.535 45.9127 142.959 46.302C142.389 46.6914 141.674 46.8834 140.815 46.878Z" fill="#B1C0CF"/>
</svg>
