<svg width="187" height="53" viewBox="0 0 187 53" fill="none" xmlns="http://www.w3.org/2000/svg">
<path d="M4.78 20.998H7.79L12.47 6.59805H10.3L6.26 18.888L2.27 6.59805H0.1L4.78 20.998ZM14.5781 20.998H16.6681V6.29805H14.5781V20.998ZM23.1211 21.298C24.8411 21.298 26.1378 20.6747 27.0111 19.428V20.998H28.8611V14.348C28.8611 13.8947 28.8411 13.4714 28.8011 13.078C28.7611 12.6847 28.6544 12.3114 28.4811 11.958C28.1478 11.2447 27.6211 10.7247 26.9011 10.398C26.1878 10.0647 25.3478 9.89805 24.3811 9.89805C23.1344 9.89805 22.1344 10.1714 21.3811 10.718C20.6278 11.2647 20.1211 12.0014 19.8611 12.928L21.8111 13.528C21.9978 12.928 22.3278 12.4947 22.8011 12.228C23.2744 11.9614 23.7944 11.828 24.3611 11.828C25.2011 11.828 25.8078 12.008 26.1811 12.368C26.5611 12.7214 26.7678 13.2714 26.8011 14.018C25.9211 14.138 25.0611 14.2647 24.2211 14.398C23.3811 14.5247 22.6478 14.678 22.0211 14.858C21.1878 15.1247 20.5544 15.5214 20.1211 16.048C19.6878 16.5747 19.4711 17.2447 19.4711 18.058C19.4711 18.6447 19.6078 19.1847 19.8811 19.678C20.1611 20.1647 20.5711 20.558 21.1111 20.858C21.6578 21.1514 22.3278 21.298 23.1211 21.298ZM23.4911 19.588C22.8244 19.588 22.3311 19.4347 22.0111 19.128C21.6978 18.8214 21.5411 18.458 21.5411 18.038C21.5411 17.6114 21.6811 17.2747 21.9611 17.028C22.2478 16.7814 22.6044 16.5847 23.0311 16.438C23.4844 16.3047 24.0178 16.188 24.6311 16.088C25.2511 15.988 25.9678 15.878 26.7811 15.758C26.7744 16.0114 26.7578 16.2947 26.7311 16.608C26.7044 16.9214 26.6478 17.2014 26.5611 17.448C26.4811 17.8014 26.3111 18.1414 26.0511 18.468C25.7978 18.7947 25.4544 19.0647 25.0211 19.278C24.5944 19.4847 24.0844 19.588 23.4911 19.588ZM36.1478 21.298C36.8278 21.298 37.4345 21.1847 37.9678 20.958C38.5078 20.7314 38.9745 20.4147 39.3678 20.008V20.998H41.2278V6.59805H39.1278V10.938C38.7545 10.6047 38.3211 10.348 37.8278 10.168C37.3345 9.98805 36.7878 9.89805 36.1878 9.89805C35.1745 9.89805 34.2978 10.148 33.5578 10.648C32.8245 11.1414 32.2578 11.818 31.8578 12.678C31.4578 13.5314 31.2578 14.5014 31.2578 15.588C31.2578 16.668 31.4545 17.638 31.8478 18.498C32.2478 19.358 32.8145 20.0414 33.5478 20.548C34.2811 21.048 35.1478 21.298 36.1478 21.298ZM36.4378 19.408C35.7711 19.408 35.2178 19.238 34.7778 18.898C34.3378 18.558 34.0111 18.1014 33.7978 17.528C33.5845 16.948 33.4778 16.3014 33.4778 15.588C33.4778 14.8814 33.5845 14.2414 33.7978 13.668C34.0178 13.0947 34.3511 12.638 34.7978 12.298C35.2445 11.958 35.8145 11.788 36.5078 11.788C37.4945 11.788 38.2178 12.1414 38.6778 12.848C39.1378 13.5547 39.3678 14.468 39.3678 15.588C39.3678 16.708 39.1378 17.6247 38.6778 18.338C38.2178 19.0514 37.4711 19.408 36.4378 19.408ZM44.6258 8.42805H46.7158V6.39805H44.6258V8.42805ZM44.6258 20.998H46.7158V10.198H44.6258V20.998ZM50.1088 20.998H52.2088V14.248C52.2088 13.5147 52.4088 12.9214 52.8088 12.468C53.2154 12.0147 53.7488 11.788 54.4088 11.788C55.0754 11.788 55.6054 12.0147 55.9988 12.468C56.3988 12.9147 56.5988 13.528 56.5988 14.308L56.5888 20.998H58.6788L58.6888 14.248C58.6888 13.4347 58.9054 12.8214 59.3388 12.408C59.7788 11.9947 60.2954 11.788 60.8888 11.788C61.5421 11.788 62.0688 12.008 62.4688 12.448C62.8688 12.888 63.0688 13.4947 63.0688 14.268L63.0588 20.998H65.1488L65.1588 13.768C65.1588 12.608 64.8354 11.678 64.1888 10.978C63.5488 10.278 62.6488 9.92805 61.4888 9.92805C60.7821 9.92805 60.1421 10.0847 59.5688 10.398C58.9954 10.7047 58.5421 11.1314 58.2088 11.678C57.9221 11.1314 57.5121 10.7047 56.9788 10.398C56.4521 10.0847 55.8154 9.92805 55.0688 9.92805C54.4221 9.92805 53.8288 10.058 53.2888 10.318C52.7554 10.5714 52.3154 10.918 51.9688 11.358V10.198H50.1088V20.998ZM68.3555 8.42805H70.4455V6.39805H68.3555V8.42805ZM68.3555 20.998H70.4455V10.198H68.3555V20.998ZM73.8484 20.998H75.9584V15.548C75.9584 14.9147 76.0584 14.328 76.2584 13.788C76.4584 13.248 76.8118 12.8147 77.3184 12.488C77.6784 12.2547 78.0751 12.118 78.5084 12.078C78.9418 12.038 79.3318 12.0647 79.6784 12.158V10.198C79.1918 10.1047 78.6751 10.108 78.1284 10.208C77.5884 10.308 77.1151 10.508 76.7084 10.808C76.3084 11.0747 75.9751 11.4447 75.7084 11.918V10.198H73.8484V20.998ZM86.3867 20.998H88.4767V15.828H92.2967L94.8067 20.998H97.1967L94.4767 15.418C95.2967 15.0647 95.9101 14.5147 96.3167 13.768C96.7234 13.0214 96.9267 12.168 96.9267 11.208C96.9267 10.0414 96.6267 9.04138 96.0267 8.20805C95.4267 7.37471 94.5234 6.86471 93.3167 6.67805C93.1301 6.64471 92.9334 6.62471 92.7267 6.61805C92.5201 6.60471 92.3467 6.59805 92.2067 6.59805H86.3867V20.998ZM88.4767 13.848V8.56805H92.1267C92.2601 8.56805 92.4067 8.57471 92.5667 8.58805C92.7334 8.60138 92.8901 8.62805 93.0367 8.66805C93.6767 8.81471 94.1301 9.14138 94.3967 9.64805C94.6634 10.1547 94.7967 10.6747 94.7967 11.208C94.7967 11.7347 94.6634 12.2547 94.3967 12.768C94.1301 13.2747 93.6767 13.6047 93.0367 13.758C92.8901 13.7914 92.7334 13.8147 92.5667 13.828C92.4067 13.8414 92.2601 13.848 92.1267 13.848H88.4767ZM102.845 21.298C104.565 21.298 105.861 20.6747 106.735 19.428V20.998H108.585V14.348C108.585 13.8947 108.565 13.4714 108.525 13.078C108.485 12.6847 108.378 12.3114 108.205 11.958C107.871 11.2447 107.345 10.7247 106.625 10.398C105.911 10.0647 105.071 9.89805 104.105 9.89805C102.858 9.89805 101.858 10.1714 101.105 10.718C100.351 11.2647 99.8445 12.0014 99.5845 12.928L101.535 13.528C101.721 12.928 102.051 12.4947 102.525 12.228C102.998 11.9614 103.518 11.828 104.085 11.828C104.925 11.828 105.531 12.008 105.905 12.368C106.285 12.7214 106.491 13.2714 106.525 14.018C105.645 14.138 104.785 14.2647 103.945 14.398C103.105 14.5247 102.371 14.678 101.745 14.858C100.911 15.1247 100.278 15.5214 99.8445 16.048C99.4112 16.5747 99.1945 17.2447 99.1945 18.058C99.1945 18.6447 99.3312 19.1847 99.6045 19.678C99.8845 20.1647 100.295 20.558 100.835 20.858C101.381 21.1514 102.051 21.298 102.845 21.298ZM103.215 19.588C102.548 19.588 102.055 19.4347 101.735 19.128C101.421 18.8214 101.265 18.458 101.265 18.038C101.265 17.6114 101.405 17.2747 101.685 17.028C101.971 16.7814 102.328 16.5847 102.755 16.438C103.208 16.3047 103.741 16.188 104.355 16.088C104.975 15.988 105.691 15.878 106.505 15.758C106.498 16.0114 106.481 16.2947 106.455 16.608C106.428 16.9214 106.371 17.2014 106.285 17.448C106.205 17.8014 106.035 18.1414 105.775 18.468C105.521 18.7947 105.178 19.0647 104.745 19.278C104.318 19.4847 103.808 19.588 103.215 19.588ZM115.871 21.298C116.551 21.298 117.158 21.1847 117.691 20.958C118.231 20.7314 118.698 20.4147 119.091 20.008V20.998H120.951V6.59805H118.851V10.938C118.478 10.6047 118.045 10.348 117.551 10.168C117.058 9.98805 116.511 9.89805 115.911 9.89805C114.898 9.89805 114.021 10.148 113.281 10.648C112.548 11.1414 111.981 11.818 111.581 12.678C111.181 13.5314 110.981 14.5014 110.981 15.588C110.981 16.668 111.178 17.638 111.571 18.498C111.971 19.358 112.538 20.0414 113.271 20.548C114.005 21.048 114.871 21.298 115.871 21.298ZM116.161 19.408C115.495 19.408 114.941 19.238 114.501 18.898C114.061 18.558 113.735 18.1014 113.521 17.528C113.308 16.948 113.201 16.3014 113.201 15.588C113.201 14.8814 113.308 14.2414 113.521 13.668C113.741 13.0947 114.075 12.638 114.521 12.298C114.968 11.958 115.538 11.788 116.231 11.788C117.218 11.788 117.941 12.1414 118.401 12.848C118.861 13.5547 119.091 14.468 119.091 15.588C119.091 16.708 118.861 17.6247 118.401 18.338C117.941 19.0514 117.195 19.408 116.161 19.408ZM124.139 20.998H126.269V15.798L130.789 20.998H133.629L128.689 15.598L133.169 10.198H130.509L126.269 15.398V6.59805H124.149L124.139 20.998ZM139.632 21.298C140.679 21.298 141.629 21.0347 142.482 20.508C143.336 19.9747 143.972 19.2247 144.392 18.258L142.342 17.608C141.796 18.7547 140.859 19.328 139.532 19.328C138.626 19.328 137.912 19.0547 137.392 18.508C136.872 17.9614 136.569 17.188 136.482 16.188H144.532C144.606 14.8947 144.452 13.778 144.072 12.838C143.692 11.898 143.116 11.1747 142.342 10.668C141.569 10.1547 140.632 9.89805 139.532 9.89805C138.479 9.89805 137.556 10.1347 136.762 10.608C135.969 11.0814 135.349 11.7514 134.902 12.618C134.462 13.4847 134.242 14.508 134.242 15.688C134.242 16.8014 134.466 17.7814 134.912 18.628C135.366 19.468 135.996 20.1247 136.802 20.598C137.616 21.0647 138.559 21.298 139.632 21.298ZM139.612 11.748C141.246 11.748 142.172 12.6847 142.392 14.558H136.532C136.666 13.6447 136.989 12.948 137.502 12.468C138.016 11.988 138.719 11.748 139.612 11.748ZM149.705 20.998H151.825L155.745 10.198H153.635L150.765 18.378L147.895 10.198H145.785L149.705 20.998ZM158.147 8.42805H160.237V6.39805H158.147V8.42805ZM158.147 20.998H160.237V10.198H158.147V20.998ZM168.26 21.298C169.42 21.298 170.407 21.018 171.22 20.458C172.033 19.898 172.617 19.088 172.97 18.028L170.85 17.528C170.63 18.108 170.31 18.5547 169.89 18.868C169.477 19.1747 168.933 19.328 168.26 19.328C167.273 19.328 166.527 18.9847 166.02 18.298C165.52 17.6114 165.267 16.7114 165.26 15.598C165.267 14.518 165.51 13.628 165.99 12.928C166.477 12.2214 167.233 11.868 168.26 11.868C168.867 11.868 169.403 12.038 169.87 12.378C170.343 12.7114 170.683 13.1814 170.89 13.788L172.97 13.188C172.703 12.1747 172.15 11.3747 171.31 10.788C170.477 10.1947 169.47 9.89805 168.29 9.89805C167.203 9.89805 166.267 10.1414 165.48 10.628C164.7 11.1147 164.1 11.788 163.68 12.648C163.26 13.5014 163.047 14.4847 163.04 15.598C163.047 16.6914 163.253 17.668 163.66 18.528C164.073 19.388 164.667 20.0647 165.44 20.558C166.22 21.0514 167.16 21.298 168.26 21.298ZM175.397 20.998H177.517V15.378C177.517 14.5247 177.64 13.8447 177.887 13.338C178.14 12.8247 178.474 12.4547 178.887 12.228C179.3 12.0014 179.757 11.888 180.257 11.888C180.83 11.888 181.297 12.0047 181.657 12.238C182.017 12.4714 182.294 12.778 182.487 13.158C182.68 13.538 182.81 13.9514 182.877 14.398C182.95 14.838 182.987 15.268 182.987 15.688V20.998H185.107V14.998C185.107 14.6647 185.077 14.278 185.017 13.838C184.957 13.398 184.844 12.948 184.677 12.488C184.51 12.028 184.267 11.6047 183.947 11.218C183.634 10.8247 183.224 10.508 182.717 10.268C182.21 10.028 181.584 9.90805 180.837 9.90805C180.057 9.90805 179.364 10.048 178.757 10.328C178.157 10.608 177.66 10.9947 177.267 11.488V6.59805H175.397V20.998Z" fill="#31485F"/>
<path d="M25.856 48.238C24.7093 48.238 23.736 47.9847 22.936 47.478C22.136 46.9714 21.5253 46.2674 21.104 45.366C20.688 44.4647 20.48 43.422 20.48 42.238C20.48 41.054 20.688 40.0114 21.104 39.11C21.5253 38.2087 22.136 37.5047 22.936 36.998C23.736 36.4914 24.7093 36.238 25.856 36.238C27.1893 36.238 28.2853 36.5767 29.144 37.254C30.008 37.9314 30.6027 38.8434 30.928 39.99L29.48 40.374C29.2453 39.5154 28.8267 38.838 28.224 38.342C27.6213 37.846 26.832 37.598 25.856 37.598C24.9973 37.598 24.2827 37.7927 23.712 38.182C23.1413 38.5714 22.712 39.1154 22.424 39.814C22.136 40.5074 21.9893 41.3154 21.984 42.238C21.9787 43.1554 22.12 43.9634 22.408 44.662C22.696 45.3554 23.128 45.8994 23.704 46.294C24.28 46.6834 24.9973 46.878 25.856 46.878C26.832 46.878 27.6213 46.63 28.224 46.134C28.8267 45.6327 29.2453 44.9554 29.48 44.102L30.928 44.486C30.6027 45.6274 30.008 46.5394 29.144 47.222C28.2853 47.8994 27.1893 48.238 25.856 48.238ZM37.0025 48.238C36.1438 48.238 35.4025 48.0434 34.7785 47.654C34.1598 47.2647 33.6825 46.726 33.3465 46.038C33.0105 45.35 32.8425 44.5607 32.8425 43.67C32.8425 42.7634 33.0132 41.9687 33.3545 41.286C33.6958 40.6034 34.1785 40.0727 34.8025 39.694C35.4265 39.31 36.1598 39.118 37.0025 39.118C37.8665 39.118 38.6105 39.3127 39.2345 39.702C39.8585 40.086 40.3358 40.622 40.6665 41.31C41.0025 41.9927 41.1705 42.7794 41.1705 43.67C41.1705 44.5714 41.0025 45.366 40.6665 46.054C40.3305 46.7367 39.8505 47.2727 39.2265 47.662C38.6025 48.046 37.8612 48.238 37.0025 48.238ZM37.0025 46.886C37.8985 46.886 38.5652 46.5874 39.0025 45.99C39.4398 45.3927 39.6585 44.6194 39.6585 43.67C39.6585 42.694 39.4372 41.918 38.9945 41.342C38.5518 40.7607 37.8878 40.47 37.0025 40.47C36.3998 40.47 35.9038 40.606 35.5145 40.878C35.1252 41.15 34.8345 41.526 34.6425 42.006C34.4505 42.486 34.3545 43.0407 34.3545 43.67C34.3545 44.6407 34.5785 45.4194 35.0265 46.006C35.4745 46.5927 36.1332 46.886 37.0025 46.886ZM43.4119 43.542V42.366H48.2119V43.542H43.4119ZM51.7546 47.998V38.886C51.7546 38.662 51.7653 38.4354 51.7866 38.206C51.808 37.9714 51.856 37.7447 51.9306 37.526C52.0053 37.302 52.128 37.0967 52.2986 36.91C52.496 36.6914 52.712 36.5367 52.9466 36.446C53.1813 36.35 53.4186 36.2914 53.6586 36.27C53.904 36.2487 54.136 36.238 54.3546 36.238H55.4506V37.422H54.4346C54.0133 37.422 53.6986 37.526 53.4906 37.734C53.2826 37.9367 53.1786 38.246 53.1786 38.662V47.998H51.7546ZM50.2906 40.534V39.358H55.4506V40.534H50.2906ZM60.735 48.238C59.8763 48.238 59.135 48.0434 58.511 47.654C57.8923 47.2647 57.415 46.726 57.079 46.038C56.743 45.35 56.575 44.5607 56.575 43.67C56.575 42.7634 56.7457 41.9687 57.087 41.286C57.4283 40.6034 57.911 40.0727 58.535 39.694C59.159 39.31 59.8923 39.118 60.735 39.118C61.599 39.118 62.343 39.3127 62.967 39.702C63.591 40.086 64.0683 40.622 64.399 41.31C64.735 41.9927 64.903 42.7794 64.903 43.67C64.903 44.5714 64.735 45.366 64.399 46.054C64.063 46.7367 63.583 47.2727 62.959 47.662C62.335 48.046 61.5937 48.238 60.735 48.238ZM60.735 46.886C61.631 46.886 62.2977 46.5874 62.735 45.99C63.1723 45.3927 63.391 44.6194 63.391 43.67C63.391 42.694 63.1697 41.918 62.727 41.342C62.2843 40.7607 61.6203 40.47 60.735 40.47C60.1323 40.47 59.6363 40.606 59.247 40.878C58.8577 41.15 58.567 41.526 58.375 42.006C58.183 42.486 58.087 43.0407 58.087 43.67C58.087 44.6407 58.311 45.4194 58.759 46.006C59.207 46.5927 59.8657 46.886 60.735 46.886ZM70.5844 48.222C70.0297 48.222 69.5524 48.134 69.1524 47.958C68.7577 47.782 68.4297 47.5474 68.1684 47.254C67.907 46.9607 67.7017 46.6354 67.5524 46.278C67.403 45.9207 67.2964 45.5554 67.2324 45.182C67.1737 44.8087 67.1444 44.4594 67.1444 44.134V39.358H68.5844V43.686C68.5844 44.0914 68.6217 44.4834 68.6964 44.862C68.771 45.2407 68.8964 45.582 69.0724 45.886C69.2537 46.19 69.4937 46.43 69.7924 46.606C70.0964 46.782 70.475 46.87 70.9284 46.87C71.2857 46.87 71.611 46.8087 71.9044 46.686C72.1977 46.5634 72.4484 46.382 72.6564 46.142C72.8644 45.8967 73.0244 45.5874 73.1364 45.214C73.2484 44.8407 73.3044 44.406 73.3044 43.91L74.2404 44.198C74.2404 45.03 74.0884 45.7474 73.7844 46.35C73.4857 46.9527 73.0617 47.4167 72.5124 47.742C71.9684 48.062 71.3257 48.222 70.5844 48.222ZM73.4644 47.998V45.686H73.3044V39.358H74.7364V47.998H73.4644ZM83.7683 47.998V43.67C83.7683 43.2594 83.7309 42.8647 83.6563 42.486C83.5869 42.1074 83.4616 41.7687 83.2803 41.47C83.1043 41.166 82.8643 40.926 82.5603 40.75C82.2616 40.574 81.8829 40.486 81.4243 40.486C81.0669 40.486 80.7416 40.5474 80.4483 40.67C80.1603 40.7874 79.9123 40.9687 79.7043 41.214C79.4963 41.4594 79.3336 41.7687 79.2163 42.142C79.1043 42.51 79.0483 42.9447 79.0483 43.446L78.1123 43.158C78.1123 42.3207 78.2616 41.6034 78.5603 41.006C78.8643 40.4034 79.2883 39.942 79.8323 39.622C80.3816 39.2967 81.0269 39.134 81.7683 39.134C82.3283 39.134 82.8056 39.222 83.2003 39.398C83.5949 39.574 83.9229 39.8087 84.1843 40.102C84.4456 40.39 84.6509 40.7154 84.8003 41.078C84.9496 41.4354 85.0536 41.8007 85.1123 42.174C85.1763 42.542 85.2083 42.8914 85.2083 43.222V47.998H83.7683ZM77.6083 47.998V39.358H78.8883V41.67H79.0483V47.998H77.6083ZM91.242 48.238C90.4367 48.238 89.746 48.038 89.17 47.638C88.594 47.2327 88.1487 46.686 87.834 45.998C87.5247 45.31 87.37 44.534 87.37 43.67C87.37 42.806 87.5247 42.03 87.834 41.342C88.1487 40.654 88.594 40.1127 89.17 39.718C89.746 39.318 90.434 39.118 91.234 39.118C92.05 39.118 92.7353 39.3154 93.29 39.71C93.8447 40.1047 94.2633 40.646 94.546 41.334C94.834 42.022 94.978 42.8007 94.978 43.67C94.978 44.5287 94.834 45.3047 94.546 45.998C94.2633 46.686 93.8447 47.2327 93.29 47.638C92.7353 48.038 92.0527 48.238 91.242 48.238ZM91.418 46.934C91.9993 46.934 92.4767 46.7954 92.85 46.518C93.2233 46.2354 93.498 45.8487 93.674 45.358C93.8553 44.862 93.946 44.2994 93.946 43.67C93.946 43.03 93.8553 42.4674 93.674 41.982C93.498 41.4914 93.226 41.11 92.858 40.838C92.49 40.5607 92.0233 40.422 91.458 40.422C90.8713 40.422 90.386 40.566 90.002 40.854C89.6233 41.142 89.3407 41.5314 89.154 42.022C88.9727 42.5127 88.882 43.062 88.882 43.67C88.882 44.2834 88.9753 44.838 89.162 45.334C89.3487 45.8247 89.6287 46.214 90.002 46.502C90.3807 46.79 90.8527 46.934 91.418 46.934ZM93.946 47.998V41.638H93.786V36.478H95.218V47.998H93.946ZM101.843 48.238C100.995 48.238 100.254 48.0514 99.6194 47.678C98.99 47.2994 98.4994 46.774 98.1474 46.102C97.7954 45.4247 97.6194 44.6354 97.6194 43.734C97.6194 42.79 97.7927 41.974 98.1394 41.286C98.486 40.5927 98.9687 40.0594 99.5874 39.686C100.211 39.3074 100.942 39.118 101.779 39.118C102.649 39.118 103.387 39.318 103.995 39.718C104.609 40.118 105.067 40.6887 105.371 41.43C105.681 42.1714 105.814 43.054 105.771 44.078H104.331V43.566C104.315 42.5047 104.099 41.7127 103.683 41.19C103.267 40.662 102.649 40.398 101.827 40.398C100.947 40.398 100.278 40.6807 99.8194 41.246C99.3607 41.8114 99.1314 42.622 99.1314 43.678C99.1314 44.6967 99.3607 45.486 99.8194 46.046C100.278 46.606 100.931 46.886 101.779 46.886C102.35 46.886 102.846 46.7554 103.267 46.494C103.689 46.2327 104.019 45.8567 104.259 45.366L105.627 45.838C105.291 46.6007 104.785 47.1927 104.107 47.614C103.435 48.03 102.681 48.238 101.843 48.238ZM98.6514 44.078V42.934H105.035V44.078H98.6514ZM108.193 47.998V39.358H109.465V41.446L109.257 41.174C109.358 40.9074 109.489 40.662 109.649 40.438C109.814 40.214 109.998 40.03 110.201 39.886C110.425 39.7047 110.678 39.566 110.961 39.47C111.243 39.374 111.531 39.318 111.825 39.302C112.118 39.2807 112.393 39.2994 112.649 39.358V40.694C112.35 40.614 112.022 40.5927 111.665 40.63C111.307 40.6674 110.977 40.798 110.673 41.022C110.395 41.2194 110.179 41.4594 110.025 41.742C109.875 42.0247 109.771 42.3314 109.713 42.662C109.654 42.9874 109.625 43.3207 109.625 43.662V47.998H108.193ZM122.388 48.238C121.748 48.238 121.151 48.1447 120.596 47.958C120.042 47.7714 119.578 47.478 119.204 47.078C118.916 46.758 118.7 46.406 118.556 46.022C118.418 45.6327 118.34 45.222 118.324 44.79C118.324 44.3687 118.386 43.958 118.508 43.558C118.631 43.1527 118.826 42.7927 119.092 42.478C119.231 42.3074 119.386 42.1634 119.556 42.046C119.732 41.9234 119.908 41.8194 120.084 41.734C119.716 41.3394 119.434 40.9687 119.236 40.622C119.044 40.2754 118.948 39.8567 118.948 39.366C118.948 38.742 119.108 38.1794 119.428 37.678C119.754 37.1714 120.196 36.8007 120.756 36.566C121.028 36.4487 121.306 36.3687 121.588 36.326C121.876 36.278 122.156 36.254 122.428 36.254C122.887 36.254 123.332 36.318 123.764 36.446C124.196 36.574 124.564 36.782 124.868 37.07C125.071 37.2407 125.244 37.438 125.388 37.662C125.532 37.8807 125.644 38.11 125.724 38.35L124.332 38.71C124.231 38.438 124.063 38.2087 123.828 38.022C123.642 37.862 123.423 37.7527 123.172 37.694C122.927 37.6354 122.679 37.606 122.428 37.606C122.012 37.606 121.636 37.686 121.3 37.846C121.002 37.99 120.778 38.1927 120.628 38.454C120.479 38.71 120.404 39.014 120.404 39.366C120.404 39.67 120.455 39.9207 120.556 40.118C120.663 40.31 120.81 40.5154 120.996 40.734C121.108 40.8514 121.234 40.9767 121.372 41.11C121.516 41.238 121.663 41.3714 121.812 41.51L125.204 44.662C125.22 44.5287 125.231 44.3927 125.236 44.254C125.242 44.1154 125.244 43.982 125.244 43.854L125.236 42.262H126.54V44.134C126.54 44.5127 126.527 44.8354 126.5 45.102C126.479 45.3687 126.442 45.59 126.388 45.766L127.852 47.118L126.924 48.11L125.708 46.958C125.5 47.1927 125.252 47.398 124.964 47.574C124.676 47.75 124.388 47.8834 124.1 47.974C123.828 48.0754 123.548 48.1447 123.26 48.182C122.972 48.2194 122.682 48.238 122.388 48.238ZM122.42 46.87C122.682 46.87 122.919 46.854 123.132 46.822C123.346 46.79 123.548 46.7287 123.74 46.638C123.996 46.5154 124.194 46.398 124.332 46.286C124.471 46.174 124.586 46.07 124.676 45.974L121.164 42.758C120.972 42.822 120.791 42.9074 120.62 43.014C120.455 43.1207 120.311 43.246 120.188 43.39C120.05 43.5607 119.946 43.7607 119.876 43.99C119.812 44.2194 119.78 44.462 119.78 44.718C119.786 44.99 119.831 45.2407 119.916 45.47C120.002 45.6994 120.122 45.9047 120.276 46.086C120.511 46.358 120.828 46.558 121.228 46.686C121.628 46.8087 122.026 46.87 122.42 46.87ZM138.379 48.238C137.232 48.238 136.259 47.9847 135.459 47.478C134.659 46.9714 134.048 46.2674 133.627 45.366C133.211 44.4647 133.003 43.422 133.003 42.238C133.003 41.054 133.211 40.0114 133.627 39.11C134.048 38.2087 134.659 37.5047 135.459 36.998C136.259 36.4914 137.232 36.238 138.379 36.238C139.712 36.238 140.808 36.5767 141.667 37.254C142.531 37.9314 143.126 38.8434 143.451 39.99L142.003 40.374C141.768 39.5154 141.35 38.838 140.747 38.342C140.144 37.846 139.355 37.598 138.379 37.598C137.52 37.598 136.806 37.7927 136.235 38.182C135.664 38.5714 135.235 39.1154 134.947 39.814C134.659 40.5074 134.512 41.3154 134.507 42.238C134.502 43.1554 134.643 43.9634 134.931 44.662C135.219 45.3554 135.651 45.8994 136.227 46.294C136.803 46.6834 137.52 46.878 138.379 46.878C139.355 46.878 140.144 46.63 140.747 46.134C141.35 45.6327 141.768 44.9554 142.003 44.102L143.451 44.486C143.126 45.6274 142.531 46.5394 141.667 47.222C140.808 47.8994 139.712 48.238 138.379 48.238ZM148.814 47.998V37.83H144.886V36.478H154.166V37.83H150.238V47.998H148.814ZM160.815 48.238C159.669 48.238 158.695 47.9847 157.895 47.478C157.095 46.9714 156.485 46.2674 156.063 45.366C155.647 44.4647 155.439 43.422 155.439 42.238C155.439 41.054 155.647 40.0114 156.063 39.11C156.485 38.2087 157.095 37.5047 157.895 36.998C158.695 36.4914 159.669 36.238 160.815 36.238C161.967 36.238 162.943 36.4914 163.743 36.998C164.543 37.5047 165.151 38.2087 165.567 39.11C165.983 40.0114 166.191 41.054 166.191 42.238C166.191 43.422 165.983 44.4647 165.567 45.366C165.151 46.2674 164.543 46.9714 163.743 47.478C162.943 47.9847 161.967 48.238 160.815 48.238ZM160.815 46.878C161.674 46.8834 162.389 46.6914 162.959 46.302C163.535 45.9074 163.965 45.3607 164.247 44.662C164.535 43.9634 164.679 43.1554 164.679 42.238C164.679 41.3154 164.535 40.5074 164.247 39.814C163.965 39.1207 163.535 38.5794 162.959 38.19C162.389 37.8007 161.674 37.6034 160.815 37.598C159.957 37.5927 159.242 37.7847 158.671 38.174C158.106 38.5634 157.679 39.1074 157.391 39.806C157.103 40.5047 156.957 41.3154 156.951 42.238C156.946 43.1554 157.087 43.9607 157.375 44.654C157.663 45.3474 158.093 45.8914 158.663 46.286C159.239 46.6754 159.957 46.8727 160.815 46.878Z" fill="#B1C0CF"/>
</svg>
