<svg width="18" height="13" viewBox="0 0 18 13" fill="none" xmlns="http://www.w3.org/2000/svg">
<path d="M17.7131 4.91313C17.7131 4.52525 17.6485 4.07273 17.6485 3.55556C17.5839 3.03838 17.5192 2.52121 17.4545 2.06869C17.3253 1.55151 17.1313 1.16364 16.7434 0.840406C16.4202 0.517174 15.9677 0.323228 15.5152 0.258582C14.0283 0.0646425 11.8303 0 8.85657 0C5.88284 0 3.6202 0.0646425 2.19798 0.258582C1.74545 0.323228 1.29293 0.517174 0.969697 0.840406C0.646465 1.16364 0.387875 1.55151 0.258582 2.06869C0.129289 2.52121 0.0646504 2.97374 0.0646504 3.55556C3.94474e-06 4.07273 0 4.52525 0 4.91313C0 5.301 0 5.75353 0 6.4C0 7.04646 0 7.56363 0 7.88687C0 8.27475 0.0646504 8.72728 0.0646504 9.24445C0.129297 9.76162 0.193935 10.2788 0.258582 10.7313C0.387875 11.2485 0.581818 11.6364 0.969697 11.9596C1.29293 12.2828 1.74545 12.4768 2.19798 12.5414C3.68484 12.7354 5.88284 12.8 8.85657 12.8C11.8303 12.8 14.0929 12.7354 15.5152 12.5414C15.9677 12.4768 16.4202 12.2828 16.7434 11.9596C17.0667 11.6364 17.3253 11.2485 17.4545 10.7313C17.5838 10.2788 17.6485 9.82627 17.6485 9.24445C17.7131 8.72728 17.7131 8.27475 17.7131 7.88687C17.7131 7.49899 17.7131 7.04646 17.7131 6.4C17.7131 5.75353 17.7131 5.23636 17.7131 4.91313ZM12.2828 6.91717L7.17576 10.0848C7.11112 10.1495 6.98182 10.2141 6.85253 10.2141C6.72324 10.2141 6.65859 10.2141 6.5293 10.1495C6.33536 10.0202 6.20607 9.82627 6.20607 9.56768V3.16767C6.20607 2.90909 6.33536 2.71515 6.5293 2.58586C6.72324 2.45657 6.98182 2.45657 7.17576 2.58586L12.2828 5.75353C12.4768 5.88282 12.6061 6.07677 12.6061 6.27071C12.6061 6.46464 12.4768 6.78788 12.2828 6.91717Z" fill="white"/>
</svg>
