<?xml version="1.0" standalone="no"?>
<!DOCTYPE svg PUBLIC "-//W3C//DTD SVG 1.1//EN" "http://www.w3.org/Graphics/SVG/1.1/DTD/svg11.dtd" >
<svg xmlns="http://www.w3.org/2000/svg" xmlns:xlink="http://www.w3.org/1999/xlink" version="1.1">
<metadata>
Created by FontForge 20200427 at Tue Oct 24 23:42:39 2017
 By www
Copyright (c) 2017 by Gayane Bagdasaryan, Vyacheslav Kirilenko. All rights reserved.
</metadata>
<defs>
<font id="AeroportMono" horiz-adv-x="620" >
  <font-face 
    font-family="Aeroport Mono"
    font-weight="400"
    font-stretch="normal"
    units-per-em="1000"
    panose-1="2 0 0 9 0 0 0 0 0 0"
    ascent="800"
    descent="-200"
    x-height="460"
    cap-height="664"
    bbox="-343 -251 644 1024"
    underline-thickness="50"
    underline-position="-100"
    unicode-range="U+000D-FB02"
  />
<missing-glyph 
d="M85 664h450v-664h-450v664zM449 76v512h-278v-512h278z" />
    <glyph glyph-name=".notdef" 
d="M85 664h450v-664h-450v664zM449 76v512h-278v-512h278z" />
    <glyph glyph-name=".null" horiz-adv-x="0" 
 />
    <glyph glyph-name=".null" horiz-adv-x="0" 
 />
    <glyph glyph-name="nonmarkingreturn" unicode="&#xd;" 
 />
    <glyph glyph-name="space" unicode=" " 
 />
    <glyph glyph-name="exclam" unicode="!" 
d="M355 199h-90v465h90v-465zM244 0v134h131v-134h-131z" />
    <glyph glyph-name="quotedbl" unicode="&#x22;" 
d="M352 664h112v-297h-112v297zM156 664h112v-297h-112v297z" />
    <glyph glyph-name="numbersign" unicode="#" 
d="M338 664l-48 -179h122l48 179h86l-48 -179h104v-82h-126l-38 -142h104v-82h-126l-47 -179h-86l47 179h-122l-47 -179h-86l47 179h-102v82h124l38 142h-102v82h124l48 179h86zM230 261h122l38 142h-122z" />
    <glyph glyph-name="dollar" unicode="$" 
d="M141 165q23 -42 68 -68t106 -26q35 0 64.5 8.5t50.5 23.5t32.5 35t11.5 43q0 48 -31.5 72t-97.5 32l-107 14q-90 12 -132.5 60t-42.5 119q0 78 51 131.5t145 64.5v121h86v-121q47 -6 84.5 -24t65 -42.5t45 -53t26.5 -55.5h-95q-20 41 -65.5 67.5t-104.5 26.5
q-37 0 -65 -9.5t-46.5 -25t-27.5 -35.5t-9 -41q0 -45 29.5 -69t82.5 -31l114 -15q85 -11 135 -58.5t50 -122.5q0 -35 -14 -68.5t-41.5 -61t-68.5 -46t-95 -22.5v-120h-86v123q-47 7 -83 24.5t-62 41.5t-42.5 52t-25.5 56h95z" />
    <glyph glyph-name="percent" unicode="%" 
d="M551 467l-482 -354v85l482 354v-85zM171 671q31 0 58 -11.5t47 -31t31 -45.5t11 -56t-11 -56t-31 -45.5t-47 -31t-58 -11.5q-32 0 -58.5 11.5t-46.5 31t-31 45.5t-11 56t11 56t31 45.5t46.5 31t58.5 11.5zM171 457q31 0 50 20.5t19 49.5t-19 49.5t-50 20.5t-50 -20.5
t-19 -49.5t19 -49.5t50 -20.5zM449 281q31 0 58 -11.5t47 -31t31 -45.5t11 -56t-11 -56t-31 -45.5t-47 -31t-58 -11.5q-32 0 -58.5 11.5t-46.5 31t-31 45.5t-11 56t11 56t31 45.5t46.5 31t58.5 11.5zM449 67q31 0 50 20.5t19 49.5t-19 49.5t-50 20.5t-50 -20.5t-19 -49.5
t19 -49.5t50 -20.5z" />
    <glyph glyph-name="ampersand" unicode="&#x26;" 
d="M622 0h-113l-95 90q-42 -45 -88 -74t-106 -29q-47 0 -81.5 14.5t-58 38.5t-35 54.5t-11.5 62.5t9 56t24.5 43.5t37 37t45.5 37.5l10 8l-28 30q-25 26 -47 61t-22 79q0 40 16 71.5t41 53t56.5 32.5t63.5 11q37 0 69 -12t55 -34t36.5 -52.5t13.5 -66.5q0 -24 -8 -45.5
t-21.5 -40.5t-30.5 -35.5t-35 -31.5l-36 -29l129 -123l163 185v-112l-111 -128zM240 597q-15 0 -31.5 -5t-29.5 -15.5t-21.5 -27t-8.5 -38.5q0 -29 17.5 -53t34.5 -41l30 -31l41 33q56 46 56 93q0 37 -25.5 61t-62.5 24zM219 285l-21 -17q-13 -11 -26.5 -22t-25 -24
t-19 -28.5t-7.5 -35.5q0 -36 27 -63.5t73 -27.5q42 0 77 25t63 55z" />
    <glyph glyph-name="quotesingle" unicode="'" 
d="M254 664h112v-297h-112v297z" />
    <glyph glyph-name="parenleft" unicode="(" 
d="M440 664q-27 -36 -53 -78t-46 -92.5t-32.5 -109.5t-12.5 -130t12.5 -130t32.5 -109.5t46 -92.5t53 -78h-93q-30 36 -55 80.5t-43 96.5t-28.5 110.5t-10.5 122.5t10.5 122.5t28.5 110.5t43 96.5t55 80.5h93z" />
    <glyph glyph-name="parenright" unicode=")" 
d="M180.054 664q26.9971 -36 52.9932 -78q25.9971 -42 45.9951 -92.5q19.9971 -50.5 32.4961 -109.5q12.498 -59 12.498 -130t-12.498 -130q-12.499 -59 -32.4961 -109.5q-19.998 -50.5 -45.9951 -92.5q-25.9961 -42 -52.9932 -78h92.9883q29.9971 36 54.9932 80.5
q24.9971 44.5 42.9951 96.5t28.4971 110.5q10.498 58.5 10.498 122.5t-10.498 122.5q-10.499 58.5 -28.4971 110.5t-42.9951 96.5q-24.9961 44.5 -54.9932 80.5h-92.9883z" />
    <glyph glyph-name="asterisk" unicode="*" 
d="M133 542l34 60l109 -64v126h69v-126l108 64l35 -60l-110 -63l110 -62l-35 -60l-108 63v-125h-69v125l-109 -63l-34 60l109 62z" />
    <glyph glyph-name="plus" unicode="+" 
d="M269 296v177h81v-177h177v-81h-177v-177h-81v177h-177v81h177z" />
    <glyph glyph-name="comma" unicode="," 
d="M201 -171l103 171h-68v151h148v-165l-95 -157h-88z" />
    <glyph glyph-name="hyphen" unicode="-" 
d="M503 296v-81h-386v81h386z" />
    <glyph glyph-name="period" unicode="." 
d="M236 0v151h148v-151h-148z" />
    <glyph glyph-name="slash" unicode="/" 
d="M457 664h97l-392 -744h-96z" />
    <glyph glyph-name="zero" unicode="0" 
d="M310 677q50 0 88.5 -16t66.5 -43t47 -62.5t30.5 -73.5t16.5 -77t5 -73t-5 -73t-16.5 -77t-30.5 -73.5t-47 -62.5t-66.5 -43t-88.5 -16t-88.5 16t-66.5 43t-47 62.5t-30.5 73.5t-16.5 77t-5 73t5 73t16.5 77t30.5 73.5t47 62.5t66.5 43t88.5 16zM146 332q0 -34 5 -71
t17 -71l239 361q-18 19 -42 30.5t-55 11.5q-47 0 -78.5 -25t-50.5 -63.5t-27 -84.5t-8 -88zM310 71q47 0 78.5 25t50.5 63.5t27 84.5t8 88q0 33 -5.5 69.5t-16.5 70.5l-239 -360q18 -19 42 -30t55 -11z" />
    <glyph glyph-name="one" unicode="1" 
d="M286 84v476l-142 -128v110l138 122h94v-580h155v-84h-410v84h165z" />
    <glyph glyph-name="two" unicode="2" 
d="M539 84v-84h-453v84l271 249q31 29 56 62.5t25 76.5q0 28 -10.5 50t-28.5 38t-42 24.5t-52 8.5q-51 0 -89.5 -26.5t-51.5 -81.5h-92q7 39 25 74t47 61.5t68.5 41.5t87.5 15q50 0 92 -14.5t72 -40.5t46.5 -63.5t16.5 -83.5q0 -55 -27.5 -101t-72.5 -87l-220 -203h332z" />
    <glyph glyph-name="three" unicode="3" 
d="M305 380q63 0 100 28t37 80q0 47 -38 76t-99 29q-50 0 -88.5 -22t-57.5 -72h-92q12 46 35 80t54.5 55.5t69.5 32t79 10.5q54 0 96 -15.5t71.5 -42t44.5 -60.5t15 -71q0 -39 -18 -77t-66 -71q51 -35 69 -75.5t18 -81.5q0 -39 -15.5 -74.5t-45.5 -62.5t-73.5 -43t-98.5 -16
q-42 0 -80 10.5t-69.5 32.5t-54.5 55.5t-35 79.5h92q21 -52 58.5 -73t88.5 -21q63 0 103 31t40 80q0 54 -38.5 84.5t-104.5 30.5h-75v83h78v0z" />
    <glyph glyph-name="four" unicode="4" 
d="M491 422v-197h114v-84h-114v-141h-90v141h-358v84l324 439h104l-324 -439h254v197h90z" />
    <glyph glyph-name="five" unicode="5" 
d="M161 156q18 -45 57 -65t88 -20q34 0 62 11t48 30t31 44.5t11 55.5t-11 55.5t-31 44.5t-48 29.5t-62 10.5q-36 0 -71 -13t-58 -36h-90l38 361h392v-84h-315l-18 -178q26 15 58 24.5t75 9.5q42 0 83.5 -15t74 -43.5t53 -70.5t20.5 -97q0 -44 -17.5 -84.5t-49 -71t-75.5 -49
t-98 -18.5q-47 0 -87 12.5t-70.5 34.5t-52 53t-30.5 69h93z" />
    <glyph glyph-name="six" unicode="6" 
d="M328 426q46 0 88 -16.5t73 -46t49.5 -69.5t18.5 -88q0 -44 -17.5 -83.5t-49 -69.5t-75 -48t-95.5 -18q-56 0 -102.5 18.5t-81 58.5t-53.5 102.5t-19 151.5q0 67 15 131.5t47 115t83.5 81.5t123.5 31q162 0 220 -155h-92q-19 38 -52 54.5t-75 16.5q-37 0 -69 -16
t-56.5 -46.5t-39.5 -75.5t-16 -103q26 32 72.5 53t102.5 21zM316 71q31 0 58.5 10t48 28t32.5 42.5t12 54.5t-12 55t-32.5 43t-48 28t-58.5 10t-58 -10t-47 -28t-31.5 -43t-11.5 -55t11.5 -55t31.5 -42.5t47 -27.5t58 -10z" />
    <glyph glyph-name="seven" unicode="7" 
d="M93 580v84h452v-84l-319 -580h-100l321 580h-354z" />
    <glyph glyph-name="eight" unicode="8" 
d="M310 -13q-58 0 -103 16t-76.5 43t-48 62.5t-16.5 74.5q0 40 20 81t73 76q-50 33 -68 71.5t-18 77.5q0 37 16 71t46.5 60t74.5 41.5t100 15.5t100 -15.5t74.5 -41.5t46.5 -60t16 -71q0 -39 -18 -77.5t-68 -71.5q53 -35 73 -76t20 -81q0 -39 -16.5 -74.5t-48 -62.5
t-76.5 -43t-103 -16zM457 489q0 46 -41 75t-106 29t-106 -29t-41 -75q0 -51 40 -79t107 -28t107 28t40 79zM310 71q33 0 61 8.5t49 23.5t32.5 35.5t11.5 44.5q0 54 -42.5 84.5t-111.5 30.5t-111.5 -30.5t-42.5 -84.5q0 -24 11.5 -44.5t32.5 -35.5t49 -23.5t61 -8.5z" />
    <glyph glyph-name="nine" unicode="9" 
d="M289 252q-47 0 -88.5 16.5t-72.5 46t-49.5 69.5t-18.5 88q0 43 17.5 83t49 70t75 48t95.5 18q55 0 102 -18.5t81.5 -58.5t53.5 -103t19 -151q0 -67 -14.5 -131.5t-46.5 -115t-83 -81.5t-123 -31q-163 0 -221 155h92q19 -38 52.5 -54.5t75.5 -16.5q37 0 69 16t56 46.5
t38 75.5t16 103q-26 -32 -72.5 -53t-102.5 -21zM301 607q-31 0 -58.5 -10t-48 -28t-32.5 -42.5t-12 -54.5t12 -55t32.5 -43t48 -28t58.5 -10t58 10t47 28t31.5 43t11.5 55t-11.5 55t-31.5 42.5t-47 27.5t-58 10z" />
    <glyph glyph-name="colon" unicode=":" 
d="M236 310v151h148v-151h-148zM236 0v151h148v-151h-148z" />
    <glyph glyph-name="semicolon" unicode=";" 
d="M201 -171l103 171h-68v151h148v-165l-95 -157h-88zM236 310v151h148v-151h-148z" />
    <glyph glyph-name="less" unicode="&#x3c;" 
d="M517 103v-91l-435 204v81l435 204v-91l-330 -154z" />
    <glyph glyph-name="equal" unicode="=" 
d="M553 214v-82h-486v82h486zM553 381v-82h-486v82h486z" />
    <glyph glyph-name="greater" unicode="&#x3e;" 
d="M103.063 103v-91l434.946 204v81l-434.946 204v-91l329.959 -154z" />
    <glyph glyph-name="question" unicode="?" 
d="M312 677q51 0 88 -14t62 -36.5t37 -52.5t12 -61q0 -32 -7 -55t-20 -41t-31 -34t-40 -34l-14 -11q-18 -14 -29 -25t-17 -22.5t-8 -24t-2 -30.5v-37h-90v37q0 30 4 51.5t14.5 40.5t30 37.5t50.5 41.5t50 46.5t19 55.5q0 40 -31 62t-78 22q-54 0 -85.5 -25.5t-42.5 -64.5
h-93q7 35 25 66.5t46 55.5t65.5 38t84.5 14zM232 0v134h131v-134h-131z" />
    <glyph glyph-name="at" unicode="@" 
d="M501 58v33q-20 -24 -51.5 -35t-56.5 -11q-52 0 -88 20.5t-58 51t-31.5 67t-9.5 68.5q0 33 10 69.5t32 66.5t58 50t88 20q29 0 60.5 -12.5t48.5 -32.5q-8 87 -53.5 137t-119.5 50q-49 0 -87.5 -24.5t-65.5 -70t-41 -110t-14 -144.5t15 -144t42.5 -110t67 -70.5t89.5 -24.5
q42 0 77 17.5t61 49.5h92q-38 -68 -96.5 -106t-133.5 -38q-67 0 -121.5 31t-93.5 87t-60 134.5t-21 173.5q0 96 20.5 174.5t58 134.5t91.5 86.5t120 30.5q52 0 97.5 -19t79.5 -55t53.5 -88t19.5 -118v-339h-79zM396 120q28 0 49 11.5t34.5 30t20 42t6.5 47.5t-6.5 47
t-20 41.5t-34.5 30t-49 11.5t-48.5 -11.5t-34 -30t-20 -41.5t-6.5 -47t6.5 -47.5t20 -42t34 -30t48.5 -11.5z" />
    <glyph glyph-name="A" unicode="A" 
d="M454 154h-289l-56 -154h-92l246 664h95l245 -664h-93zM196 237h228l-114 313z" />
    <glyph glyph-name="B" unicode="B" 
d="M360 664q37 0 73 -10t65 -32.5t47 -58t18 -86.5t-20.5 -86t-57.5 -59q37 -24 57.5 -59t20.5 -86t-18 -86.5t-47 -58t-65 -32.5t-73 -10h-272v664h272zM473 187q0 51 -31.5 77t-82.5 26h-181v-206h181q51 0 82.5 26t31.5 77zM473 477q0 51 -31.5 77t-82.5 26h-181v-206
h181q51 0 82.5 26t31.5 77z" />
    <glyph glyph-name="C" unicode="C" 
d="M325 71q51 0 89.5 24.5t62.5 69.5h95q-31 -82 -95.5 -130t-151.5 -48q-63 0 -114 25.5t-87.5 71.5t-56 109.5t-19.5 138.5t19.5 138.5t56 109.5t87.5 71.5t114 25.5q87 0 151.5 -48.5t95.5 -129.5h-95q-24 45 -62.5 69.5t-89.5 24.5q-44 0 -78.5 -19t-58.5 -53.5
t-37 -82.5t-13 -106t13 -106t37 -82.5t58.5 -53.5t78.5 -19z" />
    <glyph glyph-name="D" unicode="D" 
d="M258 664q75 0 133.5 -26.5t98.5 -71.5t61 -105.5t21 -128.5t-21 -128.5t-61 -105.5t-98.5 -71.5t-133.5 -26.5h-173v664h173zM482 332q0 55 -15.5 100.5t-44 78.5t-69.5 51t-93 18h-85v-496h85q52 0 93 18t69.5 51t44 78.5t15.5 100.5z" />
    <glyph glyph-name="E" unicode="E" 
d="M184 580v-206h354v-84h-354v-206h361v-84h-451v664h451v-84h-361z" />
    <glyph glyph-name="F" unicode="F" 
d="M187 580v-206h369v-84h-369v-290h-90v664h467v-84h-377z" />
    <glyph glyph-name="G" unicode="G" 
d="M312 71q72 0 115 51t54 139h-184v84h279q0 -80 -18 -146t-52.5 -113t-83.5 -73t-110 -26t-111 26t-85.5 71.5t-55 109t-19.5 138.5t19.5 138.5t55 109t85.5 71.5t111 26q85 0 147 -48.5t92 -129.5h-95q-23 45 -58.5 69.5t-85.5 24.5q-42 0 -75.5 -19t-57 -53.5t-36 -82.5
t-12.5 -106t12.5 -106t36 -82.5t57 -53.5t75.5 -19z" />
    <glyph glyph-name="H" unicode="H" 
d="M460 0v290h-300v-290h-90v664h90v-290h300v290h90v-664h-90z" />
    <glyph glyph-name="I" unicode="I" 
d="M533 664v-84h-178v-496h178v-84h-446v84h178v496h-178v84h446z" />
    <glyph glyph-name="J" unicode="J" 
d="M489 664v-484q0 -87 -53.5 -133.5t-140.5 -46.5h-215v84h215q50 0 77 23t27 73v400h-319v84h409z" />
    <glyph glyph-name="K" unicode="K" 
d="M605 0h-119l-305 288v-288h-90v664h90v-288l305 288h119l-348 -332z" />
    <glyph glyph-name="L" unicode="L" 
d="M190 84h391v-84h-481v664h90v-580z" />
    <glyph glyph-name="M" unicode="M" 
d="M310 132l135 532h112v-664h-86v445l-114 -445h-94l-114 445v-445h-86v664h112z" />
    <glyph glyph-name="N" unicode="N" 
d="M550 664v-664h-100l-290 510v-510h-90v664h100l290 -510v510h90z" />
    <glyph glyph-name="O" unicode="O" 
d="M310 -13q-61 0 -110.5 26t-85 71.5t-54.5 109t-19 138.5t19 138.5t54.5 109t85 71.5t110.5 26t110.5 -26t85 -71.5t54.5 -109t19 -138.5t-19 -138.5t-54.5 -109t-85 -71.5t-110.5 -26zM310 593q-42 0 -75 -19t-56.5 -53.5t-35.5 -82.5t-12 -106t12 -106t35.5 -82.5
t56.5 -53.5t75 -19t75 19t56.5 53.5t35.5 82.5t12 106t-12 106t-35.5 82.5t-56.5 53.5t-75 19z" />
    <glyph glyph-name="P" unicode="P" 
d="M569 469q0 -47 -15.5 -83.5t-43.5 -61t-67 -37.5t-86 -13h-186v-274h-90v664h276q47 0 86 -13t67 -37.5t43.5 -61t15.5 -83.5zM479 469q0 54 -34 82.5t-88 28.5h-186v-222h186q54 0 88 28.5t34 82.5z" />
    <glyph glyph-name="Q" unicode="Q" 
d="M310 -13q-61 0 -110.5 26t-85 71.5t-54.5 109t-19 138.5t19 138.5t54.5 109t85 71.5t110.5 26t110.5 -26t85 -71.5t54.5 -109t19 -138.5t-18.5 -137.5t-53.5 -108.5l76 -99h-109l-30 39q-59 -39 -134 -39zM364 274l87 -115q38 68 38 173q0 58 -12 106t-35.5 82.5
t-56.5 53.5t-75 19t-75 -19t-56.5 -53.5t-35.5 -82.5t-12 -106t12 -106t35.5 -82.5t56.5 -53.5t75 -19q45 0 82 23l-137 180h109z" />
    <glyph glyph-name="R" unicode="R" 
d="M569 469q0 -88 -52 -138t-137 -56l210 -275h-112l-209 274h-98v-274h-90v664h276q47 0 86 -13t67 -37.5t43.5 -61t15.5 -83.5zM479 469q0 54 -34 82.5t-88 28.5h-186v-222h186q54 0 88 28.5t34 82.5z" />
    <glyph glyph-name="S" unicode="S" 
d="M141 165q23 -42 68 -68t106 -26q35 0 64.5 8.5t50.5 23.5t32.5 35t11.5 43q0 48 -31.5 72t-97.5 32l-107 14q-90 12 -132.5 60t-42.5 119q0 43 16.5 80t47.5 63t75.5 41t101.5 15t101.5 -16.5t77 -42.5t53.5 -57.5t30 -61.5h-95q-20 41 -65.5 67.5t-104.5 26.5
q-37 0 -65 -9.5t-46.5 -25t-27.5 -35.5t-9 -41q0 -45 29.5 -69t82.5 -31l114 -15q85 -11 135 -58.5t50 -122.5q0 -37 -15.5 -73t-47 -64t-78 -45t-108.5 -17q-61 0 -107 16t-78.5 41.5t-53 57t-30.5 63.5h95z" />
    <glyph glyph-name="T" unicode="T" 
d="M589 664v-84h-234v-580h-90v580h-234v84h558z" />
    <glyph glyph-name="U" unicode="U" 
d="M310 71q39 0 68.5 13t49.5 36.5t30 56t10 70.5v417h90v-417q0 -59 -16.5 -106.5t-48.5 -82t-78 -53t-105 -18.5t-105 18.5t-78 53t-48.5 82t-16.5 106.5v417h90v-417q0 -38 10 -70.5t30 -56t49.5 -36.5t68.5 -13z" />
    <glyph glyph-name="V" unicode="V" 
d="M310 114l189 550h92l-234 -664h-95l-233 664h93z" />
    <glyph glyph-name="W" unicode="W" 
d="M103 664l77 -479l81 479h97l82 -478l76 478h83l-106 -664h-96l-88 498l-85 -498h-97l-106 664h82z" />
    <glyph glyph-name="X" unicode="X" 
d="M258 331l-231 333h105l178 -258l180 258h103l-231 -332l231 -332h-105l-179 257l-179 -257h-103z" />
    <glyph glyph-name="Y" unicode="Y" 
d="M506 664h95l-246 -417v-247h-90v247l-246 417h98l194 -328z" />
    <glyph glyph-name="Z" unicode="Z" 
d="M562 577l-390 -493h390v-84h-497v86l389 494h-390v84h498v-87z" />
    <glyph glyph-name="bracketleft" unicode="[" 
d="M290 -82h208v-74h-294v820h294v-74h-208v-672z" />
    <glyph glyph-name="backslash" unicode="\" 
d="M163.056 664h-96.9883l391.952 -744h95.9883z" />
    <glyph glyph-name="bracketright" unicode="]" 
d="M330 590h-208v74h294v-820h-294v74h208v672z" />
    <glyph glyph-name="asciicircum" unicode="^" 
d="M80 314l182 350h96l182 -350h-94l-136 262l-136 -262h-94z" />
    <glyph glyph-name="underscore" unicode="_" 
d="M-18 -36h656v-81h-656v81z" />
    <glyph glyph-name="grave" unicode="`" 
d="M285 719l142 -185h-94l-142 185h94z" />
    <glyph glyph-name="a" unicode="a" 
d="M296 473q53 0 97 -12t75.5 -35t48.5 -56.5t17 -76.5v-293h-86v50q-31 -29 -74 -46t-105 -17q-44 0 -81 9.5t-64 28t-42 47.5t-15 68q0 42 17 70.5t46 46t67.5 25t82.5 7.5h168q0 57 -42.5 80.5t-110.5 23.5q-48 0 -89.5 -17t-57.5 -50h-94q23 71 88.5 109t153.5 38z
M448 214h-169q-60 0 -93 -18t-33 -56t33 -55.5t89 -17.5q81 0 127 32.5t46 84.5v30z" />
    <glyph glyph-name="b" unicode="b" 
d="M162 669v-259q27 29 71 46t96 17q60 0 105.5 -20t77 -54t47.5 -77.5t16 -91.5t-16 -91.5t-47.5 -77.5t-77 -54t-105.5 -20q-52 0 -96 17t-71 46v-50h-86v669h86zM159 230q0 -41 14.5 -72t38 -51t53.5 -30t62 -10q36 0 65.5 13t51 35t33.5 52t12 63t-12 63t-33.5 52
t-51 35t-65.5 13q-32 0 -62 -10t-53.5 -30.5t-38 -51t-14.5 -71.5z" />
    <glyph glyph-name="c" unicode="c" 
d="M459 326q-20 31 -56.5 49t-82.5 18q-38 0 -69 -12.5t-53 -34.5t-34 -52t-12 -64t12 -64t34 -52t53 -34.5t69 -12.5q46 0 82.5 18t56.5 49h93q-27 -67 -88 -107t-144 -40q-54 0 -100.5 18.5t-80.5 50.5t-53.5 76.5t-19.5 97.5q0 52 19.5 97t53.5 77t80.5 50.5t100.5 18.5
q83 0 144 -40t88 -107h-93z" />
    <glyph glyph-name="d" unicode="d" 
d="M544 669v-669h-86v50q-27 -29 -71 -46t-96 -17q-60 0 -105.5 20t-77 54t-47.5 77.5t-16 91.5t16 91.5t47.5 77.5t77 54t105.5 20q52 0 96 -17t71 -46v259h86zM461 230q0 41 -14.5 71.5t-38 51t-53.5 30.5t-62 10q-36 0 -65.5 -13t-51 -35t-33.5 -52t-12 -63t12 -63
t33.5 -52t51 -35t65.5 -13q32 0 62 10t53.5 30t38 51t14.5 72z" />
    <glyph glyph-name="e" unicode="e" 
d="M322 67q47 0 83.5 15.5t56.5 46.5h92q-26 -67 -87.5 -104.5t-144.5 -37.5q-57 0 -105 18t-83 50.5t-54.5 77.5t-19.5 98q0 52 19 96t52.5 76.5t80.5 51t104 18.5q54 0 98.5 -18.5t77 -50.5t50.5 -75.5t18 -92.5v-18t-2 -20h-410q4 -28 18.5 -52t37.5 -41.5t53 -27.5
t65 -10zM316 393q-69 0 -114 -33t-53 -87h322q-9 54 -49 87t-106 33z" />
    <glyph glyph-name="f" unicode="f" 
d="M221 0v384h-134v76h134v61q0 75 43.5 111.5t118.5 36.5h148v-76h-140q-45 0 -64.5 -22.5t-19.5 -67.5v-43h224v-76h-224v-384h-86z" />
    <glyph glyph-name="g" unicode="g" 
d="M544 460v-438q0 -54 -16.5 -98.5t-47 -75.5t-75.5 -48t-102 -17q-38 0 -73.5 10t-66.5 28.5t-54.5 46t-37.5 63.5h94q19 -32 54 -50t84 -18q74 0 114.5 45t40.5 116v26q-27 -29 -71 -46t-96 -17q-60 0 -105.5 20t-77 54t-47.5 77.5t-16 91.5t16 91.5t47.5 77.5t77 54
t105.5 20q52 0 96 -17t71 -46v50h86zM461 230q0 41 -14.5 71.5t-38 51t-53.5 30.5t-62 10q-36 0 -65.5 -13t-51 -35t-33.5 -52t-12 -63t12 -63t33.5 -52t51 -35t65.5 -13q32 0 62 10t53.5 30t38 51t14.5 72z" />
    <glyph glyph-name="h" unicode="h" 
d="M336 473q47 0 85.5 -14t65.5 -40t42 -63.5t15 -84.5v-271h-86v264q0 62 -34 95.5t-96 33.5q-33 0 -61.5 -11.5t-49.5 -32t-33 -49t-12 -61.5v-239h-86v669h86v-259q24 28 65.5 45.5t98.5 17.5z" />
    <glyph glyph-name="i" unicode="i" 
d="M277 384h-204v76h290v-384h204v-76h-494v76h204v308zM255 565v120h121v-120h-121z" />
    <glyph glyph-name="j" unicode="j" 
d="M463 460v-516q0 -75 -43.5 -111.5t-118.5 -36.5h-217v76h209q45 0 64.5 22.5t19.5 67.5v422h-260v76h346zM355 565v120h121v-120h-121z" />
    <glyph glyph-name="k" unicode="k" 
d="M190 669v-409l276 200h119l-311 -230l313 -230h-130l-267 192v-192h-85v669h85z" />
    <glyph glyph-name="l" unicode="l" 
d="M267 593h-194v76h280v-593h204v-76h-494v76h204v517z" />
    <glyph glyph-name="m" unicode="m" 
d="M445 473q66 0 101 -41t35 -101v-331h-86v321q0 31 -15.5 51.5t-47.5 20.5t-54.5 -22t-22.5 -60v-311h-86v321q0 31 -16 51.5t-48 20.5t-54 -21.5t-22 -60.5v-311h-86v460h86v-36q11 16 35 32.5t61 16.5q38 0 61.5 -16.5t36.5 -41.5q20 29 52.5 43.5t69.5 14.5z" />
    <glyph glyph-name="n" unicode="n" 
d="M336 473q47 0 85.5 -14t65.5 -40t42 -63.5t15 -84.5v-271h-86v264q0 62 -34 95.5t-96 33.5q-33 0 -61.5 -11.5t-49.5 -32t-33 -49t-12 -61.5v-239h-86v460h86v-50q24 28 65.5 45.5t98.5 17.5z" />
    <glyph glyph-name="o" unicode="o" 
d="M310 -13q-55 0 -101.5 18.5t-80.5 51t-53 77t-19 96.5t19 96.5t53 77t80.5 51t101.5 18.5t101.5 -18.5t80.5 -51t53 -77t19 -96.5t-19 -96.5t-53 -77t-80.5 -51t-101.5 -18.5zM310 67q37 0 68 13t53 35t34.5 51.5t12.5 63.5t-12.5 64t-34.5 52t-53 34.5t-68 12.5
t-68 -12.5t-53 -34.5t-34.5 -52t-12.5 -64t12.5 -63.5t34.5 -51.5t53 -35t68 -13z" />
    <glyph glyph-name="p" unicode="p" 
d="M76 -204v664h86v-50q27 29 71 46t96 17q60 0 105.5 -20t77 -54t47.5 -77.5t16 -91.5t-16 -91.5t-47.5 -77.5t-77 -54t-105.5 -20q-52 0 -96 17t-71 46v-254h-86zM159 230q0 -41 14.5 -72t38 -51t53.5 -30t62 -10q36 0 65.5 13t51 35t33.5 52t12 63t-12 63t-33.5 52
t-51 35t-65.5 13q-32 0 -62 -10t-53.5 -30.5t-38 -51t-14.5 -71.5z" />
    <glyph glyph-name="q" unicode="q" 
d="M458 -204v254q-27 -29 -71 -46t-96 -17q-60 0 -105.5 20t-77 54t-47.5 77.5t-16 91.5t16 91.5t47.5 77.5t77 54t105.5 20q52 0 96 -17t71 -46v50h86v-664h-86zM461 230q0 41 -14.5 71.5t-38 51t-53.5 30.5t-62 10q-36 0 -65.5 -13t-51 -35t-33.5 -52t-12 -63t12 -63
t33.5 -52t51 -35t65.5 -13q32 0 62 10t53.5 30t38 51t14.5 72z" />
    <glyph glyph-name="r" unicode="r" 
d="M230 460v-65q19 27 59 48t103 21h154v-82h-154q-76 0 -119 -44.5t-43 -116.5v-221h-86v460h86z" />
    <glyph glyph-name="s" unicode="s" 
d="M457 330q-19 33 -59.5 48t-101.5 15q-60 0 -94.5 -17t-34.5 -46t26.5 -41.5t82.5 -16.5l107 -7q77 -5 119 -38t42 -96q0 -30 -15 -56t-43.5 -45.5t-70 -31t-93.5 -11.5q-56 0 -100.5 11.5t-77 32t-53 47t-28.5 56.5h93q33 -67 179 -67q53 0 88.5 16.5t35.5 45.5t-27.5 42
t-84.5 17l-108 8q-158 12 -158 131q0 30 15 57t43 46.5t68 31t90 11.5q56 0 99.5 -12t75 -31.5t51 -45.5t27.5 -54h-93z" />
    <glyph glyph-name="t" unicode="t" 
d="M292 586v-126h224v-76h-224v-218q0 -45 19.5 -67.5t64.5 -22.5h140v-76h-148q-75 0 -118.5 36.5t-43.5 111.5v236h-134v76h134v126h86z" />
    <glyph glyph-name="u" unicode="u" 
d="M284 -13q-47 0 -85 14t-65 40.5t-41.5 63.5t-14.5 84v271h86v-264q0 -61 33.5 -95t94.5 -34q33 0 61 11.5t49 32.5t32.5 49t11.5 61v239h86v-460h-86v50q-24 -28 -64.5 -45.5t-97.5 -17.5z" />
    <glyph glyph-name="v" unicode="v" 
d="M353 0h-87l-233 460h94l185 -363l184 363h92z" />
    <glyph glyph-name="w" unicode="w" 
d="M111 460l79 -337l73 337h95l75 -337l77 337h82l-113 -460h-94l-75 354l-76 -354h-93l-114 460h84z" />
    <glyph glyph-name="x" unicode="x" 
d="M257 230l-205 230h111l150 -169l154 169h105l-207 -227l208 -233h-111l-153 172l-157 -172h-105z" />
    <glyph glyph-name="y" unicode="y" 
d="M34 460h94l185 -363l184 363h92l-248 -485q-27 -52 -45.5 -86.5t-40 -55t-50.5 -29t-76 -8.5h-41v76h23q26 0 44 4t32 14t26.5 27.5t27.5 44.5l23 44z" />
    <glyph glyph-name="z" unicode="z" 
d="M71 0v76l357 308h-357v76h476v-76l-358 -308h367v-76h-485z" />
    <glyph glyph-name="braceleft" unicode="{" 
d="M346 373q0 -23 -6.5 -42t-17.5 -33.5t-25 -25t-28 -17.5q29 -14 53 -43t24 -75v-143q0 -38 19.5 -57t61.5 -19h85v-74h-95q-34 0 -62.5 8.5t-49.5 26.5t-33 45t-12 64v132q0 43 -28.5 68.5t-74.5 30.5v72q46 5 74.5 30.5t28.5 68.5v130q0 37 12 64t33 45t49.5 26.5
t62.5 8.5h95v-74h-85q-42 0 -61.5 -19t-19.5 -57v-141v0z" />
    <glyph glyph-name="bar" unicode="|" 
d="M353 -156h-86v820h86v-820z" />
    <glyph glyph-name="braceright" unicode="}" 
d="M274 373v141q0 38 -19.5 57t-61.5 19h-85v74h95q34 0 62.5 -8.5t49.5 -26.5t33 -45t12 -64v-130q0 -43 28.5 -68.5t74.5 -30.5v-72q-46 -5 -74.5 -30.5t-28.5 -68.5v-132q0 -37 -12 -64t-33 -45t-49.5 -26.5t-62.5 -8.5h-95v74h85q42 0 61.5 19t19.5 57v143q0 46 24 75
t53 43q-14 7 -28 17.5t-25 25t-17.5 33.5t-6.5 42z" />
    <glyph glyph-name="asciitilde" unicode="~" 
d="M401 253q25 0 36 19.5t11 64.5h80q0 -77 -33 -120.5t-93 -43.5q-30 0 -55 13t-47.5 29t-42 29t-37.5 13q-25 0 -36 -19.5t-11 -64.5h-80q0 76 32.5 120t93.5 44q30 0 56 -13t48.5 -29t41.5 -29t36 -13z" />
    <glyph glyph-name="nonbreakingspace" unicode="&#xa0;" 
 />
    <glyph glyph-name="exclamdown" unicode="&#xa1;" 
d="M355 261.024h-90v-464.943h90v464.943zM244 460v-133.983h131v133.983h-131z" />
    <glyph glyph-name="cent" unicode="&#xa2;" 
d="M276 581h86v-111q63 -9 110 -47.5t69 -96.5h-95q-18 31 -49.5 49t-72.5 18q-34 0 -62 -12.5t-48.5 -34.5t-32 -52t-11.5 -64t11.5 -64t32 -52t48.5 -34.5t62 -12.5q41 0 72.5 18t49.5 49h95q-22 -59 -69 -97t-110 -47v-110h-86v112q-42 8 -77.5 29t-61 52t-39.5 71
t-14 86t14 86t39.5 71t61 52t77.5 29v113z" />
    <glyph glyph-name="sterling" unicode="&#xa3;" 
d="M62 84q42 1 64.5 22t22.5 59v127h-88v76h88v109q0 37 13 73t39.5 64t65.5 45.5t90 17.5q41 0 74.5 -13.5t59 -36t42.5 -52t26 -60.5h-92q-14 34 -41 56t-72 22q-57 0 -86 -33t-29 -83v-109h185v-76h-185v-131q0 -22 -6.5 -45t-32.5 -32h359v-84h-497v84z" />
    <glyph glyph-name="currency" unicode="&#xa4;" 
d="M493 105l-69 69q-51 -34 -114 -34q-64 0 -115 34l-70 -70l-60 61l69 70q-16 25 -25 53.5t-9 60.5t9 61t25 54l-70 71l60 60l71 -71q25 17 54 26t61 9t60.5 -9t53.5 -26l70 70l61 -60l-70 -70q16 -25 25 -54t9 -61t-9 -60.5t-25 -53.5l69 -69zM432 349q0 25 -9.5 47.5
t-26 39t-39 26t-47.5 9.5q-26 0 -48 -9.5t-39 -26t-26.5 -39t-9.5 -47.5t9.5 -47.5t26.5 -39t39 -26t48 -9.5q25 0 47.5 9.5t39 26t26 39t9.5 47.5z" />
    <glyph glyph-name="yen" unicode="&#xa5;" 
d="M506 664h95l-149 -252h104v-76h-149l-40 -69h189v-76h-201v-191h-90v191h-201v76h189l-41 69h-148v76h103l-148 252h98l194 -328z" />
    <glyph glyph-name="brokenbar" unicode="&#xa6;" 
d="M353 -156h-86v341h86v-341zM353 323h-86v341h86v-341z" />
    <glyph glyph-name="section" unicode="&#xa7;" 
d="M556 225q0 -48 -31 -83t-92 -55q32 -22 51 -56.5t19 -75.5q0 -43 -16.5 -75t-43.5 -53.5t-61 -32t-69 -10.5q-82 0 -134.5 40.5t-72.5 113.5h92q14 -35 40 -53t72 -18q49 0 76 26t27 58q0 20 -6.5 35.5t-22.5 28t-42.5 22.5t-66.5 20q-50 12 -89 27t-66 36t-41 49.5
t-14 67.5q0 99 123 138q-32 22 -51 56t-19 75q0 43 16.5 75t43.5 53.5t61.5 32t69.5 10.5q81 0 133.5 -41t72.5 -113h-92q-13 34 -39.5 52t-71.5 18q-50 0 -77 -25.5t-27 -57.5q0 -20 6.5 -35.5t22.5 -27.5t42.5 -22t66.5 -20q50 -12 89 -27t66 -36t41 -49.5t14 -67.5z
M329 144q23 0 47 4.5t44 14.5t33 25.5t13 38.5q0 22 -14 39t-37.5 28.5t-55 17.5t-66.5 6q-24 0 -48.5 -4.5t-44.5 -14t-32.5 -25.5t-12.5 -39q0 -22 14 -39t38 -28.5t55.5 -17.5t66.5 -6z" />
    <glyph glyph-name="dieresis" unicode="&#xa8;" 
d="M353 664h96v-99h-96v99zM170 664h96v-99h-96v99z" />
    <glyph glyph-name="copyright" unicode="&#xa9;" 
d="M310 597q55 0 103 -21t84 -57t57 -84t21 -103t-21 -103t-57 -84t-84 -57t-103 -21t-103 21t-84 57t-57 84t-21 103t21 103t57 84t84 57t103 21zM310 118q45 0 84 17t68 46t45.5 68t16.5 83t-16.5 83t-45.5 68t-68 46t-84 17t-84 -17t-68 -46t-45.5 -68t-16.5 -83
t16.5 -83t45.5 -68t68 -46t84 -17zM230 332q0 -41 24.5 -66t61.5 -25q44 0 68 38h65q-20 -43 -54 -68.5t-79 -25.5q-30 0 -56.5 11.5t-46 31t-30.5 46.5t-11 58t11 58t30.5 46.5t46 31t56.5 11.5q45 0 79 -25.5t54 -68.5h-65q-24 38 -68 38q-37 0 -61.5 -25t-24.5 -66z" />
    <glyph glyph-name="ordfeminine" unicode="&#xaa;" 
d="M294 671q75 0 120.5 -32.5t45.5 -95.5v-201h-65v30q-44 -39 -120 -39q-30 0 -56.5 6.5t-46 19t-30.5 32.5t-11 47q0 30 12 50t33 32t49 17.5t59 5.5h111q-1 37 -29.5 52.5t-72.5 15.5q-31 0 -59 -11.5t-39 -33.5h-73q17 51 63.5 78t108.5 27zM395 488h-113
q-40 0 -62.5 -13t-22.5 -37q0 -23 22.5 -34t59.5 -11q54 0 85 21.5t31 53.5v20z" />
    <glyph glyph-name="guillemotleft" unicode="&#xab;" 
d="M553 424l-170 -189l170 -189h-112l-132 146v86l132 146h112zM330 424l-170 -189l170 -189h-112l-132 146v86l132 146h112z" />
    <glyph glyph-name="logicalnot" unicode="&#xac;" 
d="M528 128h-81v168h-354v81h435v-249z" />
    <glyph glyph-name="uni00AD" unicode="&#xad;" 
d="M503 296v-81h-386v81h386z" />
    <glyph glyph-name="registered" unicode="&#xae;" 
d="M310 597q55 0 103 -21t84 -57t57 -84t21 -103t-21 -103t-57 -84t-84 -57t-103 -21t-103 21t-84 57t-57 84t-21 103t21 103t57 84t84 57t103 21zM310 118q45 0 84 17t68 46t45.5 68t16.5 83t-16.5 83t-45.5 68t-68 46t-84 17t-84 -17t-68 -46t-45.5 -68t-16.5 -83
t16.5 -83t45.5 -68t68 -46t84 -17zM333 472q43 0 70 -23t27 -66q0 -36 -19.5 -58t-51.5 -29l80 -104h-72l-78 102h-29v-102h-58v280h131zM260 350h73q17 0 28 8t11 25t-11 25t-28 8h-73v-66z" />
    <glyph glyph-name="macron" unicode="&#xaf;" 
d="M486 639v-74h-351v74h351z" />
    <glyph glyph-name="degree" unicode="&#xb0;" 
d="M310 671q36 0 67.5 -13t54 -35.5t35.5 -53t13 -64.5t-13 -64.5t-35.5 -53t-54 -35.5t-67.5 -13t-67.5 13t-54 35.5t-35.5 53t-13 64.5t13 64.5t35.5 53t54 35.5t67.5 13zM310 414q39 0 64 27t25 64t-25 64.5t-64 27.5t-64 -27.5t-25 -64.5t25 -64t64 -27z" />
    <glyph glyph-name="plusminus" unicode="&#xb1;" 
d="M270 355v144h81v-144h177v-81h-177v-144h-81v144h-177v81h177zM528 81v-81h-435v81h435z" />
    <glyph glyph-name="twosuperior" unicode="&#xb2;" 
d="M436 386v-60h-250v60l138 118q16 14 26.5 28t10.5 31q0 22 -16 35.5t-40 13.5q-23 0 -40.5 -11.5t-23.5 -37.5h-68q9 49 43 79t87 30q57 0 91 -29t34 -79q0 -26 -13 -51t-37 -45l-96 -82h154z" />
    <glyph glyph-name="threesuperior" unicode="&#xb3;" 
d="M246 423q7 -23 25 -33.5t43 -10.5q28 0 44.5 12.5t16.5 32.5t-14.5 31.5t-43.5 11.5h-45v61h44q58 0 58 41q0 20 -16 31.5t-44 11.5q-24 0 -42 -10t-25 -32h-67q10 55 48 78.5t85 23.5q30 0 53.5 -8.5t40 -22.5t25.5 -32.5t9 -39.5q0 -20 -9 -38.5t-31 -32.5
q23 -14 32 -34t9 -40q0 -21 -9 -40t-25.5 -33.5t-40.5 -23t-54 -8.5q-48 0 -85.5 24.5t-47.5 79.5h66z" />
    <glyph glyph-name="acute" unicode="&#xb4;" 
d="M428 719l-142 -185h-94l142 185h94z" />
    <glyph glyph-name="mu" unicode="&#xb5;" 
d="M77 460h86v-264q0 -57 31 -93t97 -36q30 0 58 10.5t49.5 30t35 48.5t13.5 65v239h86v-460h-86v50q-25 -28 -66 -45.5t-97 -17.5q-71 0 -121 31v-222h-86v664z" />
    <glyph glyph-name="paragraph" unicode="&#xb6;" 
d="M451 664h86v-820h-86v820zM269 278h-20q-45 0 -83 13.5t-66.5 38.5t-44.5 60.5t-16 80.5t16 80.5t44.5 60.5t66.5 38.5t83 13.5h106v-820h-86v434z" />
    <glyph glyph-name="periodcentered" unicode="&#xb7;" 
d="M236 204v151h148v-151h-148z" />
    <glyph glyph-name="cedilla" unicode="&#xb8;" 
d="M426 0l-141 -184h-94l142 184h93z" />
    <glyph glyph-name="onesuperior" unicode="&#xb9;" 
d="M210 386h74v202l-74 -64v78l71 63h70v-279h72v-60h-213v60z" />
    <glyph glyph-name="ordmasculine" unicode="&#xba;" 
d="M310 333q-38 0 -70 13t-55.5 35.5t-37 53.5t-13.5 67t13.5 67t37 53.5t55.5 35.5t70 13t70 -13t55.5 -35.5t37 -53.5t13.5 -67t-13.5 -67t-37 -53.5t-55.5 -35.5t-70 -13zM310 393q25 0 45.5 8.5t35.5 23.5t23 34.5t8 42.5q0 46 -31 77.5t-81 31.5t-81 -31.5t-31 -77.5
q0 -23 8 -42.5t23 -34.5t35.5 -23.5t45.5 -8.5z" />
    <glyph glyph-name="guillemotright" unicode="&#xbb;" 
d="M179 424l132 -146v-86l-132 -146h-112l170 189l-170 189h112zM402 424l132 -146v-86l-132 -146h-112l170 189l-170 189h112z" />
    <glyph glyph-name="onequarter" unicode="&#xbc;" 
d="M564 467l-482 -354v85l482 354v-85zM521 195v-71h51v-60h-51v-64h-65v64h-161v58l151 184h77l-150 -182h83v71h65zM115 586l-67 -57v78l66 57h66v-305h-65v227z" />
    <glyph glyph-name="onehalf" unicode="&#xbd;" 
d="M566 60v-60h-230v58l124 104q14 11 23.5 23.5t9.5 26.5q0 18 -13.5 29.5t-33.5 11.5t-35 -10.5t-20 -33.5h-67q8 48 40 76t80 28q52 0 83 -26.5t31 -73.5q0 -23 -11 -46t-34 -42l-81 -65h134zM115 586l-67 -57v78l66 57h66v-305h-65v227zM534 467l-482 -354v85l482 354
v-85z" />
    <glyph glyph-name="threequarters" unicode="&#xbe;" 
d="M570 467l-482 -354v85l482 354v-85zM102 452q5 -20 21 -29.5t37 -9.5q23 0 37.5 10.5t14.5 25.5q0 34 -49 34h-43v61h42q24 0 36.5 9t12.5 23q0 16 -14 25.5t-37 9.5q-20 0 -36 -8.5t-22 -28.5h-65q4 26 15.5 44.5t28 30t37 17t41.5 5.5q54 0 85.5 -28t31.5 -67
q0 -17 -7 -32.5t-24 -29.5q18 -13 25 -30t7 -35q0 -39 -31.5 -67.5t-86.5 -28.5q-22 0 -42 6t-36.5 18t-28 30.5t-15.5 44.5h65zM521 195v-71h51v-60h-51v-64h-65v64h-161v58l151 184h77l-150 -182h83v71h65z" />
    <glyph glyph-name="questiondown" unicode="&#xbf;" 
d="M309 -217q-51 0 -88 14t-62 36.5t-37 52.5t-12 61q0 32 7 55t20 41t31 34t40 34l14 11q18 14 29 25t17 22.5t8 24t2 30.5v37h90v-37q0 -30 -4 -51.5t-14.5 -40.5t-30 -37.5t-50.5 -41.5t-50 -46.5t-19 -55.5q0 -40 31 -62t78 -22q54 0 85.5 25.5t42.5 64.5h93
q-7 -35 -25 -66.5t-46 -55.5t-65.5 -38t-84.5 -14zM389 460v-134h-131v134h131z" />
    <glyph glyph-name="Agrave" unicode="&#xc0;" 
d="M454 154h-289l-56 -154h-92l246 664h95l245 -664h-93zM196 237h228l-114 313zM214 891l142 -166h-94l-142 166h94z" />
    <glyph glyph-name="Aacute" unicode="&#xc1;" 
d="M454 154h-289l-56 -154h-92l246 664h95l245 -664h-93zM196 237h228l-114 313zM502 891l-142 -166h-94l142 166h94z" />
    <glyph glyph-name="Acircumflex" unicode="&#xc2;" 
d="M454 154h-289l-56 -154h-92l246 664h95l245 -664h-93zM196 237h228l-114 313zM264 891h93l150 -166h-94l-102 111l-102 -111h-95z" />
    <glyph glyph-name="Atilde" unicode="&#xc3;" 
d="M454 154h-289l-56 -154h-92l246 664h95l245 -664h-93zM196 237h228l-114 313zM387 800q22 0 32.5 21.5t10.5 68.5h72q0 -77 -30.5 -120.5t-85.5 -43.5q-26 0 -47 14t-39.5 31t-35 31t-32.5 14q-43 0 -43 -90h-72q0 76 30.5 120t85.5 44q26 0 47.5 -14t40.5 -31t35 -31
t31 -14z" />
    <glyph glyph-name="Adieresis" unicode="&#xc4;" 
d="M454 154h-289l-56 -154h-92l246 664h95l245 -664h-93zM196 237h228l-114 313zM354 844h96v-100h-96v100zM171 844h96v-100h-96v100z" />
    <glyph glyph-name="Aring" unicode="&#xc5;" 
d="M454 154h-289l-56 -154h-92l246 664h95l245 -664h-93zM196 237h228l-114 313zM176 845q0 28 10.5 52.5t29 43t43 29t52.5 10.5t52.5 -10.5t43 -29t29 -43t10.5 -52.5t-10.5 -52.5t-29 -43t-43 -29t-52.5 -10.5t-52.5 10.5t-43 29t-29 43t-10.5 52.5zM246 845
q0 -28 18.5 -46.5t46.5 -18.5t46.5 18.5t18.5 46.5t-18.5 46.5t-46.5 18.5t-46.5 -18.5t-18.5 -46.5z" />
    <glyph glyph-name="AE" unicode="&#xc6;" 
d="M401 580v-206h192v-84h-192v-206h199v-84h-289v154h-155l-47 -154h-91l205 664h377v-84h-199zM181 237h130v343h-25z" />
    <glyph glyph-name="Ccedilla" unicode="&#xc7;" 
d="M325 71q51 0 89 24.5t62 69.5h96q-26 -67 -73.5 -111.5t-112.5 -59.5l-136 -178h-94l133 174q-56 7 -100.5 35t-75.5 73t-48 104.5t-17 129.5q0 75 19.5 138.5t56 109.5t87.5 71.5t114 25.5q87 0 151.5 -48.5t95.5 -129.5h-95q-24 45 -62.5 69.5t-89.5 24.5
q-44 0 -78.5 -19t-58.5 -53.5t-37 -82.5t-13 -106t13 -106t37 -82.5t58.5 -53.5t78.5 -19z" />
    <glyph glyph-name="Egrave" unicode="&#xc8;" 
d="M184 580v-206h354v-84h-354v-206h361v-84h-451v664h451v-84h-361zM258 891l142 -166h-94l-142 166h94z" />
    <glyph glyph-name="Eacute" unicode="&#xc9;" 
d="M184 580v-206h354v-84h-354v-206h361v-84h-451v664h451v-84h-361zM495 891l-142 -166h-94l142 166h94z" />
    <glyph glyph-name="Ecircumflex" unicode="&#xca;" 
d="M184 580v-206h354v-84h-354v-206h361v-84h-451v664h451v-84h-361zM275 891h93l150 -166h-94l-102 111l-102 -111h-95z" />
    <glyph glyph-name="Edieresis" unicode="&#xcb;" 
d="M184 580v-206h354v-84h-354v-206h361v-84h-451v664h451v-84h-361zM365 844h96v-100h-96v100zM182 844h96v-100h-96v100z" />
    <glyph glyph-name="Igrave" unicode="&#xcc;" 
d="M533 664v-84h-178v-496h178v-84h-446v84h178v496h-178v84h446zM220 891l142 -166h-94l-142 166h94z" />
    <glyph glyph-name="Iacute" unicode="&#xcd;" 
d="M533 664v-84h-178v-496h178v-84h-446v84h178v496h-178v84h446zM496 891l-142 -166h-94l142 166h94z" />
    <glyph glyph-name="Icircumflex" unicode="&#xce;" 
d="M533 664v-84h-178v-496h178v-84h-446v84h178v496h-178v84h446zM267 891h93l150 -166h-94l-102 111l-102 -111h-95z" />
    <glyph glyph-name="Idieresis" unicode="&#xcf;" 
d="M533 664v-84h-178v-496h178v-84h-446v84h178v496h-178v84h446zM354 844h96v-100h-96v100zM171 844h96v-100h-96v100z" />
    <glyph glyph-name="Eth" unicode="&#xd0;" 
d="M258 664q75 0 133.5 -26.5t98.5 -71.5t61 -105.5t21 -128.5t-21 -128.5t-61 -105.5t-98.5 -71.5t-133.5 -26.5h-166v290h-71v84h71v290h166zM482 332q0 55 -15.5 100.5t-44 78.5t-69.5 51t-93 18h-78v-206h163v-84h-163v-206h78q52 0 93 18t69.5 51t44 78.5t15.5 100.5z
" />
    <glyph glyph-name="Ntilde" unicode="&#xd1;" 
d="M550 664v-664h-100l-290 510v-510h-90v664h100l290 -510v510h90zM387 800q22 0 32.5 21.5t10.5 68.5h72q0 -77 -30.5 -120.5t-85.5 -43.5q-26 0 -47 14t-39.5 31t-35 31t-32.5 14q-43 0 -43 -90h-72q0 76 30.5 120t85.5 44q26 0 47.5 -14t40.5 -31t35 -31t31 -14z" />
    <glyph glyph-name="Ograve" unicode="&#xd2;" 
d="M310 -13q-61 0 -110.5 26t-85 71.5t-54.5 109t-19 138.5t19 138.5t54.5 109t85 71.5t110.5 26t110.5 -26t85 -71.5t54.5 -109t19 -138.5t-19 -138.5t-54.5 -109t-85 -71.5t-110.5 -26zM310 593q-42 0 -75 -19t-56.5 -53.5t-35.5 -82.5t-12 -106t12 -106t35.5 -82.5
t56.5 -53.5t75 -19t75 19t56.5 53.5t35.5 82.5t12 106t-12 106t-35.5 82.5t-56.5 53.5t-75 19zM225 891l142 -166h-94l-142 166h94z" />
    <glyph glyph-name="Oacute" unicode="&#xd3;" 
d="M310 -13q-61 0 -110.5 26t-85 71.5t-54.5 109t-19 138.5t19 138.5t54.5 109t85 71.5t110.5 26t110.5 -26t85 -71.5t54.5 -109t19 -138.5t-19 -138.5t-54.5 -109t-85 -71.5t-110.5 -26zM310 593q-42 0 -75 -19t-56.5 -53.5t-35.5 -82.5t-12 -106t12 -106t35.5 -82.5
t56.5 -53.5t75 -19t75 19t56.5 53.5t35.5 82.5t12 106t-12 106t-35.5 82.5t-56.5 53.5t-75 19zM490 891l-142 -166h-94l142 166h94z" />
    <glyph glyph-name="Ocircumflex" unicode="&#xd4;" 
d="M310 -13q-61 0 -110.5 26t-85 71.5t-54.5 109t-19 138.5t19 138.5t54.5 109t85 71.5t110.5 26t110.5 -26t85 -71.5t54.5 -109t19 -138.5t-19 -138.5t-54.5 -109t-85 -71.5t-110.5 -26zM310 593q-42 0 -75 -19t-56.5 -53.5t-35.5 -82.5t-12 -106t12 -106t35.5 -82.5
t56.5 -53.5t75 -19t75 19t56.5 53.5t35.5 82.5t12 106t-12 106t-35.5 82.5t-56.5 53.5t-75 19zM264 891h93l150 -166h-94l-102 111l-102 -111h-95z" />
    <glyph glyph-name="Otilde" unicode="&#xd5;" 
d="M310 -13q-61 0 -110.5 26t-85 71.5t-54.5 109t-19 138.5t19 138.5t54.5 109t85 71.5t110.5 26t110.5 -26t85 -71.5t54.5 -109t19 -138.5t-19 -138.5t-54.5 -109t-85 -71.5t-110.5 -26zM310 593q-42 0 -75 -19t-56.5 -53.5t-35.5 -82.5t-12 -106t12 -106t35.5 -82.5
t56.5 -53.5t75 -19t75 19t56.5 53.5t35.5 82.5t12 106t-12 106t-35.5 82.5t-56.5 53.5t-75 19zM388 800q22 0 32.5 21.5t10.5 68.5h72q0 -77 -30.5 -120.5t-85.5 -43.5q-26 0 -47 14t-39.5 31t-35 31t-32.5 14q-43 0 -43 -90h-72q0 76 30.5 120t85.5 44q26 0 47.5 -14
t40.5 -31t35 -31t31 -14z" />
    <glyph glyph-name="Odieresis" unicode="&#xd6;" 
d="M310 -13q-61 0 -110.5 26t-85 71.5t-54.5 109t-19 138.5t19 138.5t54.5 109t85 71.5t110.5 26t110.5 -26t85 -71.5t54.5 -109t19 -138.5t-19 -138.5t-54.5 -109t-85 -71.5t-110.5 -26zM310 593q-42 0 -75 -19t-56.5 -53.5t-35.5 -82.5t-12 -106t12 -106t35.5 -82.5
t56.5 -53.5t75 -19t75 19t56.5 53.5t35.5 82.5t12 106t-12 106t-35.5 82.5t-56.5 53.5t-75 19zM354 844h96v-100h-96v100zM171 844h96v-100h-96v100z" />
    <glyph glyph-name="multiply" unicode="&#xd7;" 
d="M309 313l147 146l57 -57l-146 -147l146 -146l-57 -57l-147 146l-146 -146l-57 57l146 146l-146 147l57 57z" />
    <glyph glyph-name="Oslash" unicode="&#xd8;" 
d="M514 567q32 -46 48.5 -105.5t16.5 -129.5q0 -75 -19 -138.5t-54.5 -109t-85 -71.5t-110.5 -26q-85 0 -148 49l-32 -49h-97l72 109q-31 46 -47.5 105.5t-16.5 130.5q0 75 19 138.5t54.5 109t85 71.5t110.5 26q43 0 80 -13t68 -37l33 50h97zM310 593q-42 0 -75 -19
t-56.5 -53.5t-35.5 -82.5t-12 -106q0 -89 28 -154l251 378q-42 37 -100 37zM489 332q0 89 -29 153l-250 -377q42 -37 100 -37q42 0 75 19t56.5 53.5t35.5 82.5t12 106z" />
    <glyph glyph-name="Ugrave" unicode="&#xd9;" 
d="M310 71q39 0 68.5 13t49.5 36.5t30 56t10 70.5v417h90v-417q0 -59 -16.5 -106.5t-48.5 -82t-78 -53t-105 -18.5t-105 18.5t-78 53t-48.5 82t-16.5 106.5v417h90v-417q0 -38 10 -70.5t30 -56t49.5 -36.5t68.5 -13zM226 891l142 -166h-94l-142 166h94z" />
    <glyph glyph-name="Uacute" unicode="&#xda;" 
d="M310 71q39 0 68.5 13t49.5 36.5t30 56t10 70.5v417h90v-417q0 -59 -16.5 -106.5t-48.5 -82t-78 -53t-105 -18.5t-105 18.5t-78 53t-48.5 82t-16.5 106.5v417h90v-417q0 -38 10 -70.5t30 -56t49.5 -36.5t68.5 -13zM483 891l-142 -166h-94l142 166h94z" />
    <glyph glyph-name="Ucircumflex" unicode="&#xdb;" 
d="M310 71q39 0 68.5 13t49.5 36.5t30 56t10 70.5v417h90v-417q0 -59 -16.5 -106.5t-48.5 -82t-78 -53t-105 -18.5t-105 18.5t-78 53t-48.5 82t-16.5 106.5v417h90v-417q0 -38 10 -70.5t30 -56t49.5 -36.5t68.5 -13zM264 891h93l150 -166h-94l-102 111l-102 -111h-95z" />
    <glyph glyph-name="Udieresis" unicode="&#xdc;" 
d="M310 71q39 0 68.5 13t49.5 36.5t30 56t10 70.5v417h90v-417q0 -59 -16.5 -106.5t-48.5 -82t-78 -53t-105 -18.5t-105 18.5t-78 53t-48.5 82t-16.5 106.5v417h90v-417q0 -38 10 -70.5t30 -56t49.5 -36.5t68.5 -13zM354 844h96v-100h-96v100zM171 844h96v-100h-96v100z" />
    <glyph glyph-name="Yacute" unicode="&#xdd;" 
d="M506 664h95l-246 -417v-247h-90v247l-246 417h98l194 -328zM494 891l-142 -166h-94l142 166h94z" />
    <glyph glyph-name="Thorn" unicode="&#xde;" 
d="M571 338q0 -47 -15.5 -83.5t-43.5 -61t-67 -37.5t-86 -13h-186v-143h-90v664h90v-131h186q47 0 86 -13t67 -37.5t43.5 -61t15.5 -83.5zM481 338q0 54 -34 82.5t-88 28.5h-186v-222h186q54 0 88 28.5t34 82.5z" />
    <glyph glyph-name="germandbls" unicode="&#xdf;" 
d="M319 602q-64 0 -105.5 -38.5t-41.5 -116.5v-447h-86v447q0 115 63 175t170 60q53 0 94.5 -15t70 -40.5t43.5 -60t15 -72.5q0 -48 -21 -88.5t-62 -63.5q20 -11 37 -27.5t29 -37t19 -43t7 -44.5q0 -40 -13.5 -74.5t-39 -60t-63.5 -40.5t-86 -15h-54v76h31q68 0 103.5 32
t35.5 81t-36.5 81.5t-102.5 32.5h-31v76h34q66 0 97 30.5t31 80.5q0 46 -36 79t-102 33z" />
    <glyph glyph-name="agrave" unicode="&#xe0;" 
d="M296 473q53 0 97 -12t75.5 -35t48.5 -56.5t17 -76.5v-293h-86v50q-31 -29 -74 -46t-105 -17q-44 0 -81 9.5t-64 28t-42 47.5t-15 68q0 42 17 70.5t46 46t67.5 25t82.5 7.5h168q0 57 -42.5 80.5t-110.5 23.5q-48 0 -89.5 -17t-57.5 -50h-94q23 71 88.5 109t153.5 38z
M448 214h-169q-60 0 -93 -18t-33 -56t33 -55.5t89 -17.5q81 0 127 32.5t46 84.5v30zM248 719l142 -185h-94l-142 185h94z" />
    <glyph glyph-name="aacute" unicode="&#xe1;" 
d="M296 473q53 0 97 -12t75.5 -35t48.5 -56.5t17 -76.5v-293h-86v50q-31 -29 -74 -46t-105 -17q-44 0 -81 9.5t-64 28t-42 47.5t-15 68q0 42 17 70.5t46 46t67.5 25t82.5 7.5h168q0 57 -42.5 80.5t-110.5 23.5q-48 0 -89.5 -17t-57.5 -50h-94q23 71 88.5 109t153.5 38z
M448 214h-169q-60 0 -93 -18t-33 -56t33 -55.5t89 -17.5q81 0 127 32.5t46 84.5v30zM473 719l-142 -185h-94l142 185h94z" />
    <glyph glyph-name="acircumflex" unicode="&#xe2;" 
d="M296 473q53 0 97 -12t75.5 -35t48.5 -56.5t17 -76.5v-293h-86v50q-31 -29 -74 -46t-105 -17q-44 0 -81 9.5t-64 28t-42 47.5t-15 68q0 42 17 70.5t46 46t67.5 25t82.5 7.5h168q0 57 -42.5 80.5t-110.5 23.5q-48 0 -89.5 -17t-57.5 -50h-94q23 71 88.5 109t153.5 38z
M448 214h-169q-60 0 -93 -18t-33 -56t33 -55.5t89 -17.5q81 0 127 32.5t46 84.5v30zM260 719h95l149 -185h-92l-104 124l-104 -124h-93z" />
    <glyph glyph-name="atilde" unicode="&#xe3;" 
d="M296 473q53 0 97 -12t75.5 -35t48.5 -56.5t17 -76.5v-293h-86v50q-31 -29 -74 -46t-105 -17q-44 0 -81 9.5t-64 28t-42 47.5t-15 68q0 42 17 70.5t46 46t67.5 25t82.5 7.5h168q0 57 -42.5 80.5t-110.5 23.5q-48 0 -89.5 -17t-57.5 -50h-94q23 71 88.5 109t153.5 38z
M448 214h-169q-60 0 -93 -18t-33 -56t33 -55.5t89 -17.5q81 0 127 32.5t46 84.5v30zM383 610q22 0 32.5 21.5t10.5 68.5h72q0 -77 -30.5 -120.5t-85.5 -43.5q-26 0 -47 14t-39.5 31t-35 31t-32.5 14q-43 0 -43 -90h-72q0 76 30.5 120t85.5 44q26 0 47.5 -14t40.5 -31t35 -31
t31 -14z" />
    <glyph glyph-name="adieresis" unicode="&#xe4;" 
d="M296 473q53 0 97 -12t75.5 -35t48.5 -56.5t17 -76.5v-293h-86v50q-31 -29 -74 -46t-105 -17q-44 0 -81 9.5t-64 28t-42 47.5t-15 68q0 42 17 70.5t46 46t67.5 25t82.5 7.5h168q0 57 -42.5 80.5t-110.5 23.5q-48 0 -89.5 -17t-57.5 -50h-94q23 71 88.5 109t153.5 38z
M448 214h-169q-60 0 -93 -18t-33 -56t33 -55.5t89 -17.5q81 0 127 32.5t46 84.5v30zM350 664h96v-99h-96v99zM167 664h96v-99h-96v99z" />
    <glyph glyph-name="aring" unicode="&#xe5;" 
d="M296 473q53 0 97 -12t75.5 -35t48.5 -56.5t17 -76.5v-293h-86v50q-31 -29 -74 -46t-105 -17q-44 0 -81 9.5t-64 28t-42 47.5t-15 68q0 42 17 70.5t46 46t67.5 25t82.5 7.5h168q0 57 -42.5 80.5t-110.5 23.5q-48 0 -89.5 -17t-57.5 -50h-94q23 71 88.5 109t153.5 38z
M448 214h-169q-60 0 -93 -18t-33 -56t33 -55.5t89 -17.5q81 0 127 32.5t46 84.5v30zM169 655q0 28 10.5 52.5t29 43t43 29t52.5 10.5t52.5 -10.5t43 -29t29 -43t10.5 -52.5t-10.5 -52.5t-29 -43t-43 -29t-52.5 -10.5t-52.5 10.5t-43 29t-29 43t-10.5 52.5zM239 655
q0 -28 18.5 -46.5t46.5 -18.5t46.5 18.5t18.5 46.5t-18.5 46.5t-46.5 18.5t-46.5 -18.5t-18.5 -46.5z" />
    <glyph glyph-name="ae" unicode="&#xe6;" 
d="M269 272v120q-45 0 -81.5 -18.5t-53.5 -47.5h-98q16 39 44.5 67t64.5 46t77.5 26t83.5 8q61 0 110 -18t83 -50t52.5 -75t18.5 -94v-18t-2 -20h-213v-129q39 2 69 17.5t48 42.5h92q-27 -68 -90 -105t-151 -37h-79q-44 0 -81 8.5t-64 26.5t-42 45t-15 65q0 37 15 63.5
t42 43.5t64 25t81 8h25zM243 197q-51 0 -83 -15t-32 -50q0 -36 31.5 -50.5t83.5 -14.5h26v130h-26zM355 273h126q-6 47 -39.5 79.5t-86.5 37.5v-117z" />
    <glyph glyph-name="ccedilla" unicode="&#xe7;" 
d="M458 326q-20 31 -56 49t-82 18q-38 0 -69 -12.5t-53 -34.5t-34 -52t-12 -64t12 -64t34 -52t53 -34.5t69 -12.5q46 0 82 18t56 49h94q-22 -54 -67 -91t-106 -50l-135 -177h-94l133 173q-47 6 -87 26t-69 52t-45 73.5t-16 89.5q0 52 19.5 97t53.5 77t80.5 50.5t100.5 18.5
q83 0 144 -40t88 -107h-94z" />
    <glyph glyph-name="egrave" unicode="&#xe8;" 
d="M322 67q47 0 83.5 15.5t56.5 46.5h92q-26 -67 -87.5 -104.5t-144.5 -37.5q-57 0 -105 18t-83 50.5t-54.5 77.5t-19.5 98q0 52 19 96t52.5 76.5t80.5 51t104 18.5q54 0 98.5 -18.5t77 -50.5t50.5 -75.5t18 -92.5v-18t-2 -20h-410q4 -28 18.5 -52t37.5 -41.5t53 -27.5
t65 -10zM316 393q-69 0 -114 -33t-53 -87h322q-9 54 -49 87t-106 33zM235 719l142 -185h-94l-142 185h94z" />
    <glyph glyph-name="eacute" unicode="&#xe9;" 
d="M322 67q47 0 83.5 15.5t56.5 46.5h92q-26 -67 -87.5 -104.5t-144.5 -37.5q-57 0 -105 18t-83 50.5t-54.5 77.5t-19.5 98q0 52 19 96t52.5 76.5t80.5 51t104 18.5q54 0 98.5 -18.5t77 -50.5t50.5 -75.5t18 -92.5v-18t-2 -20h-410q4 -28 18.5 -52t37.5 -41.5t53 -27.5
t65 -10zM316 393q-69 0 -114 -33t-53 -87h322q-9 54 -49 87t-106 33zM481 719l-142 -185h-94l142 185h94z" />
    <glyph glyph-name="ecircumflex" unicode="&#xea;" 
d="M322 67q47 0 83.5 15.5t56.5 46.5h92q-26 -67 -87.5 -104.5t-144.5 -37.5q-57 0 -105 18t-83 50.5t-54.5 77.5t-19.5 98q0 52 19 96t52.5 76.5t80.5 51t104 18.5q54 0 98.5 -18.5t77 -50.5t50.5 -75.5t18 -92.5v-18t-2 -20h-410q4 -28 18.5 -52t37.5 -41.5t53 -27.5
t65 -10zM316 393q-69 0 -114 -33t-53 -87h322q-9 54 -49 87t-106 33zM271 719h95l149 -185h-92l-104 124l-104 -124h-93z" />
    <glyph glyph-name="edieresis" unicode="&#xeb;" 
d="M322 67q47 0 83.5 15.5t56.5 46.5h92q-26 -67 -87.5 -104.5t-144.5 -37.5q-57 0 -105 18t-83 50.5t-54.5 77.5t-19.5 98q0 52 19 96t52.5 76.5t80.5 51t104 18.5q54 0 98.5 -18.5t77 -50.5t50.5 -75.5t18 -92.5v-18t-2 -20h-410q4 -28 18.5 -52t37.5 -41.5t53 -27.5
t65 -10zM316 393q-69 0 -114 -33t-53 -87h322q-9 54 -49 87t-106 33zM360 664h96v-99h-96v99zM177 664h96v-99h-96v99z" />
    <glyph glyph-name="igrave" unicode="&#xec;" 
d="M222 719l142 -185h-94l-142 185h94zM277 384h-204v76h290v-384h204v-76h-494v76h204v308z" />
    <glyph glyph-name="iacute" unicode="&#xed;" 
d="M505 719l-142 -185h-94l142 185h94zM277 384h-204v76h290v-384h204v-76h-494v76h204v308z" />
    <glyph glyph-name="icircumflex" unicode="&#xee;" 
d="M277 384h-204v76h290v-384h204v-76h-494v76h204v308zM273 719h95l149 -185h-92l-104 124l-104 -124h-93z" />
    <glyph glyph-name="idieresis" unicode="&#xef;" 
d="M364 664h96v-99h-96v99zM181 664h96v-99h-96v99zM277 384h-204v76h290v-384h204v-76h-494v76h204v308z" />
    <glyph glyph-name="eth" unicode="&#xf0;" 
d="M249 669l49 -53l147 65v-72l-104 -45l132 -149q45 -51 67 -99t22 -99q0 -48 -19 -89.5t-52.5 -73t-79.5 -49.5t-100 -18q-55 0 -101.5 18t-80 49t-52.5 73t-19 90t19 90t52 73.5t78.5 49.5t98.5 18q16 0 24 -1t19 -3l-80 86l-153 -68v74l110 47l-75 86h98zM311 67
q37 0 67 12t52 32t34 47.5t12 58.5t-12 59t-34 48.5t-52 32.5t-67 12t-67.5 -12t-52.5 -32.5t-34.5 -48.5t-12.5 -59t12.5 -58.5t34.5 -47.5t52.5 -32t67.5 -12z" />
    <glyph glyph-name="ntilde" unicode="&#xf1;" 
d="M336 473q47 0 85.5 -14t65.5 -40t42 -63.5t15 -84.5v-271h-86v264q0 62 -34 95.5t-96 33.5q-33 0 -61.5 -11.5t-49.5 -32t-33 -49t-12 -61.5v-239h-86v460h86v-50q24 28 65.5 45.5t98.5 17.5zM388 610q22 0 32.5 21.5t10.5 68.5h72q0 -77 -30.5 -120.5t-85.5 -43.5
q-26 0 -47 14t-39.5 31t-35 31t-32.5 14q-43 0 -43 -90h-72q0 76 30.5 120t85.5 44q26 0 47.5 -14t40.5 -31t35 -31t31 -14z" />
    <glyph glyph-name="ograve" unicode="&#xf2;" 
d="M310 -13q-55 0 -101.5 18.5t-80.5 51t-53 77t-19 96.5t19 96.5t53 77t80.5 51t101.5 18.5t101.5 -18.5t80.5 -51t53 -77t19 -96.5t-19 -96.5t-53 -77t-80.5 -51t-101.5 -18.5zM310 67q37 0 68 13t53 35t34.5 51.5t12.5 63.5t-12.5 64t-34.5 52t-53 34.5t-68 12.5
t-68 -12.5t-53 -34.5t-34.5 -52t-12.5 -64t12.5 -63.5t34.5 -51.5t53 -35t68 -13zM227 719l142 -185h-94l-142 185h94z" />
    <glyph glyph-name="oacute" unicode="&#xf3;" 
d="M310 -13q-55 0 -101.5 18.5t-80.5 51t-53 77t-19 96.5t19 96.5t53 77t80.5 51t101.5 18.5t101.5 -18.5t80.5 -51t53 -77t19 -96.5t-19 -96.5t-53 -77t-80.5 -51t-101.5 -18.5zM310 67q37 0 68 13t53 35t34.5 51.5t12.5 63.5t-12.5 64t-34.5 52t-53 34.5t-68 12.5
t-68 -12.5t-53 -34.5t-34.5 -52t-12.5 -64t12.5 -63.5t34.5 -51.5t53 -35t68 -13zM488 719l-142 -185h-94l142 185h94z" />
    <glyph glyph-name="ocircumflex" unicode="&#xf4;" 
d="M310 -13q-55 0 -101.5 18.5t-80.5 51t-53 77t-19 96.5t19 96.5t53 77t80.5 51t101.5 18.5t101.5 -18.5t80.5 -51t53 -77t19 -96.5t-19 -96.5t-53 -77t-80.5 -51t-101.5 -18.5zM310 67q37 0 68 13t53 35t34.5 51.5t12.5 63.5t-12.5 64t-34.5 52t-53 34.5t-68 12.5
t-68 -12.5t-53 -34.5t-34.5 -52t-12.5 -64t12.5 -63.5t34.5 -51.5t53 -35t68 -13zM263 719h95l149 -185h-92l-104 124l-104 -124h-93z" />
    <glyph glyph-name="otilde" unicode="&#xf5;" 
d="M310 -13q-55 0 -101.5 18.5t-80.5 51t-53 77t-19 96.5t19 96.5t53 77t80.5 51t101.5 18.5t101.5 -18.5t80.5 -51t53 -77t19 -96.5t-19 -96.5t-53 -77t-80.5 -51t-101.5 -18.5zM310 67q37 0 68 13t53 35t34.5 51.5t12.5 63.5t-12.5 64t-34.5 52t-53 34.5t-68 12.5
t-68 -12.5t-53 -34.5t-34.5 -52t-12.5 -64t12.5 -63.5t34.5 -51.5t53 -35t68 -13zM388 610q22 0 32.5 21.5t10.5 68.5h72q0 -77 -30.5 -120.5t-85.5 -43.5q-26 0 -47 14t-39.5 31t-35 31t-32.5 14q-43 0 -43 -90h-72q0 76 30.5 120t85.5 44q26 0 47.5 -14t40.5 -31t35 -31
t31 -14z" />
    <glyph glyph-name="odieresis" unicode="&#xf6;" 
d="M310 -13q-55 0 -101.5 18.5t-80.5 51t-53 77t-19 96.5t19 96.5t53 77t80.5 51t101.5 18.5t101.5 -18.5t80.5 -51t53 -77t19 -96.5t-19 -96.5t-53 -77t-80.5 -51t-101.5 -18.5zM310 67q37 0 68 13t53 35t34.5 51.5t12.5 63.5t-12.5 64t-34.5 52t-53 34.5t-68 12.5
t-68 -12.5t-53 -34.5t-34.5 -52t-12.5 -64t12.5 -63.5t34.5 -51.5t53 -35t68 -13zM353 664h96v-99h-96v99zM170 664h96v-99h-96v99z" />
    <glyph glyph-name="divide" unicode="&#xf7;" 
d="M522 296v-81h-435v81h435zM249 463h111v-111h-111v111zM249 159h111v-111h-111v111z" />
    <glyph glyph-name="oslash" unicode="&#xf8;" 
d="M310 -13q-38 0 -71.5 9t-62.5 25l-29 -34h-101l71 81q-29 32 -45 73t-16 89q0 52 19 96.5t53 77t80.5 51t101.5 18.5q74 0 133 -34l30 34h101l-71 -81q29 -32 45 -73t16 -89q0 -52 -19 -96.5t-53 -77t-80.5 -51t-101.5 -18.5zM310 67q37 0 68 13t53 35t34.5 51.5
t12.5 63.5q0 28 -8.5 53t-23.5 45l-214 -244q36 -17 78 -17zM142 230q0 -56 31 -98l215 244q-36 17 -78 17q-37 0 -68 -12.5t-53 -34.5t-34.5 -52t-12.5 -64z" />
    <glyph glyph-name="ugrave" unicode="&#xf9;" 
d="M284 -13q-47 0 -85 14t-65 40.5t-41.5 63.5t-14.5 84v271h86v-264q0 -61 33.5 -95t94.5 -34q33 0 61 11.5t49 32.5t32.5 49t11.5 61v239h86v-460h-86v50q-24 -28 -64.5 -45.5t-97.5 -17.5zM217 719l142 -185h-94l-142 185h94z" />
    <glyph glyph-name="uacute" unicode="&#xfa;" 
d="M284 -13q-47 0 -85 14t-65 40.5t-41.5 63.5t-14.5 84v271h86v-264q0 -61 33.5 -95t94.5 -34q33 0 61 11.5t49 32.5t32.5 49t11.5 61v239h86v-460h-86v50q-24 -28 -64.5 -45.5t-97.5 -17.5zM492 719l-142 -185h-94l142 185h94z" />
    <glyph glyph-name="ucircumflex" unicode="&#xfb;" 
d="M284 -13q-47 0 -85 14t-65 40.5t-41.5 63.5t-14.5 84v271h86v-264q0 -61 33.5 -95t94.5 -34q33 0 61 11.5t49 32.5t32.5 49t11.5 61v239h86v-460h-86v50q-24 -28 -64.5 -45.5t-97.5 -17.5zM259 719h95l149 -185h-92l-104 124l-104 -124h-93z" />
    <glyph glyph-name="udieresis" unicode="&#xfc;" 
d="M284 -13q-47 0 -85 14t-65 40.5t-41.5 63.5t-14.5 84v271h86v-264q0 -61 33.5 -95t94.5 -34q33 0 61 11.5t49 32.5t32.5 49t11.5 61v239h86v-460h-86v50q-24 -28 -64.5 -45.5t-97.5 -17.5zM350 664h96v-99h-96v99zM167 664h96v-99h-96v99z" />
    <glyph glyph-name="yacute" unicode="&#xfd;" 
d="M34 460h94l185 -363l184 363h92l-248 -485q-27 -52 -45.5 -86.5t-40 -55t-50.5 -29t-76 -8.5h-41v76h23q26 0 44 4t32 14t26.5 27.5t27.5 44.5l23 44zM492 719l-142 -185h-94l142 185h94z" />
    <glyph glyph-name="thorn" unicode="&#xfe;" 
d="M76 -204v868h86v-254q27 29 71 46t96 17q60 0 105.5 -20t77 -54t47.5 -77.5t16 -91.5t-16 -91.5t-47.5 -77.5t-77 -54t-105.5 -20q-52 0 -96 17t-71 46v-254h-86zM159 230q0 -41 14.5 -72t38 -51t53.5 -30t62 -10q36 0 65.5 13t51 35t33.5 52t12 63t-12 63t-33.5 52
t-51 35t-65.5 13q-32 0 -62 -10t-53.5 -30.5t-38 -51t-14.5 -71.5z" />
    <glyph glyph-name="ydieresis" unicode="&#xff;" 
d="M34 460h94l185 -363l184 363h92l-248 -485q-27 -52 -45.5 -86.5t-40 -55t-50.5 -29t-76 -8.5h-41v76h23q26 0 44 4t32 14t26.5 27.5t27.5 44.5l23 44zM354 664h96v-99h-96v99zM171 664h96v-99h-96v99z" />
    <glyph glyph-name="Amacron" unicode="&#x100;" 
d="M454 154h-289l-56 -154h-92l246 664h95l245 -664h-93zM196 237h228l-114 313zM486 818v-74h-351v74h351z" />
    <glyph glyph-name="amacron" unicode="&#x101;" 
d="M296 473q53 0 97 -12t75.5 -35t48.5 -56.5t17 -76.5v-293h-86v50q-31 -29 -74 -46t-105 -17q-44 0 -81 9.5t-64 28t-42 47.5t-15 68q0 42 17 70.5t46 46t67.5 25t82.5 7.5h168q0 57 -42.5 80.5t-110.5 23.5q-48 0 -89.5 -17t-57.5 -50h-94q23 71 88.5 109t153.5 38z
M448 214h-169q-60 0 -93 -18t-33 -56t33 -55.5t89 -17.5q81 0 127 32.5t46 84.5v30zM481 639v-74h-351v74h351z" />
    <glyph glyph-name="Abreve" unicode="&#x102;" 
d="M454 154h-289l-56 -154h-92l246 664h95l245 -664h-93zM196 237h228l-114 313zM311 726q-37 0 -69.5 12.5t-57.5 34.5t-41 52t-20 66h77q8 -38 38.5 -64.5t72.5 -26.5q41 0 71.5 26.5t38.5 64.5h77q-4 -36 -20 -66t-41 -52t-57 -34.5t-69 -12.5z" />
    <glyph glyph-name="abreve" unicode="&#x103;" 
d="M296 473q53 0 97 -12t75.5 -35t48.5 -56.5t17 -76.5v-293h-86v50q-31 -29 -74 -46t-105 -17q-44 0 -81 9.5t-64 28t-42 47.5t-15 68q0 42 17 70.5t46 46t67.5 25t82.5 7.5h168q0 57 -42.5 80.5t-110.5 23.5q-48 0 -89.5 -17t-57.5 -50h-94q23 71 88.5 109t153.5 38z
M448 214h-169q-60 0 -93 -18t-33 -56t33 -55.5t89 -17.5q81 0 127 32.5t46 84.5v30zM305 608q22 0 41 9.5t33 25t22.5 35.5t10.5 41h75q-3 -37 -17.5 -70.5t-38.5 -59t-56 -40.5t-70 -15t-70 15t-56 40.5t-38.5 59t-17.5 70.5h75q2 -21 10.5 -41t22.5 -35.5t32.5 -25
t41.5 -9.5z" />
    <glyph glyph-name="Aogonek" unicode="&#x104;" 
d="M454 154h-289l-56 -154h-92l246 664h95l245 -664q-14 -9 -30 -21t-30 -25t-23.5 -26.5t-9.5 -25.5q0 -33 49 -33h44v-73h-48q-125 0 -125 88q0 32 23 61t57 55zM196 237h228l-114 313z" />
    <glyph glyph-name="aogonek" unicode="&#x105;" 
d="M296 473q53 0 97 -12t75.5 -35t48.5 -56.5t17 -76.5v-293q-14 -9 -30 -21t-30 -25t-23.5 -26.5t-9.5 -25.5q0 -33 49 -33h44v-73h-48q-125 0 -125 88q0 32 25 61t62 55v50q-31 -29 -74 -46t-105 -17q-44 0 -81 9.5t-64 28t-42 47.5t-15 68q0 42 17 70.5t46 46t67.5 25
t82.5 7.5h168q0 57 -42.5 80.5t-110.5 23.5q-48 0 -89 -17t-57 -50h-95q23 71 88.5 109t153.5 38zM448 214h-169q-60 0 -93 -18t-33 -56t33 -55.5t89 -17.5q81 0 127 32.5t46 84.5v30z" />
    <glyph glyph-name="Cacute" unicode="&#x106;" 
d="M325 71q51 0 89.5 24.5t62.5 69.5h95q-31 -82 -95.5 -130t-151.5 -48q-63 0 -114 25.5t-87.5 71.5t-56 109.5t-19.5 138.5t19.5 138.5t56 109.5t87.5 71.5t114 25.5q87 0 151.5 -48.5t95.5 -129.5h-95q-24 45 -62.5 69.5t-89.5 24.5q-44 0 -78.5 -19t-58.5 -53.5
t-37 -82.5t-13 -106t13 -106t37 -82.5t58.5 -53.5t78.5 -19zM507 891l-142 -166h-94l142 166h94z" />
    <glyph glyph-name="cacute" unicode="&#x107;" 
d="M459 326q-20 31 -56.5 49t-82.5 18q-38 0 -69 -12.5t-53 -34.5t-34 -52t-12 -64t12 -64t34 -52t53 -34.5t69 -12.5q46 0 82.5 18t56.5 49h93q-27 -67 -88 -107t-144 -40q-54 0 -100.5 18.5t-80.5 50.5t-53.5 76.5t-19.5 97.5q0 52 19.5 97t53.5 77t80.5 50.5t100.5 18.5
q83 0 144 -40t88 -107h-93zM494 719l-142 -185h-94l142 185h94z" />
    <glyph glyph-name="Ccircumflex" unicode="&#x108;" 
d="M325 71q51 0 89.5 24.5t62.5 69.5h95q-31 -82 -95.5 -130t-151.5 -48q-63 0 -114 25.5t-87.5 71.5t-56 109.5t-19.5 138.5t19.5 138.5t56 109.5t87.5 71.5t114 25.5q87 0 151.5 -48.5t95.5 -129.5h-95q-24 45 -62.5 69.5t-89.5 24.5q-44 0 -78.5 -19t-58.5 -53.5
t-37 -82.5t-13 -106t13 -106t37 -82.5t58.5 -53.5t78.5 -19zM284 891h93l150 -166h-94l-102 111l-102 -111h-95z" />
    <glyph glyph-name="ccircumflex" unicode="&#x109;" 
d="M459 326q-20 31 -56.5 49t-82.5 18q-38 0 -69 -12.5t-53 -34.5t-34 -52t-12 -64t12 -64t34 -52t53 -34.5t69 -12.5q46 0 82.5 18t56.5 49h93q-27 -67 -88 -107t-144 -40q-54 0 -100.5 18.5t-80.5 50.5t-53.5 76.5t-19.5 97.5q0 52 19.5 97t53.5 77t80.5 50.5t100.5 18.5
q83 0 144 -40t88 -107h-93zM277 719h95l149 -185h-92l-104 124l-104 -124h-93z" />
    <glyph glyph-name="Cdotaccent" unicode="&#x10a;" 
d="M325 71q51 0 89.5 24.5t62.5 69.5h95q-31 -82 -95.5 -130t-151.5 -48q-63 0 -114 25.5t-87.5 71.5t-56 109.5t-19.5 138.5t19.5 138.5t56 109.5t87.5 71.5t114 25.5q87 0 151.5 -48.5t95.5 -129.5h-95q-24 45 -62.5 69.5t-89.5 24.5q-44 0 -78.5 -19t-58.5 -53.5
t-37 -82.5t-13 -106t13 -106t37 -82.5t58.5 -53.5t78.5 -19zM282 854h96v-100h-96v100z" />
    <glyph glyph-name="cdotaccent" unicode="&#x10b;" 
d="M459 326q-20 31 -56.5 49t-82.5 18q-38 0 -69 -12.5t-53 -34.5t-34 -52t-12 -64t12 -64t34 -52t53 -34.5t69 -12.5q46 0 82.5 18t56.5 49h93q-27 -67 -88 -107t-144 -40q-54 0 -100.5 18.5t-80.5 50.5t-53.5 76.5t-19.5 97.5q0 52 19.5 97t53.5 77t80.5 50.5t100.5 18.5
q83 0 144 -40t88 -107h-93zM270 669h100v-104h-100v104z" />
    <glyph glyph-name="Ccaron" unicode="&#x10c;" 
d="M325 71q51 0 89.5 24.5t62.5 69.5h95q-31 -82 -95.5 -130t-151.5 -48q-63 0 -114 25.5t-87.5 71.5t-56 109.5t-19.5 138.5t19.5 138.5t56 109.5t87.5 71.5t114 25.5q87 0 151.5 -48.5t95.5 -129.5h-95q-24 45 -62.5 69.5t-89.5 24.5q-44 0 -78.5 -19t-58.5 -53.5
t-37 -82.5t-13 -106t13 -106t37 -82.5t58.5 -53.5t78.5 -19zM382 725h-101l-146 166h94l102 -114l102 114h95z" />
    <glyph glyph-name="ccaron" unicode="&#x10d;" 
d="M459 326q-20 31 -56.5 49t-82.5 18q-38 0 -69 -12.5t-53 -34.5t-34 -52t-12 -64t12 -64t34 -52t53 -34.5t69 -12.5q46 0 82.5 18t56.5 49h93q-27 -67 -88 -107t-144 -40q-54 0 -100.5 18.5t-80.5 50.5t-53.5 76.5t-19.5 97.5q0 52 19.5 97t53.5 77t80.5 50.5t100.5 18.5
q83 0 144 -40t88 -107h-93zM114 719h93l104 -124l104 124h92l-149 -185h-95z" />
    <glyph glyph-name="Dcaron" unicode="&#x10e;" 
d="M258 664q75 0 133.5 -26.5t98.5 -71.5t61 -105.5t21 -128.5t-21 -128.5t-61 -105.5t-98.5 -71.5t-133.5 -26.5h-173v664h173zM482 332q0 55 -15.5 100.5t-44 78.5t-69.5 51t-93 18h-85v-496h85q52 0 93 18t69.5 51t44 78.5t15.5 100.5zM360 725h-101l-146 166h94
l102 -114l102 114h95z" />
    <glyph glyph-name="dcaron" unicode="&#x10f;" 
d="M539 455l51 108h-51v101h101v-109l-46 -100h-55zM482 669v-669h-84v47q-26 -29 -64.5 -44.5t-87.5 -15.5q-56 0 -99 20t-72 54t-44.5 77.5t-15.5 91.5t15.5 91.5t44.5 77.5t72 54t99 20q49 0 87.5 -15.5t64.5 -44.5v256h84zM401 229q0 42 -13 72.5t-34.5 51t-49 30.5
t-55.5 10q-32 0 -59 -13t-46.5 -35.5t-31 -52t-11.5 -63.5q0 -33 11.5 -63t31 -52t46.5 -35t59 -13q28 0 55.5 10t49 30t34.5 51t13 72z" />
    <glyph glyph-name="Dcroat" unicode="&#x110;" 
d="M258 664q75 0 133.5 -26.5t98.5 -71.5t61 -105.5t21 -128.5t-21 -128.5t-61 -105.5t-98.5 -71.5t-133.5 -26.5h-166v290h-71v84h71v290h166zM482 332q0 55 -15.5 100.5t-44 78.5t-69.5 51t-93 18h-78v-206h163v-84h-163v-206h78q52 0 93 18t69.5 51t44 78.5t15.5 100.5z
" />
    <glyph glyph-name="dcroat" unicode="&#x111;" 
d="M538 669v-67h74v-76h-74v-526h-86v50q-27 -29 -71 -46t-96 -17q-60 0 -105.5 20t-77 54t-47.5 77.5t-16 91.5t16 91.5t47.5 77.5t77 54t105.5 20q52 0 96 -17t71 -46v116h-165v76h165v67h86zM455 230q0 41 -14.5 71.5t-38 51t-53.5 30.5t-62 10q-36 0 -65.5 -13t-51 -35
t-33.5 -52t-12 -63t12 -63t33.5 -52t51 -35t65.5 -13q32 0 62 10t53.5 30t38 51t14.5 72z" />
    <glyph glyph-name="Emacron" unicode="&#x112;" 
d="M184 580v-206h354v-84h-354v-206h361v-84h-451v664h451v-84h-361zM497 818v-74h-351v74h351z" />
    <glyph glyph-name="emacron" unicode="&#x113;" 
d="M322 67q47 0 83.5 15.5t56.5 46.5h92q-26 -67 -87.5 -104.5t-144.5 -37.5q-57 0 -105 18t-83 50.5t-54.5 77.5t-19.5 98q0 52 19 96t52.5 76.5t80.5 51t104 18.5q54 0 98.5 -18.5t77 -50.5t50.5 -75.5t18 -92.5v-18t-2 -20h-410q4 -28 18.5 -52t37.5 -41.5t53 -27.5
t65 -10zM316 393q-69 0 -114 -33t-53 -87h322q-9 54 -49 87t-106 33zM492 639v-74h-351v74h351z" />
    <glyph glyph-name="Ebreve" unicode="&#x114;" 
d="M184 580v-206h354v-84h-354v-206h361v-84h-451v664h451v-84h-361zM325 726q-37 0 -69.5 12.5t-57.5 34.5t-41 52t-20 66h77q8 -38 38.5 -64.5t72.5 -26.5q41 0 71.5 26.5t38.5 64.5h77q-4 -36 -20 -66t-41 -52t-57 -34.5t-69 -12.5z" />
    <glyph glyph-name="ebreve" unicode="&#x115;" 
d="M322 67q47 0 83.5 15.5t56.5 46.5h92q-26 -67 -87.5 -104.5t-144.5 -37.5q-57 0 -105 18t-83 50.5t-54.5 77.5t-19.5 98q0 52 19 96t52.5 76.5t80.5 51t104 18.5q54 0 98.5 -18.5t77 -50.5t50.5 -75.5t18 -92.5v-18t-2 -20h-410q4 -28 18.5 -52t37.5 -41.5t53 -27.5
t65 -10zM316 393q-69 0 -114 -33t-53 -87h322q-9 54 -49 87t-106 33zM316 608q22 0 41 9.5t33 25t22.5 35.5t10.5 41h75q-3 -37 -17.5 -70.5t-38.5 -59t-56 -40.5t-70 -15t-70 15t-56 40.5t-38.5 59t-17.5 70.5h75q2 -21 10.5 -41t22.5 -35.5t32.5 -25t41.5 -9.5z" />
    <glyph glyph-name="Edotaccent" unicode="&#x116;" 
d="M184 580v-206h354v-84h-354v-206h361v-84h-451v664h451v-84h-361zM282 854h96v-100h-96v100z" />
    <glyph glyph-name="edotaccent" unicode="&#x117;" 
d="M322 67q47 0 83.5 15.5t56.5 46.5h92q-26 -67 -87.5 -104.5t-144.5 -37.5q-57 0 -105 18t-83 50.5t-54.5 77.5t-19.5 98q0 52 19 96t52.5 76.5t80.5 51t104 18.5q54 0 98.5 -18.5t77 -50.5t50.5 -75.5t18 -92.5v-18t-2 -20h-410q4 -28 18.5 -52t37.5 -41.5t53 -27.5
t65 -10zM316 393q-69 0 -114 -33t-53 -87h322q-9 54 -49 87t-106 33zM267 669h100v-104h-100v104z" />
    <glyph glyph-name="Eogonek" unicode="&#x118;" 
d="M94 0v664h451v-84h-361v-206h354v-84h-354v-206h361v-84q-14 -9 -30 -21t-30 -25t-23.5 -26.5t-9.5 -25.5q0 -33 49 -33h44v-73h-48q-125 0 -125 88q0 32 25 61t62 55h-365z" />
    <glyph glyph-name="eogonek" unicode="&#x119;" 
d="M322 67q47 0 83 15.5t56 46.5h93q-17 -40 -45 -69t-65 -51q-20 -12 -39.5 -25.5t-36 -27.5t-26.5 -28t-10 -26q0 -33 49 -33h44v-73h-48q-125 0 -125 88q0 28 19.5 54t49.5 49q-57 0 -104.5 18t-82.5 50.5t-54.5 77.5t-19.5 98q0 52 19 96t52.5 76.5t80.5 51t104 18.5
q54 0 98.5 -18.5t77 -50.5t50.5 -75.5t18 -92.5v-18t-2 -20h-410q4 -28 18.5 -52t37.5 -41.5t53 -27.5t65 -10zM316 393q-69 0 -114 -33t-53 -87h322q-9 54 -49 87t-106 33z" />
    <glyph glyph-name="Ecaron" unicode="&#x11a;" 
d="M184 580v-206h354v-84h-354v-206h361v-84h-451v664h451v-84h-361zM372 725h-101l-146 166h94l102 -114l102 114h95z" />
    <glyph glyph-name="ecaron" unicode="&#x11b;" 
d="M322 67q47 0 83.5 15.5t56.5 46.5h92q-26 -67 -87.5 -104.5t-144.5 -37.5q-57 0 -105 18t-83 50.5t-54.5 77.5t-19.5 98q0 52 19 96t52.5 76.5t80.5 51t104 18.5q54 0 98.5 -18.5t77 -50.5t50.5 -75.5t18 -92.5v-18t-2 -20h-410q4 -28 18.5 -52t37.5 -41.5t53 -27.5
t65 -10zM316 393q-69 0 -114 -33t-53 -87h322q-9 54 -49 87t-106 33zM114 719h93l104 -124l104 124h92l-149 -185h-95z" />
    <glyph glyph-name="Gcircumflex" unicode="&#x11c;" 
d="M312 71q72 0 115 51t54 139h-184v84h279q0 -80 -18 -146t-52.5 -113t-83.5 -73t-110 -26t-111 26t-85.5 71.5t-55 109t-19.5 138.5t19.5 138.5t55 109t85.5 71.5t111 26q85 0 147 -48.5t92 -129.5h-95q-23 45 -58.5 69.5t-85.5 24.5q-42 0 -75.5 -19t-57 -53.5t-36 -82.5
t-12.5 -106t12.5 -106t36 -82.5t57 -53.5t75.5 -19zM264 891h93l150 -166h-94l-102 111l-102 -111h-95z" />
    <glyph glyph-name="gcircumflex" unicode="&#x11d;" 
d="M544 460v-438q0 -54 -16.5 -98.5t-47 -75.5t-75.5 -48t-102 -17q-38 0 -73.5 10t-66.5 28.5t-54.5 46t-37.5 63.5h94q19 -32 54 -50t84 -18q74 0 114.5 45t40.5 116v26q-27 -29 -71 -46t-96 -17q-60 0 -105.5 20t-77 54t-47.5 77.5t-16 91.5t16 91.5t47.5 77.5t77 54
t105.5 20q52 0 96 -17t71 -46v50h86zM461 230q0 41 -14.5 71.5t-38 51t-53.5 30.5t-62 10q-36 0 -65.5 -13t-51 -35t-33.5 -52t-12 -63t12 -63t33.5 -52t51 -35t65.5 -13q32 0 62 10t53.5 30t38 51t14.5 72zM254 719h95l149 -185h-92l-104 124l-104 -124h-93z" />
    <glyph glyph-name="Gbreve" unicode="&#x11e;" 
d="M312 71q72 0 115 51t54 139h-184v84h279q0 -80 -18 -146t-52.5 -113t-83.5 -73t-110 -26t-111 26t-85.5 71.5t-55 109t-19.5 138.5t19.5 138.5t55 109t85.5 71.5t111 26q85 0 147 -48.5t92 -129.5h-95q-23 45 -58.5 69.5t-85.5 24.5q-42 0 -75.5 -19t-57 -53.5t-36 -82.5
t-12.5 -106t12.5 -106t36 -82.5t57 -53.5t75.5 -19zM311 726q-37 0 -69.5 12.5t-57.5 34.5t-41 52t-20 66h77q8 -38 38.5 -64.5t72.5 -26.5q41 0 71.5 26.5t38.5 64.5h77q-4 -36 -20 -66t-41 -52t-57 -34.5t-69 -12.5z" />
    <glyph glyph-name="gbreve" unicode="&#x11f;" 
d="M544 460v-438q0 -54 -16.5 -98.5t-47 -75.5t-75.5 -48t-102 -17q-38 0 -73.5 10t-66.5 28.5t-54.5 46t-37.5 63.5h94q19 -32 54 -50t84 -18q74 0 114.5 45t40.5 116v26q-27 -29 -71 -46t-96 -17q-60 0 -105.5 20t-77 54t-47.5 77.5t-16 91.5t16 91.5t47.5 77.5t77 54
t105.5 20q52 0 96 -17t71 -46v50h86zM461 230q0 41 -14.5 71.5t-38 51t-53.5 30.5t-62 10q-36 0 -65.5 -13t-51 -35t-33.5 -52t-12 -63t12 -63t33.5 -52t51 -35t65.5 -13q32 0 62 10t53.5 30t38 51t14.5 72zM298 608q22 0 41 9.5t33 25t22.5 35.5t10.5 41h75
q-3 -37 -17.5 -70.5t-38.5 -59t-56 -40.5t-70 -15t-70 15t-56 40.5t-38.5 59t-17.5 70.5h75q2 -21 10.5 -41t22.5 -35.5t32.5 -25t41.5 -9.5z" />
    <glyph glyph-name="Gdotaccent" unicode="&#x120;" 
d="M312 71q72 0 115 51t54 139h-184v84h279q0 -80 -18 -146t-52.5 -113t-83.5 -73t-110 -26t-111 26t-85.5 71.5t-55 109t-19.5 138.5t19.5 138.5t55 109t85.5 71.5t111 26q85 0 147 -48.5t92 -129.5h-95q-23 45 -58.5 69.5t-85.5 24.5q-42 0 -75.5 -19t-57 -53.5t-36 -82.5
t-12.5 -106t12.5 -106t36 -82.5t57 -53.5t75.5 -19zM262 854h96v-100h-96v100z" />
    <glyph glyph-name="gdotaccent" unicode="&#x121;" 
d="M544 460v-438q0 -54 -16.5 -98.5t-47 -75.5t-75.5 -48t-102 -17q-38 0 -73.5 10t-66.5 28.5t-54.5 46t-37.5 63.5h94q19 -32 54 -50t84 -18q74 0 114.5 45t40.5 116v26q-27 -29 -71 -46t-96 -17q-60 0 -105.5 20t-77 54t-47.5 77.5t-16 91.5t16 91.5t47.5 77.5t77 54
t105.5 20q52 0 96 -17t71 -46v50h86zM461 230q0 41 -14.5 71.5t-38 51t-53.5 30.5t-62 10q-36 0 -65.5 -13t-51 -35t-33.5 -52t-12 -63t12 -63t33.5 -52t51 -35t65.5 -13q32 0 62 10t53.5 30t38 51t14.5 72zM252 669h100v-104h-100v104z" />
    <glyph glyph-name="uni0122" unicode="&#x122;" 
d="M312 71q72 0 115 51t54 139h-184v84h279q0 -80 -18 -146t-52.5 -113t-83.5 -73t-110 -26t-111 26t-85.5 71.5t-55 109t-19.5 138.5t19.5 138.5t55 109t85.5 71.5t111 26q85 0 147 -48.5t92 -129.5h-95q-23 45 -58.5 69.5t-85.5 24.5q-42 0 -75.5 -19t-57 -53.5t-36 -82.5
t-12.5 -106t12.5 -106t36 -82.5t57 -53.5t75.5 -19zM257 -251l57 95h-56v101h111v-111l-52 -85h-60z" />
    <glyph glyph-name="uni0123" unicode="&#x123;" 
d="M544 460v-438q0 -54 -16.5 -98.5t-47 -75.5t-75.5 -48t-102 -17q-38 0 -73.5 10t-66.5 28.5t-54.5 46t-37.5 63.5h94q19 -32 54 -50t84 -18q74 0 114.5 45t40.5 116v26q-27 -29 -71 -46t-96 -17q-60 0 -105.5 20t-77 54t-47.5 77.5t-16 91.5t16 91.5t47.5 77.5t77 54
t105.5 20q52 0 96 -17t71 -46v50h86zM461 230q0 41 -14.5 71.5t-38 51t-53.5 30.5t-62 10q-36 0 -65.5 -13t-51 -35t-33.5 -52t-12 -63t12 -63t33.5 -52t51 -35t65.5 -13q32 0 62 10t53.5 30t38 51t14.5 72zM357.033 721.972l-56.9922 -94.9883h55.9932v-100.987h-110.987
v110.986l51.9941 84.9893h59.9922z" />
    <glyph glyph-name="Hcircumflex" unicode="&#x124;" 
d="M460 0v290h-300v-290h-90v664h90v-290h300v290h90v-664h-90zM264 891h93l150 -166h-94l-102 111l-102 -111h-95z" />
    <glyph glyph-name="hcircumflex" unicode="&#x125;" 
d="M336 473q47 0 85.5 -14t65.5 -40t42 -63.5t15 -84.5v-271h-86v264q0 62 -34 95.5t-96 33.5q-33 0 -61.5 -11.5t-49.5 -32t-33 -49t-12 -61.5v-239h-86v669h86v-259q24 28 65.5 45.5t98.5 17.5zM264 891h93l150 -166h-94l-102 111l-102 -111h-95z" />
    <glyph glyph-name="Hbar" unicode="&#x126;" 
d="M460 0v290h-300v-290h-90v486h-59v84h59v94h90v-94h300v94h90v-94h58v-84h-58v-486h-90zM460 374v112h-300v-112h300z" />
    <glyph glyph-name="hbar" unicode="&#x127;" 
d="M336 473q47 0 85.5 -14t65.5 -40t42 -63.5t15 -84.5v-271h-86v264q0 62 -34 95.5t-96 33.5q-33 0 -61.5 -11.5t-49.5 -32t-33 -49t-12 -61.5v-239h-86v526h-74v76h74v67h86v-67h165v-76h-165v-116q24 28 65.5 45.5t98.5 17.5z" />
    <glyph glyph-name="Itilde" unicode="&#x128;" 
d="M533 664v-84h-178v-496h178v-84h-446v84h178v496h-178v84h446zM390 800q22 0 32.5 21.5t10.5 68.5h72q0 -77 -30.5 -120.5t-85.5 -43.5q-26 0 -47 14t-39.5 31t-35 31t-32.5 14q-43 0 -43 -90h-72q0 76 30.5 120t85.5 44q26 0 47.5 -14t40.5 -31t35 -31t31 -14z" />
    <glyph glyph-name="itilde" unicode="&#x129;" 
d="M398 610q22 0 32.5 21.5t10.5 68.5h72q0 -77 -30.5 -120.5t-85.5 -43.5q-26 0 -47 14t-39.5 31t-35 31t-32.5 14q-43 0 -43 -90h-72q0 76 30.5 120t85.5 44q26 0 47.5 -14t40.5 -31t35 -31t31 -14zM277 384h-204v76h290v-384h204v-76h-494v76h204v308z" />
    <glyph glyph-name="Imacron" unicode="&#x12a;" 
d="M533 664v-84h-178v-496h178v-84h-446v84h178v496h-178v84h446zM486 818v-74h-351v74h351z" />
    <glyph glyph-name="imacron" unicode="&#x12b;" 
d="M277 384h-204v76h290v-384h204v-76h-494v76h204v308zM496 639v-74h-351v74h351z" />
    <glyph glyph-name="Ibreve" unicode="&#x12c;" 
d="M533 664v-84h-178v-496h178v-84h-446v84h178v496h-178v84h446zM311 726q-37 0 -69.5 12.5t-57.5 34.5t-41 52t-20 66h77q8 -38 38.5 -64.5t72.5 -26.5q41 0 71.5 26.5t38.5 64.5h77q-4 -36 -20 -66t-41 -52t-57 -34.5t-69 -12.5z" />
    <glyph glyph-name="ibreve" unicode="&#x12d;" 
d="M320 608q22 0 41 9.5t33 25t22.5 35.5t10.5 41h75q-3 -37 -17.5 -70.5t-38.5 -59t-56 -40.5t-70 -15t-70 15t-56 40.5t-38.5 59t-17.5 70.5h75q2 -21 10.5 -41t22.5 -35.5t32.5 -25t41.5 -9.5zM277 384h-204v76h290v-384h204v-76h-494v76h204v308z" />
    <glyph glyph-name="Iogonek" unicode="&#x12e;" 
d="M87 0v84h178v496h-178v84h446v-84h-178v-496h178v-84q-14 -9 -30 -21t-30 -25t-23.5 -26.5t-9.5 -25.5q0 -33 49 -33h44v-73h-48q-125 0 -125 88q0 32 25 61t62 55h-360z" />
    <glyph glyph-name="iogonek" unicode="&#x12f;" 
d="M73 0v76h204v308h-204v76h290v-384h204v-76q-14 -9 -30 -21t-30 -25t-23.5 -26.5t-9.5 -25.5q0 -33 49 -33h44v-73h-48q-125 0 -125 88q0 32 25 61t62 55h-408zM255 565v120h121v-120h-121z" />
    <glyph glyph-name="Idotaccent" unicode="&#x130;" 
d="M533 664v-84h-178v-496h178v-84h-446v84h178v496h-178v84h446zM262 854h96v-100h-96v100z" />
    <glyph glyph-name="dotlessi" unicode="&#x131;" 
d="M277 384h-204v76h290v-384h204v-76h-494v76h204v308z" />
    <glyph glyph-name="IJ" unicode="&#x132;" 
d="M240 0v84h117q50 0 77 23t27 73v484h90v-484q0 -87 -53.5 -133.5t-140.5 -46.5h-117zM159 0h-90v664h90v-664z" />
    <glyph glyph-name="ij" unicode="&#x133;" 
d="M451 460h86v-485q0 -91 -40.5 -135t-131.5 -44h-175v76h175q49 0 67.5 27t18.5 76v485zM36 460h240v-460h-86v384h-154v76zM168 565v120h121v-120h-121zM429 565v120h121v-120h-121z" />
    <glyph glyph-name="Jcircumflex" unicode="&#x134;" 
d="M489 664v-484q0 -87 -53.5 -133.5t-140.5 -46.5h-215v84h215q50 0 77 23t27 73v400h-319v84h409zM243 891h93l150 -166h-94l-102 111l-102 -111h-95z" />
    <glyph glyph-name="jcircumflex" unicode="&#x135;" 
d="M463 -25q0 -91 -40.5 -135t-131.5 -44h-207v76h207q49 0 67.5 27t18.5 76v409h-260v76h346v-485zM368 719h95l149 -185h-92l-104 124l-104 -124h-93z" />
    <glyph glyph-name="uni0136" unicode="&#x136;" 
d="M605 0h-119l-305 288v-288h-90v664h90v-288l305 288h119l-348 -332zM276 -232l57 95h-56v101h111v-111l-52 -85h-60z" />
    <glyph glyph-name="uni0137" unicode="&#x137;" 
d="M190 669v-409l276 200h119l-311 -230l313 -230h-130l-267 192v-192h-85v669h85zM263 -232l57 95h-56v101h111v-111l-52 -85h-60z" />
    <glyph glyph-name="kgreenlandic" unicode="&#x138;" 
d="M190 460v-200l276 200h119l-311 -230l313 -230h-130l-267 192v-192h-85v460h85z" />
    <glyph glyph-name="Lacute" unicode="&#x139;" 
d="M190 84h391v-84h-481v664h90v-580zM335 891l-142 -166h-94l142 166h94z" />
    <glyph glyph-name="lacute" unicode="&#x13a;" 
d="M267 593h-194v76h280v-593h204v-76h-494v76h204v517zM494 891l-142 -166h-94l142 166h94z" />
    <glyph glyph-name="uni013B" unicode="&#x13b;" 
d="M190 84h391v-84h-481v664h90v-580zM288 -232l57 95h-56v101h111v-111l-52 -85h-60z" />
    <glyph glyph-name="uni013C" unicode="&#x13c;" 
d="M267 593h-194v76h280v-593h204v-76h-494v76h204v517zM256 -232l57 95h-56v101h111v-111l-52 -85h-60z" />
    <glyph glyph-name="Lcaron" unicode="&#x13d;" 
d="M453 436l70 117h-53v111h111v-121l-65 -107h-63zM190 84h391v-84h-481v664h90v-580z" />
    <glyph glyph-name="lcaron" unicode="&#x13e;" 
d="M429 436l70 117h-53v111h111v-121l-65 -107h-63zM267 593h-194v76h280v-593h204v-76h-494v76h204v517z" />
    <glyph glyph-name="Ldot" unicode="&#x13f;" 
d="M470 405h111v-111h-111v111zM190 84h391v-84h-481v664h90v-580z" />
    <glyph glyph-name="ldot" unicode="&#x140;" 
d="M446 413h111v-111h-111v111zM267 593h-194v76h280v-593h204v-76h-494v76h204v517z" />
    <glyph glyph-name="Lslash" unicode="&#x141;" 
d="M226 414l197 106v-91l-197 -106v-239h355v-84h-445v274l-126 -67v92l126 67v298h90v-250z" />
    <glyph glyph-name="lslash" unicode="&#x142;" 
d="M268 373v220h-194v76h280v-264l204 75v-85l-204 -75v-244h204v-76h-494v76h204v212l-204 -74v85z" />
    <glyph glyph-name="Nacute" unicode="&#x143;" 
d="M550 664v-664h-100l-290 510v-510h-90v664h100l290 -510v510h90zM490 891l-142 -166h-94l142 166h94z" />
    <glyph glyph-name="nacute" unicode="&#x144;" 
d="M336 473q47 0 85.5 -14t65.5 -40t42 -63.5t15 -84.5v-271h-86v264q0 62 -34 95.5t-96 33.5q-33 0 -61.5 -11.5t-49.5 -32t-33 -49t-12 -61.5v-239h-86v460h86v-50q24 28 65.5 45.5t98.5 17.5zM493 719l-142 -185h-94l142 185h94z" />
    <glyph glyph-name="uni0145" unicode="&#x145;" 
d="M550 664v-664h-100l-290 510v-510h-90v664h100l290 -510v510h90zM259 -232l57 95h-56v101h111v-111l-52 -85h-60z" />
    <glyph glyph-name="uni0146" unicode="&#x146;" 
d="M336 473q47 0 85.5 -14t65.5 -40t42 -63.5t15 -84.5v-271h-86v264q0 62 -34 95.5t-96 33.5q-33 0 -61.5 -11.5t-49.5 -32t-33 -49t-12 -61.5v-239h-86v460h86v-50q24 28 65.5 45.5t98.5 17.5zM258 -232l57 95h-56v101h111v-111l-52 -85h-60z" />
    <glyph glyph-name="Ncaron" unicode="&#x147;" 
d="M550 664v-664h-100l-290 510v-510h-90v664h100l290 -510v510h90zM360 725h-101l-146 166h94l102 -114l102 114h95z" />
    <glyph glyph-name="ncaron" unicode="&#x148;" 
d="M336 473q47 0 85.5 -14t65.5 -40t42 -63.5t15 -84.5v-271h-86v264q0 62 -34 95.5t-96 33.5q-33 0 -61.5 -11.5t-49.5 -32t-33 -49t-12 -61.5v-239h-86v460h86v-50q24 28 65.5 45.5t98.5 17.5zM114 719h93l104 -124l104 124h92l-149 -185h-95z" />
    <glyph glyph-name="napostrophe" unicode="&#x149;" 
d="M86 547l70 117h-53v111h111v-121l-65 -107h-63zM336 473q49 0 88 -15t65.5 -42t40.5 -64t14 -81v-271h-86v264q0 57 -32 93t-98 36q-30 0 -58 -10.5t-50 -30t-35 -48.5t-13 -65v-239h-86v460h86v-50q24 28 65.5 45.5t98.5 17.5z" />
    <glyph glyph-name="Eng" unicode="&#x14a;" 
d="M550 664v-688q0 -87 -53.5 -133.5t-140.5 -46.5h-65v84h65q50 0 77 23t27 73v24l-300 511v-511h-90v664h100l290 -493v493h90z" />
    <glyph glyph-name="eng" unicode="&#x14b;" 
d="M544 -56q0 -75 -43.5 -111.5t-118.5 -36.5h-81v76h73q45 0 64.5 22.5t19.5 67.5v302q0 62 -34 95.5t-96 33.5q-33 0 -61.5 -11.5t-49.5 -32t-33 -49t-12 -61.5v-239h-86v460h86v-50q24 28 65.5 45.5t98.5 17.5q47 0 85.5 -14t65.5 -40t42 -63.5t15 -84.5v-327v0z" />
    <glyph glyph-name="Omacron" unicode="&#x14c;" 
d="M310 -13q-61 0 -110.5 26t-85 71.5t-54.5 109t-19 138.5t19 138.5t54.5 109t85 71.5t110.5 26t110.5 -26t85 -71.5t54.5 -109t19 -138.5t-19 -138.5t-54.5 -109t-85 -71.5t-110.5 -26zM310 593q-42 0 -75 -19t-56.5 -53.5t-35.5 -82.5t-12 -106t12 -106t35.5 -82.5
t56.5 -53.5t75 -19t75 19t56.5 53.5t35.5 82.5t12 106t-12 106t-35.5 82.5t-56.5 53.5t-75 19zM486 818v-74h-351v74h351z" />
    <glyph glyph-name="omacron" unicode="&#x14d;" 
d="M310 -13q-55 0 -101.5 18.5t-80.5 51t-53 77t-19 96.5t19 96.5t53 77t80.5 51t101.5 18.5t101.5 -18.5t80.5 -51t53 -77t19 -96.5t-19 -96.5t-53 -77t-80.5 -51t-101.5 -18.5zM310 67q37 0 68 13t53 35t34.5 51.5t12.5 63.5t-12.5 64t-34.5 52t-53 34.5t-68 12.5
t-68 -12.5t-53 -34.5t-34.5 -52t-12.5 -64t12.5 -63.5t34.5 -51.5t53 -35t68 -13zM486 639v-74h-351v74h351z" />
    <glyph glyph-name="Obreve" unicode="&#x14e;" 
d="M310 -13q-61 0 -110.5 26t-85 71.5t-54.5 109t-19 138.5t19 138.5t54.5 109t85 71.5t110.5 26t110.5 -26t85 -71.5t54.5 -109t19 -138.5t-19 -138.5t-54.5 -109t-85 -71.5t-110.5 -26zM310 593q-42 0 -75 -19t-56.5 -53.5t-35.5 -82.5t-12 -106t12 -106t35.5 -82.5
t56.5 -53.5t75 -19t75 19t56.5 53.5t35.5 82.5t12 106t-12 106t-35.5 82.5t-56.5 53.5t-75 19zM311 726q-37 0 -69.5 12.5t-57.5 34.5t-41 52t-20 66h77q8 -38 38.5 -64.5t72.5 -26.5q41 0 71.5 26.5t38.5 64.5h77q-4 -36 -20 -66t-41 -52t-57 -34.5t-69 -12.5z" />
    <glyph glyph-name="obreve" unicode="&#x14f;" 
d="M310 -13q-55 0 -101.5 18.5t-80.5 51t-53 77t-19 96.5t19 96.5t53 77t80.5 51t101.5 18.5t101.5 -18.5t80.5 -51t53 -77t19 -96.5t-19 -96.5t-53 -77t-80.5 -51t-101.5 -18.5zM310 67q37 0 68 13t53 35t34.5 51.5t12.5 63.5t-12.5 64t-34.5 52t-53 34.5t-68 12.5
t-68 -12.5t-53 -34.5t-34.5 -52t-12.5 -64t12.5 -63.5t34.5 -51.5t53 -35t68 -13zM310 608q22 0 41 9.5t33 25t22.5 35.5t10.5 41h75q-3 -37 -17.5 -70.5t-38.5 -59t-56 -40.5t-70 -15t-70 15t-56 40.5t-38.5 59t-17.5 70.5h75q2 -21 10.5 -41t22.5 -35.5t32.5 -25
t41.5 -9.5z" />
    <glyph glyph-name="Ohungarumlaut" unicode="&#x150;" 
d="M310 -13q-61 0 -110.5 26t-85 71.5t-54.5 109t-19 138.5t19 138.5t54.5 109t85 71.5t110.5 26t110.5 -26t85 -71.5t54.5 -109t19 -138.5t-19 -138.5t-54.5 -109t-85 -71.5t-110.5 -26zM310 593q-42 0 -75 -19t-56.5 -53.5t-35.5 -82.5t-12 -106t12 -106t35.5 -82.5
t56.5 -53.5t75 -19t75 19t56.5 53.5t35.5 82.5t12 106t-12 106t-35.5 82.5t-56.5 53.5t-75 19zM561 891l-142 -166h-94l142 166h94zM407 891l-142 -166h-94l142 166h94z" />
    <glyph glyph-name="ohungarumlaut" unicode="&#x151;" 
d="M310 -13q-55 0 -101.5 18.5t-80.5 51t-53 77t-19 96.5t19 96.5t53 77t80.5 51t101.5 18.5t101.5 -18.5t80.5 -51t53 -77t19 -96.5t-19 -96.5t-53 -77t-80.5 -51t-101.5 -18.5zM310 67q37 0 68 13t53 35t34.5 51.5t12.5 63.5t-12.5 64t-34.5 52t-53 34.5t-68 12.5
t-68 -12.5t-53 -34.5t-34.5 -52t-12.5 -64t12.5 -63.5t34.5 -51.5t53 -35t68 -13zM574 719l-142 -185h-94l142 185h94zM420 719l-142 -185h-94l142 185h94z" />
    <glyph glyph-name="OE" unicode="&#x152;" 
d="M391 580v-206h192v-84h-192v-206h199v-84h-289q-62 0 -112 24.5t-85 68.5t-54 104.5t-19 133.5t19 134t54 105.5t85 69t112 24.5h289v-84h-199zM301 580q-42 0 -75.5 -18t-56.5 -50.5t-35.5 -78.5t-12.5 -102t12.5 -101.5t35.5 -78t56.5 -50t75.5 -17.5v496z" />
    <glyph glyph-name="oe" unicode="&#x153;" 
d="M351 198v-129q39 2 69 17.5t48 42.5h92q-27 -68 -89.5 -105t-149.5 -37q-59 0 -109 17.5t-86 50t-56 77.5t-20 99q0 53 19.5 97.5t54.5 76.5t83.5 50t107.5 18q55 0 101.5 -18t79.5 -50t51.5 -75.5t18.5 -93.5v-18t-2 -20h-213zM351 273h126q-6 47 -39.5 79.5t-86.5 37.5
v-117zM265 388q-26 -3 -49.5 -16.5t-41 -34.5t-28 -48t-10.5 -58q0 -33 10.5 -60.5t28.5 -48t41 -33t49 -16.5v315z" />
    <glyph glyph-name="Racute" unicode="&#x154;" 
d="M569 469q0 -88 -52 -138t-137 -56l210 -275h-112l-209 274h-98v-274h-90v664h276q47 0 86 -13t67 -37.5t43.5 -61t15.5 -83.5zM479 469q0 54 -34 82.5t-88 28.5h-186v-222h186q54 0 88 28.5t34 82.5zM468 891l-142 -166h-94l142 166h94z" />
    <glyph glyph-name="racute" unicode="&#x155;" 
d="M230 460v-65q19 27 59 48t103 21h154v-82h-154q-76 0 -119 -44.5t-43 -116.5v-221h-86v460h86zM521 719l-142 -185h-94l142 185h94z" />
    <glyph glyph-name="uni0156" unicode="&#x156;" 
d="M569 469q0 -88 -52 -138t-137 -56l210 -275h-112l-209 274h-98v-274h-90v664h276q47 0 86 -13t67 -37.5t43.5 -61t15.5 -83.5zM479 469q0 54 -34 82.5t-88 28.5h-186v-222h186q54 0 88 28.5t34 82.5zM259 -232l57 95h-56v101h111v-111l-52 -85h-60z" />
    <glyph glyph-name="uni0157" unicode="&#x157;" 
d="M230 460v-65q19 27 59 48t103 21h154v-82h-154q-76 0 -119 -44.5t-43 -116.5v-221h-86v460h86zM133 -232l57 95h-56v101h111v-111l-52 -85h-60z" />
    <glyph glyph-name="Rcaron" unicode="&#x158;" 
d="M569 469q0 -88 -52 -138t-137 -56l210 -275h-112l-209 274h-98v-274h-90v664h276q47 0 86 -13t67 -37.5t43.5 -61t15.5 -83.5zM479 469q0 54 -34 82.5t-88 28.5h-186v-222h186q54 0 88 28.5t34 82.5zM356 725h-101l-146 166h94l102 -114l102 114h95z" />
    <glyph glyph-name="rcaron" unicode="&#x159;" 
d="M230 460v-65q19 27 59 48t103 21h154v-82h-154q-76 0 -119 -44.5t-43 -116.5v-221h-86v460h86zM148 719h93l104 -124l104 124h92l-149 -185h-95z" />
    <glyph glyph-name="Sacute" unicode="&#x15a;" 
d="M141 165q23 -42 68 -68t106 -26q35 0 64.5 8.5t50.5 23.5t32.5 35t11.5 43q0 48 -31.5 72t-97.5 32l-107 14q-90 12 -132.5 60t-42.5 119q0 43 16.5 80t47.5 63t75.5 41t101.5 15t101.5 -16.5t77 -42.5t53.5 -57.5t30 -61.5h-95q-20 41 -65.5 67.5t-104.5 26.5
q-37 0 -65 -9.5t-46.5 -25t-27.5 -35.5t-9 -41q0 -45 29.5 -69t82.5 -31l114 -15q85 -11 135 -58.5t50 -122.5q0 -37 -15.5 -73t-47 -64t-78 -45t-108.5 -17q-61 0 -107 16t-78.5 41.5t-53 57t-30.5 63.5h95zM475 891l-142 -166h-94l142 166h94z" />
    <glyph glyph-name="sacute" unicode="&#x15b;" 
d="M457 330q-19 33 -59.5 48t-101.5 15q-60 0 -94.5 -17t-34.5 -46t26.5 -41.5t82.5 -16.5l107 -7q77 -5 119 -38t42 -96q0 -30 -15 -56t-43.5 -45.5t-70 -31t-93.5 -11.5q-56 0 -100.5 11.5t-77 32t-53 47t-28.5 56.5h93q33 -67 179 -67q53 0 88.5 16.5t35.5 45.5t-27.5 42
t-84.5 17l-108 8q-158 12 -158 131q0 30 15 57t43 46.5t68 31t90 11.5q56 0 99.5 -12t75 -31.5t51 -45.5t27.5 -54h-93zM498 719l-142 -185h-94l142 185h94z" />
    <glyph glyph-name="Scircumflex" unicode="&#x15c;" 
d="M141 165q23 -42 68 -68t106 -26q35 0 64.5 8.5t50.5 23.5t32.5 35t11.5 43q0 48 -31.5 72t-97.5 32l-107 14q-90 12 -132.5 60t-42.5 119q0 43 16.5 80t47.5 63t75.5 41t101.5 15t101.5 -16.5t77 -42.5t53.5 -57.5t30 -61.5h-95q-20 41 -65.5 67.5t-104.5 26.5
q-37 0 -65 -9.5t-46.5 -25t-27.5 -35.5t-9 -41q0 -45 29.5 -69t82.5 -31l114 -15q85 -11 135 -58.5t50 -122.5q0 -37 -15.5 -73t-47 -64t-78 -45t-108.5 -17q-61 0 -107 16t-78.5 41.5t-53 57t-30.5 63.5h95zM264 891h93l150 -166h-94l-102 111l-102 -111h-95z" />
    <glyph glyph-name="scircumflex" unicode="&#x15d;" 
d="M457 330q-19 33 -59.5 48t-101.5 15q-60 0 -94.5 -17t-34.5 -46t26.5 -41.5t82.5 -16.5l107 -7q77 -5 119 -38t42 -96q0 -30 -15 -56t-43.5 -45.5t-70 -31t-93.5 -11.5q-56 0 -100.5 11.5t-77 32t-53 47t-28.5 56.5h93q33 -67 179 -67q53 0 88.5 16.5t35.5 45.5t-27.5 42
t-84.5 17l-108 8q-158 12 -158 131q0 30 15 57t43 46.5t68 31t90 11.5q56 0 99.5 -12t75 -31.5t51 -45.5t27.5 -54h-93zM269 719h95l149 -185h-92l-104 124l-104 -124h-93z" />
    <glyph glyph-name="Scedilla" unicode="&#x15e;" 
d="M142 165q23 -42 68 -68t105 -26q35 0 64.5 8.5t50.5 23.5t32.5 35t11.5 43q0 48 -31.5 72t-97.5 32l-107 14q-90 11 -132.5 59.5t-42.5 119.5q0 43 16.5 80t47.5 63t75.5 41t101.5 15t101 -16.5t76.5 -42.5t53.5 -57.5t31 -61.5h-96q-20 41 -65.5 67.5t-103.5 26.5
q-37 0 -65 -9.5t-46.5 -25t-27.5 -35.5t-9 -41q0 -45 29.5 -69t82.5 -31l114 -15q85 -11 135 -58.5t50 -122.5q0 -33 -12.5 -65.5t-38 -59.5t-63 -46t-87.5 -25l-133 -174h-94l134 174q-50 6 -87.5 23t-64.5 41t-44.5 53t-27.5 58h96z" />
    <glyph glyph-name="scedilla" unicode="&#x15f;" 
d="M455 330q-19 33 -58.5 48t-100.5 15q-60 0 -94.5 -17t-34.5 -46t26.5 -41.5t82.5 -16.5l107 -7q77 -5 119 -38t42 -96q0 -27 -12.5 -51t-36.5 -43t-59 -31.5t-79 -16.5l-132 -173h-94l134 175q-86 11 -136.5 50.5t-65.5 92.5h95q33 -67 177 -67q53 0 88.5 16.5t35.5 45.5
t-27.5 42t-84.5 17l-108 8q-158 12 -158 131q0 30 15 57t43 46.5t68 31t90 11.5q56 0 99.5 -12t75 -31.5t51 -45.5t27.5 -54h-95z" />
    <glyph glyph-name="Scaron" unicode="&#x160;" 
d="M141 165q23 -42 68 -68t106 -26q35 0 64.5 8.5t50.5 23.5t32.5 35t11.5 43q0 48 -31.5 72t-97.5 32l-107 14q-90 12 -132.5 60t-42.5 119q0 43 16.5 80t47.5 63t75.5 41t101.5 15t101.5 -16.5t77 -42.5t53.5 -57.5t30 -61.5h-95q-20 41 -65.5 67.5t-104.5 26.5
q-37 0 -65 -9.5t-46.5 -25t-27.5 -35.5t-9 -41q0 -45 29.5 -69t82.5 -31l114 -15q85 -11 135 -58.5t50 -122.5q0 -37 -15.5 -73t-47 -64t-78 -45t-108.5 -17q-61 0 -107 16t-78.5 41.5t-53 57t-30.5 63.5h95zM360 725h-101l-146 166h94l102 -114l102 114h95z" />
    <glyph glyph-name="scaron" unicode="&#x161;" 
d="M457 330q-19 33 -59.5 48t-101.5 15q-60 0 -94.5 -17t-34.5 -46t26.5 -41.5t82.5 -16.5l107 -7q77 -5 119 -38t42 -96q0 -30 -15 -56t-43.5 -45.5t-70 -31t-93.5 -11.5q-56 0 -100.5 11.5t-77 32t-53 47t-28.5 56.5h93q33 -67 179 -67q53 0 88.5 16.5t35.5 45.5t-27.5 42
t-84.5 17l-108 8q-158 12 -158 131q0 30 15 57t43 46.5t68 31t90 11.5q56 0 99.5 -12t75 -31.5t51 -45.5t27.5 -54h-93zM114 719h93l104 -124l104 124h92l-149 -185h-95z" />
    <glyph glyph-name="uni0162" unicode="&#x162;" 
d="M589 664v-84h-234v-580l-146 -184h-95l151 188v576h-234v84h558z" />
    <glyph glyph-name="uni0163" unicode="&#x163;" 
d="M293 586v-126h223v-76h-223v-226q0 -82 86 -82h137v-76h-68l-141 -184h-94l143 185q-75 5 -112 41.5t-37 99.5v242h-135v76h135v126h86z" />
    <glyph glyph-name="Tcaron" unicode="&#x164;" 
d="M589 664v-84h-234v-580h-90v580h-234v84h558zM360 725h-101l-146 166h94l102 -114l102 114h95z" />
    <glyph glyph-name="tcaron" unicode="&#x165;" 
d="M489 447l67 111h-51v106h106v-115l-62 -102h-60zM283 586v-126h168v-76h-168v-226q0 -82 86 -82h82v-76h-83q-87 0 -129 37.5t-42 104.5v242h-125v76h125v126h86z" />
    <glyph glyph-name="Tbar" unicode="&#x166;" 
d="M589 664v-84h-234v-206h176v-84h-176v-290h-90v290h-176v84h176v206h-234v84h558z" />
    <glyph glyph-name="tbar" unicode="&#x167;" 
d="M292 586v-126h224v-76h-224v-76h224v-76h-224v-61q0 -47 19.5 -71t66.5 -24h138v-76h-146q-76 0 -120 38t-44 114v80h-134v76h134v76h-134v76h134v126h86z" />
    <glyph glyph-name="Utilde" unicode="&#x168;" 
d="M310 71q39 0 68.5 13t49.5 36.5t30 56t10 70.5v417h90v-417q0 -59 -16.5 -106.5t-48.5 -82t-78 -53t-105 -18.5t-105 18.5t-78 53t-48.5 82t-16.5 106.5v417h90v-417q0 -38 10 -70.5t30 -56t49.5 -36.5t68.5 -13zM387 800q22 0 32.5 21.5t10.5 68.5h72
q0 -77 -30.5 -120.5t-85.5 -43.5q-26 0 -47 14t-39.5 31t-35 31t-32.5 14q-43 0 -43 -90h-72q0 76 30.5 120t85.5 44q26 0 47.5 -14t40.5 -31t35 -31t31 -14z" />
    <glyph glyph-name="utilde" unicode="&#x169;" 
d="M284 -13q-47 0 -85 14t-65 40.5t-41.5 63.5t-14.5 84v271h86v-264q0 -61 33.5 -95t94.5 -34q33 0 61 11.5t49 32.5t32.5 49t11.5 61v239h86v-460h-86v50q-24 -28 -64.5 -45.5t-97.5 -17.5zM388 610q22 0 32.5 21.5t10.5 68.5h72q0 -77 -30.5 -120.5t-85.5 -43.5
q-26 0 -47 14t-39.5 31t-35 31t-32.5 14q-43 0 -43 -90h-72q0 76 30.5 120t85.5 44q26 0 47.5 -14t40.5 -31t35 -31t31 -14z" />
    <glyph glyph-name="Umacron" unicode="&#x16a;" 
d="M310 71q39 0 68.5 13t49.5 36.5t30 56t10 70.5v417h90v-417q0 -59 -16.5 -106.5t-48.5 -82t-78 -53t-105 -18.5t-105 18.5t-78 53t-48.5 82t-16.5 106.5v417h90v-417q0 -38 10 -70.5t30 -56t49.5 -36.5t68.5 -13zM486 818v-74h-351v74h351z" />
    <glyph glyph-name="umacron" unicode="&#x16b;" 
d="M284 -13q-47 0 -85 14t-65 40.5t-41.5 63.5t-14.5 84v271h86v-264q0 -61 33.5 -95t94.5 -34q33 0 61 11.5t49 32.5t32.5 49t11.5 61v239h86v-460h-86v50q-24 -28 -64.5 -45.5t-97.5 -17.5zM482 639v-74h-351v74h351z" />
    <glyph glyph-name="Ubreve" unicode="&#x16c;" 
d="M310 71q39 0 68.5 13t49.5 36.5t30 56t10 70.5v417h90v-417q0 -59 -16.5 -106.5t-48.5 -82t-78 -53t-105 -18.5t-105 18.5t-78 53t-48.5 82t-16.5 106.5v417h90v-417q0 -38 10 -70.5t30 -56t49.5 -36.5t68.5 -13zM311 726q-37 0 -69.5 12.5t-57.5 34.5t-41 52t-20 66h77
q8 -38 38.5 -64.5t72.5 -26.5q41 0 71.5 26.5t38.5 64.5h77q-4 -36 -20 -66t-41 -52t-57 -34.5t-69 -12.5z" />
    <glyph glyph-name="ubreve" unicode="&#x16d;" 
d="M284 -13q-47 0 -85 14t-65 40.5t-41.5 63.5t-14.5 84v271h86v-264q0 -61 33.5 -95t94.5 -34q33 0 61 11.5t49 32.5t32.5 49t11.5 61v239h86v-460h-86v50q-24 -28 -64.5 -45.5t-97.5 -17.5zM306 608q22 0 41 9.5t33 25t22.5 35.5t10.5 41h75q-3 -37 -17.5 -70.5t-38.5 -59
t-56 -40.5t-70 -15t-70 15t-56 40.5t-38.5 59t-17.5 70.5h75q2 -21 10.5 -41t22.5 -35.5t32.5 -25t41.5 -9.5z" />
    <glyph glyph-name="Uring" unicode="&#x16e;" 
d="M310 71q39 0 68.5 13t49.5 36.5t30 56t10 70.5v417h90v-417q0 -59 -16.5 -106.5t-48.5 -82t-78 -53t-105 -18.5t-105 18.5t-78 53t-48.5 82t-16.5 106.5v417h90v-417q0 -38 10 -70.5t30 -56t49.5 -36.5t68.5 -13zM176 845q0 28 10.5 52.5t29 43t43 29t52.5 10.5
t52.5 -10.5t43 -29t29 -43t10.5 -52.5t-10.5 -52.5t-29 -43t-43 -29t-52.5 -10.5t-52.5 10.5t-43 29t-29 43t-10.5 52.5zM246 845q0 -28 18.5 -46.5t46.5 -18.5t46.5 18.5t18.5 46.5t-18.5 46.5t-46.5 18.5t-46.5 -18.5t-18.5 -46.5z" />
    <glyph glyph-name="uring" unicode="&#x16f;" 
d="M284 -13q-47 0 -85 14t-65 40.5t-41.5 63.5t-14.5 84v271h86v-264q0 -61 33.5 -95t94.5 -34q33 0 61 11.5t49 32.5t32.5 49t11.5 61v239h86v-460h-86v50q-24 -28 -64.5 -45.5t-97.5 -17.5zM171 655q0 28 10.5 52.5t29 43t43 29t52.5 10.5t52.5 -10.5t43 -29t29 -43
t10.5 -52.5t-10.5 -52.5t-29 -43t-43 -29t-52.5 -10.5t-52.5 10.5t-43 29t-29 43t-10.5 52.5zM241 655q0 -28 18.5 -46.5t46.5 -18.5t46.5 18.5t18.5 46.5t-18.5 46.5t-46.5 18.5t-46.5 -18.5t-18.5 -46.5z" />
    <glyph glyph-name="Uhungarumlaut" unicode="&#x170;" 
d="M310 71q39 0 68.5 13t49.5 36.5t30 56t10 70.5v417h90v-417q0 -59 -16.5 -106.5t-48.5 -82t-78 -53t-105 -18.5t-105 18.5t-78 53t-48.5 82t-16.5 106.5v417h90v-417q0 -38 10 -70.5t30 -56t49.5 -36.5t68.5 -13zM547 891l-142 -166h-94l142 166h94zM393 891l-142 -166
h-94l142 166h94z" />
    <glyph glyph-name="uhungarumlaut" unicode="&#x171;" 
d="M284 -13q-47 0 -85 14t-65 40.5t-41.5 63.5t-14.5 84v271h86v-264q0 -61 33.5 -95t94.5 -34q33 0 61 11.5t49 32.5t32.5 49t11.5 61v239h86v-460h-86v50q-24 -28 -64.5 -45.5t-97.5 -17.5zM561 719l-142 -185h-94l142 185h94zM407 719l-142 -185h-94l142 185h94z" />
    <glyph glyph-name="Uogonek" unicode="&#x172;" 
d="M310 71q39 0 68.5 13t49.5 36.5t30 56t10 70.5v417h90v-417q0 -82 -32.5 -142t-90.5 -94q-19 -11 -37.5 -25t-32.5 -29t-23 -29t-9 -26q0 -33 49 -33h44v-73h-48q-125 0 -125 88q0 28 19.5 54t49.5 49h-12q-59 0 -105 18.5t-78 53t-48.5 82t-16.5 106.5v417h90v-417
q0 -38 10 -70.5t30 -56t49.5 -36.5t68.5 -13z" />
    <glyph glyph-name="uogonek" unicode="&#x173;" 
d="M447 50q-25 -28 -66 -45.5t-97 -17.5q-50 0 -88.5 15t-64.5 42t-40 64t-14 81v271h86v-264q0 -57 31 -93t97 -36q30 0 58 10.5t49.5 30t35 48.5t13.5 65v239h86v-460q-14 -9 -30 -21t-30 -25t-23.5 -26.5t-9.5 -25.5q0 -33 49 -33h44v-73h-48q-125 0 -125 88q0 32 25 61
t62 55v50z" />
    <glyph glyph-name="Wcircumflex" unicode="&#x174;" 
d="M103 664l77 -479l81 479h97l82 -478l76 478h83l-106 -664h-96l-88 498l-85 -498h-97l-106 664h82zM264 891h93l150 -166h-94l-102 111l-102 -111h-95z" />
    <glyph glyph-name="wcircumflex" unicode="&#x175;" 
d="M111 460l79 -337l73 337h95l75 -337l77 337h82l-113 -460h-94l-75 354l-76 -354h-93l-114 460h84zM259 719h95l149 -185h-92l-104 124l-104 -124h-93z" />
    <glyph glyph-name="Ycircumflex" unicode="&#x176;" 
d="M506 664h95l-246 -417v-247h-90v247l-246 417h98l194 -328zM264 891h93l150 -166h-94l-102 111l-102 -111h-95z" />
    <glyph glyph-name="ycircumflex" unicode="&#x177;" 
d="M34 460h94l185 -363l184 363h92l-248 -485q-27 -52 -45.5 -86.5t-40 -55t-50.5 -29t-76 -8.5h-41v76h23q26 0 44 4t32 14t26.5 27.5t27.5 44.5l23 44zM263 719h95l149 -185h-92l-104 124l-104 -124h-93z" />
    <glyph glyph-name="Ydieresis" unicode="&#x178;" 
d="M506 664h95l-246 -417v-247h-90v247l-246 417h98l194 -328zM354 844h96v-100h-96v100zM171 844h96v-100h-96v100z" />
    <glyph glyph-name="Zacute" unicode="&#x179;" 
d="M562 577l-390 -493h390v-84h-497v86l389 494h-390v84h498v-87zM472 891l-142 -166h-94l142 166h94z" />
    <glyph glyph-name="zacute" unicode="&#x17a;" 
d="M71 0v76l357 308h-357v76h476v-76l-358 -308h367v-76h-485zM492 719l-142 -185h-94l142 185h94z" />
    <glyph glyph-name="Zdotaccent" unicode="&#x17b;" 
d="M562 577l-390 -493h390v-84h-497v86l389 494h-390v84h498v-87zM262 854h96v-100h-96v100z" />
    <glyph glyph-name="zdotaccent" unicode="&#x17c;" 
d="M71 0v76l357 308h-357v76h476v-76l-358 -308h367v-76h-485zM260 669h100v-104h-100v104z" />
    <glyph glyph-name="Zcaron" unicode="&#x17d;" 
d="M562 577l-390 -493h390v-84h-497v86l389 494h-390v84h498v-87zM357 725h-101l-146 166h94l102 -114l102 114h95z" />
    <glyph glyph-name="zcaron" unicode="&#x17e;" 
d="M71 0v76l357 308h-357v76h476v-76l-358 -308h367v-76h-485zM116 719h93l104 -124l104 124h92l-149 -185h-95z" />
    <glyph glyph-name="longs" unicode="&#x17f;" 
d="M221 0v524q0 63 43.5 104t129.5 41h137v-76h-137q-43 0 -65 -22t-22 -57v-514h-86z" />
    <glyph glyph-name="uni018F" unicode="&#x18f;" 
d="M44 370h443q-3 50 -17 91t-37 70.5t-55 45.5t-70 16q-49 0 -85 -24.5t-59 -69.5h-95q32 81 93 129.5t146 48.5q61 0 111 -26t85.5 -72t55 -109t19.5 -138t-19.5 -138t-55 -109t-85.5 -72t-111 -26q-62 0 -110.5 25t-83 71t-52.5 110.5t-18 144.5v32zM308 71
q37 0 68.5 15.5t54.5 43.5t37.5 68t18.5 88h-351q5 -98 50 -156.5t122 -58.5z" />
    <glyph glyph-name="florin" unicode="&#x192;" 
d="M273 362l23 162q10 69 56 107t136 38h62l-11 -76h-62q-43 0 -67 -21.5t-29 -57.5l-22 -152h148l-11 -76h-147l-49 -345q-10 -67 -57 -106t-137 -39h-60l11 76h60q43 0 68 22t30 57l47 335h-148l11 76h148z" />
    <glyph glyph-name="uni01B5" unicode="&#x1b5;" 
d="M562 577l-161 -203h139v-84h-205l-163 -206h390v-84h-497v86l160 204h-140v84h206l163 206h-390v84h498v-87z" />
    <glyph glyph-name="uni01B6" unicode="&#x1b6;" 
d="M71 0v76l133 115h-97v76h185l136 117h-357v76h476v-76l-136 -117h112v-76h-201l-133 -115h367v-76h-485z" />
    <glyph glyph-name="Icaron" unicode="&#x1cf;" 
d="M533 664v-84h-178v-496h178v-84h-446v84h178v496h-178v84h446zM361 725h-101l-146 166h94l102 -114l102 114h95z" />
    <glyph glyph-name="icaron" unicode="&#x1d0;" 
d="M123 719h93l104 -124l104 124h92l-149 -185h-95zM277 384h-204v76h290v-384h204v-76h-494v76h204v308z" />
    <glyph glyph-name="Aringacute" unicode="&#x1fa;" 
d="M176 701q0 28 10.5 52.5t29 43t43 29t52.5 10.5t52.5 -10.5t43 -29t29 -43t10.5 -52.5q0 -35 -16.5 -64.5t-44.5 -48.5l218 -588h-93l-56 154h-289l-56 -154h-92l219 589q-27 18 -43.5 47.5t-16.5 64.5zM196 237h228l-114 313zM246 701q0 -28 18.5 -46.5t46.5 -18.5
t46.5 18.5t18.5 46.5t-18.5 46.5t-46.5 18.5t-46.5 -18.5t-18.5 -46.5zM468 1024l-109 -141h-94l109 141h94z" />
    <glyph glyph-name="aringacute" unicode="&#x1fb;" 
d="M468 982l-109 -141h-94l109 141h94zM175 655q0 28 10.5 52.5t29 43t43 29t52.5 10.5t52.5 -10.5t43 -29t29 -43t10.5 -52.5t-10.5 -52.5t-29 -43t-43 -29t-52.5 -10.5t-52.5 10.5t-43 29t-29 43t-10.5 52.5zM245 655q0 -28 18.5 -46.5t46.5 -18.5t46.5 18.5t18.5 46.5
t-18.5 46.5t-46.5 18.5t-46.5 -18.5t-18.5 -46.5zM296 473q53 0 97 -12t75.5 -35t48.5 -56.5t17 -76.5v-293h-86v50q-31 -29 -74 -46t-105 -17q-44 0 -81 9.5t-64 28t-42 47.5t-15 68q0 42 17 70.5t46 46t67.5 25t82.5 7.5h168q0 57 -42.5 80.5t-110.5 23.5q-48 0 -89 -17
t-57 -50h-95q23 71 88.5 109t153.5 38zM448 214h-169q-60 0 -93 -18t-33 -56t33 -55.5t89 -17.5q81 0 127 32.5t46 84.5v30z" />
    <glyph glyph-name="AEacute" unicode="&#x1fc;" 
d="M401 580v-206h192v-84h-192v-206h199v-84h-289v154h-155l-47 -154h-91l205 664h377v-84h-199zM181 237h130v343h-25zM573 891l-142 -166h-94l142 166h94z" />
    <glyph glyph-name="aeacute" unicode="&#x1fd;" 
d="M269 272v120q-45 0 -81.5 -18.5t-53.5 -47.5h-98q16 39 44.5 67t64.5 46t77.5 26t83.5 8q61 0 110 -18t83 -50t52.5 -75t18.5 -94v-18t-2 -20h-213v-129q39 2 69 17.5t48 42.5h92q-27 -68 -90 -105t-151 -37h-79q-44 0 -81 8.5t-64 26.5t-42 45t-15 65q0 37 15 63.5
t42 43.5t64 25t81 8h25zM243 197q-51 0 -83 -15t-32 -50q0 -36 31.5 -50.5t83.5 -14.5h26v130h-26zM355 273h126q-6 47 -39.5 79.5t-86.5 37.5v-117zM488 719l-142 -185h-94l142 185h94z" />
    <glyph glyph-name="Oslashacute" unicode="&#x1fe;" 
d="M514 567q32 -46 48.5 -105.5t16.5 -129.5q0 -75 -19 -138.5t-54.5 -109t-85 -71.5t-110.5 -26q-85 0 -148 49l-32 -49h-97l72 109q-31 46 -47.5 105.5t-16.5 130.5q0 75 19 138.5t54.5 109t85 71.5t110.5 26q43 0 80 -13t68 -37l33 50h97zM310 593q-42 0 -75 -19
t-56.5 -53.5t-35.5 -82.5t-12 -106q0 -89 28 -154l251 378q-42 37 -100 37zM489 332q0 89 -29 153l-250 -377q42 -37 100 -37q42 0 75 19t56.5 53.5t35.5 82.5t12 106zM478 891l-142 -166h-94l142 166h94z" />
    <glyph glyph-name="oslashacute" unicode="&#x1ff;" 
d="M310 -13q-38 0 -71.5 9t-62.5 25l-29 -34h-101l71 81q-29 32 -45 73t-16 89q0 52 19 96.5t53 77t80.5 51t101.5 18.5q74 0 133 -34l30 34h101l-71 -81q29 -32 45 -73t16 -89q0 -52 -19 -96.5t-53 -77t-80.5 -51t-101.5 -18.5zM310 67q37 0 68 13t53 35t34.5 51.5
t12.5 63.5q0 28 -8.5 53t-23.5 45l-214 -244q36 -17 78 -17zM142 230q0 -56 31 -98l215 244q-36 17 -78 17q-37 0 -68 -12.5t-53 -34.5t-34.5 -52t-12.5 -64zM488 719l-142 -185h-94l142 185h94z" />
    <glyph glyph-name="uni0218" unicode="&#x218;" 
d="M141 165q23 -42 68 -68t106 -26q35 0 64.5 8.5t50.5 23.5t32.5 35t11.5 43q0 48 -31.5 72t-97.5 32l-107 14q-90 12 -132.5 60t-42.5 119q0 43 16.5 80t47.5 63t75.5 41t101.5 15t101.5 -16.5t77 -42.5t53.5 -57.5t30 -61.5h-95q-20 41 -65.5 67.5t-104.5 26.5
q-37 0 -65 -9.5t-46.5 -25t-27.5 -35.5t-9 -41q0 -45 29.5 -69t82.5 -31l114 -15q85 -11 135 -58.5t50 -122.5q0 -37 -15.5 -73t-47 -64t-78 -45t-108.5 -17q-61 0 -107 16t-78.5 41.5t-53 57t-30.5 63.5h95zM260 -251l57 95h-56v101h111v-111l-52 -85h-60z" />
    <glyph glyph-name="uni0219" unicode="&#x219;" 
d="M457 330q-19 33 -59.5 48t-101.5 15q-60 0 -94.5 -17t-34.5 -46t26.5 -41.5t82.5 -16.5l107 -7q77 -5 119 -38t42 -96q0 -30 -15 -56t-43.5 -45.5t-70 -31t-93.5 -11.5q-56 0 -100.5 11.5t-77 32t-53 47t-28.5 56.5h93q33 -67 179 -67q53 0 88.5 16.5t35.5 45.5t-27.5 42
t-84.5 17l-108 8q-158 12 -158 131q0 30 15 57t43 46.5t68 31t90 11.5q56 0 99.5 -12t75 -31.5t51 -45.5t27.5 -54h-93zM258 -251l57 95h-56v101h111v-111l-52 -85h-60z" />
    <glyph glyph-name="uni021A" unicode="&#x21a;" 
d="M589 664v-84h-234v-580h-90v580h-234v84h558zM254 -232l57 95h-56v101h111v-111l-52 -85h-60z" />
    <glyph glyph-name="uni021B" unicode="&#x21b;" 
d="M292 586v-126h224v-76h-224v-218q0 -45 19.5 -67.5t64.5 -22.5h140v-76h-148q-75 0 -118.5 36.5t-43.5 111.5v236h-134v76h134v126h86zM265 -232l57 95h-56v101h111v-111l-52 -85h-60z" />
    <glyph glyph-name="uni0259" unicode="&#x259;" 
d="M298.039 393.008q-46.9941 0 -83.4893 -15.498q-36.4961 -15.498 -56.4932 -46.4941h-91.9893q25.9971 66.9922 87.4893 104.487q61.4932 37.4951 144.482 37.4951q56.9932 0 104.987 -17.9971q47.9941 -17.998 82.9902 -50.4941q34.9951 -32.4961 54.4932 -77.4902
q19.498 -44.9951 19.498 -97.9883q0 -51.9941 -18.998 -95.9883q-18.998 -43.9951 -52.4941 -76.4912q-33.4951 -32.4961 -80.4902 -50.9932q-46.9941 -18.498 -103.986 -18.498q-53.9941 0 -98.4883 18.498q-44.4951 18.4971 -76.9912 50.4932
q-32.4951 31.9961 -50.4932 75.4912t-17.998 92.4893v17.9971t2 19.998h409.949q-3.99902 27.9961 -18.4971 51.9932t-37.4951 41.4951q-22.998 17.498 -52.9941 27.4971q-29.9961 9.99805 -64.9922 9.99805zM304.039 67.0479q68.9912 0 113.985 32.9961
q44.9951 32.9961 52.9941 86.9893h-321.961q8.99902 -53.9932 48.9941 -86.9893t105.987 -32.9961z" />
    <glyph glyph-name="circumflex" unicode="&#x2c6;" 
d="M263 719h95l149 -185h-92l-104 124l-104 -124h-93z" />
    <glyph glyph-name="caron" unicode="&#x2c7;" 
d="M114 719h93l104 -124l104 124h92l-149 -185h-95z" />
    <glyph glyph-name="uni02C9" unicode="&#x2c9;" 
d="M486 639v-74h-351v74h351z" />
    <glyph glyph-name="breve" unicode="&#x2d8;" 
d="M310 608q22 0 41 9.5t33 25t22.5 35.5t10.5 41h75q-3 -37 -17.5 -70.5t-38.5 -59t-56 -40.5t-70 -15t-70 15t-56 40.5t-38.5 59t-17.5 70.5h75q2 -21 10.5 -41t22.5 -35.5t32.5 -25t41.5 -9.5z" />
    <glyph glyph-name="dotaccent" unicode="&#x2d9;" 
d="M260 669h100v-104h-100v104z" />
    <glyph glyph-name="ring" unicode="&#x2da;" 
d="M175 655q0 28 10.5 52.5t29 43t43 29t52.5 10.5t52.5 -10.5t43 -29t29 -43t10.5 -52.5t-10.5 -52.5t-29 -43t-43 -29t-52.5 -10.5t-52.5 10.5t-43 29t-29 43t-10.5 52.5zM245 655q0 -28 18.5 -46.5t46.5 -18.5t46.5 18.5t18.5 46.5t-18.5 46.5t-46.5 18.5t-46.5 -18.5
t-18.5 -46.5z" />
    <glyph glyph-name="ogonek" unicode="&#x2db;" 
d="M401 0q-14 -9 -30 -21t-30 -25t-23.5 -26.5t-9.5 -25.5q0 -33 49 -33h44v-73h-48q-125 0 -125 88q0 32 25 61t62 55h86z" />
    <glyph glyph-name="tilde" unicode="&#x2dc;" 
d="M388 610q22 0 32.5 21.5t10.5 68.5h72q0 -77 -30.5 -120.5t-85.5 -43.5q-26 0 -47 14t-39.5 31t-35 31t-32.5 14q-43 0 -43 -90h-72q0 76 30.5 120t85.5 44q26 0 47.5 -14t40.5 -31t35 -31t31 -14z" />
    <glyph glyph-name="hungarumlaut" unicode="&#x2dd;" 
d="M504 719l-142 -185h-94l142 185h94zM350 719l-142 -185h-94l142 185h94z" />
    <glyph glyph-name="accent" unicode="&#x301;" 
d="M-107 719l-142 -185h-94l142 185h94z" />
    <glyph glyph-name="pi" unicode="&#x3c0;" 
d="M135 0v384h-86v76h521v-76h-86v-384h-86v384h-177v-384h-86z" />
    <glyph glyph-name="uni0401" unicode="&#x401;" 
d="M184 580v-206h354v-84h-354v-206h361v-84h-451v664h451v-84h-361zM365 844h96v-100h-96v100zM182 844h96v-100h-96v100z" />
    <glyph glyph-name="uni0402" unicode="&#x402;" 
d="M373 409q46 0 85.5 -14t68 -40.5t45 -64t16.5 -85.5q0 -47 -14 -84.5t-41 -64.5t-65.5 -41.5t-87.5 -14.5h-55v84h49q55 0 89.5 30.5t34.5 89.5q0 54 -34 87.5t-94 33.5q-29 0 -58.5 -4.5t-61.5 -12.5v-308h-90v580h-145v84h415v-84h-180v-190q26 8 56 13.5t67 5.5z" />
    <glyph glyph-name="uni0403" unicode="&#x403;" 
d="M579 664v-84h-391v-580h-90v664h481zM520 891l-142 -166h-94l142 166h94z" />
    <glyph glyph-name="uni0404" unicode="&#x404;" 
d="M325.036 71q-38.9951 0 -71.4912 15.5t-56.4932 44.5t-38.4951 69t-18.498 90h291.965v84h-291.965q4 49 18.498 89.5t38.4951 69.5t56.4932 44.5t71.4912 15.5q50.9932 0 89.4893 -24.5q38.4951 -24.5 62.4922 -69.5h94.9883q-31.9961 81 -96.4883 129.5t-150.481 48.5
q-62.9922 0 -113.986 -26q-50.9932 -26 -87.4893 -71.5q-36.4951 -45.5 -55.9932 -109q-19.4971 -63.5 -19.4971 -138.5t19.4971 -138.5q19.498 -63.5 55.9932 -109q36.4961 -45.5 87.4893 -71.5q50.9941 -26 113.986 -26q86.9893 0 150.981 48t95.9883 130h-94.9883
q-23.9971 -45 -62.4922 -69.5q-38.4961 -24.5 -89.4893 -24.5z" />
    <glyph glyph-name="uni0405" unicode="&#x405;" 
d="M141 165q23 -42 68 -68t106 -26q35 0 64.5 8.5t50.5 23.5t32.5 35t11.5 43q0 48 -31.5 72t-97.5 32l-107 14q-90 12 -132.5 60t-42.5 119q0 43 16.5 80t47.5 63t75.5 41t101.5 15t101.5 -16.5t77 -42.5t53.5 -57.5t30 -61.5h-95q-20 41 -65.5 67.5t-104.5 26.5
q-37 0 -65 -9.5t-46.5 -25t-27.5 -35.5t-9 -41q0 -45 29.5 -69t82.5 -31l114 -15q85 -11 135 -58.5t50 -122.5q0 -37 -15.5 -73t-47 -64t-78 -45t-108.5 -17q-61 0 -107 16t-78.5 41.5t-53 57t-30.5 63.5h95z" />
    <glyph glyph-name="uni0406" unicode="&#x406;" 
d="M533 664v-84h-178v-496h178v-84h-446v84h178v496h-178v84h446z" />
    <glyph glyph-name="uni0407" unicode="&#x407;" 
d="M533 664v-84h-178v-496h178v-84h-446v84h178v496h-178v84h446zM354 844h96v-100h-96v100zM171 844h96v-100h-96v100z" />
    <glyph glyph-name="uni0408" unicode="&#x408;" 
d="M489 664v-484q0 -87 -53.5 -133.5t-140.5 -46.5h-215v84h215q50 0 77 23t27 73v400h-319v84h409z" />
    <glyph glyph-name="uni0409" unicode="&#x409;" 
d="M604 199q0 -40 -11 -76t-35.5 -63.5t-64 -43.5t-96.5 -16h-114v580h-105v-256q0 -83 -5.5 -144t-21 -101t-44.5 -59.5t-76 -19.5h-25v86h12q23 0 36.5 11.5t21 39t10 73.5t2.5 114v340h285v-266h24q57 0 96.5 -16t64 -43.5t35.5 -63.5t11 -76zM514 199q0 56 -28.5 85.5
t-88.5 29.5h-24v-230h24q60 0 88.5 29.5t28.5 85.5z" />
    <glyph glyph-name="uni040A" unicode="&#x40a;" 
d="M604 199q0 -40 -11 -76t-35.5 -63.5t-64 -43.5t-96.5 -16h-114v290h-142v-290h-90v664h90v-290h142v290h90v-266h24q57 0 96.5 -16t64 -43.5t35.5 -63.5t11 -76zM514 199q0 56 -28.5 85.5t-88.5 29.5h-24v-230h24q60 0 88.5 29.5t28.5 85.5z" />
    <glyph glyph-name="uni040B" unicode="&#x40b;" 
d="M491 0v207q0 63 -27 90.5t-86 27.5q-25 0 -61.5 -3t-70.5 -14v-308h-90v580h-145v84h415v-84h-180v-190q24 7 61.5 13t70.5 6q107 0 155 -47t48 -150v-212h-90z" />
    <glyph glyph-name="uni040C" unicode="&#x40c;" 
d="M605 0h-119l-305 288v-288h-90v664h90v-288l305 288h119l-348 -332zM484 891l-142 -166h-94l142 166h94z" />
    <glyph glyph-name="uni040E" unicode="&#x40e;" 
d="M506 664h91l-237 -511q-20 -44 -37 -73.5t-36.5 -47t-43.5 -25t-59 -7.5h-66v84h50q36 0 60 13.5t40 51.5l11 26l-245 489h95l196 -392zM193 882q3 -21 13 -39t25.5 -32t35.5 -22t43 -8q22 0 42.5 8t36 22t25.5 32t13 39h76q-3 -37 -18.5 -69t-41.5 -55.5t-60 -37
t-73 -13.5t-73 13.5t-60 37t-41.5 55.5t-18.5 69h76z" />
    <glyph glyph-name="uni040F" unicode="&#x40f;" 
d="M546 664v-664h-192v-147h-90v147h-190v664h90v-580h292v580h90z" />
    <glyph glyph-name="uni0410" unicode="&#x410;" 
d="M454 154h-289l-56 -154h-92l246 664h95l245 -664h-93zM196 237h228l-114 313z" />
    <glyph glyph-name="uni0411" unicode="&#x411;" 
d="M578 199q0 -48 -16 -85t-44.5 -62.5t-68 -38.5t-87.5 -13h-279v664h455v-84h-365v-182h189q48 0 87.5 -13t68 -38.5t44.5 -62.5t16 -85zM488 199q0 56 -34.5 85.5t-90.5 29.5h-190v-230h190q56 0 90.5 29.5t34.5 85.5z" />
    <glyph glyph-name="uni0412" unicode="&#x412;" 
d="M360 664q37 0 73 -10t65 -32.5t47 -58t18 -86.5t-20.5 -86t-57.5 -59q37 -24 57.5 -59t20.5 -86t-18 -86.5t-47 -58t-65 -32.5t-73 -10h-272v664h272zM473 187q0 51 -31.5 77t-82.5 26h-181v-206h181q51 0 82.5 26t31.5 77zM473 477q0 51 -31.5 77t-82.5 26h-181v-206
h181q51 0 82.5 26t31.5 77z" />
    <glyph glyph-name="uni0413" unicode="&#x413;" 
d="M579 664v-84h-391v-580h-90v664h481z" />
    <glyph glyph-name="uni0414" unicode="&#x414;" 
d="M499 -147v147h-392v-147h-90v231h53q17 21 28.5 52t18.5 68t10 78t3 83v299h384v-580h75v-231h-90zM220 366q0 -34 -1.5 -71.5t-6 -74.5t-13 -72t-21.5 -64h246v496h-204v-214z" />
    <glyph glyph-name="uni0415" unicode="&#x415;" 
d="M184 580v-206h354v-84h-354v-206h361v-84h-451v664h451v-84h-361z" />
    <glyph glyph-name="uni0416" unicode="&#x416;" 
d="M192 334l-187 330h95l165 -290v290h90v-290l165 290h95l-187 -330l187 -334h-98l-162 289v-289h-90v289l-162 -289h-98z" />
    <glyph glyph-name="uni0417" unicode="&#x417;" 
d="M462 187q0 50 -30.5 76.5t-84.5 26.5h-146v84h146q54 0 83 29.5t29 73.5q0 29 -11.5 51t-31.5 36.5t-46.5 21.5t-57.5 7q-59 0 -102.5 -26.5t-60.5 -67.5h-98q10 32 31.5 64t54.5 57.5t77.5 41t99.5 15.5q46 0 88.5 -11.5t75 -36t52 -63t19.5 -91.5q0 -39 -19 -78
t-57 -65q42 -26 60.5 -65.5t18.5 -79.5q0 -49 -20 -86t-53 -62.5t-76.5 -38.5t-91.5 -13q-56 0 -100.5 15.5t-77 41t-54 57t-31.5 64.5h98q20 -42 61.5 -68t110.5 -26q29 0 55.5 7.5t46 22t31 36t11.5 50.5z" />
    <glyph glyph-name="uni0418" unicode="&#x418;" 
d="M160 664v-515l290 515h100v-664h-90v515l-290 -515h-100v664h90z" />
    <glyph glyph-name="uni0419" unicode="&#x419;" 
d="M160 664v-515l290 515h100v-664h-90v515l-290 -515h-100v664h90zM193 882q3 -21 13 -39t25.5 -32t35.5 -22t43 -8q22 0 42.5 8t36 22t25.5 32t13 39h76q-3 -37 -18.5 -69t-41.5 -55.5t-60 -37t-73 -13.5t-73 13.5t-60 37t-41.5 55.5t-18.5 69h76z" />
    <glyph glyph-name="uni041A" unicode="&#x41a;" 
d="M605 0h-119l-305 288v-288h-90v664h90v-288l305 288h119l-348 -332z" />
    <glyph glyph-name="uni041B" unicode="&#x41b;" 
d="M545 664v-664h-90v580h-227v-222q0 -63 -4 -126.5t-21 -115t-51 -84t-94 -32.5h-41v86h25q36 0 55.5 24t28.5 62.5t10.5 87t1.5 98.5v306h407z" />
    <glyph glyph-name="uni041C" unicode="&#x41c;" 
d="M310 132l135 532h112v-664h-86v445l-114 -445h-94l-114 445v-445h-86v664h112z" />
    <glyph glyph-name="uni041D" unicode="&#x41d;" 
d="M460 0v290h-300v-290h-90v664h90v-290h300v290h90v-664h-90z" />
    <glyph glyph-name="uni041E" unicode="&#x41e;" 
d="M310 -13q-61 0 -110.5 26t-85 71.5t-54.5 109t-19 138.5t19 138.5t54.5 109t85 71.5t110.5 26t110.5 -26t85 -71.5t54.5 -109t19 -138.5t-19 -138.5t-54.5 -109t-85 -71.5t-110.5 -26zM310 593q-42 0 -75 -19t-56.5 -53.5t-35.5 -82.5t-12 -106t12 -106t35.5 -82.5
t56.5 -53.5t75 -19t75 19t56.5 53.5t35.5 82.5t12 106t-12 106t-35.5 82.5t-56.5 53.5t-75 19z" />
    <glyph glyph-name="uni041F" unicode="&#x41f;" 
d="M456 0v580h-292v-580h-90v664h472v-664h-90z" />
    <glyph glyph-name="uni0420" unicode="&#x420;" 
d="M569 469q0 -47 -15.5 -83.5t-43.5 -61t-67 -37.5t-86 -13h-186v-274h-90v664h276q47 0 86 -13t67 -37.5t43.5 -61t15.5 -83.5zM479 469q0 54 -34 82.5t-88 28.5h-186v-222h186q54 0 88 28.5t34 82.5z" />
    <glyph glyph-name="uni0421" unicode="&#x421;" 
d="M325 71q51 0 89.5 24.5t62.5 69.5h95q-31 -82 -95.5 -130t-151.5 -48q-63 0 -114 25.5t-87.5 71.5t-56 109.5t-19.5 138.5t19.5 138.5t56 109.5t87.5 71.5t114 25.5q87 0 151.5 -48.5t95.5 -129.5h-95q-24 45 -62.5 69.5t-89.5 24.5q-44 0 -78.5 -19t-58.5 -53.5
t-37 -82.5t-13 -106t13 -106t37 -82.5t58.5 -53.5t78.5 -19z" />
    <glyph glyph-name="uni0422" unicode="&#x422;" 
d="M589 664v-84h-234v-580h-90v580h-234v84h558z" />
    <glyph glyph-name="uni0423" unicode="&#x423;" 
d="M506 664h91l-237 -511q-20 -44 -37 -73.5t-36.5 -47t-43.5 -25t-59 -7.5h-66v84h50q36 0 60 13.5t40 51.5l11 26l-245 489h95l196 -392z" />
    <glyph glyph-name="uni0424" unicode="&#x424;" 
d="M354 605h14q43 0 83 -18t70 -51.5t48 -83t18 -112.5t-18 -112.5t-48 -83.5t-70 -52t-83 -18h-14v-78h-90v78h-14q-44 0 -83.5 18t-69.5 52t-48 83.5t-18 112.5t18 112.5t48 83t69.5 51.5t83.5 18h14v79h90v-79zM264 521h-14q-21 0 -44 -11t-42 -33t-31 -56.5t-12 -80.5
q0 -47 12 -81t31 -56.5t42 -33.5t44 -11h14v363zM368 158q21 0 44 11t42 33.5t31 56.5t12 81q0 46 -12 80.5t-31 56.5t-42 33t-44 11h-14v-363h14z" />
    <glyph glyph-name="uni0425" unicode="&#x425;" 
d="M258 331l-231 333h105l178 -258l180 258h103l-231 -332l231 -332h-105l-179 257l-179 -257h-103z" />
    <glyph glyph-name="uni0426" unicode="&#x426;" 
d="M515 664v-580h74v-231h-90v147h-430v664h90v-580h266v580h90z" />
    <glyph glyph-name="uni0427" unicode="&#x427;" 
d="M141 664v-188q0 -73 35 -105.5t116 -32.5q32 0 74 4t85 15v307h90v-664h-90v274q-13 -3 -33 -6.5t-42.5 -6.5t-44 -5t-36.5 -2q-130 0 -187 54t-57 168v188h90z" />
    <glyph glyph-name="uni0428" unicode="&#x428;" 
d="M44 0v664h90v-580h131v580h90v-580h131v580h90v-664h-532z" />
    <glyph glyph-name="uni0429" unicode="&#x429;" 
d="M462 84v580h90v-580h53v-231h-90v147h-476v664h90v-580h121v580h90v-580h122z" />
    <glyph glyph-name="uni042A" unicode="&#x42a;" 
d="M590 199q0 -48 -16 -85t-44.5 -62.5t-68 -38.5t-87.5 -13h-224v580h-140v84h230v-266h134q48 0 87.5 -13t68 -38.5t44.5 -62.5t16 -85zM500 199q0 56 -34.5 85.5t-90.5 29.5h-135v-230h135q56 0 90.5 29.5t34.5 85.5z" />
    <glyph glyph-name="uni042B" unicode="&#x42b;" 
d="M569 0h-90v664h90v-664zM429 199q0 -41 -13.5 -77t-41 -63t-70.5 -43t-102 -16h-148v664h90v-266h58q59 0 102 -16t70.5 -43t41 -63.5t13.5 -76.5zM339 199q0 57 -37 86t-100 29h-58v-230h58q63 0 100 29t37 86z" />
    <glyph glyph-name="uni042C" unicode="&#x42c;" 
d="M577 199q0 -48 -16 -85t-44.5 -62.5t-68 -38.5t-87.5 -13h-279v664h90v-266h189q48 0 87.5 -13t68 -38.5t44.5 -62.5t16 -85zM487 199q0 56 -34.5 85.5t-90.5 29.5h-190v-230h190q56 0 90.5 29.5t34.5 85.5z" />
    <glyph glyph-name="uni042D" unicode="&#x42d;" 
d="M295 71q39 0 71.5 15.5t56.5 44.5t38.5 69t18.5 90h-292v84h292q-4 49 -18.5 89.5t-38.5 69.5t-56.5 44.5t-71.5 15.5q-51 0 -89.5 -24.5t-62.5 -69.5h-95q32 81 96.5 129.5t150.5 48.5q63 0 114 -26t87.5 -71.5t56 -109t19.5 -138.5t-19.5 -138.5t-56 -109t-87.5 -71.5
t-114 -26q-87 0 -151 48t-96 130h95q24 -45 62.5 -69.5t89.5 -24.5z" />
    <glyph glyph-name="uni042E" unicode="&#x42e;" 
d="M131 374h57q3 68 17.5 124t40 95.5t62.5 61.5t85 22q52 0 90.5 -25t64 -70.5t38.5 -109t13 -140.5t-13 -140.5t-38.5 -109t-64 -70.5t-90.5 -25q-48 0 -85 21.5t-62.5 61.5t-40 96t-17.5 124h-57v-290h-90v664h90v-290zM277 332q0 -60 7 -108t21.5 -82t36 -52.5
t51.5 -18.5t51.5 18.5t36 52.5t21.5 82t7 108t-7 108t-21.5 82t-36 52.5t-51.5 18.5t-51.5 -18.5t-36 -52.5t-21.5 -82t-7 -108z" />
    <glyph glyph-name="uni042F" unicode="&#x42f;" 
d="M56 469q0 47 15.5 83.5t43.5 61t67 37.5t86 13h276v-664h-90v274h-99l-208 -274h-112l209 275q-84 6 -136 56t-52 138zM146 469q0 -54 34 -82.5t88 -28.5h186v222h-186q-54 0 -88 -28.5t-34 -82.5z" />
    <glyph glyph-name="uni0430" unicode="&#x430;" 
d="M296 473q53 0 97 -12t75.5 -35t48.5 -56.5t17 -76.5v-293h-86v50q-31 -29 -74 -46t-105 -17q-44 0 -81 9.5t-64 28t-42 47.5t-15 68q0 42 17 70.5t46 46t67.5 25t82.5 7.5h168q0 57 -42.5 80.5t-110.5 23.5q-48 0 -89.5 -17t-57.5 -50h-94q23 71 88.5 109t153.5 38z
M448 214h-169q-60 0 -93 -18t-33 -56t33 -55.5t89 -17.5q81 0 127 32.5t46 84.5v30z" />
    <glyph glyph-name="uni0431" unicode="&#x431;" 
d="M321 457q52 0 96.5 -18.5t77.5 -50.5t52 -75t19 -92t-19 -92t-52.5 -74.5t-80 -49.5t-100.5 -18q-63 0 -109.5 21t-78 58t-47 88.5t-15.5 112.5q0 77 9.5 137.5t33.5 103.5t65 67.5t104 30.5l103 9q36 3 58.5 15.5t27.5 38.5h86q-2 -24 -10.5 -45.5t-25.5 -38.5
t-43 -28.5t-63 -15.5l-126 -13q-40 -4 -65 -18.5t-39.5 -35t-21 -44t-8.5 -45.5q23 28 65 50t107 22zM314 67q36 0 67 12t53 32.5t34.5 48.5t12.5 61t-12.5 62t-34.5 50t-53 33t-67 12t-66 -12t-52 -33t-34 -50t-12 -62t12 -61t34 -48.5t52 -32.5t66 -12z" />
    <glyph glyph-name="uni0432" unicode="&#x432;" 
d="M494 230q39 -20 51.5 -48.5t12.5 -57.5q0 -51 -36 -87.5t-111 -36.5h-315v460h311q75 0 111 -36t36 -88q0 -29 -11 -56.5t-49 -49.5zM402 76q32 0 51 14.5t19 43.5t-19 43.5t-51 14.5h-220v-116h220zM398 268q32 0 51 14.5t19 43.5t-19 43.5t-51 14.5h-216v-116h216z" />
    <glyph glyph-name="uni0433" unicode="&#x433;" 
d="M541 460v-76h-340v-384h-86v460h426z" />
    <glyph glyph-name="uni0434" unicode="&#x434;" 
d="M494 -126v126h-388v-126h-86v202h54q16 15 27 36t18 46.5t10 53.5t3 57v191h373v-384h75v-202h-86zM218 270q0 -24 -2 -49.5t-6.5 -51t-12.5 -49.5t-20 -44h242v308h-201v-114z" />
    <glyph glyph-name="uni0435" unicode="&#x435;" 
d="M322 67q47 0 83.5 15.5t56.5 46.5h92q-26 -67 -87.5 -104.5t-144.5 -37.5q-57 0 -105 18t-83 50.5t-54.5 77.5t-19.5 98q0 52 19 96t52.5 76.5t80.5 51t104 18.5q54 0 98.5 -18.5t77 -50.5t50.5 -75.5t18 -92.5v-18t-2 -20h-410q4 -28 18.5 -52t37.5 -41.5t53 -27.5
t65 -10zM316 393q-69 0 -114 -33t-53 -87h322q-9 54 -49 87t-106 33z" />
    <glyph glyph-name="uni0436" unicode="&#x436;" 
d="M353 460v-194l167 194h107l-200 -232l200 -228h-111l-163 186v-186h-86v186l-164 -186h-110l200 228l-200 232h106l168 -194v194h86z" />
    <glyph glyph-name="uni0437" unicode="&#x437;" 
d="M541 325q0 -26 -13 -53t-48 -42q27 -12 45.5 -37.5t18.5 -60.5q0 -32 -16.5 -58.5t-46.5 -46t-72 -30t-93 -10.5q-54 0 -96.5 11.5t-73.5 32t-50.5 47t-27.5 56.5h100q17 -33 53.5 -50t102.5 -17q27 0 51.5 4.5t43 13.5t29.5 22t11 30q0 27 -22.5 41t-61.5 14h-123v76
h123q37 0 59 14t22 41q0 33 -39.5 52t-96.5 19q-60 0 -96.5 -15t-55.5 -48h-95q8 28 26.5 54t48.5 45.5t72.5 31t98.5 11.5q36 0 75 -8t72 -25.5t54 -46t21 -68.5z" />
    <glyph glyph-name="uni0438" unicode="&#x438;" 
d="M84 0v460h86v-335l280 335h86v-460h-86v335l-280 -335h-86z" />
    <glyph glyph-name="uni0439" unicode="&#x439;" 
d="M84 0v460h86v-335l280 335h86v-460h-86v335l-280 -335h-86zM310 602q43 0 71.5 26.5t34.5 65.5h76q-3 -35 -18 -65t-39.5 -52.5t-56.5 -35.5t-68 -13q-37 0 -69 13t-56 35.5t-39 52.5t-18 65h75q6 -39 34.5 -65.5t72.5 -26.5z" />
    <glyph glyph-name="uni043A" unicode="&#x43a;" 
d="M190 460v-200l276 200h119l-311 -230l313 -230h-130l-267 192v-192h-85v460h85z" />
    <glyph glyph-name="uni043B" unicode="&#x43b;" 
d="M525 460v-460h-86v384h-217v-119q0 -44 -3.5 -90.5t-20 -85.5t-51 -64t-95.5 -25h-28v81h17q36 0 55 17.5t28 44.5t10.5 59.5t1.5 62.5v195h389z" />
    <glyph glyph-name="uni043C" unicode="&#x43c;" 
d="M353 0h-86l-119 292v-292h-86v460h98l151 -370l151 370h96v-460h-86v292z" />
    <glyph glyph-name="uni043D" unicode="&#x43d;" 
d="M536 460v-460h-86v194h-280v-194h-86v460h86v-190h280v190h86z" />
    <glyph glyph-name="uni043E" unicode="&#x43e;" 
d="M310 -13q-55 0 -101.5 18.5t-80.5 51t-53 77t-19 96.5t19 96.5t53 77t80.5 51t101.5 18.5t101.5 -18.5t80.5 -51t53 -77t19 -96.5t-19 -96.5t-53 -77t-80.5 -51t-101.5 -18.5zM310 67q37 0 68 13t53 35t34.5 51.5t12.5 63.5t-12.5 64t-34.5 52t-53 34.5t-68 12.5
t-68 -12.5t-53 -34.5t-34.5 -52t-12.5 -64t12.5 -63.5t34.5 -51.5t53 -35t68 -13z" />
    <glyph glyph-name="uni043F" unicode="&#x43f;" 
d="M534 460v-460h-86v384h-276v-384h-86v460h448z" />
    <glyph glyph-name="uni0440" unicode="&#x440;" 
d="M76 -204v664h86v-50q27 29 71 46t96 17q60 0 105.5 -20t77 -54t47.5 -77.5t16 -91.5t-16 -91.5t-47.5 -77.5t-77 -54t-105.5 -20q-52 0 -96 17t-71 46v-254h-86zM159 230q0 -41 14.5 -72t38 -51t53.5 -30t62 -10q36 0 65.5 13t51 35t33.5 52t12 63t-12 63t-33.5 52
t-51 35t-65.5 13q-32 0 -62 -10t-53.5 -30.5t-38 -51t-14.5 -71.5z" />
    <glyph glyph-name="uni0441" unicode="&#x441;" 
d="M459 326q-20 31 -56.5 49t-82.5 18q-38 0 -69 -12.5t-53 -34.5t-34 -52t-12 -64t12 -64t34 -52t53 -34.5t69 -12.5q46 0 82.5 18t56.5 49h93q-27 -67 -88 -107t-144 -40q-54 0 -100.5 18.5t-80.5 50.5t-53.5 76.5t-19.5 97.5q0 52 19.5 97t53.5 77t80.5 50.5t100.5 18.5
q83 0 144 -40t88 -107h-93z" />
    <glyph glyph-name="uni0442" unicode="&#x442;" 
d="M55 460h510v-76h-211v-384h-86v384h-213v76z" />
    <glyph glyph-name="uni0443" unicode="&#x443;" 
d="M34 460h94l185 -363l184 363h92l-248 -485q-27 -52 -45.5 -86.5t-40 -55t-50.5 -29t-76 -8.5h-41v76h23q26 0 44 4t32 14t26.5 27.5t27.5 44.5l23 44z" />
    <glyph glyph-name="uni0444" unicode="&#x444;" 
d="M266 0h-16q-52 0 -94.5 18t-72.5 49t-46.5 73t-16.5 90t16.5 90t46.5 73t72.5 49t94.5 18h16v209h86v-209h16q52 0 94.5 -18t72.5 -49t46.5 -73t16.5 -90t-16.5 -90t-46.5 -73t-72.5 -49t-94.5 -18h-16v-204h-86v204zM365 76q36 0 63.5 12t46 33t28 49t9.5 60
q0 31 -9.5 59t-28 49t-46 33.5t-63.5 12.5h-13v-308h13zM266 76v308h-13q-36 0 -63.5 -12.5t-46 -33.5t-28 -49t-9.5 -59q0 -32 9.5 -60t28 -49t46 -33t63.5 -12h13z" />
    <glyph glyph-name="uni0445" unicode="&#x445;" 
d="M257 230l-205 230h111l150 -169l154 169h105l-207 -227l208 -233h-111l-153 172l-157 -172h-105z" />
    <glyph glyph-name="uni0446" unicode="&#x446;" 
d="M495 -126v126h-417v460h86v-384h256v384h86v-384h75v-202h-86z" />
    <glyph glyph-name="uni0447" unicode="&#x447;" 
d="M75 460h86v-141q0 -47 28 -64.5t94 -17.5q32 0 73 3.5t81 9.5v210h86v-460h-86v170q-11 -2 -30.5 -4.5t-41.5 -4.5t-43.5 -3t-35.5 -1q-105 0 -158 36.5t-53 117.5v149z" />
    <glyph glyph-name="uni0448" unicode="&#x448;" 
d="M45 0v460h86v-384h136v384h86v-384h136v384h86v-460h-530z" />
    <glyph glyph-name="uni0449" unicode="&#x449;" 
d="M523 -126v126h-485v460h86v-384h128v384h86v-384h128v384h86v-384h57v-202h-86z" />
    <glyph glyph-name="uni044A" unicode="&#x44a;" 
d="M250 460v-152h164q45 0 77.5 -12.5t53.5 -33.5t31.5 -49t10.5 -59t-10.5 -59t-31.5 -49t-53.5 -33.5t-77.5 -12.5h-250v384h-145v76h231zM250 76h161q42 0 66 20t24 58t-24 58t-66 20h-161v-156z" />
    <glyph glyph-name="uni044B" unicode="&#x44b;" 
d="M564 460v-460h-86v460h86zM143 460v-152h96q45 0 77.5 -12.5t53.5 -33.5t31.5 -49t10.5 -59t-10.5 -59t-31.5 -49t-53.5 -33.5t-77.5 -12.5h-182v460h86zM143 76h93q42 0 66 20t24 58t-24 58t-66 20h-93v-156z" />
    <glyph glyph-name="uni044C" unicode="&#x44c;" 
d="M187 460v-152h211q45 0 77.5 -12.5t53.5 -33.5t31.5 -49t10.5 -59t-10.5 -59t-31.5 -49t-53.5 -33.5t-77.5 -12.5h-297v460h86zM395 76q42 0 66 20t24 58t-24 58t-66 20h-208v-156h208z" />
    <glyph glyph-name="uni044D" unicode="&#x44d;" 
d="M65 326q27 67 88 107t144 40q54 0 100.5 -18.5t80.5 -50.5t53.5 -77t19.5 -97q0 -53 -19.5 -97.5t-53.5 -76.5t-80.5 -50.5t-100.5 -18.5q-83 0 -144 40t-88 107h95q20 -31 55.5 -49t81.5 -18q66 0 110 34.5t55 90.5h-256v76h256q-11 55 -55 90t-110 35q-46 0 -81.5 -18
t-55.5 -49h-95z" />
    <glyph glyph-name="uni044E" unicode="&#x44e;" 
d="M134 270h74q5 46 21 83.5t41 64t58 41t72 14.5q43 0 79 -17.5t61.5 -49.5t39.5 -77t14 -99t-14 -99t-39.5 -77t-61.5 -49.5t-79 -17.5q-39 0 -72.5 15t-58.5 42t-41 65t-20 85h-74v-194h-86v460h86v-190zM508 230q0 72 -28.5 117.5t-79.5 45.5t-79.5 -45.5t-28.5 -117.5
t28.5 -117.5t79.5 -45.5t79.5 45.5t28.5 117.5z" />
    <glyph glyph-name="uni044F" unicode="&#x44f;" 
d="M342 154l-176 -154h-125l179 154q-41 2 -71.5 15t-50 34t-29 48t-9.5 56q0 31 10.5 58.5t31.5 48.5t53.5 33.5t77.5 12.5h287v-460h-86v154h-92zM236 384q-42 0 -66 -20t-24 -57t24 -57t66 -20h198v154h-198z" />
    <glyph glyph-name="uni0451" unicode="&#x451;" 
d="M322 67q47 0 83.5 15.5t56.5 46.5h92q-26 -67 -87.5 -104.5t-144.5 -37.5q-57 0 -105 18t-83 50.5t-54.5 77.5t-19.5 98q0 52 19 96t52.5 76.5t80.5 51t104 18.5q54 0 98.5 -18.5t77 -50.5t50.5 -75.5t18 -92.5v-18t-2 -20h-410q4 -28 18.5 -52t37.5 -41.5t53 -27.5
t65 -10zM316 393q-69 0 -114 -33t-53 -87h322q-9 54 -49 87t-106 33zM360 664h96v-99h-96v99zM177 664h96v-99h-96v99z" />
    <glyph glyph-name="uni0452" unicode="&#x452;" 
d="M544 -56q0 -75 -43.5 -111.5t-118.5 -36.5h-81v76h73q45 0 64.5 22.5t19.5 67.5v302q0 62 -34 95.5t-96 33.5q-33 0 -61.5 -11.5t-49.5 -32t-33 -49t-12 -61.5v-239h-86v526h-74v76h74v67h86v-67h165v-76h-165v-116q24 28 65.5 45.5t98.5 17.5q47 0 85.5 -14t65.5 -40
t42 -63.5t15 -84.5v-327v0z" />
    <glyph glyph-name="uni0453" unicode="&#x453;" 
d="M532 719l-142 -185h-94l142 185h94zM541 460v-76h-340v-384h-86v460h426z" />
    <glyph glyph-name="uni0454" unicode="&#x454;" 
d="M550.008 326q-26.9961 67 -87.9893 107q-60.9922 40 -143.982 40q-53.9932 0 -100.487 -18.5t-80.4902 -50.5t-53.4941 -77q-19.4971 -45 -19.4971 -97q0 -53 19.4971 -97.5q19.498 -44.5 53.4941 -76.5t80.4902 -50.5t100.487 -18.5q82.9902 0 143.982 40
q60.9932 40 87.9893 107h-94.9883q-19.998 -31 -55.4932 -49q-35.4961 -18 -81.4902 -18q-65.9922 0 -109.986 34.5q-43.9951 34.5 -54.9932 90.5h255.969v76h-255.969q10.998 55 54.9932 90q43.9941 35 109.986 35q45.9941 0 81.4902 -18q35.4951 -18 55.4932 -49h94.9883z
" />
    <glyph glyph-name="uni0455" unicode="&#x455;" 
d="M457 330q-19 33 -59.5 48t-101.5 15q-60 0 -94.5 -17t-34.5 -46t26.5 -41.5t82.5 -16.5l107 -7q77 -5 119 -38t42 -96q0 -30 -15 -56t-43.5 -45.5t-70 -31t-93.5 -11.5q-56 0 -100.5 11.5t-77 32t-53 47t-28.5 56.5h93q33 -67 179 -67q53 0 88.5 16.5t35.5 45.5t-27.5 42
t-84.5 17l-108 8q-158 12 -158 131q0 30 15 57t43 46.5t68 31t90 11.5q56 0 99.5 -12t75 -31.5t51 -45.5t27.5 -54h-93z" />
    <glyph glyph-name="uni0456" unicode="&#x456;" 
d="M277 384h-204v76h290v-384h204v-76h-494v76h204v308zM255 565v120h121v-120h-121z" />
    <glyph glyph-name="uni0457" unicode="&#x457;" 
d="M364 664h96v-99h-96v99zM181 664h96v-99h-96v99zM277 384h-204v76h290v-384h204v-76h-494v76h204v308z" />
    <glyph glyph-name="uni0458" unicode="&#x458;" 
d="M463 460v-516q0 -75 -43.5 -111.5t-118.5 -36.5h-217v76h209q45 0 64.5 22.5t19.5 67.5v422h-260v76h346zM355 565v120h121v-120h-121z" />
    <glyph glyph-name="uni0459" unicode="&#x459;" 
d="M381 460v-152h60q45 0 77.5 -12.5t53.5 -33.5t31.5 -49t10.5 -59t-10.5 -59t-31.5 -49t-53.5 -33.5t-77.5 -12.5h-146v384h-115v-144q0 -49 -6 -92.5t-21 -76.5t-42 -52t-69 -19h-28v81h17q19 0 31 12t19 33t9.5 50t2.5 64v220h288zM438 76q42 0 66 20t24 58t-24 58
t-66 20h-57v-156h57z" />
    <glyph glyph-name="uni045A" unicode="&#x45a;" 
d="M131 460v-190h154v190h86v-152h60q45 0 77.5 -12.5t53.5 -33.5t31.5 -49t10.5 -59t-10.5 -59t-31.5 -49t-53.5 -33.5t-77.5 -12.5h-146v194h-154v-194h-88v460h88zM428 76q42 0 66 20t24 58t-24 58t-66 20h-57v-156h57z" />
    <glyph glyph-name="uni045B" unicode="&#x45b;" 
d="M336 473q47 0 85.5 -14t65.5 -40t42 -63.5t15 -84.5v-271h-86v264q0 62 -34 95.5t-96 33.5q-33 0 -61.5 -11.5t-49.5 -32t-33 -49t-12 -61.5v-239h-86v526h-74v76h74v67h86v-67h165v-76h-165v-116q24 28 65.5 45.5t98.5 17.5z" />
    <glyph glyph-name="uni045C" unicode="&#x45c;" 
d="M494 719l-142 -185h-94l142 185h94zM190 460v-200l276 200h119l-311 -230l313 -230h-130l-267 192v-192h-85v460h85z" />
    <glyph glyph-name="uni045E" unicode="&#x45e;" 
d="M34 460h94l185 -363l184 363h92l-248 -485q-27 -52 -45.5 -86.5t-40 -55t-50.5 -29t-76 -8.5h-41v76h23q26 0 44 4t32 14t26.5 27.5t27.5 44.5l23 44zM305 602q43 0 71.5 26.5t34.5 65.5h76q-3 -35 -18 -65t-39.5 -52.5t-56.5 -35.5t-68 -13q-37 0 -69 13t-56 35.5
t-39 52.5t-18 65h75q6 -39 34.5 -65.5t72.5 -26.5z" />
    <glyph glyph-name="uni045F" unicode="&#x45f;" 
d="M267 -126v126h-181v460h86v-384h276v384h86v-460h-181v-126h-86z" />
    <glyph glyph-name="uni0490" unicode="&#x490;" 
d="M488 664v139h91v-223h-391v-580h-90v664h390z" />
    <glyph glyph-name="uni0491" unicode="&#x491;" 
d="M541 576v-192h-340v-384h-86v460h340v116h86z" />
    <glyph glyph-name="uni0492" unicode="&#x492;" 
d="M447 290h-227v-290h-90v290h-105v84h105v290h450v-84h-360v-206h227v-84z" />
    <glyph glyph-name="uni0493" unicode="&#x493;" 
d="M132 252v208h411v-76h-325v-132h196v-76h-196v-176h-86v176h-100v76h100z" />
    <glyph glyph-name="uni049A" unicode="&#x49a;" 
d="M509 84h89v-231h-90v147h-30l-305 288v-288h-90v664h90v-288l305 288h119l-348 -332z" />
    <glyph glyph-name="uni049B" unicode="&#x49b;" 
d="M190 192v-192h-85v460h85v-200l276 200h119l-311 -230l209 -154h90v-202h-86v126h-30z" />
    <glyph glyph-name="uni04A2" unicode="&#x4a2;" 
d="M518 664v-580h71v-231h-90v147h-71v290h-270v-290h-90v664h90v-290h270v290h90z" />
    <glyph glyph-name="uni04A3" unicode="&#x4a3;" 
d="M496 -126v126h-73v194h-260v-194h-86v460h86v-190h260v190h86v-384h73v-202h-86z" />
    <glyph glyph-name="uni04AE" unicode="&#x4ae;" 
d="M506 664h95l-246 -417v-247h-90v247l-246 417h98l194 -328z" />
    <glyph glyph-name="uni04AF" unicode="&#x4af;" 
d="M354 0v-204h-86v204l-234 460h93l186 -365l185 365h91z" />
    <glyph glyph-name="uni04B0" unicode="&#x4b0;" 
d="M506 664h95l-214 -363h150v-84h-182v-217h-90v217h-179v84h147l-214 363h98l194 -328z" />
    <glyph glyph-name="uni04B1" unicode="&#x4b1;" 
d="M381 54h170v-76h-197v-182h-86v182h-197v76h169l-206 406h93l186 -365l185 365h91z" />
    <glyph glyph-name="uni04BA" unicode="&#x4ba;" 
d="M481.018 0.0810547v187.978q0 72.9902 -34.9961 105.486t-115.986 32.4961q-31.9961 0 -73.9902 -3.99902q-41.9951 -4 -84.9902 -14.998v-306.963h-89.9883v663.919h89.9883v-273.967q12.999 3 32.9961 6.49902q19.998 3.5 42.4951 6.5q22.4971 2.99902 43.9941 4.99902
q21.498 2 36.4961 2q129.984 0 186.978 -53.9941q56.9922 -53.9932 56.9922 -167.979v-187.978h-89.9883z" />
    <glyph glyph-name="uni04BB" unicode="&#x4bb;" 
d="M336 473q47 0 85.5 -14t65.5 -40t42 -63.5t15 -84.5v-271h-86v264q0 62 -34 95.5t-96 33.5q-33 0 -61.5 -11.5t-49.5 -32t-33 -49t-12 -61.5v-239h-86v669h86v-259q24 28 65.5 45.5t98.5 17.5z" />
    <glyph glyph-name="uni04D8" unicode="&#x4d8;" 
d="M44 370h443q-3 50 -17 91t-37 70.5t-55 45.5t-70 16q-49 0 -85 -24.5t-59 -69.5h-95q32 81 93 129.5t146 48.5q61 0 111 -26t85.5 -72t55 -109t19.5 -138t-19.5 -138t-55 -109t-85.5 -72t-111 -26q-62 0 -110.5 25t-83 71t-52.5 110.5t-18 144.5v32zM308 71
q37 0 68.5 15.5t54.5 43.5t37.5 68t18.5 88h-351q5 -98 50 -156.5t122 -58.5z" />
    <glyph glyph-name="uni04D9" unicode="&#x4d9;" 
d="M298 393q-48 0 -84 -15.5t-56 -46.5h-92q26 67 87 104.5t145 37.5q57 0 105 -18t83 -50.5t54.5 -77.5t19.5 -98q0 -52 -19 -96t-52.5 -76.5t-80.5 -51t-104 -18.5q-54 0 -98.5 18.5t-77 50.5t-50.5 75t-18 93v18t2 20h410q-4 28 -18.5 52t-37.5 41.5t-53.5 27.5t-64.5 10
zM304 67q69 0 114 33t53 87h-322q9 -54 49 -87t106 -33z" />
    <glyph glyph-name="uni04E8" unicode="&#x4e8;" 
d="M310 677q61 0 110.5 -26t85 -71.5t54.5 -109t19 -138.5t-19 -138.5t-54.5 -109t-85 -71.5t-110.5 -26t-110.5 26t-85 71.5t-54.5 109t-19 138.5t19 138.5t54.5 109t85 71.5t110.5 26zM310 593q-38 0 -69 -16t-54 -44.5t-37 -69t-18 -89.5h355q-4 49 -18 89.5t-36.5 69
t-53.5 44.5t-69 16zM310 71q38 0 69 16t53.5 44.5t36.5 69t18 89.5h-355q4 -49 18 -89.5t37 -69t54 -44.5t69 -16z" />
    <glyph glyph-name="uni04E9" unicode="&#x4e9;" 
d="M310 473q55 0 101.5 -18.5t80.5 -51t53 -77t19 -96.5t-19 -96.5t-53 -77t-80.5 -51t-101.5 -18.5t-101.5 18.5t-80.5 51t-53 77t-19 96.5t19 96.5t53 77t80.5 51t101.5 18.5zM310 67q32 0 60 9.5t49.5 26.5t36 40.5t19.5 50.5h-330q10 -55 55 -91t110 -36zM310 393
q-32 0 -59.5 -9t-49 -25.5t-36 -39t-19.5 -49.5h328q-5 27 -19.5 49.5t-36 39t-49.5 25.5t-59 9z" />
    <glyph glyph-name="uni1E02" unicode="&#x1e02;" 
d="M360 664q37 0 73 -10t65 -32.5t47 -58t18 -86.5t-20.5 -86t-57.5 -59q37 -24 57.5 -59t20.5 -86t-18 -86.5t-47 -58t-65 -32.5t-73 -10h-272v664h272zM473 187q0 51 -31.5 77t-82.5 26h-181v-206h181q51 0 82.5 26t31.5 77zM473 477q0 51 -31.5 77t-82.5 26h-181v-206
h181q51 0 82.5 26t31.5 77zM262 854h96v-100h-96v100z" />
    <glyph glyph-name="uni1E03" unicode="&#x1e03;" 
d="M162 669v-259q27 29 71 46t96 17q60 0 105.5 -20t77 -54t47.5 -77.5t16 -91.5t-16 -91.5t-47.5 -77.5t-77 -54t-105.5 -20q-52 0 -96 17t-71 46v-50h-86v669h86zM159 230q0 -41 14.5 -72t38 -51t53.5 -30t62 -10q36 0 65.5 13t51 35t33.5 52t12 63t-12 63t-33.5 52
t-51 35t-65.5 13q-32 0 -62 -10t-53.5 -30.5t-38 -51t-14.5 -71.5zM283 854h96v-100h-96v100z" />
    <glyph glyph-name="uni1E0A" unicode="&#x1e0a;" 
d="M258 664q75 0 133.5 -26.5t98.5 -71.5t61 -105.5t21 -128.5t-21 -128.5t-61 -105.5t-98.5 -71.5t-133.5 -26.5h-173v664h173zM482 332q0 55 -15.5 100.5t-44 78.5t-69.5 51t-93 18h-85v-496h85q52 0 93 18t69.5 51t44 78.5t15.5 100.5zM256 854h96v-100h-96v100z" />
    <glyph glyph-name="uni1E0B" unicode="&#x1e0b;" 
d="M544 669v-669h-86v50q-27 -29 -71 -46t-96 -17q-60 0 -105.5 20t-77 54t-47.5 77.5t-16 91.5t16 91.5t47.5 77.5t77 54t105.5 20q52 0 96 -17t71 -46v259h86zM461 230q0 41 -14.5 71.5t-38 51t-53.5 30.5t-62 10q-36 0 -65.5 -13t-51 -35t-33.5 -52t-12 -63t12 -63
t33.5 -52t51 -35t65.5 -13q32 0 62 10t53.5 30t38 51t14.5 72zM254 854h96v-100h-96v100z" />
    <glyph glyph-name="uni1E1E" unicode="&#x1e1e;" 
d="M187 580v-206h369v-84h-369v-290h-90v664h467v-84h-377zM291 854h96v-100h-96v100z" />
    <glyph glyph-name="uni1E1F" unicode="&#x1e1f;" 
d="M221 0v384h-134v76h134v61q0 75 43.5 111.5t118.5 36.5h148v-76h-140q-45 0 -64.5 -22.5t-19.5 -67.5v-43h224v-76h-224v-384h-86zM297 854h96v-100h-96v100z" />
    <glyph glyph-name="uni1E40" unicode="&#x1e40;" 
d="M310 132l135 532h112v-664h-86v445l-114 -445h-94l-114 445v-445h-86v664h112zM262 854h96v-100h-96v100z" />
    <glyph glyph-name="uni1E41" unicode="&#x1e41;" 
d="M445 473q66 0 101 -41t35 -101v-331h-86v321q0 31 -15.5 51.5t-47.5 20.5t-54.5 -22t-22.5 -60v-311h-86v321q0 31 -16 51.5t-48 20.5t-54 -21.5t-22 -60.5v-311h-86v460h86v-36q11 16 35 32.5t61 16.5q38 0 61.5 -16.5t36.5 -41.5q20 29 52.5 43.5t69.5 14.5zM260 669
h100v-104h-100v104z" />
    <glyph glyph-name="uni1E56" unicode="&#x1e56;" 
d="M569 469q0 -47 -15.5 -83.5t-43.5 -61t-67 -37.5t-86 -13h-186v-274h-90v664h276q47 0 86 -13t67 -37.5t43.5 -61t15.5 -83.5zM479 469q0 54 -34 82.5t-88 28.5h-186v-222h186q54 0 88 28.5t34 82.5zM262 854h96v-100h-96v100z" />
    <glyph glyph-name="uni1E57" unicode="&#x1e57;" 
d="M76 -204v664h86v-50q27 29 71 46t96 17q60 0 105.5 -20t77 -54t47.5 -77.5t16 -91.5t-16 -91.5t-47.5 -77.5t-77 -54t-105.5 -20q-52 0 -96 17t-71 46v-254h-86zM159 230q0 -41 14.5 -72t38 -51t53.5 -30t62 -10q36 0 65.5 13t51 35t33.5 52t12 63t-12 63t-33.5 52
t-51 35t-65.5 13q-32 0 -62 -10t-53.5 -30.5t-38 -51t-14.5 -71.5zM270 669h100v-104h-100v104z" />
    <glyph glyph-name="uni1E60" unicode="&#x1e60;" 
d="M141 165q23 -42 68 -68t106 -26q35 0 64.5 8.5t50.5 23.5t32.5 35t11.5 43q0 48 -31.5 72t-97.5 32l-107 14q-90 12 -132.5 60t-42.5 119q0 43 16.5 80t47.5 63t75.5 41t101.5 15t101.5 -16.5t77 -42.5t53.5 -57.5t30 -61.5h-95q-20 41 -65.5 67.5t-104.5 26.5
q-37 0 -65 -9.5t-46.5 -25t-27.5 -35.5t-9 -41q0 -45 29.5 -69t82.5 -31l114 -15q85 -11 135 -58.5t50 -122.5q0 -37 -15.5 -73t-47 -64t-78 -45t-108.5 -17q-61 0 -107 16t-78.5 41.5t-53 57t-30.5 63.5h95zM262 854h96v-100h-96v100z" />
    <glyph glyph-name="uni1E61" unicode="&#x1e61;" 
d="M457 330q-19 33 -59.5 48t-101.5 15q-60 0 -94.5 -17t-34.5 -46t26.5 -41.5t82.5 -16.5l107 -7q77 -5 119 -38t42 -96q0 -30 -15 -56t-43.5 -45.5t-70 -31t-93.5 -11.5q-56 0 -100.5 11.5t-77 32t-53 47t-28.5 56.5h93q33 -67 179 -67q53 0 88.5 16.5t35.5 45.5t-27.5 42
t-84.5 17l-108 8q-158 12 -158 131q0 30 15 57t43 46.5t68 31t90 11.5q56 0 99.5 -12t75 -31.5t51 -45.5t27.5 -54h-93zM265 669h100v-104h-100v104z" />
    <glyph glyph-name="uni1E6A" unicode="&#x1e6a;" 
d="M589 664v-84h-234v-580h-90v580h-234v84h558zM262 854h96v-100h-96v100z" />
    <glyph glyph-name="uni1E6B" unicode="&#x1e6b;" 
d="M292 586v-126h224v-76h-224v-218q0 -45 19.5 -67.5t64.5 -22.5h140v-76h-148q-75 0 -118.5 36.5t-43.5 111.5v236h-134v76h134v126h86zM200 788h100v-104h-100v104z" />
    <glyph glyph-name="Wgrave" unicode="&#x1e80;" 
d="M103 664l77 -479l81 479h97l82 -478l76 478h83l-106 -664h-96l-88 498l-85 -498h-97l-106 664h82zM215 891l142 -166h-94l-142 166h94z" />
    <glyph glyph-name="wgrave" unicode="&#x1e81;" 
d="M111 460l79 -337l73 337h95l75 -337l77 337h82l-113 -460h-94l-75 354l-76 -354h-93l-114 460h84zM220 719l142 -185h-94l-142 185h94z" />
    <glyph glyph-name="Wacute" unicode="&#x1e82;" 
d="M103 664l77 -479l81 479h97l82 -478l76 478h83l-106 -664h-96l-88 498l-85 -498h-97l-106 664h82zM503 891l-142 -166h-94l142 166h94z" />
    <glyph glyph-name="wacute" unicode="&#x1e83;" 
d="M111 460l79 -337l73 337h95l75 -337l77 337h82l-113 -460h-94l-75 354l-76 -354h-93l-114 460h84zM505 719l-142 -185h-94l142 185h94z" />
    <glyph glyph-name="Wdieresis" unicode="&#x1e84;" 
d="M103 664l77 -479l81 479h97l82 -478l76 478h83l-106 -664h-96l-88 498l-85 -498h-97l-106 664h82zM354 844h96v-100h-96v100zM171 844h96v-100h-96v100z" />
    <glyph glyph-name="wdieresis" unicode="&#x1e85;" 
d="M111 460l79 -337l73 337h95l75 -337l77 337h82l-113 -460h-94l-75 354l-76 -354h-93l-114 460h84zM354 664h96v-99h-96v99zM171 664h96v-99h-96v99z" />
    <glyph glyph-name="uni1E9E" unicode="&#x1e9e;" 
d="M439 580h-165q-50 0 -77 -23t-27 -73v-484h-90v484q0 87 53.5 133.5t140.5 46.5h271v-84l-164 -201q49 -5 84 -21.5t57.5 -42t33 -57.5t10.5 -67q0 -39 -13 -73.5t-40 -61t-68.5 -41.5t-97.5 -15h-103v84h100q60 0 96 26.5t36 80.5q0 53 -36 79.5t-96 26.5h-66v84z" />
    <glyph glyph-name="Ygrave" unicode="&#x1ef2;" 
d="M506 664h95l-246 -417v-247h-90v247l-246 417h98l194 -328zM220 891l142 -166h-94l-142 166h94z" />
    <glyph glyph-name="ygrave" unicode="&#x1ef3;" 
d="M34 460h94l185 -363l184 363h92l-248 -485q-27 -52 -45.5 -86.5t-40 -55t-50.5 -29t-76 -8.5h-41v76h23q26 0 44 4t32 14t26.5 27.5t27.5 44.5l23 44zM222 719l142 -185h-94l-142 185h94z" />
    <glyph glyph-name="uni2011" unicode="&#x2011;" 
d="M503 296v-81h-386v81h386z" />
    <glyph glyph-name="endash" unicode="&#x2013;" 
d="M572 296v-81h-524v81h524z" />
    <glyph glyph-name="emdash" unicode="&#x2014;" 
d="M596 296v-81h-572v81h572z" />
    <glyph glyph-name="quoteleft" unicode="&#x2018;" 
d="M419.024 663.979l-102.987 -170.979h67.9922v-150.981h-147.982v164.979l94.9883 156.981h87.9893z" />
    <glyph glyph-name="quoteright" unicode="&#x2019;" 
d="M201 342l103 171h-68v151h148v-165l-95 -157h-88z" />
    <glyph glyph-name="quotesinglbase" unicode="&#x201a;" 
d="M201 -171l103 171h-68v151h148v-165l-95 -157h-88z" />
    <glyph glyph-name="quotedblleft" unicode="&#x201c;" 
d="M534.024 663.979l-102.987 -170.979h67.9922v-150.981h-147.982v164.979l94.9883 156.981h87.9893zM286.024 663.979l-102.987 -170.979h67.9922v-150.981h-147.982v164.979l94.9883 156.981h87.9893z" />
    <glyph glyph-name="quotedblright" unicode="&#x201d;" 
d="M333 342l103 171h-68v151h148v-165l-95 -157h-88zM87 342l103 171h-68v151h148v-165l-95 -157h-88z" />
    <glyph glyph-name="quotedblbase" unicode="&#x201e;" 
d="M325 -171l103 171h-68v151h148v-165l-95 -157h-88zM79 -171l103 171h-68v151h148v-165l-95 -157h-88z" />
    <glyph glyph-name="dagger" unicode="&#x2020;" 
d="M268 460v204h86v-204h186v-82h-186v-534h-86v534h-187v82h187z" />
    <glyph glyph-name="daggerdbl" unicode="&#x2021;" 
d="M268 460v204h86v-204h186v-82h-186v-248h186v-82h-186v-204h-86v204h-187v82h187v248h-187v82h187z" />
    <glyph glyph-name="bullet" unicode="&#x2022;" 
d="M110 255q0 41 16 77.5t43 63.5t63.5 43t77.5 16t77.5 -16t63.5 -43t43 -63.5t16 -77.5t-16 -77.5t-43 -63.5t-63.5 -43t-77.5 -16t-77.5 16t-63.5 43t-43 63.5t-16 77.5z" />
    <glyph glyph-name="ellipsis" unicode="&#x2026;" 
d="M455 0v119h119v-119h-119zM249 0v119h118v-119h-118zM46 0v119h118v-119h-118z" />
    <glyph glyph-name="perthousand" unicode="&#x2030;" 
d="M275 247q29 0 53 -11t41 -29q17 18 41.5 29t53.5 11q28 0 51.5 -10t40.5 -27.5t27 -40.5t10 -49t-10 -49t-27 -40.5t-40.5 -27.5t-51.5 -10q-29 0 -53.5 10.5t-41.5 29.5q-17 -19 -41 -29.5t-53 -10.5q-28 0 -51.5 10t-41 27.5t-27 40.5t-9.5 49t9.5 49t27 40.5t41 27.5
t51.5 10zM155 671q28 0 51.5 -10t40.5 -27.5t27 -40.5t10 -49t-10 -49t-27 -40.5t-40.5 -27.5t-51.5 -10t-51.5 10t-41 27.5t-27 40.5t-9.5 49t9.5 49t27 40.5t41 27.5t51.5 10zM550 534l-482 -354v85l482 354v-85zM464 58q27 0 43.5 19t16.5 43t-16.5 43t-43.5 19
t-43.5 -19t-16.5 -43t16.5 -43t43.5 -19zM275 58q27 0 43.5 19t16.5 43v5q-2 23 -18 40t-42 17q-27 0 -43.5 -19t-16.5 -43t16.5 -43t43.5 -19zM155 482q27 0 43.5 19t16.5 43t-16.5 43t-43.5 19t-43.5 -19t-16.5 -43t16.5 -43t43.5 -19z" />
    <glyph glyph-name="guilsinglleft" unicode="&#x2039;" 
d="M444 424l-170 -189l170 -189h-112l-132 146v86l132 146h112z" />
    <glyph glyph-name="guilsinglright" unicode="&#x203a;" 
d="M288 424l132 -146v-86l-132 -146h-112l170 189l-170 189h112z" />
    <glyph glyph-name="fraction" unicode="&#x2044;" 
d="M551 664h93l-577 -664h-91z" />
    <glyph glyph-name="Euro" unicode="&#x20ac;" 
d="M398 368h-223q-1 -7 -1.5 -16t-0.5 -20q0 -12 0.5 -20t1.5 -13h207l-23 -76h-172q16 -71 58 -111.5t108 -40.5q54 0 87 25.5t54 68.5h91q-28 -81 -87.5 -129.5t-144.5 -48.5q-48 0 -90 17t-75.5 47.5t-57 74t-34.5 97.5h-76v76h65q-1 5 -1.5 13.5t-0.5 19.5t0.5 20.5
t1.5 15.5h-65v76h76q11 53 35 96t57.5 73.5t75 47t89.5 16.5q85 0 144.5 -48.5t87.5 -129.5h-91q-21 43 -54 68.5t-87 25.5q-65 0 -106.5 -39.5t-58.5 -109.5h233z" />
    <glyph glyph-name="uni20B4" unicode="&#x20b4;" 
d="M589 444v-76h-569v76h419q10 11 14 24t4 27q0 40 -34 69t-97 29q-57 0 -96.5 -26t-56.5 -68h-94q9 30 28.5 62t49.5 57.5t71.5 42t95.5 16.5q50 0 91 -13.5t70.5 -37.5t45.5 -57.5t16 -73.5q0 -15 -3 -29t-8 -22h53zM180 223q-8 -18 -8 -44q0 -48 38 -78t101 -30
q58 0 99 25.5t61 68.5h92q-10 -32 -29 -64t-49 -57.5t-73 -41t-101 -15.5q-57 0 -100 17t-71.5 44.5t-43 63t-14.5 72.5q0 10 1 20.5t4 18.5h-67v76h569v-76h-409z" />
    <glyph glyph-name="uni20B8" unicode="&#x20b8;" 
d="M555 511v-84h-200v-427h-90v427h-200v84h490zM65 580v84h490v-84h-490z" />
    <glyph glyph-name="uni20BD" unicode="&#x20bd;" 
d="M207 205h246v-84h-246v-121h-90v121h-81v84h81v69h-81v84h81v306h252q47 0 86 -13t67 -37.5t43.5 -61t15.5 -83.5t-15.5 -83.5t-43.5 -61t-67 -37.5t-86 -13h-162v-69zM207 358h162q54 0 88 28.5t34 82.5t-34 82.5t-88 28.5h-162v-222z" />
    <glyph glyph-name="uni2113" unicode="&#x2113;" 
d="M257 158q0 -82 86 -82h105v-76h-106q-87 0 -129 37.5t-42 104.5v378q0 77 40.5 117t107.5 40q31 0 57 -11.5t44.5 -31.5t28.5 -48.5t10 -61.5q0 -40 -17 -85t-45.5 -89t-64.5 -85t-75 -72v-35zM257 300q52 57 84 116.5t32 107.5q0 34 -15 53.5t-39 19.5
q-29 0 -45.5 -19.5t-16.5 -57.5v-220z" />
    <glyph glyph-name="uni2116" unicode="&#x2116;" 
d="M606 381v-63h-186v63h186zM371 664v-664h-105l-155 479v-479h-84v664h105l155 -479v479h84zM617 545q0 -27 -7.5 -50t-21 -40t-33 -26.5t-43.5 -9.5t-43.5 9.5t-33 26.5t-21 40t-7.5 50t7.5 50t21 40t33 26.5t43.5 9.5t43.5 -9.5t33 -26.5t21 -40t7.5 -50zM472 545
q0 -25 10 -44t30 -19t30 19t10 44t-10 44t-30 19t-30 -19t-10 -44z" />
    <glyph glyph-name="trademark" unicode="&#x2122;" 
d="M177 609v-297h-61v297h-96v55h253v-55h-96zM454 420l58 244h83v-352h-57v237l-56 -237h-56l-56 237v-237h-57v352h83z" />
    <glyph glyph-name="Omega" unicode="&#x2126;" 
d="M310 677q58 0 107 -24t85 -68t56 -105t20 -135q0 -54 -9 -96.5t-21 -75.5t-25.5 -56t-22.5 -37h78v-80h-191v65q29 25 52 65q20 34 36.5 87t16.5 128q0 51 -13 96.5t-36.5 80t-57 54.5t-75.5 20t-75.5 -20t-57 -54.5t-36.5 -80t-13 -96.5q0 -75 16 -128t36 -87
q23 -40 53 -65v-65h-191v80h78q-9 14 -22.5 37t-25.5 56t-21 75.5t-9 96.5q0 74 20 135t56 105t85 68t107 24z" />
    <glyph glyph-name="estimated" unicode="&#x212e;" 
d="M577.006 294.045h-442.946q2.99902 -49.9941 16.998 -90.9883q13.998 -40.9951 36.9951 -70.4922q22.9971 -29.4961 54.9932 -45.4941t69.9912 -15.998q48.9941 0 84.9902 24.4971q35.9951 24.4971 58.9922 69.4912h94.9893q-31.9961 -80.9902 -92.9893 -129.483
q-60.9922 -48.4941 -145.982 -48.4941q-60.9922 0 -110.986 25.9961q-49.9932 25.9971 -85.4893 71.9912q-35.4951 45.9951 -54.9932 108.987t-19.498 137.983q0 74.9902 19.498 137.982t54.9932 108.987q35.4961 45.9941 85.4893 71.9912q49.9941 25.9961 110.986 25.9961
q61.9932 0 110.487 -24.9961q48.4941 -24.9971 82.9893 -70.9922q34.4961 -45.9941 52.4941 -110.486t17.998 -144.482v-31.9961zM313.037 593.009q-36.9951 0 -68.4912 -15.498t-54.4932 -43.4951q-22.9971 -27.9961 -37.4951 -67.9912q-14.499 -39.9951 -18.498 -87.9893
h350.957q-4.99902 97.9883 -49.9941 156.48q-44.9941 58.4932 -121.985 58.4932z" />
    <glyph glyph-name="arrowleft" unicode="&#x2190;" 
d="M594 373v-81h-407l187 -187h-118l-227 227l227 227h118l-185 -186h405z" />
    <glyph glyph-name="arrowup" unicode="&#x2191;" 
d="M269 456l-186 -185v118l227 227l227 -227v-118l-187 187v-407h-81v405z" />
    <glyph glyph-name="arrowright" unicode="&#x2192;" 
d="M26.0723 373v-81h406.95l-186.977 -187h117.985l226.973 227l-226.973 227h-117.985l184.978 -186h-404.951z" />
    <glyph glyph-name="arrowdown" unicode="&#x2193;" 
d="M269 211.056l-186 184.978v-117.985l227 -226.973l227 226.973v117.985l-187 -186.978v406.95h-81v-404.95z" />
    <glyph glyph-name="uni2196" unicode="&#x2196;" 
d="M190 391v-262l-84 83v321h321l84 -83h-265l288 -288l-57 -57z" />
    <glyph glyph-name="uni2197" unicode="&#x2197;" 
d="M426.023 391v-262l83.9893 83v321h-320.961l-83.9893 -83h264.968l-287.965 -288l56.9932 -57z" />
    <glyph glyph-name="uni2198" unicode="&#x2198;" 
d="M190 273.048v261.968l-84 -82.9902v-320.96h321l84 82.9893h-265l288 287.965l-57 56.9932z" />
    <glyph glyph-name="uni2199" unicode="&#x2199;" 
d="M426.023 273.048v261.968l83.9893 -82.9902v-320.96h-320.961l-83.9893 82.9893h264.968l-287.965 287.965l56.9932 56.9932z" />
    <glyph glyph-name="partialdiff" unicode="&#x2202;" 
d="M255 664l219 -249q45 -51 67 -99t22 -99q0 -48 -19 -89.5t-52.5 -73t-79.5 -49.5t-100 -18q-55 0 -101.5 18t-80 49t-52.5 73t-19 90t18.5 90t51.5 73.5t77.5 49.5t96.5 18q16 0 24 -1t19 -3l-193 220h102zM312 67q37 0 67 12t52 32t34 47.5t12 58.5t-12 59t-34 48.5
t-52 32.5t-67 12t-67.5 -12t-52.5 -32.5t-34.5 -48.5t-12.5 -59t12.5 -58.5t34.5 -47.5t52.5 -32t67.5 -12z" />
    <glyph glyph-name="Delta" unicode="&#x2206;" 
d="M590 70v-70h-560v70l237 594h86zM499 80l-189 474l-189 -474h378z" />
    <glyph glyph-name="product" unicode="&#x220f;" 
d="M585 664v-84h-102v-580h-90v580h-166v-580h-90v580h-102v84h550z" />
    <glyph glyph-name="summation" unicode="&#x2211;" 
d="M432 295l-250 -215h384v-80h-514v73l299 259l-299 259v73h514v-80h-384l250 -215v-74z" />
    <glyph glyph-name="minus" unicode="&#x2212;" 
d="M527 296v-81h-435v81h435z" />
    <glyph glyph-name="uni2215" unicode="&#x2215;" 
d="M551 664h93l-577 -664h-91z" />
    <glyph glyph-name="radical" unicode="&#x221a;" 
d="M601 664l-244 -664h-82l-155 379h-101v81h158l137 -339l198 543h89z" />
    <glyph glyph-name="infinity" unicode="&#x221e;" 
d="M594 275q0 -32 -12 -59t-32 -46.5t-47 -30.5t-58 -11q-26 0 -47 7t-38 18t-29.5 24.5t-20.5 25.5q-8 -12 -20.5 -25.5t-29.5 -24.5t-38 -18t-47 -7q-31 0 -58 11t-47.5 30.5t-32 46.5t-11.5 59t11.5 59t32 46.5t47.5 30.5t58 11q26 0 47 -7t38 -18t29.5 -24.5t20.5 -25.5
q8 12 20.5 25.5t29.5 24.5t38 18t47 7q31 0 58 -11t47 -30.5t32 -46.5t12 -59zM518 275q0 31 -20.5 53t-55.5 22q-30 0 -54 -23t-38 -52q14 -29 38 -52t54 -23q35 0 55.5 22t20.5 53zM178 200q30 0 54 23t38 52q-14 29 -38 52t-54 23q-35 0 -55.5 -22t-20.5 -53t20.5 -53
t55.5 -22z" />
    <glyph glyph-name="integral" unicode="&#x222b;" 
d="M353 -59q0 -63 -43.5 -104t-129.5 -41h-45v76h45q43 0 65 22t22 57v573q0 63 43.5 104t129.5 41h45v-76h-45q-43 0 -65 -22t-22 -57v-573v0z" />
    <glyph glyph-name="approxequal" unicode="&#x2248;" 
d="M401 167q25 0 36 19.5t11 64.5h80q0 -77 -33 -120.5t-93 -43.5q-30 0 -55 13t-47.5 29t-42 29t-37.5 13q-25 0 -36 -19.5t-11 -64.5h-80q0 76 32.5 120t93.5 44q30 0 56 -13t48.5 -29t41.5 -29t36 -13zM401 341q25 0 36 19.5t11 64.5h80q0 -77 -33 -120.5t-93 -43.5
q-30 0 -55 13t-47.5 29t-42 29t-37.5 13q-25 0 -36 -19.5t-11 -64.5h-80q0 76 32.5 120t93.5 44q30 0 56 -13t48.5 -29t41.5 -29t36 -13z" />
    <glyph glyph-name="notequal" unicode="&#x2260;" 
d="M335 381l55 94h94l-55 -94h98v-82h-146l-49 -85h195v-82h-243l-55 -94h-94l55 94h-98v82h146l49 85h-195v82h243z" />
    <glyph glyph-name="lessequal" unicode="&#x2264;" 
d="M517 81v-81h-435v81h435zM517 203v-87l-435 151v81l435 151v-87l-300 -105z" />
    <glyph glyph-name="greaterequal" unicode="&#x2265;" 
d="M538 81v-81h-435v81h435zM403 307l-300 105v87l435 -151v-81l-435 -151v87z" />
    <glyph glyph-name="lozenge" unicode="&#x25ca;" 
d="M83 296v73l189 295h77l189 -295v-73l-189 -296h-77zM154 332l156 -244l157 244l-157 245z" />
    <glyph glyph-name="Udotaccent" unicode="&#xf47e;" 
d="M310 71q39 0 68.5 13t49.5 36.5t30 56t10 70.5v417h90v-417q0 -59 -16.5 -106.5t-48.5 -82t-78 -53t-105 -18.5t-105 18.5t-78 53t-48.5 82t-16.5 106.5v417h90v-417q0 -38 10 -70.5t30 -56t49.5 -36.5t68.5 -13zM262 854h96v-100h-96v100z" />
    <glyph glyph-name="udotaccent" unicode="&#xf47f;" 
d="M284 -13q-47 0 -85 14t-65 40.5t-41.5 63.5t-14.5 84v271h86v-264q0 -61 33.5 -95t94.5 -34q33 0 61 11.5t49 32.5t32.5 49t11.5 61v239h86v-460h-86v50q-24 -28 -64.5 -45.5t-97.5 -17.5zM256 669h100v-104h-100v104z" />
    <glyph glyph-name="commaaccent" unicode="&#xf6c3;" 
d="M276 -232l57 95h-56v101h111v-111l-52 -85h-60z" />
    <glyph glyph-name="cyrbreve" unicode="&#xf6d4;" 
d="M310 602q43 0 71.5 26.5t34.5 65.5h76q-3 -35 -18 -65t-39.5 -52.5t-56.5 -35.5t-68 -13q-37 0 -69 13t-56 35.5t-39 52.5t-18 65h75q6 -39 34.5 -65.5t72.5 -26.5z" />
    <glyph glyph-name="fi" unicode="&#xfb01;" 
d="M110 0v384h-85v76h85v61q0 75 43.5 111.5t118.5 36.5h71v-76h-63q-45 0 -64.5 -22.5t-19.5 -67.5v-43h328v-460h-86v384h-242v-384h-86zM431 669h100v-104h-100v104z" />
    <glyph glyph-name="fl" unicode="&#xfb02;" 
d="M110 0v384h-85v76h85v61q0 75 43.5 111.5t118.5 36.5h71v-76h-63q-45 0 -64.5 -22.5t-19.5 -67.5v-43h242v209h86v-669h-86v384h-242v-384h-86z" />
    <glyph glyph-name="one.sup" 
d="M210 434h74v202l-74 -64v78l71 63h70v-279h72v-60h-213v60z" />
    <glyph glyph-name="two.sup" 
d="M436 434v-60h-250v60l138 118q16 14 26.5 28t10.5 31q0 22 -16 35.5t-40 13.5q-23 0 -40.5 -11.5t-23.5 -37.5h-68q9 49 43 79t87 30q57 0 91 -29t34 -79q0 -26 -13 -51t-37 -45l-96 -82h154z" />
    <glyph glyph-name="three.sup" 
d="M246 471q7 -23 25 -33.5t43 -10.5q28 0 44.5 12.5t16.5 32.5t-14.5 31.5t-43.5 11.5h-45v61h44q58 0 58 41q0 20 -16 31.5t-44 11.5q-24 0 -42 -10t-25 -32h-67q10 55 48 78.5t85 23.5q30 0 53.5 -8.5t40 -22.5t25.5 -32.5t9 -39.5q0 -20 -9 -38.5t-31 -32.5
q23 -14 32 -34t9 -40q0 -21 -9 -40t-25.5 -33.5t-40.5 -23t-54 -8.5q-48 0 -85.5 24.5t-47.5 79.5h66z" />
    <glyph glyph-name="zero.sup" 
d="M452 543q0 -26 -6.5 -57t-22.5 -57.5t-43.5 -44t-69.5 -17.5t-69.5 17.5t-43.5 44t-22.5 57.5t-6.5 57q0 27 6.5 58t22.5 57.5t43.5 44t69.5 17.5t69.5 -17.5t43.5 -44t22.5 -57.5t6.5 -58zM384 543q0 19 -4 39.5t-12.5 37.5t-22.5 28.5t-35 11.5t-35 -11.5t-22.5 -28.5
t-12 -37.5t-3.5 -39.5q0 -18 3.5 -38.5t12 -38t22.5 -28.5t35 -11t35 11t22.5 28.5t12.5 38t4 38.5z" />
    <glyph glyph-name="four.sup" 
d="M407 586v-81h57v-59h-57v-72h-66v72h-181v59l167 208h78l-167 -208h103v81h66z" />
    <glyph glyph-name="five.sup" 
d="M247 471q8 -23 26 -33.5t41 -10.5q30 0 48.5 16.5t18.5 41.5q0 24 -18.5 40t-48.5 16q-38 0 -60 -22h-60l20 194h219v-60h-165l-7 -62q11 5 28.5 7.5t31.5 2.5q24 0 46.5 -7.5t40.5 -22t29 -36t11 -50.5q0 -24 -9.5 -45t-26.5 -37.5t-42 -26t-55 -9.5q-55 0 -90.5 28.5
t-44.5 75.5h67z" />
    <glyph glyph-name="six.sup" 
d="M322 600q26 0 49 -8.5t40 -24t27 -37t10 -46.5q0 -24 -9.5 -45t-26.5 -37t-41 -25.5t-53 -9.5q-30 0 -56 9.5t-45 30t-29.5 53t-10.5 77.5q0 35 7.5 68t24.5 58.5t44 41t67 15.5q48 0 80 -24t45 -70h-68q-7 16 -22 25t-33 9q-33 0 -52.5 -24t-24.5 -62q15 13 36.5 19.5
t40.5 6.5zM316 427q28 0 47 16t19 41t-19 40.5t-47 15.5t-47 -15.5t-19 -40.5t19 -41t47 -16z" />
    <glyph glyph-name="seven.sup" 
d="M187 653v60h253v-60l-166 -279h-75l166 279h-178z" />
    <glyph glyph-name="eight.sup" 
d="M312 367q-63 0 -99 30t-36 74q0 21 11 41t34 34q-22 13 -31.5 32.5t-9.5 39.5q0 43 35 72.5t96 29.5q60 0 95 -29.5t35 -72.5q0 -20 -10 -39.5t-31 -32.5q23 -14 34 -34t11 -41q0 -44 -36 -74t-98 -30zM312 427q30 0 48.5 12.5t18.5 32.5t-18 31.5t-49 11.5t-49.5 -11.5
t-18.5 -31.5t18.5 -32.5t49.5 -12.5zM375 618q0 18 -17 30t-46 12t-46.5 -12t-17.5 -30q0 -20 17 -31.5t47 -11.5q29 0 46 11.5t17 31.5z" />
    <glyph glyph-name="nine.sup" 
d="M296 487q-26 0 -49 8.5t-40 24t-27 37t-10 46.5q0 24 9.5 45t26.5 37t41 25.5t53 9.5q30 0 56 -9.5t45 -30t29.5 -53t10.5 -77.5q0 -35 -7 -68t-23.5 -58.5t-43.5 -41t-66 -15.5q-47 0 -79 24t-45 70h68q7 -16 22 -25t32 -9q32 0 50.5 24t23.5 62q-15 -13 -36.5 -19.5
t-40.5 -6.5zM302 660q-28 0 -47 -16t-19 -41t19 -40.5t47 -15.5t47 15.5t19 40.5t-19 41t-47 16z" />
    <glyph glyph-name="zero.sub" 
d="M452 134q0 -26 -6.5 -57t-22.5 -57.5t-43.5 -44t-69.5 -17.5t-69.5 17.5t-43.5 44t-22.5 57.5t-6.5 57q0 27 6.5 58t22.5 57.5t43.5 44t69.5 17.5t69.5 -17.5t43.5 -44t22.5 -57.5t6.5 -58zM384 134q0 19 -4 39.5t-12.5 37.5t-22.5 28.5t-35 11.5t-35 -11.5t-22.5 -28.5
t-12 -37.5t-3.5 -39.5q0 -18 3.5 -38.5t12 -38t22.5 -28.5t35 -11t35 11t22.5 28.5t12.5 38t4 38.5z" />
    <glyph glyph-name="one.sub" 
d="M210 25h74v202l-74 -64v78l71 63h70v-279h72v-60h-213v60z" />
    <glyph glyph-name="two.sub" 
d="M436 25v-60h-250v60l138 118q16 14 26.5 28t10.5 31q0 22 -16 35.5t-40 13.5q-23 0 -40.5 -11.5t-23.5 -37.5h-68q9 49 43 79t87 30q57 0 91 -29t34 -79q0 -26 -13 -51t-37 -45l-96 -82h154z" />
    <glyph glyph-name="three.sub" 
d="M246 62q7 -23 25 -33.5t43 -10.5q28 0 44.5 12.5t16.5 32.5t-14.5 31.5t-43.5 11.5h-45v61h44q58 0 58 41q0 20 -16 31.5t-44 11.5q-24 0 -42 -10t-25 -32h-67q10 55 48 78.5t85 23.5q30 0 53.5 -8.5t40 -22.5t25.5 -32.5t9 -39.5q0 -20 -9 -38.5t-31 -32.5
q23 -14 32 -34t9 -40q0 -21 -9 -40t-25.5 -33.5t-40.5 -23t-54 -8.5q-48 0 -85.5 24.5t-47.5 79.5h66z" />
    <glyph glyph-name="four.sub" 
d="M407 177v-81h57v-59h-57v-72h-66v72h-181v59l167 208h78l-167 -208h103v81h66z" />
    <glyph glyph-name="five.sub" 
d="M247 62q8 -23 26 -33.5t41 -10.5q30 0 48.5 16.5t18.5 41.5q0 24 -18.5 40t-48.5 16q-38 0 -60 -22h-60l20 194h219v-60h-165l-7 -62q11 5 28.5 7.5t31.5 2.5q24 0 46.5 -7.5t40.5 -22t29 -36t11 -50.5q0 -24 -9.5 -45t-26.5 -37.5t-42 -26t-55 -9.5q-55 0 -90.5 28.5
t-44.5 75.5h67z" />
    <glyph glyph-name="six.sub" 
d="M322 191q26 0 49 -8.5t40 -24t27 -37t10 -46.5q0 -24 -9.5 -45t-26.5 -37t-41 -25.5t-53 -9.5q-30 0 -56 9.5t-45 30t-29.5 53t-10.5 77.5q0 35 7.5 68t24.5 58.5t44 41t67 15.5q48 0 80 -24t45 -70h-68q-7 16 -22 25t-33 9q-33 0 -52.5 -24t-24.5 -62q15 13 36.5 19.5
t40.5 6.5zM316 18q28 0 47 16t19 41t-19 40.5t-47 15.5t-47 -15.5t-19 -40.5t19 -41t47 -16z" />
    <glyph glyph-name="seven.sub" 
d="M187 244v60h253v-60l-166 -279h-75l166 279h-178z" />
    <glyph glyph-name="eight.sub" 
d="M312 -42q-63 0 -99 30t-36 74q0 21 11 41t34 34q-22 13 -31.5 32.5t-9.5 39.5q0 43 35 72.5t96 29.5q60 0 95 -29.5t35 -72.5q0 -20 -10 -39.5t-31 -32.5q23 -14 34 -34t11 -41q0 -44 -36 -74t-98 -30zM312 18q30 0 48.5 12.5t18.5 32.5t-18 31.5t-49 11.5t-49.5 -11.5
t-18.5 -31.5t18.5 -32.5t49.5 -12.5zM375 209q0 18 -17 30t-46 12t-46.5 -12t-17.5 -30q0 -20 17 -31.5t47 -11.5q29 0 46 11.5t17 31.5z" />
    <glyph glyph-name="nine.sub" 
d="M296 78q-26 0 -49 8.5t-40 24t-27 37t-10 46.5q0 24 9.5 45t26.5 37t41 25.5t53 9.5q30 0 56 -9.5t45 -30t29.5 -53t10.5 -77.5q0 -35 -7 -68t-23.5 -58.5t-43.5 -41t-66 -15.5q-47 0 -79 24t-45 70h68q7 -16 22 -25t32 -9q32 0 50.5 24t23.5 62q-15 -13 -36.5 -19.5
t-40.5 -6.5zM302 251q-28 0 -47 -16t-19 -41t19 -40.5t47 -15.5t47 15.5t19 40.5t-19 41t-47 16z" />
    <glyph glyph-name="Tcommaaccent" 
d="M589 664v-84h-234v-580h-90v580h-234v84h558zM254 -232l57 95h-56v101h111v-111l-52 -85h-60z" />
    <glyph glyph-name="tcommaaccent" 
d="M292 586v-126h224v-76h-224v-218q0 -45 19.5 -67.5t64.5 -22.5h140v-76h-148q-75 0 -118.5 36.5t-43.5 111.5v236h-134v76h134v126h86zM258 -232l57 95h-56v101h111v-111l-52 -85h-60z" />
    <glyph glyph-name="zero.numr" 
d="M452 495q0 -26 -6.5 -57t-22.5 -57.5t-43.5 -44t-69.5 -17.5t-69.5 17.5t-43.5 44t-22.5 57.5t-6.5 57q0 27 6.5 58t22.5 57.5t43.5 44t69.5 17.5t69.5 -17.5t43.5 -44t22.5 -57.5t6.5 -58zM384 495q0 19 -4 39.5t-12.5 37.5t-22.5 28.5t-35 11.5t-35 -11.5t-22.5 -28.5
t-12 -37.5t-3.5 -39.5q0 -18 3.5 -38.5t12 -38t22.5 -28.5t35 -11t35 11t22.5 28.5t12.5 38t4 38.5z" />
    <glyph glyph-name="one.numr" 
d="M210 386h74v202l-74 -64v78l71 63h70v-279h72v-60h-213v60z" />
    <glyph glyph-name="two.numr" 
d="M436 386v-60h-250v60l138 118q16 14 26.5 28t10.5 31q0 22 -16 35.5t-40 13.5q-23 0 -40.5 -11.5t-23.5 -37.5h-68q9 49 43 79t87 30q57 0 91 -29t34 -79q0 -26 -13 -51t-37 -45l-96 -82h154z" />
    <glyph glyph-name="three.numr" 
d="M246 423q7 -23 25 -33.5t43 -10.5q28 0 44.5 12.5t16.5 32.5t-14.5 31.5t-43.5 11.5h-45v61h44q58 0 58 41q0 20 -16 31.5t-44 11.5q-24 0 -42 -10t-25 -32h-67q10 55 48 78.5t85 23.5q30 0 53.5 -8.5t40 -22.5t25.5 -32.5t9 -39.5q0 -20 -9 -38.5t-31 -32.5
q23 -14 32 -34t9 -40q0 -21 -9 -40t-25.5 -33.5t-40.5 -23t-54 -8.5q-48 0 -85.5 24.5t-47.5 79.5h66z" />
    <glyph glyph-name="four.numr" 
d="M407 538v-81h57v-59h-57v-72h-66v72h-181v59l167 208h78l-167 -208h103v81h66z" />
    <glyph glyph-name="five.numr" 
d="M247 423q8 -23 26 -33.5t41 -10.5q30 0 48.5 16.5t18.5 41.5q0 24 -18.5 40t-48.5 16q-38 0 -60 -22h-60l20 194h219v-60h-165l-7 -62q11 5 28.5 7.5t31.5 2.5q24 0 46.5 -7.5t40.5 -22t29 -36t11 -50.5q0 -24 -9.5 -45t-26.5 -37.5t-42 -26t-55 -9.5q-55 0 -90.5 28.5
t-44.5 75.5h67z" />
    <glyph glyph-name="six.numr" 
d="M322 552q26 0 49 -8.5t40 -24t27 -37t10 -46.5q0 -24 -9.5 -45t-26.5 -37t-41 -25.5t-53 -9.5q-30 0 -56 9.5t-45 30t-29.5 53t-10.5 77.5q0 35 7.5 68t24.5 58.5t44 41t67 15.5q48 0 80 -24t45 -70h-68q-7 16 -22 25t-33 9q-33 0 -52.5 -24t-24.5 -62q15 13 36.5 19.5
t40.5 6.5zM316 379q28 0 47 16t19 41t-19 40.5t-47 15.5t-47 -15.5t-19 -40.5t19 -41t47 -16z" />
    <glyph glyph-name="seven.numr" 
d="M187 605v60h253v-60l-166 -279h-75l166 279h-178z" />
    <glyph glyph-name="eight.numr" 
d="M312 319q-63 0 -99 30t-36 74q0 21 11 41t34 34q-22 13 -31.5 32.5t-9.5 39.5q0 43 35 72.5t96 29.5q60 0 95 -29.5t35 -72.5q0 -20 -10 -39.5t-31 -32.5q23 -14 34 -34t11 -41q0 -44 -36 -74t-98 -30zM312 379q30 0 48.5 12.5t18.5 32.5t-18 31.5t-49 11.5t-49.5 -11.5
t-18.5 -31.5t18.5 -32.5t49.5 -12.5zM375 570q0 18 -17 30t-46 12t-46.5 -12t-17.5 -30q0 -20 17 -31.5t47 -11.5q29 0 46 11.5t17 31.5z" />
    <glyph glyph-name="nine.numr" 
d="M296 439q-26 0 -49 8.5t-40 24t-27 37t-10 46.5q0 24 9.5 45t26.5 37t41 25.5t53 9.5q30 0 56 -9.5t45 -30t29.5 -53t10.5 -77.5q0 -35 -7 -68t-23.5 -58.5t-43.5 -41t-66 -15.5q-47 0 -79 24t-45 70h68q7 -16 22 -25t32 -9q32 0 50.5 24t23.5 62q-15 -13 -36.5 -19.5
t-40.5 -6.5zM302 612q-28 0 -47 -16t-19 -41t19 -40.5t47 -15.5t47 15.5t19 40.5t-19 41t-47 16z" />
    <glyph glyph-name="zero.dnom" 
d="M485 170q0 -26 -6.5 -57t-22.5 -57.5t-43.5 -44t-69.5 -17.5t-69.5 17.5t-43.5 44t-22.5 57.5t-6.5 57q0 27 6.5 58t22.5 57.5t43.5 44t69.5 17.5t69.5 -17.5t43.5 -44t22.5 -57.5t6.5 -58zM417 170q0 19 -4 39.5t-12.5 37.5t-22.5 28.5t-35 11.5t-35 -11.5t-22.5 -28.5
t-12 -37.5t-3.5 -39.5q0 -18 3.5 -38.5t12 -38t22.5 -28.5t35 -11t35 11t22.5 28.5t12.5 38t4 38.5z" />
    <glyph glyph-name="one.dnom" 
d="M210 61h74v202l-74 -64v78l71 63h70v-279h72v-60h-213v60z" />
    <glyph glyph-name="two.dnom" 
d="M436 61v-60h-250v60l138 118q16 14 26.5 28t10.5 31q0 22 -16 35.5t-40 13.5q-23 0 -40.5 -11.5t-23.5 -37.5h-68q9 49 43 79t87 30q57 0 91 -29t34 -79q0 -26 -13 -51t-37 -45l-96 -82h154z" />
    <glyph glyph-name="three.dnom" 
d="M246 98q7 -23 25 -33.5t43 -10.5q28 0 44.5 12.5t16.5 32.5t-14.5 31.5t-43.5 11.5h-45v61h44q58 0 58 41q0 20 -16 31.5t-44 11.5q-24 0 -42 -10t-25 -32h-67q10 55 48 78.5t85 23.5q30 0 53.5 -8.5t40 -22.5t25.5 -32.5t9 -39.5q0 -20 -9 -38.5t-31 -32.5
q23 -14 32 -34t9 -40q0 -21 -9 -40t-25.5 -33.5t-40.5 -23t-54 -8.5q-48 0 -85.5 24.5t-47.5 79.5h66z" />
    <glyph glyph-name="four.dnom" 
d="M407 213v-81h57v-59h-57v-72h-66v72h-181v59l167 208h78l-167 -208h103v81h66z" />
    <glyph glyph-name="five.dnom" 
d="M247 98q8 -23 26 -33.5t41 -10.5q30 0 48.5 16.5t18.5 41.5q0 24 -18.5 40t-48.5 16q-38 0 -60 -22h-60l20 194h219v-60h-165l-7 -62q11 5 28.5 7.5t31.5 2.5q24 0 46.5 -7.5t40.5 -22t29 -36t11 -50.5q0 -24 -9.5 -45t-26.5 -37.5t-42 -26t-55 -9.5q-55 0 -90.5 28.5
t-44.5 75.5h67z" />
    <glyph glyph-name="six.dnom" 
d="M322 227q26 0 49 -8.5t40 -24t27 -37t10 -46.5q0 -24 -9.5 -45t-26.5 -37t-41 -25.5t-53 -9.5q-30 0 -56 9.5t-45 30t-29.5 53t-10.5 77.5q0 35 7.5 68t24.5 58.5t44 41t67 15.5q48 0 80 -24t45 -70h-68q-7 16 -22 25t-33 9q-33 0 -52.5 -24t-24.5 -62q15 13 36.5 19.5
t40.5 6.5zM316 54q28 0 47 16t19 41t-19 40.5t-47 15.5t-47 -15.5t-19 -40.5t19 -41t47 -16z" />
    <glyph glyph-name="seven.dnom" 
d="M187 280v60h253v-60l-166 -279h-75l166 279h-178z" />
    <glyph glyph-name="eight.dnom" 
d="M312 -6q-63 0 -99 30t-36 74q0 21 11 41t34 34q-22 13 -31.5 32.5t-9.5 39.5q0 43 35 72.5t96 29.5q60 0 95 -29.5t35 -72.5q0 -20 -10 -39.5t-31 -32.5q23 -14 34 -34t11 -41q0 -44 -36 -74t-98 -30zM312 54q30 0 48.5 12.5t18.5 32.5t-18 31.5t-49 11.5t-49.5 -11.5
t-18.5 -31.5t18.5 -32.5t49.5 -12.5zM375 245q0 18 -17 30t-46 12t-46.5 -12t-17.5 -30q0 -20 17 -31.5t47 -11.5q29 0 46 11.5t17 31.5z" />
    <glyph glyph-name="nine.dnom" 
d="M296 114q-26 0 -49 8.5t-40 24t-27 37t-10 46.5q0 24 9.5 45t26.5 37t41 25.5t53 9.5q30 0 56 -9.5t45 -30t29.5 -53t10.5 -77.5q0 -35 -7 -68t-23.5 -58.5t-43.5 -41t-66 -15.5q-47 0 -79 24t-45 70h68q7 -16 22 -25t32 -9q32 0 50.5 24t23.5 62q-15 -13 -36.5 -19.5
t-40.5 -6.5zM302 287q-28 0 -47 -16t-19 -41t19 -40.5t47 -15.5t47 15.5t19 40.5t-19 41t-47 16z" />
    <glyph glyph-name="circumflex.cap" 
d="M264 891h93l150 -166h-94l-102 111l-102 -111h-95z" />
    <glyph glyph-name="dieresis.cap" 
d="M354 844h96v-100h-96v100zM171 844h96v-100h-96v100z" />
    <glyph glyph-name="acute.cap" 
d="M427 891l-142 -166h-94l142 166h94z" />
    <glyph glyph-name="grave.cap" 
d="M284 891l142 -166h-94l-142 166h94z" />
    <glyph glyph-name="ring.cap" 
d="M176 845q0 28 10.5 52.5t29 43t43 29t52.5 10.5t52.5 -10.5t43 -29t29 -43t10.5 -52.5t-10.5 -52.5t-29 -43t-43 -29t-52.5 -10.5t-52.5 10.5t-43 29t-29 43t-10.5 52.5zM246 845q0 -28 18.5 -46.5t46.5 -18.5t46.5 18.5t18.5 46.5t-18.5 46.5t-46.5 18.5t-46.5 -18.5
t-18.5 -46.5z" />
    <glyph glyph-name="caron.cap" 
d="M360 725h-101l-146 166h94l102 -114l102 114h95z" />
    <glyph glyph-name="dotaccent.cap" 
d="M262 854h96v-100h-96v100z" />
    <glyph glyph-name="breve.cap" 
d="M311 726q-37 0 -69.5 12.5t-57.5 34.5t-41 52t-20 66h77q8 -38 38.5 -64.5t72.5 -26.5q41 0 71.5 26.5t38.5 64.5h77q-4 -36 -20 -66t-41 -52t-57 -34.5t-69 -12.5z" />
    <glyph glyph-name="hungarumlaut.cap" 
d="M505 891l-142 -166h-94l142 166h94zM351 891l-142 -166h-94l142 166h94z" />
    <glyph glyph-name="tilde.cap" 
d="M387 800q22 0 32.5 21.5t10.5 68.5h72q0 -77 -30.5 -120.5t-85.5 -43.5q-26 0 -47 14t-39.5 31t-35 31t-32.5 14q-43 0 -43 -90h-72q0 76 30.5 120t85.5 44q26 0 47.5 -14t40.5 -31t35 -31t31 -14z" />
    <glyph glyph-name="macron.cap" 
d="M486 818v-74h-351v74h351z" />
    <glyph glyph-name="cyrbreve.cap" 
d="M193 882q3 -21 13 -39t25.5 -32t35.5 -22t43 -8q22 0 42.5 8t36 22t25.5 32t13 39h76q-3 -37 -18.5 -69t-41.5 -55.5t-60 -37t-73 -13.5t-73 13.5t-60 37t-41.5 55.5t-18.5 69h76z" />
    <glyph glyph-name="a.ss03" 
d="M544 460v-460h-86v50q-27 -29 -71 -46t-96 -17q-60 0 -105.5 20t-77 54t-47.5 77.5t-16 91.5t16 91.5t47.5 77.5t77 54t105.5 20q52 0 96 -17t71 -46v50h86zM461 230q0 41 -14.5 71.5t-38 51t-53.5 30.5t-62 10q-36 0 -65.5 -13t-51 -35t-33.5 -52t-12 -63t12 -63
t33.5 -52t51 -35t65.5 -13q32 0 62 10t53.5 30t38 51t14.5 72z" />
    <glyph glyph-name="aacute.ss03" 
d="M493 719l-142 -185h-94l142 185h94zM544 460v-460h-86v50q-27 -29 -71 -46t-96 -17q-60 0 -105.5 20t-77 54t-47.5 77.5t-16 91.5t16 91.5t47.5 77.5t77 54t105.5 20q52 0 96 -17t71 -46v50h86zM461 230q0 41 -14.5 71.5t-38 51t-53.5 30.5t-62 10q-36 0 -65.5 -13
t-51 -35t-33.5 -52t-12 -63t12 -63t33.5 -52t51 -35t65.5 -13q32 0 62 10t53.5 30t38 51t14.5 72z" />
    <glyph glyph-name="agrave.ss03" 
d="M264 719l142 -185h-94l-142 185h94zM544 460v-460h-86v50q-27 -29 -71 -46t-96 -17q-60 0 -105.5 20t-77 54t-47.5 77.5t-16 91.5t16 91.5t47.5 77.5t77 54t105.5 20q52 0 96 -17t71 -46v50h86zM461 230q0 41 -14.5 71.5t-38 51t-53.5 30.5t-62 10q-36 0 -65.5 -13
t-51 -35t-33.5 -52t-12 -63t12 -63t33.5 -52t51 -35t65.5 -13q32 0 62 10t53.5 30t38 51t14.5 72z" />
    <glyph glyph-name="acircumflex.ss03" 
d="M544 460v-460h-86v50q-27 -29 -71 -46t-96 -17q-60 0 -105.5 20t-77 54t-47.5 77.5t-16 91.5t16 91.5t47.5 77.5t77 54t105.5 20q52 0 96 -17t71 -46v50h86zM461 230q0 41 -14.5 71.5t-38 51t-53.5 30.5t-62 10q-36 0 -65.5 -13t-51 -35t-33.5 -52t-12 -63t12 -63
t33.5 -52t51 -35t65.5 -13q32 0 62 10t53.5 30t38 51t14.5 72zM263 719h95l149 -185h-92l-104 124l-104 -124h-93z" />
    <glyph glyph-name="adieresis.ss03" 
d="M544 460v-460h-86v50q-27 -29 -71 -46t-96 -17q-60 0 -105.5 20t-77 54t-47.5 77.5t-16 91.5t16 91.5t47.5 77.5t77 54t105.5 20q52 0 96 -17t71 -46v50h86zM461 230q0 41 -14.5 71.5t-38 51t-53.5 30.5t-62 10q-36 0 -65.5 -13t-51 -35t-33.5 -52t-12 -63t12 -63
t33.5 -52t51 -35t65.5 -13q32 0 62 10t53.5 30t38 51t14.5 72zM353 664h96v-99h-96v99zM170 664h96v-99h-96v99z" />
    <glyph glyph-name="atilde.ss03" 
d="M388 610q22 0 32.5 21.5t10.5 68.5h72q0 -77 -30.5 -120.5t-85.5 -43.5q-26 0 -47 14t-39.5 31t-35 31t-32.5 14q-43 0 -43 -90h-72q0 76 30.5 120t85.5 44q26 0 47.5 -14t40.5 -31t35 -31t31 -14zM544 460v-460h-86v50q-27 -29 -71 -46t-96 -17q-60 0 -105.5 20t-77 54
t-47.5 77.5t-16 91.5t16 91.5t47.5 77.5t77 54t105.5 20q52 0 96 -17t71 -46v50h86zM461 230q0 41 -14.5 71.5t-38 51t-53.5 30.5t-62 10q-36 0 -65.5 -13t-51 -35t-33.5 -52t-12 -63t12 -63t33.5 -52t51 -35t65.5 -13q32 0 62 10t53.5 30t38 51t14.5 72z" />
    <glyph glyph-name="aring.ss03" 
d="M175 655q0 28 10.5 52.5t29 43t43 29t52.5 10.5t52.5 -10.5t43 -29t29 -43t10.5 -52.5t-10.5 -52.5t-29 -43t-43 -29t-52.5 -10.5t-52.5 10.5t-43 29t-29 43t-10.5 52.5zM245 655q0 -28 18.5 -46.5t46.5 -18.5t46.5 18.5t18.5 46.5t-18.5 46.5t-46.5 18.5t-46.5 -18.5
t-18.5 -46.5zM544 460v-460h-86v50q-27 -29 -71 -46t-96 -17q-60 0 -105.5 20t-77 54t-47.5 77.5t-16 91.5t16 91.5t47.5 77.5t77 54t105.5 20q52 0 96 -17t71 -46v50h86zM461 230q0 41 -14.5 71.5t-38 51t-53.5 30.5t-62 10q-36 0 -65.5 -13t-51 -35t-33.5 -52t-12 -63
t12 -63t33.5 -52t51 -35t65.5 -13q32 0 62 10t53.5 30t38 51t14.5 72z" />
    <glyph glyph-name="amacron.ss03" 
d="M544 460v-460h-86v50q-27 -29 -71 -46t-96 -17q-60 0 -105.5 20t-77 54t-47.5 77.5t-16 91.5t16 91.5t47.5 77.5t77 54t105.5 20q52 0 96 -17t71 -46v50h86zM461 230q0 41 -14.5 71.5t-38 51t-53.5 30.5t-62 10q-36 0 -65.5 -13t-51 -35t-33.5 -52t-12 -63t12 -63
t33.5 -52t51 -35t65.5 -13q32 0 62 10t53.5 30t38 51t14.5 72zM486 639v-74h-351v74h351z" />
    <glyph glyph-name="abreve.ss03" 
d="M310 608q22 0 41 9.5t33 25t22.5 35.5t10.5 41h75q-3 -37 -17.5 -70.5t-38.5 -59t-56 -40.5t-70 -15t-70 15t-56 40.5t-38.5 59t-17.5 70.5h75q2 -21 10.5 -41t22.5 -35.5t32.5 -25t41.5 -9.5zM544 460v-460h-86v50q-27 -29 -71 -46t-96 -17q-60 0 -105.5 20t-77 54
t-47.5 77.5t-16 91.5t16 91.5t47.5 77.5t77 54t105.5 20q52 0 96 -17t71 -46v50h86zM461 230q0 41 -14.5 71.5t-38 51t-53.5 30.5t-62 10q-36 0 -65.5 -13t-51 -35t-33.5 -52t-12 -63t12 -63t33.5 -52t51 -35t65.5 -13q32 0 62 10t53.5 30t38 51t14.5 72z" />
    <glyph glyph-name="aogonek.ss03" 
d="M458 50q-27 -29 -71 -46t-96 -17q-60 0 -105.5 20t-77 54t-47.5 77.5t-16 91.5t16 91.5t47.5 77.5t77 54t105.5 20q52 0 96 -17t71 -46v50h86v-460q-14 -9 -30 -21t-30 -25t-23.5 -26.5t-9.5 -25.5q0 -33 49 -33h44v-73h-48q-125 0 -125 88q0 32 25 61t62 55v50zM461 230
q0 41 -14.5 71.5t-38 51t-53.5 30.5t-62 10q-36 0 -65.5 -13t-51 -35t-33.5 -52t-12 -63t12 -63t33.5 -52t51 -35t65.5 -13q32 0 62 10t53.5 30t38 51t14.5 72z" />
    <glyph glyph-name="uni0430.ss03" 
d="M544 460v-460h-86v50q-27 -29 -71 -46t-96 -17q-60 0 -105.5 20t-77 54t-47.5 77.5t-16 91.5t16 91.5t47.5 77.5t77 54t105.5 20q52 0 96 -17t71 -46v50h86zM461 230q0 41 -14.5 71.5t-38 51t-53.5 30.5t-62 10q-36 0 -65.5 -13t-51 -35t-33.5 -52t-12 -63t12 -63
t33.5 -52t51 -35t65.5 -13q32 0 62 10t53.5 30t38 51t14.5 72z" />
    <glyph glyph-name="slash.case" 
d="M457 704h97l-392 -744h-96z" />
    <glyph glyph-name="at.case" 
d="M501 139v33q-20 -24 -51.5 -35t-56.5 -11q-52 0 -88 20.5t-58 51t-31.5 67t-9.5 68.5q0 33 10 69.5t32 66.5t58 50t88 20q29 0 60.5 -12.5t48.5 -32.5q-8 87 -53.5 137t-119.5 50q-49 0 -87.5 -24.5t-65.5 -70t-41 -110t-14 -144.5t15 -144t42.5 -110t67 -70.5
t89.5 -24.5q42 0 77 17.5t61 49.5h92q-38 -68 -96.5 -106t-133.5 -38q-67 0 -121.5 31t-93.5 87t-60 134.5t-21 173.5q0 96 20.5 174.5t58 134.5t91.5 86.5t120 30.5q52 0 97.5 -19t79.5 -55t53.5 -88t19.5 -118v-339h-79zM396 201q28 0 49 11.5t34.5 30t20 42t6.5 47.5
t-6.5 47t-20 41.5t-34.5 30t-49 11.5t-48.5 -11.5t-34 -30t-20 -41.5t-6.5 -47t6.5 -47.5t20 -42t34 -30t48.5 -11.5z" />
    <glyph glyph-name="backslash.case" 
d="M163.056 704h-96.9883l391.952 -744h95.9883z" />
    <glyph glyph-name="hyphen.case" 
d="M503 373v-81h-386v81h386z" />
    <glyph glyph-name="endash.case" 
d="M572 373v-81h-524v81h524z" />
    <glyph glyph-name="emdash.case" 
d="M596 373v-81h-572v81h572z" />
    <glyph glyph-name="bracketleft.case" 
d="M290 -4h208v-74h-294v820h294v-74h-208v-672z" />
    <glyph glyph-name="bracketright.case" 
d="M330.035 -4h-207.975v-74h293.965v820h-293.965v-74h207.975v-672z" />
    <glyph glyph-name="braceleft.case" 
d="M346.033 451v141q0 38 19.498 57q19.4971 19 61.4922 19h84.9902v74h-94.9893q-33.9951 0 -62.4922 -8.5q-28.4961 -8.5 -49.4941 -26.5q-20.9971 -18 -32.9951 -45q-11.999 -27 -11.999 -64v-130q0 -43 -28.4961 -68.5q-28.4971 -25.5 -74.4912 -30.5v-72
q45.9941 -5 74.4912 -30.5q28.4961 -25.5 28.4961 -68.5v-132q0 -37 11.999 -64q11.998 -27 32.9951 -45q20.998 -18 49.4941 -26.5q28.4971 -8.5 62.4922 -8.5h94.9893v74h-84.9902q-41.9951 0 -61.4922 19q-19.498 19 -19.498 57v143q0 46 -23.9971 75t-52.9932 43
q13.998 7 27.9961 17.5q13.999 10.5 24.9971 25q10.999 14.5 17.498 33.5t6.49902 42z" />
    <glyph glyph-name="braceright.case" 
d="M274 451v141q0 38 -19.5 57t-61.5 19h-85v74h95q34 0 62.5 -8.5t49.5 -26.5t33 -45t12 -64v-130q0 -43 28.5 -68.5t74.5 -30.5v-72q-46 -5 -74.5 -30.5t-28.5 -68.5v-132q0 -37 -12 -64t-33 -45t-49.5 -26.5t-62.5 -8.5h-95v74h85q42 0 61.5 19t19.5 57v143q0 46 24 75
t53 43q-14 7 -28 17.5t-25 25t-17.5 33.5t-6.5 42z" />
    <glyph glyph-name="parenleft.case" 
d="M440 742q-27 -36 -53 -78t-46 -92.5t-32.5 -109.5t-12.5 -130t12.5 -130t32.5 -109.5t46 -92.5t53 -78h-93q-30 36 -55 80.5t-43 96.5t-28.5 110.5t-10.5 122.5t10.5 122.5t28.5 110.5t43 96.5t55 80.5h93z" />
    <glyph glyph-name="parenright.case" 
d="M180.054 742q26.9971 -36 52.9932 -78q25.9971 -42 45.9951 -92.5q19.9971 -50.5 32.4961 -109.5q12.498 -59 12.498 -130t-12.498 -130q-12.499 -59 -32.4961 -109.5q-19.998 -50.5 -45.9951 -92.5q-25.9961 -42 -52.9932 -78h92.9883q29.9971 36 54.9932 80.5
q24.9971 44.5 42.9951 96.5t28.4971 110.5q10.498 58.5 10.498 122.5t-10.498 122.5q-10.499 58.5 -28.4971 110.5t-42.9951 96.5q-24.9961 44.5 -54.9932 80.5h-92.9883z" />
    <glyph glyph-name="guillemotright.case" 
d="M179 521l132 -146v-86l-132 -146h-112l170 189l-170 189h112zM402 521l132 -146v-86l-132 -146h-112l170 189l-170 189h112z" />
    <glyph glyph-name="guillemotleft.case" 
d="M553 521l-170 -189l170 -189h-112l-132 146v86l132 146h112zM330 521l-170 -189l170 -189h-112l-132 146v86l132 146h112z" />
    <glyph glyph-name="guilsinglright.case" 
d="M288 521l132 -146v-86l-132 -146h-112l170 189l-170 189h112z" />
    <glyph glyph-name="guilsinglleft.case" 
d="M444 521l-170 -189l170 -189h-112l-132 146v86l132 146h112z" />
    <glyph glyph-name="exclamdown.case" 
d="M355 465.024h-90v-464.943h90v464.943zM244 664v-133.983h131v133.983h-131z" />
    <glyph glyph-name="questiondown.case" 
d="M301.038 -12.917q-50.9941 0 -87.9893 13.998t-61.9922 36.4951q-24.9971 22.498 -36.9961 52.4941q-11.998 29.9961 -11.998 60.9922q0 31.9961 6.99902 54.9932t19.9971 40.9951q12.999 17.998 30.9971 33.9961q17.9971 15.998 39.9951 33.9961l13.998 10.998
q17.998 13.998 28.9961 24.9971q10.999 10.999 16.998 22.4971q5.99902 11.499 7.99902 23.9971q2 12.499 2 30.4971v36.9951h89.9893v-36.9951q0 -29.9971 -4 -51.4941q-3.99902 -21.4971 -14.498 -40.4951t-29.9961 -37.4951q-19.498 -18.498 -50.4941 -41.4951
t-49.9941 -46.4941q-18.9971 -23.4971 -18.9971 -55.4932q0 -39.9951 30.9961 -61.9932q30.9961 -21.9971 77.9902 -21.9971q53.9932 0 85.4893 25.4971t42.4951 64.4922h92.9883q-6.99902 -34.9961 -24.9971 -66.4922q-17.9971 -31.4961 -45.9941 -55.4932
q-27.9961 -23.9971 -65.4922 -37.9951q-37.4951 -13.998 -84.4893 -13.998zM381.028 664v-133.983h-130.984v133.983h130.984z" />
    <glyph glyph-name="bar.case" 
d="M353 -78h-86v820h86v-820z" />
    <glyph glyph-name="brokenbar.case" 
d="M353 -78h-86v341h86v-341zM353 401h-86v341h86v-341z" />
    <glyph glyph-name="bullet.case" 
d="M110 332q0 41 16 77.5t43 63.5t63.5 43t77.5 16t77.5 -16t63.5 -43t43 -63.5t16 -77.5t-16 -77.5t-43 -63.5t-63.5 -43t-77.5 -16t-77.5 16t-63.5 43t-43 63.5t-16 77.5z" />
    <glyph glyph-name="periodcentered.case" 
d="M236 277v151h148v-151h-148z" />
    <glyph glyph-name="emdash.ss02" 
d="M615 296v-81h-610v81h610z" />
    <glyph glyph-name="emdash.ss02.case" 
d="M615 373v-81h-610v81h610z" />
    <glyph glyph-name="aringacute.ss03" 
d="M468 982l-109 -141h-94l109 141h94zM175 655q0 28 10.5 52.5t29 43t43 29t52.5 10.5t52.5 -10.5t43 -29t29 -43t10.5 -52.5t-10.5 -52.5t-29 -43t-43 -29t-52.5 -10.5t-52.5 10.5t-43 29t-29 43t-10.5 52.5zM245 655q0 -28 18.5 -46.5t46.5 -18.5t46.5 18.5t18.5 46.5
t-18.5 46.5t-46.5 18.5t-46.5 -18.5t-18.5 -46.5zM544 460v-460h-86v50q-27 -29 -71 -46t-96 -17q-60 0 -105.5 20t-77 54t-47.5 77.5t-16 91.5t16 91.5t47.5 77.5t77 54t105.5 20q52 0 96 -17t71 -46v50h86zM461 230q0 41 -14.5 71.5t-38 51t-53.5 30.5t-62 10
q-36 0 -65.5 -13t-51 -35t-33.5 -52t-12 -63t12 -63t33.5 -52t51 -35t65.5 -13q32 0 62 10t53.5 30t38 51t14.5 72z" />
  </font>
</defs>
</svg>
